<?xml version="1.0" encoding="utf-8" standalone="no"?>
<!DOCTYPE svg PUBLIC "-//W3C//DTD SVG 1.1//EN"
  "http://www.w3.org/Graphics/SVG/1.1/DTD/svg11.dtd">
<svg xmlns:xlink="http://www.w3.org/1999/xlink" width="916.704375pt" height="335.505625pt" viewBox="0 0 916.704375 335.505625" xmlns="http://www.w3.org/2000/svg" version="1.1">
 <metadata>
  <rdf:RDF xmlns:dc="http://purl.org/dc/elements/1.1/" xmlns:cc="http://creativecommons.org/ns#" xmlns:rdf="http://www.w3.org/1999/02/22-rdf-syntax-ns#">
   <cc:Work>
    <dc:type rdf:resource="http://purl.org/dc/dcmitype/StillImage"/>
    <dc:date>2024-01-04T14:34:34.844819</dc:date>
    <dc:format>image/svg+xml</dc:format>
    <dc:creator>
     <cc:Agent>
      <dc:title>Matplotlib v3.5.2, https://matplotlib.org/</dc:title>
     </cc:Agent>
    </dc:creator>
   </cc:Work>
  </rdf:RDF>
 </metadata>
 <defs>
  <style type="text/css">*{stroke-linejoin: round; stroke-linecap: butt}</style>
 </defs>
 <g id="figure_1">
  <g id="patch_1">
   <path d="M 0 335.505625 
L 916.704375 335.505625 
L 916.704375 0 
L 0 0 
L 0 335.505625 
z
" style="fill: none"/>
  </g>
  <g id="axes_1">
   <g id="patch_2">
    <path d="M 61.688125 284.4 
L 898.688125 284.4 
L 898.688125 7.2 
L 61.688125 7.2 
L 61.688125 284.4 
z
" style="fill: none"/>
   </g>
   <g id="matplotlib.axis_1">
    <g id="xtick_1">
     <g id="line2d_1">
      <defs>
       <path id="medbf469b91" d="M 0 0 
L 0 3.5 
" style="stroke: #000000; stroke-width: 0.8"/>
      </defs>
      <g>
       <use xlink:href="#medbf469b91" x="61.688125" y="284.4" style="stroke: #000000; stroke-width: 0.8"/>
      </g>
     </g>
     <g id="text_1">
      <!-- 0 -->
      <g transform="translate(56.28 304.317344)scale(0.17 -0.17)">
       <defs>
        <path id="DejaVuSans-30" d="M 2034 4250 
Q 1547 4250 1301 3770 
Q 1056 3291 1056 2328 
Q 1056 1369 1301 889 
Q 1547 409 2034 409 
Q 2525 409 2770 889 
Q 3016 1369 3016 2328 
Q 3016 3291 2770 3770 
Q 2525 4250 2034 4250 
z
M 2034 4750 
Q 2819 4750 3233 4129 
Q 3647 3509 3647 2328 
Q 3647 1150 3233 529 
Q 2819 -91 2034 -91 
Q 1250 -91 836 529 
Q 422 1150 422 2328 
Q 422 3509 836 4129 
Q 1250 4750 2034 4750 
z
" transform="scale(0.015625)"/>
       </defs>
       <use xlink:href="#DejaVuSans-30"/>
      </g>
     </g>
    </g>
    <g id="xtick_2">
     <g id="line2d_2">
      <g>
       <use xlink:href="#medbf469b91" x="154.688125" y="284.4" style="stroke: #000000; stroke-width: 0.8"/>
      </g>
     </g>
     <g id="text_2">
      <!-- 5 -->
      <g transform="translate(149.28 304.317344)scale(0.17 -0.17)">
       <defs>
        <path id="DejaVuSans-35" d="M 691 4666 
L 3169 4666 
L 3169 4134 
L 1269 4134 
L 1269 2991 
Q 1406 3038 1543 3061 
Q 1681 3084 1819 3084 
Q 2600 3084 3056 2656 
Q 3513 2228 3513 1497 
Q 3513 744 3044 326 
Q 2575 -91 1722 -91 
Q 1428 -91 1123 -41 
Q 819 9 494 109 
L 494 744 
Q 775 591 1075 516 
Q 1375 441 1709 441 
Q 2250 441 2565 725 
Q 2881 1009 2881 1497 
Q 2881 1984 2565 2268 
Q 2250 2553 1709 2553 
Q 1456 2553 1204 2497 
Q 953 2441 691 2322 
L 691 4666 
z
" transform="scale(0.015625)"/>
       </defs>
       <use xlink:href="#DejaVuSans-35"/>
      </g>
     </g>
    </g>
    <g id="xtick_3">
     <g id="line2d_3">
      <g>
       <use xlink:href="#medbf469b91" x="247.688125" y="284.4" style="stroke: #000000; stroke-width: 0.8"/>
      </g>
     </g>
     <g id="text_3">
      <!-- 10 -->
      <g transform="translate(236.871875 304.317344)scale(0.17 -0.17)">
       <defs>
        <path id="DejaVuSans-31" d="M 794 531 
L 1825 531 
L 1825 4091 
L 703 3866 
L 703 4441 
L 1819 4666 
L 2450 4666 
L 2450 531 
L 3481 531 
L 3481 0 
L 794 0 
L 794 531 
z
" transform="scale(0.015625)"/>
       </defs>
       <use xlink:href="#DejaVuSans-31"/>
       <use xlink:href="#DejaVuSans-30" x="63.623047"/>
      </g>
     </g>
    </g>
    <g id="xtick_4">
     <g id="line2d_4">
      <g>
       <use xlink:href="#medbf469b91" x="340.688125" y="284.4" style="stroke: #000000; stroke-width: 0.8"/>
      </g>
     </g>
     <g id="text_4">
      <!-- 15 -->
      <g transform="translate(329.871875 304.317344)scale(0.17 -0.17)">
       <use xlink:href="#DejaVuSans-31"/>
       <use xlink:href="#DejaVuSans-35" x="63.623047"/>
      </g>
     </g>
    </g>
    <g id="xtick_5">
     <g id="line2d_5">
      <g>
       <use xlink:href="#medbf469b91" x="433.688125" y="284.4" style="stroke: #000000; stroke-width: 0.8"/>
      </g>
     </g>
     <g id="text_5">
      <!-- 20 -->
      <g transform="translate(422.871875 304.317344)scale(0.17 -0.17)">
       <defs>
        <path id="DejaVuSans-32" d="M 1228 531 
L 3431 531 
L 3431 0 
L 469 0 
L 469 531 
Q 828 903 1448 1529 
Q 2069 2156 2228 2338 
Q 2531 2678 2651 2914 
Q 2772 3150 2772 3378 
Q 2772 3750 2511 3984 
Q 2250 4219 1831 4219 
Q 1534 4219 1204 4116 
Q 875 4013 500 3803 
L 500 4441 
Q 881 4594 1212 4672 
Q 1544 4750 1819 4750 
Q 2544 4750 2975 4387 
Q 3406 4025 3406 3419 
Q 3406 3131 3298 2873 
Q 3191 2616 2906 2266 
Q 2828 2175 2409 1742 
Q 1991 1309 1228 531 
z
" transform="scale(0.015625)"/>
       </defs>
       <use xlink:href="#DejaVuSans-32"/>
       <use xlink:href="#DejaVuSans-30" x="63.623047"/>
      </g>
     </g>
    </g>
    <g id="xtick_6">
     <g id="line2d_6">
      <g>
       <use xlink:href="#medbf469b91" x="526.688125" y="284.4" style="stroke: #000000; stroke-width: 0.8"/>
      </g>
     </g>
     <g id="text_6">
      <!-- 25 -->
      <g transform="translate(515.871875 304.317344)scale(0.17 -0.17)">
       <use xlink:href="#DejaVuSans-32"/>
       <use xlink:href="#DejaVuSans-35" x="63.623047"/>
      </g>
     </g>
    </g>
    <g id="xtick_7">
     <g id="line2d_7">
      <g>
       <use xlink:href="#medbf469b91" x="619.688125" y="284.4" style="stroke: #000000; stroke-width: 0.8"/>
      </g>
     </g>
     <g id="text_7">
      <!-- 30 -->
      <g transform="translate(608.871875 304.317344)scale(0.17 -0.17)">
       <defs>
        <path id="DejaVuSans-33" d="M 2597 2516 
Q 3050 2419 3304 2112 
Q 3559 1806 3559 1356 
Q 3559 666 3084 287 
Q 2609 -91 1734 -91 
Q 1441 -91 1130 -33 
Q 819 25 488 141 
L 488 750 
Q 750 597 1062 519 
Q 1375 441 1716 441 
Q 2309 441 2620 675 
Q 2931 909 2931 1356 
Q 2931 1769 2642 2001 
Q 2353 2234 1838 2234 
L 1294 2234 
L 1294 2753 
L 1863 2753 
Q 2328 2753 2575 2939 
Q 2822 3125 2822 3475 
Q 2822 3834 2567 4026 
Q 2313 4219 1838 4219 
Q 1578 4219 1281 4162 
Q 984 4106 628 3988 
L 628 4550 
Q 988 4650 1302 4700 
Q 1616 4750 1894 4750 
Q 2613 4750 3031 4423 
Q 3450 4097 3450 3541 
Q 3450 3153 3228 2886 
Q 3006 2619 2597 2516 
z
" transform="scale(0.015625)"/>
       </defs>
       <use xlink:href="#DejaVuSans-33"/>
       <use xlink:href="#DejaVuSans-30" x="63.623047"/>
      </g>
     </g>
    </g>
    <g id="xtick_8">
     <g id="line2d_8">
      <g>
       <use xlink:href="#medbf469b91" x="712.688125" y="284.4" style="stroke: #000000; stroke-width: 0.8"/>
      </g>
     </g>
     <g id="text_8">
      <!-- 35 -->
      <g transform="translate(701.871875 304.317344)scale(0.17 -0.17)">
       <use xlink:href="#DejaVuSans-33"/>
       <use xlink:href="#DejaVuSans-35" x="63.623047"/>
      </g>
     </g>
    </g>
    <g id="xtick_9">
     <g id="line2d_9">
      <g>
       <use xlink:href="#medbf469b91" x="805.688125" y="284.4" style="stroke: #000000; stroke-width: 0.8"/>
      </g>
     </g>
     <g id="text_9">
      <!-- 40 -->
      <g transform="translate(794.871875 304.317344)scale(0.17 -0.17)">
       <defs>
        <path id="DejaVuSans-34" d="M 2419 4116 
L 825 1625 
L 2419 1625 
L 2419 4116 
z
M 2253 4666 
L 3047 4666 
L 3047 1625 
L 3713 1625 
L 3713 1100 
L 3047 1100 
L 3047 0 
L 2419 0 
L 2419 1100 
L 313 1100 
L 313 1709 
L 2253 4666 
z
" transform="scale(0.015625)"/>
       </defs>
       <use xlink:href="#DejaVuSans-34"/>
       <use xlink:href="#DejaVuSans-30" x="63.623047"/>
      </g>
     </g>
    </g>
    <g id="xtick_10">
     <g id="line2d_10">
      <g>
       <use xlink:href="#medbf469b91" x="898.688125" y="284.4" style="stroke: #000000; stroke-width: 0.8"/>
      </g>
     </g>
     <g id="text_10">
      <!-- 45 -->
      <g transform="translate(887.871875 304.317344)scale(0.17 -0.17)">
       <use xlink:href="#DejaVuSans-34"/>
       <use xlink:href="#DejaVuSans-35" x="63.623047"/>
      </g>
     </g>
    </g>
    <g id="text_11">
     <!-- Time (h) -->
     <g transform="translate(444.670078 324.770156)scale(0.17 -0.17)">
      <defs>
       <path id="DejaVuSans-54" d="M -19 4666 
L 3928 4666 
L 3928 4134 
L 2272 4134 
L 2272 0 
L 1638 0 
L 1638 4134 
L -19 4134 
L -19 4666 
z
" transform="scale(0.015625)"/>
       <path id="DejaVuSans-69" d="M 603 3500 
L 1178 3500 
L 1178 0 
L 603 0 
L 603 3500 
z
M 603 4863 
L 1178 4863 
L 1178 4134 
L 603 4134 
L 603 4863 
z
" transform="scale(0.015625)"/>
       <path id="DejaVuSans-6d" d="M 3328 2828 
Q 3544 3216 3844 3400 
Q 4144 3584 4550 3584 
Q 5097 3584 5394 3201 
Q 5691 2819 5691 2113 
L 5691 0 
L 5113 0 
L 5113 2094 
Q 5113 2597 4934 2840 
Q 4756 3084 4391 3084 
Q 3944 3084 3684 2787 
Q 3425 2491 3425 1978 
L 3425 0 
L 2847 0 
L 2847 2094 
Q 2847 2600 2669 2842 
Q 2491 3084 2119 3084 
Q 1678 3084 1418 2786 
Q 1159 2488 1159 1978 
L 1159 0 
L 581 0 
L 581 3500 
L 1159 3500 
L 1159 2956 
Q 1356 3278 1631 3431 
Q 1906 3584 2284 3584 
Q 2666 3584 2933 3390 
Q 3200 3197 3328 2828 
z
" transform="scale(0.015625)"/>
       <path id="DejaVuSans-65" d="M 3597 1894 
L 3597 1613 
L 953 1613 
Q 991 1019 1311 708 
Q 1631 397 2203 397 
Q 2534 397 2845 478 
Q 3156 559 3463 722 
L 3463 178 
Q 3153 47 2828 -22 
Q 2503 -91 2169 -91 
Q 1331 -91 842 396 
Q 353 884 353 1716 
Q 353 2575 817 3079 
Q 1281 3584 2069 3584 
Q 2775 3584 3186 3129 
Q 3597 2675 3597 1894 
z
M 3022 2063 
Q 3016 2534 2758 2815 
Q 2500 3097 2075 3097 
Q 1594 3097 1305 2825 
Q 1016 2553 972 2059 
L 3022 2063 
z
" transform="scale(0.015625)"/>
       <path id="DejaVuSans-20" transform="scale(0.015625)"/>
       <path id="DejaVuSans-28" d="M 1984 4856 
Q 1566 4138 1362 3434 
Q 1159 2731 1159 2009 
Q 1159 1288 1364 580 
Q 1569 -128 1984 -844 
L 1484 -844 
Q 1016 -109 783 600 
Q 550 1309 550 2009 
Q 550 2706 781 3412 
Q 1013 4119 1484 4856 
L 1984 4856 
z
" transform="scale(0.015625)"/>
       <path id="DejaVuSans-68" d="M 3513 2113 
L 3513 0 
L 2938 0 
L 2938 2094 
Q 2938 2591 2744 2837 
Q 2550 3084 2163 3084 
Q 1697 3084 1428 2787 
Q 1159 2491 1159 1978 
L 1159 0 
L 581 0 
L 581 4863 
L 1159 4863 
L 1159 2956 
Q 1366 3272 1645 3428 
Q 1925 3584 2291 3584 
Q 2894 3584 3203 3211 
Q 3513 2838 3513 2113 
z
" transform="scale(0.015625)"/>
       <path id="DejaVuSans-29" d="M 513 4856 
L 1013 4856 
Q 1481 4119 1714 3412 
Q 1947 2706 1947 2009 
Q 1947 1309 1714 600 
Q 1481 -109 1013 -844 
L 513 -844 
Q 928 -128 1133 580 
Q 1338 1288 1338 2009 
Q 1338 2731 1133 3434 
Q 928 4138 513 4856 
z
" transform="scale(0.015625)"/>
      </defs>
      <use xlink:href="#DejaVuSans-54"/>
      <use xlink:href="#DejaVuSans-69" x="57.958984"/>
      <use xlink:href="#DejaVuSans-6d" x="85.742188"/>
      <use xlink:href="#DejaVuSans-65" x="183.154297"/>
      <use xlink:href="#DejaVuSans-20" x="244.677734"/>
      <use xlink:href="#DejaVuSans-28" x="276.464844"/>
      <use xlink:href="#DejaVuSans-68" x="315.478516"/>
      <use xlink:href="#DejaVuSans-29" x="378.857422"/>
     </g>
    </g>
   </g>
   <g id="matplotlib.axis_2">
    <g id="ytick_1">
     <g id="line2d_11">
      <defs>
       <path id="md42e5c71a2" d="M 0 0 
L -3.5 0 
" style="stroke: #000000; stroke-width: 0.8"/>
      </defs>
      <g>
       <use xlink:href="#md42e5c71a2" x="61.688125" y="284.4" style="stroke: #000000; stroke-width: 0.8"/>
      </g>
     </g>
     <g id="text_12">
      <!-- 0.0 -->
      <g transform="translate(27.652813 290.858672)scale(0.17 -0.17)">
       <defs>
        <path id="DejaVuSans-2e" d="M 684 794 
L 1344 794 
L 1344 0 
L 684 0 
L 684 794 
z
" transform="scale(0.015625)"/>
       </defs>
       <use xlink:href="#DejaVuSans-30"/>
       <use xlink:href="#DejaVuSans-2e" x="63.623047"/>
       <use xlink:href="#DejaVuSans-30" x="95.410156"/>
      </g>
     </g>
    </g>
    <g id="ytick_2">
     <g id="line2d_12">
      <g>
       <use xlink:href="#md42e5c71a2" x="61.688125" y="218.4" style="stroke: #000000; stroke-width: 0.8"/>
      </g>
     </g>
     <g id="text_13">
      <!-- 0.5 -->
      <g transform="translate(27.652813 224.858672)scale(0.17 -0.17)">
       <use xlink:href="#DejaVuSans-30"/>
       <use xlink:href="#DejaVuSans-2e" x="63.623047"/>
       <use xlink:href="#DejaVuSans-35" x="95.410156"/>
      </g>
     </g>
    </g>
    <g id="ytick_3">
     <g id="line2d_13">
      <g>
       <use xlink:href="#md42e5c71a2" x="61.688125" y="152.4" style="stroke: #000000; stroke-width: 0.8"/>
      </g>
     </g>
     <g id="text_14">
      <!-- 1.0 -->
      <g transform="translate(27.652813 158.858672)scale(0.17 -0.17)">
       <use xlink:href="#DejaVuSans-31"/>
       <use xlink:href="#DejaVuSans-2e" x="63.623047"/>
       <use xlink:href="#DejaVuSans-30" x="95.410156"/>
      </g>
     </g>
    </g>
    <g id="ytick_4">
     <g id="line2d_14">
      <g>
       <use xlink:href="#md42e5c71a2" x="61.688125" y="86.4" style="stroke: #000000; stroke-width: 0.8"/>
      </g>
     </g>
     <g id="text_15">
      <!-- 1.5 -->
      <g transform="translate(27.652813 92.858672)scale(0.17 -0.17)">
       <use xlink:href="#DejaVuSans-31"/>
       <use xlink:href="#DejaVuSans-2e" x="63.623047"/>
       <use xlink:href="#DejaVuSans-35" x="95.410156"/>
      </g>
     </g>
    </g>
    <g id="ytick_5">
     <g id="line2d_15">
      <g>
       <use xlink:href="#md42e5c71a2" x="61.688125" y="20.4" style="stroke: #000000; stroke-width: 0.8"/>
      </g>
     </g>
     <g id="text_16">
      <!-- 2.0 -->
      <g transform="translate(27.652813 26.858672)scale(0.17 -0.17)">
       <use xlink:href="#DejaVuSans-32"/>
       <use xlink:href="#DejaVuSans-2e" x="63.623047"/>
       <use xlink:href="#DejaVuSans-30" x="95.410156"/>
      </g>
     </g>
    </g>
    <g id="text_17">
     <!-- Growth rate (mm/h) -->
     <g transform="translate(20.117344 230.671172)rotate(-90)scale(0.17 -0.17)">
      <defs>
       <path id="DejaVuSans-47" d="M 3809 666 
L 3809 1919 
L 2778 1919 
L 2778 2438 
L 4434 2438 
L 4434 434 
Q 4069 175 3628 42 
Q 3188 -91 2688 -91 
Q 1594 -91 976 548 
Q 359 1188 359 2328 
Q 359 3472 976 4111 
Q 1594 4750 2688 4750 
Q 3144 4750 3555 4637 
Q 3966 4525 4313 4306 
L 4313 3634 
Q 3963 3931 3569 4081 
Q 3175 4231 2741 4231 
Q 1884 4231 1454 3753 
Q 1025 3275 1025 2328 
Q 1025 1384 1454 906 
Q 1884 428 2741 428 
Q 3075 428 3337 486 
Q 3600 544 3809 666 
z
" transform="scale(0.015625)"/>
       <path id="DejaVuSans-72" d="M 2631 2963 
Q 2534 3019 2420 3045 
Q 2306 3072 2169 3072 
Q 1681 3072 1420 2755 
Q 1159 2438 1159 1844 
L 1159 0 
L 581 0 
L 581 3500 
L 1159 3500 
L 1159 2956 
Q 1341 3275 1631 3429 
Q 1922 3584 2338 3584 
Q 2397 3584 2469 3576 
Q 2541 3569 2628 3553 
L 2631 2963 
z
" transform="scale(0.015625)"/>
       <path id="DejaVuSans-6f" d="M 1959 3097 
Q 1497 3097 1228 2736 
Q 959 2375 959 1747 
Q 959 1119 1226 758 
Q 1494 397 1959 397 
Q 2419 397 2687 759 
Q 2956 1122 2956 1747 
Q 2956 2369 2687 2733 
Q 2419 3097 1959 3097 
z
M 1959 3584 
Q 2709 3584 3137 3096 
Q 3566 2609 3566 1747 
Q 3566 888 3137 398 
Q 2709 -91 1959 -91 
Q 1206 -91 779 398 
Q 353 888 353 1747 
Q 353 2609 779 3096 
Q 1206 3584 1959 3584 
z
" transform="scale(0.015625)"/>
       <path id="DejaVuSans-77" d="M 269 3500 
L 844 3500 
L 1563 769 
L 2278 3500 
L 2956 3500 
L 3675 769 
L 4391 3500 
L 4966 3500 
L 4050 0 
L 3372 0 
L 2619 2869 
L 1863 0 
L 1184 0 
L 269 3500 
z
" transform="scale(0.015625)"/>
       <path id="DejaVuSans-74" d="M 1172 4494 
L 1172 3500 
L 2356 3500 
L 2356 3053 
L 1172 3053 
L 1172 1153 
Q 1172 725 1289 603 
Q 1406 481 1766 481 
L 2356 481 
L 2356 0 
L 1766 0 
Q 1100 0 847 248 
Q 594 497 594 1153 
L 594 3053 
L 172 3053 
L 172 3500 
L 594 3500 
L 594 4494 
L 1172 4494 
z
" transform="scale(0.015625)"/>
       <path id="DejaVuSans-61" d="M 2194 1759 
Q 1497 1759 1228 1600 
Q 959 1441 959 1056 
Q 959 750 1161 570 
Q 1363 391 1709 391 
Q 2188 391 2477 730 
Q 2766 1069 2766 1631 
L 2766 1759 
L 2194 1759 
z
M 3341 1997 
L 3341 0 
L 2766 0 
L 2766 531 
Q 2569 213 2275 61 
Q 1981 -91 1556 -91 
Q 1019 -91 701 211 
Q 384 513 384 1019 
Q 384 1609 779 1909 
Q 1175 2209 1959 2209 
L 2766 2209 
L 2766 2266 
Q 2766 2663 2505 2880 
Q 2244 3097 1772 3097 
Q 1472 3097 1187 3025 
Q 903 2953 641 2809 
L 641 3341 
Q 956 3463 1253 3523 
Q 1550 3584 1831 3584 
Q 2591 3584 2966 3190 
Q 3341 2797 3341 1997 
z
" transform="scale(0.015625)"/>
       <path id="DejaVuSans-2f" d="M 1625 4666 
L 2156 4666 
L 531 -594 
L 0 -594 
L 1625 4666 
z
" transform="scale(0.015625)"/>
      </defs>
      <use xlink:href="#DejaVuSans-47"/>
      <use xlink:href="#DejaVuSans-72" x="77.490234"/>
      <use xlink:href="#DejaVuSans-6f" x="116.353516"/>
      <use xlink:href="#DejaVuSans-77" x="177.535156"/>
      <use xlink:href="#DejaVuSans-74" x="259.322266"/>
      <use xlink:href="#DejaVuSans-68" x="298.53125"/>
      <use xlink:href="#DejaVuSans-20" x="361.910156"/>
      <use xlink:href="#DejaVuSans-72" x="393.697266"/>
      <use xlink:href="#DejaVuSans-61" x="434.810547"/>
      <use xlink:href="#DejaVuSans-74" x="496.089844"/>
      <use xlink:href="#DejaVuSans-65" x="535.298828"/>
      <use xlink:href="#DejaVuSans-20" x="596.822266"/>
      <use xlink:href="#DejaVuSans-28" x="628.609375"/>
      <use xlink:href="#DejaVuSans-6d" x="667.623047"/>
      <use xlink:href="#DejaVuSans-6d" x="765.035156"/>
      <use xlink:href="#DejaVuSans-2f" x="862.447266"/>
      <use xlink:href="#DejaVuSans-68" x="896.138672"/>
      <use xlink:href="#DejaVuSans-29" x="959.517578"/>
     </g>
    </g>
   </g>
   <g id="line2d_16">
    <path d="M 64.901796 312.169515 
L 68.322131 276.930564 
L 68.440967 275.719225 
L 72.026619 238.551493 
L 72.155796 237.535763 
L 72.786131 233.402248 
L 73.297631 231.206535 
L 73.669631 230.362079 
L 73.933119 230.191205 
L 74.144954 230.296192 
L 74.429125 230.754098 
L 75.731125 233.375929 
L 75.953283 233.27988 
L 76.180631 232.896792 
L 76.30979 232.577276 
L 76.743783 230.998239 
L 78.474625 223.685614 
L 79.001619 222.46898 
L 79.177296 222.13667 
L 80.644631 218.994263 
L 82.63896 213.345026 
L 83.822125 208.955747 
L 86.612125 197.484165 
L 87.175296 196.325225 
L 87.722954 195.626514 
L 88.012296 195.34129 
L 88.735631 194.428462 
L 89.371119 193.122457 
L 90.879783 189.774126 
L 92.114619 187.799214 
L 95.116454 182.902227 
L 96.650954 180.847033 
L 98.12346 178.888119 
L 98.81579 177.211437 
L 100.381296 172.887201 
L 102.101796 168.93699 
L 102.969783 167.054303 
L 103.589796 166.052549 
L 104.54046 164.53806 
L 105.13979 162.782047 
L 106.105967 158.887183 
L 106.793125 156.492319 
L 107.552619 154.538294 
L 108.942467 150.999335 
L 110.99879 144.479186 
L 113.334131 137.74897 
L 116.082783 128.455939 
L 116.599454 127.575851 
L 117.720625 125.965958 
L 118.25279 124.264072 
L 119.193131 120.093441 
L 119.890631 117.346564 
L 120.48996 115.609184 
L 121.378631 113.694358 
L 122.138125 111.625538 
L 123.22829 107.671647 
L 124.127283 104.535404 
L 126.307631 97.197494 
L 127.79046 91.942492 
L 127.919619 91.46405 
L 129.211296 86.871363 
L 129.355967 86.429154 
L 131.246954 80.159185 
L 132.445631 75.689881 
L 133.215467 73.533593 
L 135.679967 66.682974 
L 136.491131 63.181394 
L 138.056619 54.593952 
L 142.164131 30.995616 
L 142.288119 30.287709 
L 143.869119 21.208024 
L 143.869119 21.208024 
" clip-path="url(#p5aa82021a6)" style="fill: none; stroke: #474d6b; stroke-width: 4; stroke-linecap: square"/>
   </g>
   <g id="patch_3">
    <path d="M 61.688125 284.4 
L 61.688125 7.2 
" style="fill: none; stroke: #000000; stroke-width: 0.8; stroke-linejoin: miter; stroke-linecap: square"/>
   </g>
   <g id="patch_4">
    <path d="M 898.688125 284.4 
L 898.688125 7.2 
" style="fill: none; stroke: #000000; stroke-width: 0.8; stroke-linejoin: miter; stroke-linecap: square"/>
   </g>
   <g id="patch_5">
    <path d="M 61.688125 284.4 
L 898.688125 284.4 
" style="fill: none; stroke: #000000; stroke-width: 0.8; stroke-linejoin: miter; stroke-linecap: square"/>
   </g>
   <g id="patch_6">
    <path d="M 61.688125 7.2 
L 898.688125 7.2 
" style="fill: none; stroke: #000000; stroke-width: 0.8; stroke-linejoin: miter; stroke-linecap: square"/>
   </g>
   <g id="line2d_17">
    <path d="M 77.255283 276.135053 
L 91.866625 268.930584 
L 93.137619 266.936902 
L 94.336296 265.442921 
L 95.452296 264.382844 
L 96.433967 263.719511 
L 97.23996 263.437073 
L 98.097625 263.382959 
L 99.14129 263.545898 
L 100.386467 263.964667 
L 102.153467 264.813778 
L 105.42396 266.434184 
L 106.979125 266.958381 
L 108.637631 267.284419 
L 110.146296 267.313492 
L 111.778967 267.104914 
L 113.597619 266.641429 
L 115.777967 265.830819 
L 118.691954 264.506559 
L 121.64729 263.189759 
L 125.362119 262.085727 
L 126.865631 261.921314 
L 128.916783 261.850521 
L 131.019625 261.753898 
L 133.954296 261.429308 
L 136.837296 260.913695 
L 143.610783 259.535086 
L 145.067796 259.4632 
L 148.601796 259.607727 
L 151.195454 259.588095 
L 152.698967 259.387708 
L 154.414296 258.977975 
L 157.664125 257.955727 
L 161.27046 256.837467 
L 163.26996 256.468463 
L 164.85096 256.375232 
L 167.005454 256.485943 
L 170.172625 256.928737 
L 175.02929 257.686095 
L 176.56379 257.684927 
L 178.744119 257.431892 
L 181.001954 256.944838 
L 183.879783 256.390762 
L 186.034296 256.24673 
L 189.35646 256.279194 
L 191.16996 256.486127 
L 193.618967 257.009378 
L 196.393454 257.617054 
L 197.95379 257.72819 
L 199.35396 257.596311 
L 201.193296 257.169968 
L 203.58029 256.380356 
L 205.967283 255.687473 
L 207.501783 255.519937 
L 209.547783 255.564978 
L 211.170131 255.811225 
L 216.130119 256.680946 
L 218.021125 256.647937 
L 219.76229 256.461314 
L 225.652296 255.819175 
L 227.884296 255.84353 
L 230.534796 256.087162 
L 234.45629 256.368248 
L 236.114796 256.222635 
L 238.73946 255.708508 
L 243.565119 254.669695 
L 246.210467 254.411263 
L 248.809296 254.427803 
L 251.067131 254.69753 
L 257.112131 255.631797 
L 259.24079 255.649429 
L 275.133467 254.896686 
L 281.023454 254.99141 
L 288.07079 254.709949 
L 290.509454 254.842032 
L 301.617783 255.272444 
L 303.121296 255.110311 
L 305.807954 254.469556 
L 309.104283 253.701321 
L 310.323625 253.638521 
L 312.007967 253.733365 
L 314.033283 254.081663 
L 315.92429 254.722546 
L 318.781454 255.672495 
L 320.38829 255.917117 
L 321.659283 255.885517 
L 323.50896 255.607657 
L 330.003467 254.39553 
L 332.674631 254.218762 
L 334.875625 254.365987 
L 339.442967 254.733549 
L 341.395967 254.615549 
L 343.26629 254.283206 
L 344.950631 253.999092 
L 346.769283 253.930686 
L 348.634454 254.069575 
L 350.556467 254.411638 
L 353.253467 254.85 
L 359.391467 255.367073 
L 364.785467 255.737321 
L 369.223631 255.52193 
L 370.804631 255.058857 
L 374.617631 253.859232 
L 375.940296 253.732971 
L 377.237125 253.814121 
L 378.756131 254.189702 
L 381.949119 255.081086 
L 383.762619 255.41254 
L 387.058967 255.737625 
L 390.691119 255.760762 
L 396.193631 255.588317 
L 402.584796 256.023556 
L 405.126783 255.913111 
L 407.72046 255.874622 
L 411.95196 255.875492 
L 417.459625 255.911644 
L 419.48496 256.075752 
L 422.626296 256.362089 
L 426.490967 256.81993 
L 431.419967 257.483346 
L 434.514783 257.500273 
L 437.082625 257.630057 
L 441.469119 258.078571 
L 443.881967 258.031949 
L 447.229967 258.063359 
L 450.91379 258.366432 
L 459.898631 259.130279 
L 469.369119 260.468978 
L 472.598283 260.625746 
L 475.114454 260.568527 
L 480.12096 260.392641 
L 485.261796 260.43346 
L 490.562796 260.4344 
L 498.34896 260.009848 
L 510.237467 259.957289 
L 513.68879 259.644883 
L 523.887783 258.007371 
L 526.254131 257.429892 
L 528.310454 257.059448 
L 529.943125 257.000578 
L 531.865119 257.1392 
L 535.213119 257.382368 
L 549.152796 257.574679 
L 552.65579 257.69706 
L 557.383296 257.813943 
L 564.058631 258.439657 
L 573.038283 259.037587 
L 577.316283 259.631568 
L 582.224619 260.805765 
L 583.872783 260.930616 
L 585.686283 260.828051 
L 589.711119 260.547987 
L 591.917283 260.579994 
L 597.600625 260.983556 
L 600.03929 261.115619 
L 614.78496 260.903632 
L 618.287954 260.62134 
L 623.464967 260.505232 
L 626.50296 260.362851 
L 631.871125 260.022965 
L 635.66346 259.748705 
L 643.816454 258.992273 
L 661.760283 258.99713 
L 667.779467 258.835708 
L 672.320954 258.923371 
L 675.255625 258.733714 
L 678.970454 258.613797 
L 682.680131 258.811016 
L 696.464796 259.595346 
L 700.799619 259.341803 
L 704.845119 259.161822 
L 720.639625 259.01221 
L 724.948631 259.051194 
L 729.154296 259.345962 
L 735.183783 259.825619 
L 744.00329 260.235149 
L 752.993283 260.696203 
L 757.741454 260.262806 
L 764.204954 259.789657 
L 772.673125 259.908743 
L 774.357467 260.361676 
L 777.447131 261.185276 
L 779.002296 261.33233 
L 780.717625 261.27334 
L 782.582796 260.997289 
L 785.233296 260.674165 
L 788.312619 260.294343 
L 794.951796 259.27633 
L 799.33829 258.956762 
L 802.91879 258.671333 
L 808.095783 258.34873 
L 811.547125 258.441848 
L 818.423954 258.631651 
L 820.707625 258.699829 
L 824.184783 259.131181 
L 826.055125 259.25979 
L 827.171125 259.060584 
L 828.72629 258.513257 
L 831.604119 257.501695 
L 833.24196 257.297219 
L 834.745454 257.375784 
L 836.58996 257.708229 
L 838.610125 258.017644 
L 845.502467 258.566502 
L 848.380296 258.878558 
L 874.735454 260.463339 
L 874.735454 260.463339 
" clip-path="url(#p5aa82021a6)" style="fill: none; stroke: #3498b0; stroke-width: 4; stroke-linecap: square"/>
   </g>
   <g id="line2d_18">
    <path d="M 61.688125 258 
L 898.688125 258 
" clip-path="url(#p5aa82021a6)" style="fill: none; stroke-dasharray: 11.1,4.8; stroke-dashoffset: 0; stroke: #474d6b; stroke-opacity: 0.501961; stroke-width: 3"/>
   </g>
   <g id="legend_1">
    <g id="line2d_19">
     <path d="M 651.90125 29.467344 
L 668.90125 29.467344 
L 685.90125 29.467344 
" style="fill: none; stroke: #474d6b; stroke-width: 4; stroke-linecap: square"/>
    </g>
    <g id="text_18">
     <!-- w/o feedback -->
     <g transform="translate(699.50125 35.417344)scale(0.17 -0.17)">
      <defs>
       <path id="DejaVuSans-66" d="M 2375 4863 
L 2375 4384 
L 1825 4384 
Q 1516 4384 1395 4259 
Q 1275 4134 1275 3809 
L 1275 3500 
L 2222 3500 
L 2222 3053 
L 1275 3053 
L 1275 0 
L 697 0 
L 697 3053 
L 147 3053 
L 147 3500 
L 697 3500 
L 697 3744 
Q 697 4328 969 4595 
Q 1241 4863 1831 4863 
L 2375 4863 
z
" transform="scale(0.015625)"/>
       <path id="DejaVuSans-64" d="M 2906 2969 
L 2906 4863 
L 3481 4863 
L 3481 0 
L 2906 0 
L 2906 525 
Q 2725 213 2448 61 
Q 2172 -91 1784 -91 
Q 1150 -91 751 415 
Q 353 922 353 1747 
Q 353 2572 751 3078 
Q 1150 3584 1784 3584 
Q 2172 3584 2448 3432 
Q 2725 3281 2906 2969 
z
M 947 1747 
Q 947 1113 1208 752 
Q 1469 391 1925 391 
Q 2381 391 2643 752 
Q 2906 1113 2906 1747 
Q 2906 2381 2643 2742 
Q 2381 3103 1925 3103 
Q 1469 3103 1208 2742 
Q 947 2381 947 1747 
z
" transform="scale(0.015625)"/>
       <path id="DejaVuSans-62" d="M 3116 1747 
Q 3116 2381 2855 2742 
Q 2594 3103 2138 3103 
Q 1681 3103 1420 2742 
Q 1159 2381 1159 1747 
Q 1159 1113 1420 752 
Q 1681 391 2138 391 
Q 2594 391 2855 752 
Q 3116 1113 3116 1747 
z
M 1159 2969 
Q 1341 3281 1617 3432 
Q 1894 3584 2278 3584 
Q 2916 3584 3314 3078 
Q 3713 2572 3713 1747 
Q 3713 922 3314 415 
Q 2916 -91 2278 -91 
Q 1894 -91 1617 61 
Q 1341 213 1159 525 
L 1159 0 
L 581 0 
L 581 4863 
L 1159 4863 
L 1159 2969 
z
" transform="scale(0.015625)"/>
       <path id="DejaVuSans-63" d="M 3122 3366 
L 3122 2828 
Q 2878 2963 2633 3030 
Q 2388 3097 2138 3097 
Q 1578 3097 1268 2742 
Q 959 2388 959 1747 
Q 959 1106 1268 751 
Q 1578 397 2138 397 
Q 2388 397 2633 464 
Q 2878 531 3122 666 
L 3122 134 
Q 2881 22 2623 -34 
Q 2366 -91 2075 -91 
Q 1284 -91 818 406 
Q 353 903 353 1747 
Q 353 2603 823 3093 
Q 1294 3584 2113 3584 
Q 2378 3584 2631 3529 
Q 2884 3475 3122 3366 
z
" transform="scale(0.015625)"/>
       <path id="DejaVuSans-6b" d="M 581 4863 
L 1159 4863 
L 1159 1991 
L 2875 3500 
L 3609 3500 
L 1753 1863 
L 3688 0 
L 2938 0 
L 1159 1709 
L 1159 0 
L 581 0 
L 581 4863 
z
" transform="scale(0.015625)"/>
      </defs>
      <use xlink:href="#DejaVuSans-77"/>
      <use xlink:href="#DejaVuSans-2f" x="81.787109"/>
      <use xlink:href="#DejaVuSans-6f" x="115.478516"/>
      <use xlink:href="#DejaVuSans-20" x="176.660156"/>
      <use xlink:href="#DejaVuSans-66" x="208.447266"/>
      <use xlink:href="#DejaVuSans-65" x="243.652344"/>
      <use xlink:href="#DejaVuSans-65" x="305.175781"/>
      <use xlink:href="#DejaVuSans-64" x="366.699219"/>
      <use xlink:href="#DejaVuSans-62" x="430.175781"/>
      <use xlink:href="#DejaVuSans-61" x="493.652344"/>
      <use xlink:href="#DejaVuSans-63" x="554.931641"/>
      <use xlink:href="#DejaVuSans-6b" x="609.912109"/>
     </g>
    </g>
    <g id="line2d_20">
     <path d="M 651.90125 54.420156 
L 668.90125 54.420156 
L 685.90125 54.420156 
" style="fill: none; stroke: #3498b0; stroke-width: 4; stroke-linecap: square"/>
    </g>
    <g id="text_19">
     <!-- with feedback control -->
     <g transform="translate(699.50125 60.370156)scale(0.17 -0.17)">
      <defs>
       <path id="DejaVuSans-6e" d="M 3513 2113 
L 3513 0 
L 2938 0 
L 2938 2094 
Q 2938 2591 2744 2837 
Q 2550 3084 2163 3084 
Q 1697 3084 1428 2787 
Q 1159 2491 1159 1978 
L 1159 0 
L 581 0 
L 581 3500 
L 1159 3500 
L 1159 2956 
Q 1366 3272 1645 3428 
Q 1925 3584 2291 3584 
Q 2894 3584 3203 3211 
Q 3513 2838 3513 2113 
z
" transform="scale(0.015625)"/>
       <path id="DejaVuSans-6c" d="M 603 4863 
L 1178 4863 
L 1178 0 
L 603 0 
L 603 4863 
z
" transform="scale(0.015625)"/>
      </defs>
      <use xlink:href="#DejaVuSans-77"/>
      <use xlink:href="#DejaVuSans-69" x="81.787109"/>
      <use xlink:href="#DejaVuSans-74" x="109.570312"/>
      <use xlink:href="#DejaVuSans-68" x="148.779297"/>
      <use xlink:href="#DejaVuSans-20" x="212.158203"/>
      <use xlink:href="#DejaVuSans-66" x="243.945312"/>
      <use xlink:href="#DejaVuSans-65" x="279.150391"/>
      <use xlink:href="#DejaVuSans-65" x="340.673828"/>
      <use xlink:href="#DejaVuSans-64" x="402.197266"/>
      <use xlink:href="#DejaVuSans-62" x="465.673828"/>
      <use xlink:href="#DejaVuSans-61" x="529.150391"/>
      <use xlink:href="#DejaVuSans-63" x="590.429688"/>
      <use xlink:href="#DejaVuSans-6b" x="645.410156"/>
      <use xlink:href="#DejaVuSans-20" x="703.320312"/>
      <use xlink:href="#DejaVuSans-63" x="735.107422"/>
      <use xlink:href="#DejaVuSans-6f" x="790.087891"/>
      <use xlink:href="#DejaVuSans-6e" x="851.269531"/>
      <use xlink:href="#DejaVuSans-74" x="914.648438"/>
      <use xlink:href="#DejaVuSans-72" x="953.857422"/>
      <use xlink:href="#DejaVuSans-6f" x="992.720703"/>
      <use xlink:href="#DejaVuSans-6c" x="1053.902344"/>
     </g>
    </g>
    <g id="line2d_21">
     <path d="M 651.90125 79.372969 
L 668.90125 79.372969 
L 685.90125 79.372969 
" style="fill: none; stroke-dasharray: 11.1,4.8; stroke-dashoffset: 0; stroke: #474d6b; stroke-opacity: 0.501961; stroke-width: 3"/>
    </g>
    <g id="text_20">
     <!-- Set value (0.2 mm/h) -->
     <g transform="translate(699.50125 85.322969)scale(0.17 -0.17)">
      <defs>
       <path id="DejaVuSans-53" d="M 3425 4513 
L 3425 3897 
Q 3066 4069 2747 4153 
Q 2428 4238 2131 4238 
Q 1616 4238 1336 4038 
Q 1056 3838 1056 3469 
Q 1056 3159 1242 3001 
Q 1428 2844 1947 2747 
L 2328 2669 
Q 3034 2534 3370 2195 
Q 3706 1856 3706 1288 
Q 3706 609 3251 259 
Q 2797 -91 1919 -91 
Q 1588 -91 1214 -16 
Q 841 59 441 206 
L 441 856 
Q 825 641 1194 531 
Q 1563 422 1919 422 
Q 2459 422 2753 634 
Q 3047 847 3047 1241 
Q 3047 1584 2836 1778 
Q 2625 1972 2144 2069 
L 1759 2144 
Q 1053 2284 737 2584 
Q 422 2884 422 3419 
Q 422 4038 858 4394 
Q 1294 4750 2059 4750 
Q 2388 4750 2728 4690 
Q 3069 4631 3425 4513 
z
" transform="scale(0.015625)"/>
       <path id="DejaVuSans-76" d="M 191 3500 
L 800 3500 
L 1894 563 
L 2988 3500 
L 3597 3500 
L 2284 0 
L 1503 0 
L 191 3500 
z
" transform="scale(0.015625)"/>
       <path id="DejaVuSans-75" d="M 544 1381 
L 544 3500 
L 1119 3500 
L 1119 1403 
Q 1119 906 1312 657 
Q 1506 409 1894 409 
Q 2359 409 2629 706 
Q 2900 1003 2900 1516 
L 2900 3500 
L 3475 3500 
L 3475 0 
L 2900 0 
L 2900 538 
Q 2691 219 2414 64 
Q 2138 -91 1772 -91 
Q 1169 -91 856 284 
Q 544 659 544 1381 
z
M 1991 3584 
L 1991 3584 
z
" transform="scale(0.015625)"/>
      </defs>
      <use xlink:href="#DejaVuSans-53"/>
      <use xlink:href="#DejaVuSans-65" x="63.476562"/>
      <use xlink:href="#DejaVuSans-74" x="125"/>
      <use xlink:href="#DejaVuSans-20" x="164.208984"/>
      <use xlink:href="#DejaVuSans-76" x="195.996094"/>
      <use xlink:href="#DejaVuSans-61" x="255.175781"/>
      <use xlink:href="#DejaVuSans-6c" x="316.455078"/>
      <use xlink:href="#DejaVuSans-75" x="344.238281"/>
      <use xlink:href="#DejaVuSans-65" x="407.617188"/>
      <use xlink:href="#DejaVuSans-20" x="469.140625"/>
      <use xlink:href="#DejaVuSans-28" x="500.927734"/>
      <use xlink:href="#DejaVuSans-30" x="539.941406"/>
      <use xlink:href="#DejaVuSans-2e" x="603.564453"/>
      <use xlink:href="#DejaVuSans-32" x="635.351562"/>
      <use xlink:href="#DejaVuSans-20" x="698.974609"/>
      <use xlink:href="#DejaVuSans-6d" x="730.761719"/>
      <use xlink:href="#DejaVuSans-6d" x="828.173828"/>
      <use xlink:href="#DejaVuSans-2f" x="925.585938"/>
      <use xlink:href="#DejaVuSans-68" x="959.277344"/>
      <use xlink:href="#DejaVuSans-29" x="1022.65625"/>
     </g>
    </g>
   </g>
  </g>
 </g>
 <defs>
  <clipPath id="p5aa82021a6">
   <rect x="61.688125" y="7.2" width="837" height="277.2"/>
  </clipPath>
 </defs>
</svg>
