<?xml version="1.0" encoding="utf-8" standalone="no"?>
<!DOCTYPE svg PUBLIC "-//W3C//DTD SVG 1.1//EN"
  "http://www.w3.org/Graphics/SVG/1.1/DTD/svg11.dtd">
<svg xmlns:xlink="http://www.w3.org/1999/xlink" width="712.104375pt" height="341.964297pt" viewBox="0 0 712.104375 341.964297" xmlns="http://www.w3.org/2000/svg" version="1.1">
 <metadata>
  <rdf:RDF xmlns:dc="http://purl.org/dc/elements/1.1/" xmlns:cc="http://creativecommons.org/ns#" xmlns:rdf="http://www.w3.org/1999/02/22-rdf-syntax-ns#">
   <cc:Work>
    <dc:type rdf:resource="http://purl.org/dc/dcmitype/StillImage"/>
    <dc:date>2024-01-04T16:00:09.573523</dc:date>
    <dc:format>image/svg+xml</dc:format>
    <dc:creator>
     <cc:Agent>
      <dc:title>Matplotlib v3.5.2, https://matplotlib.org/</dc:title>
     </cc:Agent>
    </dc:creator>
   </cc:Work>
  </rdf:RDF>
 </metadata>
 <defs>
  <style type="text/css">*{stroke-linejoin: round; stroke-linecap: butt}</style>
 </defs>
 <g id="figure_1">
  <g id="patch_1">
   <path d="M 0 341.964297 
L 712.104375 341.964297 
L 712.104375 0 
L 0 0 
L 0 341.964297 
z
" style="fill: none"/>
  </g>
  <g id="axes_1">
   <g id="patch_2">
    <path d="M 61.688125 290.858672 
L 694.088125 290.858672 
L 694.088125 13.658672 
L 61.688125 13.658672 
L 61.688125 290.858672 
z
" style="fill: none"/>
   </g>
   <g id="matplotlib.axis_1">
    <g id="xtick_1">
     <g id="line2d_1">
      <defs>
       <path id="m71f15483af" d="M 0 0 
L 0 3.5 
" style="stroke: #000000; stroke-width: 0.8"/>
      </defs>
      <g>
       <use xlink:href="#m71f15483af" x="61.688125" y="290.858672" style="stroke: #000000; stroke-width: 0.8"/>
      </g>
     </g>
     <g id="text_1">
      <!-- 0 -->
      <g transform="translate(56.28 310.776016)scale(0.17 -0.17)">
       <defs>
        <path id="DejaVuSans-30" d="M 2034 4250 
Q 1547 4250 1301 3770 
Q 1056 3291 1056 2328 
Q 1056 1369 1301 889 
Q 1547 409 2034 409 
Q 2525 409 2770 889 
Q 3016 1369 3016 2328 
Q 3016 3291 2770 3770 
Q 2525 4250 2034 4250 
z
M 2034 4750 
Q 2819 4750 3233 4129 
Q 3647 3509 3647 2328 
Q 3647 1150 3233 529 
Q 2819 -91 2034 -91 
Q 1250 -91 836 529 
Q 422 1150 422 2328 
Q 422 3509 836 4129 
Q 1250 4750 2034 4750 
z
" transform="scale(0.015625)"/>
       </defs>
       <use xlink:href="#DejaVuSans-30"/>
      </g>
     </g>
    </g>
    <g id="xtick_2">
     <g id="line2d_2">
      <g>
       <use xlink:href="#m71f15483af" x="124.928125" y="290.858672" style="stroke: #000000; stroke-width: 0.8"/>
      </g>
     </g>
     <g id="text_2">
      <!-- 5 -->
      <g transform="translate(119.52 310.776016)scale(0.17 -0.17)">
       <defs>
        <path id="DejaVuSans-35" d="M 691 4666 
L 3169 4666 
L 3169 4134 
L 1269 4134 
L 1269 2991 
Q 1406 3038 1543 3061 
Q 1681 3084 1819 3084 
Q 2600 3084 3056 2656 
Q 3513 2228 3513 1497 
Q 3513 744 3044 326 
Q 2575 -91 1722 -91 
Q 1428 -91 1123 -41 
Q 819 9 494 109 
L 494 744 
Q 775 591 1075 516 
Q 1375 441 1709 441 
Q 2250 441 2565 725 
Q 2881 1009 2881 1497 
Q 2881 1984 2565 2268 
Q 2250 2553 1709 2553 
Q 1456 2553 1204 2497 
Q 953 2441 691 2322 
L 691 4666 
z
" transform="scale(0.015625)"/>
       </defs>
       <use xlink:href="#DejaVuSans-35"/>
      </g>
     </g>
    </g>
    <g id="xtick_3">
     <g id="line2d_3">
      <g>
       <use xlink:href="#m71f15483af" x="188.168125" y="290.858672" style="stroke: #000000; stroke-width: 0.8"/>
      </g>
     </g>
     <g id="text_3">
      <!-- 10 -->
      <g transform="translate(177.351875 310.776016)scale(0.17 -0.17)">
       <defs>
        <path id="DejaVuSans-31" d="M 794 531 
L 1825 531 
L 1825 4091 
L 703 3866 
L 703 4441 
L 1819 4666 
L 2450 4666 
L 2450 531 
L 3481 531 
L 3481 0 
L 794 0 
L 794 531 
z
" transform="scale(0.015625)"/>
       </defs>
       <use xlink:href="#DejaVuSans-31"/>
       <use xlink:href="#DejaVuSans-30" x="63.623047"/>
      </g>
     </g>
    </g>
    <g id="xtick_4">
     <g id="line2d_4">
      <g>
       <use xlink:href="#m71f15483af" x="251.408125" y="290.858672" style="stroke: #000000; stroke-width: 0.8"/>
      </g>
     </g>
     <g id="text_4">
      <!-- 15 -->
      <g transform="translate(240.591875 310.776016)scale(0.17 -0.17)">
       <use xlink:href="#DejaVuSans-31"/>
       <use xlink:href="#DejaVuSans-35" x="63.623047"/>
      </g>
     </g>
    </g>
    <g id="xtick_5">
     <g id="line2d_5">
      <g>
       <use xlink:href="#m71f15483af" x="314.648125" y="290.858672" style="stroke: #000000; stroke-width: 0.8"/>
      </g>
     </g>
     <g id="text_5">
      <!-- 20 -->
      <g transform="translate(303.831875 310.776016)scale(0.17 -0.17)">
       <defs>
        <path id="DejaVuSans-32" d="M 1228 531 
L 3431 531 
L 3431 0 
L 469 0 
L 469 531 
Q 828 903 1448 1529 
Q 2069 2156 2228 2338 
Q 2531 2678 2651 2914 
Q 2772 3150 2772 3378 
Q 2772 3750 2511 3984 
Q 2250 4219 1831 4219 
Q 1534 4219 1204 4116 
Q 875 4013 500 3803 
L 500 4441 
Q 881 4594 1212 4672 
Q 1544 4750 1819 4750 
Q 2544 4750 2975 4387 
Q 3406 4025 3406 3419 
Q 3406 3131 3298 2873 
Q 3191 2616 2906 2266 
Q 2828 2175 2409 1742 
Q 1991 1309 1228 531 
z
" transform="scale(0.015625)"/>
       </defs>
       <use xlink:href="#DejaVuSans-32"/>
       <use xlink:href="#DejaVuSans-30" x="63.623047"/>
      </g>
     </g>
    </g>
    <g id="xtick_6">
     <g id="line2d_6">
      <g>
       <use xlink:href="#m71f15483af" x="377.888125" y="290.858672" style="stroke: #000000; stroke-width: 0.8"/>
      </g>
     </g>
     <g id="text_6">
      <!-- 25 -->
      <g transform="translate(367.071875 310.776016)scale(0.17 -0.17)">
       <use xlink:href="#DejaVuSans-32"/>
       <use xlink:href="#DejaVuSans-35" x="63.623047"/>
      </g>
     </g>
    </g>
    <g id="xtick_7">
     <g id="line2d_7">
      <g>
       <use xlink:href="#m71f15483af" x="441.128125" y="290.858672" style="stroke: #000000; stroke-width: 0.8"/>
      </g>
     </g>
     <g id="text_7">
      <!-- 30 -->
      <g transform="translate(430.311875 310.776016)scale(0.17 -0.17)">
       <defs>
        <path id="DejaVuSans-33" d="M 2597 2516 
Q 3050 2419 3304 2112 
Q 3559 1806 3559 1356 
Q 3559 666 3084 287 
Q 2609 -91 1734 -91 
Q 1441 -91 1130 -33 
Q 819 25 488 141 
L 488 750 
Q 750 597 1062 519 
Q 1375 441 1716 441 
Q 2309 441 2620 675 
Q 2931 909 2931 1356 
Q 2931 1769 2642 2001 
Q 2353 2234 1838 2234 
L 1294 2234 
L 1294 2753 
L 1863 2753 
Q 2328 2753 2575 2939 
Q 2822 3125 2822 3475 
Q 2822 3834 2567 4026 
Q 2313 4219 1838 4219 
Q 1578 4219 1281 4162 
Q 984 4106 628 3988 
L 628 4550 
Q 988 4650 1302 4700 
Q 1616 4750 1894 4750 
Q 2613 4750 3031 4423 
Q 3450 4097 3450 3541 
Q 3450 3153 3228 2886 
Q 3006 2619 2597 2516 
z
" transform="scale(0.015625)"/>
       </defs>
       <use xlink:href="#DejaVuSans-33"/>
       <use xlink:href="#DejaVuSans-30" x="63.623047"/>
      </g>
     </g>
    </g>
    <g id="xtick_8">
     <g id="line2d_8">
      <g>
       <use xlink:href="#m71f15483af" x="504.368125" y="290.858672" style="stroke: #000000; stroke-width: 0.8"/>
      </g>
     </g>
     <g id="text_8">
      <!-- 35 -->
      <g transform="translate(493.551875 310.776016)scale(0.17 -0.17)">
       <use xlink:href="#DejaVuSans-33"/>
       <use xlink:href="#DejaVuSans-35" x="63.623047"/>
      </g>
     </g>
    </g>
    <g id="xtick_9">
     <g id="line2d_9">
      <g>
       <use xlink:href="#m71f15483af" x="567.608125" y="290.858672" style="stroke: #000000; stroke-width: 0.8"/>
      </g>
     </g>
     <g id="text_9">
      <!-- 40 -->
      <g transform="translate(556.791875 310.776016)scale(0.17 -0.17)">
       <defs>
        <path id="DejaVuSans-34" d="M 2419 4116 
L 825 1625 
L 2419 1625 
L 2419 4116 
z
M 2253 4666 
L 3047 4666 
L 3047 1625 
L 3713 1625 
L 3713 1100 
L 3047 1100 
L 3047 0 
L 2419 0 
L 2419 1100 
L 313 1100 
L 313 1709 
L 2253 4666 
z
" transform="scale(0.015625)"/>
       </defs>
       <use xlink:href="#DejaVuSans-34"/>
       <use xlink:href="#DejaVuSans-30" x="63.623047"/>
      </g>
     </g>
    </g>
    <g id="xtick_10">
     <g id="line2d_10">
      <g>
       <use xlink:href="#m71f15483af" x="630.848125" y="290.858672" style="stroke: #000000; stroke-width: 0.8"/>
      </g>
     </g>
     <g id="text_10">
      <!-- 45 -->
      <g transform="translate(620.031875 310.776016)scale(0.17 -0.17)">
       <use xlink:href="#DejaVuSans-34"/>
       <use xlink:href="#DejaVuSans-35" x="63.623047"/>
      </g>
     </g>
    </g>
    <g id="xtick_11">
     <g id="line2d_11">
      <g>
       <use xlink:href="#m71f15483af" x="694.088125" y="290.858672" style="stroke: #000000; stroke-width: 0.8"/>
      </g>
     </g>
     <g id="text_11">
      <!-- 50 -->
      <g transform="translate(683.271875 310.776016)scale(0.17 -0.17)">
       <use xlink:href="#DejaVuSans-35"/>
       <use xlink:href="#DejaVuSans-30" x="63.623047"/>
      </g>
     </g>
    </g>
    <g id="text_12">
     <!-- Time (h) -->
     <g transform="translate(342.370078 331.228828)scale(0.17 -0.17)">
      <defs>
       <path id="DejaVuSans-54" d="M -19 4666 
L 3928 4666 
L 3928 4134 
L 2272 4134 
L 2272 0 
L 1638 0 
L 1638 4134 
L -19 4134 
L -19 4666 
z
" transform="scale(0.015625)"/>
       <path id="DejaVuSans-69" d="M 603 3500 
L 1178 3500 
L 1178 0 
L 603 0 
L 603 3500 
z
M 603 4863 
L 1178 4863 
L 1178 4134 
L 603 4134 
L 603 4863 
z
" transform="scale(0.015625)"/>
       <path id="DejaVuSans-6d" d="M 3328 2828 
Q 3544 3216 3844 3400 
Q 4144 3584 4550 3584 
Q 5097 3584 5394 3201 
Q 5691 2819 5691 2113 
L 5691 0 
L 5113 0 
L 5113 2094 
Q 5113 2597 4934 2840 
Q 4756 3084 4391 3084 
Q 3944 3084 3684 2787 
Q 3425 2491 3425 1978 
L 3425 0 
L 2847 0 
L 2847 2094 
Q 2847 2600 2669 2842 
Q 2491 3084 2119 3084 
Q 1678 3084 1418 2786 
Q 1159 2488 1159 1978 
L 1159 0 
L 581 0 
L 581 3500 
L 1159 3500 
L 1159 2956 
Q 1356 3278 1631 3431 
Q 1906 3584 2284 3584 
Q 2666 3584 2933 3390 
Q 3200 3197 3328 2828 
z
" transform="scale(0.015625)"/>
       <path id="DejaVuSans-65" d="M 3597 1894 
L 3597 1613 
L 953 1613 
Q 991 1019 1311 708 
Q 1631 397 2203 397 
Q 2534 397 2845 478 
Q 3156 559 3463 722 
L 3463 178 
Q 3153 47 2828 -22 
Q 2503 -91 2169 -91 
Q 1331 -91 842 396 
Q 353 884 353 1716 
Q 353 2575 817 3079 
Q 1281 3584 2069 3584 
Q 2775 3584 3186 3129 
Q 3597 2675 3597 1894 
z
M 3022 2063 
Q 3016 2534 2758 2815 
Q 2500 3097 2075 3097 
Q 1594 3097 1305 2825 
Q 1016 2553 972 2059 
L 3022 2063 
z
" transform="scale(0.015625)"/>
       <path id="DejaVuSans-20" transform="scale(0.015625)"/>
       <path id="DejaVuSans-28" d="M 1984 4856 
Q 1566 4138 1362 3434 
Q 1159 2731 1159 2009 
Q 1159 1288 1364 580 
Q 1569 -128 1984 -844 
L 1484 -844 
Q 1016 -109 783 600 
Q 550 1309 550 2009 
Q 550 2706 781 3412 
Q 1013 4119 1484 4856 
L 1984 4856 
z
" transform="scale(0.015625)"/>
       <path id="DejaVuSans-68" d="M 3513 2113 
L 3513 0 
L 2938 0 
L 2938 2094 
Q 2938 2591 2744 2837 
Q 2550 3084 2163 3084 
Q 1697 3084 1428 2787 
Q 1159 2491 1159 1978 
L 1159 0 
L 581 0 
L 581 4863 
L 1159 4863 
L 1159 2956 
Q 1366 3272 1645 3428 
Q 1925 3584 2291 3584 
Q 2894 3584 3203 3211 
Q 3513 2838 3513 2113 
z
" transform="scale(0.015625)"/>
       <path id="DejaVuSans-29" d="M 513 4856 
L 1013 4856 
Q 1481 4119 1714 3412 
Q 1947 2706 1947 2009 
Q 1947 1309 1714 600 
Q 1481 -109 1013 -844 
L 513 -844 
Q 928 -128 1133 580 
Q 1338 1288 1338 2009 
Q 1338 2731 1133 3434 
Q 928 4138 513 4856 
z
" transform="scale(0.015625)"/>
      </defs>
      <use xlink:href="#DejaVuSans-54"/>
      <use xlink:href="#DejaVuSans-69" x="57.958984"/>
      <use xlink:href="#DejaVuSans-6d" x="85.742188"/>
      <use xlink:href="#DejaVuSans-65" x="183.154297"/>
      <use xlink:href="#DejaVuSans-20" x="244.677734"/>
      <use xlink:href="#DejaVuSans-28" x="276.464844"/>
      <use xlink:href="#DejaVuSans-68" x="315.478516"/>
      <use xlink:href="#DejaVuSans-29" x="378.857422"/>
     </g>
    </g>
   </g>
   <g id="matplotlib.axis_2">
    <g id="ytick_1">
     <g id="line2d_12">
      <defs>
       <path id="m29667bf74c" d="M 0 0 
L -3.5 0 
" style="stroke: #000000; stroke-width: 0.8"/>
      </defs>
      <g>
       <use xlink:href="#m29667bf74c" x="61.688125" y="290.858672" style="stroke: #000000; stroke-width: 0.8"/>
      </g>
     </g>
     <g id="text_13">
      <!-- 0.0 -->
      <g transform="translate(27.652813 297.317344)scale(0.17 -0.17)">
       <defs>
        <path id="DejaVuSans-2e" d="M 684 794 
L 1344 794 
L 1344 0 
L 684 0 
L 684 794 
z
" transform="scale(0.015625)"/>
       </defs>
       <use xlink:href="#DejaVuSans-30"/>
       <use xlink:href="#DejaVuSans-2e" x="63.623047"/>
       <use xlink:href="#DejaVuSans-30" x="95.410156"/>
      </g>
     </g>
    </g>
    <g id="ytick_2">
     <g id="line2d_13">
      <g>
       <use xlink:href="#m29667bf74c" x="61.688125" y="256.208672" style="stroke: #000000; stroke-width: 0.8"/>
      </g>
     </g>
     <g id="text_14">
      <!-- 0.1 -->
      <g transform="translate(27.652813 262.667344)scale(0.17 -0.17)">
       <use xlink:href="#DejaVuSans-30"/>
       <use xlink:href="#DejaVuSans-2e" x="63.623047"/>
       <use xlink:href="#DejaVuSans-31" x="95.410156"/>
      </g>
     </g>
    </g>
    <g id="ytick_3">
     <g id="line2d_14">
      <g>
       <use xlink:href="#m29667bf74c" x="61.688125" y="221.558672" style="stroke: #000000; stroke-width: 0.8"/>
      </g>
     </g>
     <g id="text_15">
      <!-- 0.2 -->
      <g transform="translate(27.652813 228.017344)scale(0.17 -0.17)">
       <use xlink:href="#DejaVuSans-30"/>
       <use xlink:href="#DejaVuSans-2e" x="63.623047"/>
       <use xlink:href="#DejaVuSans-32" x="95.410156"/>
      </g>
     </g>
    </g>
    <g id="ytick_4">
     <g id="line2d_15">
      <g>
       <use xlink:href="#m29667bf74c" x="61.688125" y="186.908672" style="stroke: #000000; stroke-width: 0.8"/>
      </g>
     </g>
     <g id="text_16">
      <!-- 0.3 -->
      <g transform="translate(27.652813 193.367344)scale(0.17 -0.17)">
       <use xlink:href="#DejaVuSans-30"/>
       <use xlink:href="#DejaVuSans-2e" x="63.623047"/>
       <use xlink:href="#DejaVuSans-33" x="95.410156"/>
      </g>
     </g>
    </g>
    <g id="ytick_5">
     <g id="line2d_16">
      <g>
       <use xlink:href="#m29667bf74c" x="61.688125" y="152.258672" style="stroke: #000000; stroke-width: 0.8"/>
      </g>
     </g>
     <g id="text_17">
      <!-- 0.4 -->
      <g transform="translate(27.652813 158.717344)scale(0.17 -0.17)">
       <use xlink:href="#DejaVuSans-30"/>
       <use xlink:href="#DejaVuSans-2e" x="63.623047"/>
       <use xlink:href="#DejaVuSans-34" x="95.410156"/>
      </g>
     </g>
    </g>
    <g id="ytick_6">
     <g id="line2d_17">
      <g>
       <use xlink:href="#m29667bf74c" x="61.688125" y="117.608672" style="stroke: #000000; stroke-width: 0.8"/>
      </g>
     </g>
     <g id="text_18">
      <!-- 0.5 -->
      <g transform="translate(27.652813 124.067344)scale(0.17 -0.17)">
       <use xlink:href="#DejaVuSans-30"/>
       <use xlink:href="#DejaVuSans-2e" x="63.623047"/>
       <use xlink:href="#DejaVuSans-35" x="95.410156"/>
      </g>
     </g>
    </g>
    <g id="ytick_7">
     <g id="line2d_18">
      <g>
       <use xlink:href="#m29667bf74c" x="61.688125" y="82.958672" style="stroke: #000000; stroke-width: 0.8"/>
      </g>
     </g>
     <g id="text_19">
      <!-- 0.6 -->
      <g transform="translate(27.652813 89.417344)scale(0.17 -0.17)">
       <defs>
        <path id="DejaVuSans-36" d="M 2113 2584 
Q 1688 2584 1439 2293 
Q 1191 2003 1191 1497 
Q 1191 994 1439 701 
Q 1688 409 2113 409 
Q 2538 409 2786 701 
Q 3034 994 3034 1497 
Q 3034 2003 2786 2293 
Q 2538 2584 2113 2584 
z
M 3366 4563 
L 3366 3988 
Q 3128 4100 2886 4159 
Q 2644 4219 2406 4219 
Q 1781 4219 1451 3797 
Q 1122 3375 1075 2522 
Q 1259 2794 1537 2939 
Q 1816 3084 2150 3084 
Q 2853 3084 3261 2657 
Q 3669 2231 3669 1497 
Q 3669 778 3244 343 
Q 2819 -91 2113 -91 
Q 1303 -91 875 529 
Q 447 1150 447 2328 
Q 447 3434 972 4092 
Q 1497 4750 2381 4750 
Q 2619 4750 2861 4703 
Q 3103 4656 3366 4563 
z
" transform="scale(0.015625)"/>
       </defs>
       <use xlink:href="#DejaVuSans-30"/>
       <use xlink:href="#DejaVuSans-2e" x="63.623047"/>
       <use xlink:href="#DejaVuSans-36" x="95.410156"/>
      </g>
     </g>
    </g>
    <g id="ytick_8">
     <g id="line2d_19">
      <g>
       <use xlink:href="#m29667bf74c" x="61.688125" y="48.308672" style="stroke: #000000; stroke-width: 0.8"/>
      </g>
     </g>
     <g id="text_20">
      <!-- 0.7 -->
      <g transform="translate(27.652813 54.767344)scale(0.17 -0.17)">
       <defs>
        <path id="DejaVuSans-37" d="M 525 4666 
L 3525 4666 
L 3525 4397 
L 1831 0 
L 1172 0 
L 2766 4134 
L 525 4134 
L 525 4666 
z
" transform="scale(0.015625)"/>
       </defs>
       <use xlink:href="#DejaVuSans-30"/>
       <use xlink:href="#DejaVuSans-2e" x="63.623047"/>
       <use xlink:href="#DejaVuSans-37" x="95.410156"/>
      </g>
     </g>
    </g>
    <g id="ytick_9">
     <g id="line2d_20">
      <g>
       <use xlink:href="#m29667bf74c" x="61.688125" y="13.658672" style="stroke: #000000; stroke-width: 0.8"/>
      </g>
     </g>
     <g id="text_21">
      <!-- 0.8 -->
      <g transform="translate(27.652813 20.117344)scale(0.17 -0.17)">
       <defs>
        <path id="DejaVuSans-38" d="M 2034 2216 
Q 1584 2216 1326 1975 
Q 1069 1734 1069 1313 
Q 1069 891 1326 650 
Q 1584 409 2034 409 
Q 2484 409 2743 651 
Q 3003 894 3003 1313 
Q 3003 1734 2745 1975 
Q 2488 2216 2034 2216 
z
M 1403 2484 
Q 997 2584 770 2862 
Q 544 3141 544 3541 
Q 544 4100 942 4425 
Q 1341 4750 2034 4750 
Q 2731 4750 3128 4425 
Q 3525 4100 3525 3541 
Q 3525 3141 3298 2862 
Q 3072 2584 2669 2484 
Q 3125 2378 3379 2068 
Q 3634 1759 3634 1313 
Q 3634 634 3220 271 
Q 2806 -91 2034 -91 
Q 1263 -91 848 271 
Q 434 634 434 1313 
Q 434 1759 690 2068 
Q 947 2378 1403 2484 
z
M 1172 3481 
Q 1172 3119 1398 2916 
Q 1625 2713 2034 2713 
Q 2441 2713 2670 2916 
Q 2900 3119 2900 3481 
Q 2900 3844 2670 4047 
Q 2441 4250 2034 4250 
Q 1625 4250 1398 4047 
Q 1172 3844 1172 3481 
z
" transform="scale(0.015625)"/>
       </defs>
       <use xlink:href="#DejaVuSans-30"/>
       <use xlink:href="#DejaVuSans-2e" x="63.623047"/>
       <use xlink:href="#DejaVuSans-38" x="95.410156"/>
      </g>
     </g>
    </g>
    <g id="text_22">
     <!-- Growth rate (mm/h) -->
     <g transform="translate(20.117344 237.129844)rotate(-90)scale(0.17 -0.17)">
      <defs>
       <path id="DejaVuSans-47" d="M 3809 666 
L 3809 1919 
L 2778 1919 
L 2778 2438 
L 4434 2438 
L 4434 434 
Q 4069 175 3628 42 
Q 3188 -91 2688 -91 
Q 1594 -91 976 548 
Q 359 1188 359 2328 
Q 359 3472 976 4111 
Q 1594 4750 2688 4750 
Q 3144 4750 3555 4637 
Q 3966 4525 4313 4306 
L 4313 3634 
Q 3963 3931 3569 4081 
Q 3175 4231 2741 4231 
Q 1884 4231 1454 3753 
Q 1025 3275 1025 2328 
Q 1025 1384 1454 906 
Q 1884 428 2741 428 
Q 3075 428 3337 486 
Q 3600 544 3809 666 
z
" transform="scale(0.015625)"/>
       <path id="DejaVuSans-72" d="M 2631 2963 
Q 2534 3019 2420 3045 
Q 2306 3072 2169 3072 
Q 1681 3072 1420 2755 
Q 1159 2438 1159 1844 
L 1159 0 
L 581 0 
L 581 3500 
L 1159 3500 
L 1159 2956 
Q 1341 3275 1631 3429 
Q 1922 3584 2338 3584 
Q 2397 3584 2469 3576 
Q 2541 3569 2628 3553 
L 2631 2963 
z
" transform="scale(0.015625)"/>
       <path id="DejaVuSans-6f" d="M 1959 3097 
Q 1497 3097 1228 2736 
Q 959 2375 959 1747 
Q 959 1119 1226 758 
Q 1494 397 1959 397 
Q 2419 397 2687 759 
Q 2956 1122 2956 1747 
Q 2956 2369 2687 2733 
Q 2419 3097 1959 3097 
z
M 1959 3584 
Q 2709 3584 3137 3096 
Q 3566 2609 3566 1747 
Q 3566 888 3137 398 
Q 2709 -91 1959 -91 
Q 1206 -91 779 398 
Q 353 888 353 1747 
Q 353 2609 779 3096 
Q 1206 3584 1959 3584 
z
" transform="scale(0.015625)"/>
       <path id="DejaVuSans-77" d="M 269 3500 
L 844 3500 
L 1563 769 
L 2278 3500 
L 2956 3500 
L 3675 769 
L 4391 3500 
L 4966 3500 
L 4050 0 
L 3372 0 
L 2619 2869 
L 1863 0 
L 1184 0 
L 269 3500 
z
" transform="scale(0.015625)"/>
       <path id="DejaVuSans-74" d="M 1172 4494 
L 1172 3500 
L 2356 3500 
L 2356 3053 
L 1172 3053 
L 1172 1153 
Q 1172 725 1289 603 
Q 1406 481 1766 481 
L 2356 481 
L 2356 0 
L 1766 0 
Q 1100 0 847 248 
Q 594 497 594 1153 
L 594 3053 
L 172 3053 
L 172 3500 
L 594 3500 
L 594 4494 
L 1172 4494 
z
" transform="scale(0.015625)"/>
       <path id="DejaVuSans-61" d="M 2194 1759 
Q 1497 1759 1228 1600 
Q 959 1441 959 1056 
Q 959 750 1161 570 
Q 1363 391 1709 391 
Q 2188 391 2477 730 
Q 2766 1069 2766 1631 
L 2766 1759 
L 2194 1759 
z
M 3341 1997 
L 3341 0 
L 2766 0 
L 2766 531 
Q 2569 213 2275 61 
Q 1981 -91 1556 -91 
Q 1019 -91 701 211 
Q 384 513 384 1019 
Q 384 1609 779 1909 
Q 1175 2209 1959 2209 
L 2766 2209 
L 2766 2266 
Q 2766 2663 2505 2880 
Q 2244 3097 1772 3097 
Q 1472 3097 1187 3025 
Q 903 2953 641 2809 
L 641 3341 
Q 956 3463 1253 3523 
Q 1550 3584 1831 3584 
Q 2591 3584 2966 3190 
Q 3341 2797 3341 1997 
z
" transform="scale(0.015625)"/>
       <path id="DejaVuSans-2f" d="M 1625 4666 
L 2156 4666 
L 531 -594 
L 0 -594 
L 1625 4666 
z
" transform="scale(0.015625)"/>
      </defs>
      <use xlink:href="#DejaVuSans-47"/>
      <use xlink:href="#DejaVuSans-72" x="77.490234"/>
      <use xlink:href="#DejaVuSans-6f" x="116.353516"/>
      <use xlink:href="#DejaVuSans-77" x="177.535156"/>
      <use xlink:href="#DejaVuSans-74" x="259.322266"/>
      <use xlink:href="#DejaVuSans-68" x="298.53125"/>
      <use xlink:href="#DejaVuSans-20" x="361.910156"/>
      <use xlink:href="#DejaVuSans-72" x="393.697266"/>
      <use xlink:href="#DejaVuSans-61" x="434.810547"/>
      <use xlink:href="#DejaVuSans-74" x="496.089844"/>
      <use xlink:href="#DejaVuSans-65" x="535.298828"/>
      <use xlink:href="#DejaVuSans-20" x="596.822266"/>
      <use xlink:href="#DejaVuSans-28" x="628.609375"/>
      <use xlink:href="#DejaVuSans-6d" x="667.623047"/>
      <use xlink:href="#DejaVuSans-6d" x="765.035156"/>
      <use xlink:href="#DejaVuSans-2f" x="862.447266"/>
      <use xlink:href="#DejaVuSans-68" x="896.138672"/>
      <use xlink:href="#DejaVuSans-29" x="959.517578"/>
     </g>
    </g>
   </g>
   <g id="line2d_21">
    <path d="M 61.688125 290.858672 
L 63.789097 290.858672 
L 63.806665 292.856575 
L 63.912061 292.564283 
L 81.397921 243.766334 
L 82.595977 235.408223 
L 83.674561 229.32782 
L 84.609109 225.141968 
L 85.332853 222.795728 
L 85.986337 221.3835 
L 86.622253 220.490009 
L 87.381133 219.795226 
L 88.298113 219.246156 
L 89.868577 218.655952 
L 91.881709 217.437331 
L 92.658157 216.568862 
L 93.979177 214.714572 
L 96.434989 210.849673 
L 98.181121 207.834721 
L 99.344029 205.220577 
L 101.989573 199.156582 
L 103.419493 196.607963 
L 106.156381 191.778351 
L 109.736473 184.052432 
L 113.636269 176.481713 
L 115.473745 172.873797 
L 117.588769 169.780756 
L 122.493385 162.48486 
L 126.993961 155.277695 
L 131.174833 149.684193 
L 134.350885 144.598995 
L 136.364029 141.732271 
L 138.816337 137.551433 
L 140.653801 134.559826 
L 141.518089 133.536803 
L 143.935261 131.070765 
L 145.786789 128.433398 
L 147.269413 126.336523 
L 148.822309 124.664132 
L 151.081381 122.699444 
L 151.892953 121.991207 
L 153.867457 119.798559 
L 158.859901 114.187513 
L 160.043893 113.763361 
L 161.807581 113.320844 
L 162.777265 113.055421 
L 163.659109 112.576454 
L 164.544469 111.851635 
L 165.777649 110.575578 
L 166.979209 109.008413 
L 171.247909 103.159814 
L 173.331313 101.015184 
L 174.673417 99.993524 
L 175.713361 99.437779 
L 177.564889 98.798877 
L 179.152909 98.064674 
L 180.424741 97.56245 
L 181.837093 97.242807 
L 184.626685 96.584369 
L 185.276653 96.284821 
L 185.772037 95.774803 
L 186.759277 94.649543 
L 187.697341 93.884255 
L 188.807557 93.217955 
L 190.820689 92.415431 
L 192.018733 92.15387 
L 192.988417 91.950478 
L 194.137273 91.496463 
L 194.878597 91.205669 
L 196.730113 90.693363 
L 197.861413 90.587718 
L 198.813529 90.708005 
L 199.871041 91.067715 
L 201.090169 91.676004 
L 202.555225 92.700896 
L 203.560033 93.370586 
L 204.424321 93.647978 
L 205.643449 93.728357 
L 208.183585 93.767323 
L 210.758857 93.449392 
L 213.070633 93.221677 
L 214.040317 93.471461 
L 215.610769 93.901345 
L 217.869841 94.255708 
L 219.405169 94.685679 
L 220.234321 95.200187 
L 222.068281 96.675337 
L 223.340101 97.571501 
L 224.257081 98.285836 
L 227.802037 101.228133 
L 228.560917 101.52043 
L 229.249537 101.586847 
L 232.762861 101.520728 
L 234.259549 101.83941 
L 235.956481 102.309797 
L 237.400465 102.96764 
L 238.514197 103.594381 
L 240.260317 104.976309 
L 241.444309 105.750544 
L 243.190441 106.613771 
L 244.936561 107.249894 
L 246.454321 107.428055 
L 249.187693 107.257181 
L 253.793677 106.233687 
L 256.017613 105.635253 
L 258.027241 105.540285 
L 259.035577 105.436772 
L 260.553337 104.914121 
L 261.716245 104.645273 
L 262.935373 104.535627 
L 264.361789 104.688485 
L 265.967377 104.82422 
L 269.038033 104.747266 
L 270.130681 104.711463 
L 271.139005 104.469664 
L 272.530285 103.849634 
L 274.030477 103.243093 
L 274.842061 103.129515 
L 275.903089 103.306137 
L 277.206529 103.518511 
L 278.601325 103.468239 
L 280.048813 103.241136 
L 281.566573 102.760282 
L 283.593769 102.270656 
L 284.405353 102.234154 
L 285.431245 102.397374 
L 287.194933 103.044017 
L 288.234889 103.311642 
L 289.331041 103.350188 
L 290.919073 103.148736 
L 297.587377 101.981934 
L 308.759773 99.950236 
L 308.759773 99.950236 
" clip-path="url(#ped47d28026)" style="fill: none; stroke: #cf597e; stroke-width: 3; stroke-linecap: square"/>
   </g>
   <g id="line2d_22">
    <path d="M 61.688125 290.858672 
L 63.785581 290.858672 
L 63.803149 318.62213 
L 63.912061 318.384609 
L 82.444897 276.407176 
L 83.611321 270.211502 
L 84.686401 265.534165 
L 85.515553 262.794915 
L 86.186593 261.253791 
L 86.769817 260.396067 
L 87.282757 259.998807 
L 87.669229 259.931688 
L 88.270009 260.043189 
L 89.204557 260.497605 
L 90.016129 260.840172 
L 90.687181 260.902318 
L 91.393357 260.755985 
L 91.994137 260.415912 
L 92.717881 259.716881 
L 95.170189 257.146106 
L 96.090685 256.600033 
L 97.432777 256.087058 
L 98.226793 255.965742 
L 99.495109 256.076814 
L 103.591657 256.783842 
L 104.631601 256.637344 
L 105.833161 256.283788 
L 106.381237 255.933967 
L 106.876621 255.350039 
L 108.306541 253.096385 
L 110.653453 248.841424 
L 112.100941 246.397335 
L 113.263861 244.865746 
L 114.943237 242.641206 
L 116.141281 240.356041 
L 117.342841 238.242539 
L 118.049017 237.309369 
L 119.303281 236.079302 
L 120.680509 235.109267 
L 122.742829 233.569862 
L 123.768721 232.306302 
L 128.624149 225.747918 
L 130.194613 224.134272 
L 132.523957 221.996845 
L 133.493629 221.28904 
L 136.567801 219.585952 
L 138.507157 217.736745 
L 139.708717 216.413056 
L 144.968173 210.491657 
L 146.257573 209.450901 
L 147.687493 208.548448 
L 151.095433 206.596415 
L 151.713781 206.308144 
L 152.293477 206.291241 
L 153.600433 206.304691 
L 154.113385 206.121989 
L 154.872265 205.672762 
L 157.061077 203.656023 
L 158.262637 202.545422 
L 159.478249 201.369503 
L 160.166857 200.817119 
L 163.132117 198.551964 
L 164.579605 197.325136 
L 166.364377 196.321955 
L 168.092941 195.415404 
L 170.369581 193.376754 
L 173.282137 190.562768 
L 174.926377 189.46717 
L 177.290845 187.718378 
L 185.712301 180.518184 
L 196.919833 167.847636 
L 200.608837 163.972024 
L 202.376041 162.118621 
L 206.029909 158.05388 
L 212.188789 152.977184 
L 213.671413 152.320867 
L 215.596717 151.426031 
L 218.136853 149.977258 
L 221.140753 148.472982 
L 222.356377 148.243089 
L 231.606973 147.758964 
L 235.791361 146.981892 
L 237.309121 146.665993 
L 238.563373 146.55897 
L 244.564153 146.609301 
L 247.371301 146.228366 
L 249.489841 146.086197 
L 253.389649 145.636474 
L 254.608777 145.737631 
L 257.538889 146.217328 
L 259.903369 146.325971 
L 263.451829 146.371824 
L 264.899329 146.142046 
L 266.504917 145.91906 
L 270.864961 145.434671 
L 272.189497 145.359885 
L 273.865357 145.571486 
L 275.913625 145.791118 
L 280.010173 145.80437 
L 282.093577 145.352813 
L 287.936257 143.793133 
L 289.981009 143.045622 
L 292.717897 142.572254 
L 294.432409 142.42179 
L 295.349389 142.246441 
L 296.389333 141.8008 
L 298.490305 140.864919 
L 300.204817 140.418319 
L 301.156921 140.391369 
L 303.486265 140.425408 
L 305.587237 140.288146 
L 306.398821 140.40933 
L 307.210393 140.795057 
L 308.394397 141.722065 
L 309.560821 142.593933 
L 310.671037 143.079694 
L 311.696929 143.286404 
L 313.903297 143.475417 
L 315.298093 143.25833 
L 317.838229 142.963136 
L 318.561973 143.098464 
L 319.373557 143.538984 
L 320.276485 144.264882 
L 323.118769 146.872819 
L 324.566269 147.754304 
L 325.588645 148.111115 
L 326.294821 148.141948 
L 327.123973 147.942177 
L 328.325533 147.416016 
L 330.106789 146.852181 
L 330.988633 146.866689 
L 332.242897 147.171037 
L 334.997353 147.998077 
L 337.098325 148.401335 
L 341.809705 149.664317 
L 343.081537 149.71754 
L 343.928245 149.509309 
L 344.901433 149.06527 
L 346.222453 148.230019 
L 346.911061 147.90609 
L 347.494273 148.013146 
L 348.520177 148.174995 
L 348.836377 147.983486 
L 350.424397 146.261909 
L 351.165709 145.778031 
L 351.784057 145.623205 
L 352.314577 145.693844 
L 352.950481 146.039071 
L 354.784441 147.215585 
L 355.332529 147.292238 
L 355.810333 147.118542 
L 356.744881 146.459762 
L 359.341237 144.309793 
L 359.991205 144.19664 
L 360.750085 144.289618 
L 361.863817 144.678071 
L 365.222557 145.942408 
L 366.378445 146.058933 
L 367.474609 146.135635 
L 368.321317 145.983205 
L 369.308569 145.56101 
L 371.075773 144.47075 
L 372.291385 143.82818 
L 373.703749 143.363933 
L 375.734449 142.67508 
L 376.581169 142.06179 
L 377.554357 141.055568 
L 379.195081 139.359357 
L 397.569817 127.078141 
L 397.569817 127.078141 
" clip-path="url(#ped47d28026)" style="fill: none; stroke: #9b6e8e; stroke-width: 3; stroke-linecap: square"/>
   </g>
   <g id="line2d_23">
    <path d="M 61.688125 290.858672 
L 63.792613 290.858672 
L 63.810181 318.34122 
L 63.919093 318.118122 
L 79.184521 286.066301 
L 79.859089 284.653344 
L 81.844117 280.226262 
L 83.014057 274.078816 
L 83.969689 270.042202 
L 84.907741 266.925461 
L 85.652569 265.077689 
L 86.306053 263.964056 
L 87.279241 262.804536 
L 88.891861 261.338255 
L 90.399085 260.219379 
L 92.717881 258.81041 
L 94.007281 258.069269 
L 95.423149 256.814577 
L 97.334401 254.910911 
L 98.999725 252.856605 
L 104.241613 244.94691 
L 105.372913 243.749256 
L 108.598153 240.649934 
L 109.571341 239.400912 
L 111.039913 237.077842 
L 114.173809 231.840978 
L 115.076737 230.622166 
L 116.032369 229.551056 
L 118.885189 227.253363 
L 120.090265 226.272967 
L 120.638341 225.603329 
L 121.274257 224.402926 
L 121.773157 223.269893 
L 124.091953 217.934084 
L 124.868401 216.782283 
L 125.630797 216.12173 
L 126.336973 215.814679 
L 126.990457 215.683559 
L 128.033917 215.448215 
L 128.708473 215.085475 
L 129.379513 214.435185 
L 130.335145 213.10262 
L 132.650437 209.901039 
L 133.837933 208.683029 
L 135.074629 207.644246 
L 136.118089 206.865774 
L 137.815033 205.981627 
L 139.778989 204.91897 
L 141.953737 203.343018 
L 142.540465 202.732792 
L 144.325237 200.527761 
L 145.737601 199.001727 
L 146.710789 198.166933 
L 147.968569 197.339005 
L 149.029597 196.570045 
L 151.520545 194.486622 
L 153.059389 193.091093 
L 154.264453 192.203445 
L 154.686061 192.209763 
L 155.216569 192.477007 
L 156.154633 193.274504 
L 156.720277 194.104088 
L 157.640773 196.027428 
L 158.877469 198.546341 
L 159.407977 199.136894 
L 159.903361 199.391706 
L 160.363609 199.361581 
L 160.823857 199.054342 
L 161.442193 198.335624 
L 162.165949 197.103969 
L 165.278761 191.581794 
L 166.006021 190.828835 
L 167.119741 190.024439 
L 167.966461 189.680262 
L 170.745505 189.008045 
L 172.034893 188.574468 
L 172.776217 188.074476 
L 173.731837 187.104225 
L 177.782713 182.709635 
L 178.646989 182.235413 
L 180.733909 181.378248 
L 182.803261 180.42668 
L 184.061041 180.122907 
L 184.837489 180.151888 
L 187.082509 180.295372 
L 187.915165 180.001351 
L 188.782957 179.446421 
L 190.370989 178.220436 
L 190.936633 177.253071 
L 192.317377 174.370598 
L 193.360837 172.487612 
L 194.281321 171.274486 
L 194.917237 170.733406 
L 195.535585 170.579181 
L 196.171501 170.637192 
L 196.912813 170.954097 
L 197.956273 171.632599 
L 198.806497 172.125588 
L 200.433169 172.838244 
L 202.822237 174.095174 
L 203.598685 174.171202 
L 204.287293 173.984222 
L 205.032121 173.588607 
L 205.878841 172.865175 
L 208.180069 170.664106 
L 209.364061 169.973975 
L 210.319693 169.669127 
L 211.946365 169.182371 
L 213.450073 168.40272 
L 216.506677 166.700481 
L 217.532569 166.501905 
L 222.907969 166.099494 
L 226.340497 166.695734 
L 228.638209 166.61395 
L 231.185377 166.272112 
L 232.935013 166.485391 
L 234.614389 166.960279 
L 236.754013 167.816368 
L 239.125513 168.658556 
L 242.343721 169.616068 
L 245.280877 171.101031 
L 249.419581 174.0256 
L 252.953989 177.513638 
L 254.173117 178.595934 
L 255.093613 179.11623 
L 255.729529 179.309427 
L 256.347877 179.293971 
L 257.075137 179.043071 
L 259.302589 177.989858 
L 259.920937 177.9341 
L 260.806297 178.149651 
L 262.893217 179.016789 
L 265.103101 180.075928 
L 266.835169 180.773112 
L 268.496977 181.334411 
L 269.238289 181.427363 
L 270.018253 181.363801 
L 270.847393 181.090136 
L 271.662493 180.654663 
L 273.166201 179.589888 
L 274.350193 178.831414 
L 275.288257 178.453116 
L 276.876277 178.172859 
L 278.011081 178.217038 
L 280.449337 178.729325 
L 281.545501 179.150163 
L 282.943801 179.730213 
L 284.127793 180.066928 
L 285.276661 180.125469 
L 286.780369 179.877676 
L 287.894089 179.432759 
L 289.770217 178.680655 
L 290.669629 178.569549 
L 291.590113 178.665268 
L 293.392453 179.364774 
L 294.984001 180.049082 
L 296.628241 180.506568 
L 298.469221 180.714485 
L 300.696673 180.833309 
L 302.340913 180.747769 
L 303.243841 180.34628 
L 305.049697 179.298753 
L 305.471293 178.810699 
L 306.145861 177.642623 
L 308.232781 173.747615 
L 308.903821 173.030553 
L 309.381637 172.797703 
L 309.929713 172.756922 
L 310.425097 172.925442 
L 311.096149 173.406836 
L 311.872597 174.285945 
L 313.306033 175.951997 
L 313.836541 176.280122 
L 314.686777 176.406921 
L 316.348573 176.436858 
L 319.426261 176.469646 
L 321.017797 176.798164 
L 322.430161 177.372732 
L 323.723065 178.110646 
L 327.506929 180.474548 
L 329.734381 181.217824 
L 330.672433 181.202932 
L 331.501585 180.976828 
L 333.307441 180.432435 
L 334.667101 180.285074 
L 335.907301 180.361069 
L 337.941529 180.991463 
L 339.336313 181.653911 
L 341.159737 182.790599 
L 341.672689 183.597727 
L 342.466693 185.34365 
L 344.448217 189.865637 
L 345.119269 190.887325 
L 345.702481 191.384482 
L 346.285693 191.604097 
L 346.781077 191.560481 
L 347.399413 191.27312 
L 349.700653 189.943937 
L 350.441965 190.068192 
L 354.120421 190.810392 
L 358.224001 191.223681 
L 359.653921 191.348261 
L 360.750085 191.250646 
L 362.520805 190.858891 
L 363.581833 190.705622 
L 364.713121 190.679733 
L 365.524705 190.872263 
L 366.515461 191.295628 
L 367.896205 191.819101 
L 369.273433 192.049355 
L 370.636609 191.977648 
L 373.960213 191.807676 
L 375.003673 192.090256 
L 377.020333 192.77873 
L 378.576733 193.268766 
L 380.220973 193.557049 
L 384.236713 193.6458 
L 386.429041 193.183857 
L 392.176849 191.740033 
L 393.908929 191.564443 
L 396.297997 191.402362 
L 398.827597 190.842207 
L 402.309301 189.899621 
L 405.225373 189.568713 
L 406.925821 189.614497 
L 408.267913 189.639601 
L 415.923469 189.898955 
L 419.601937 190.528734 
L 421.337521 191.045069 
L 422.964193 191.461211 
L 425.349745 191.730538 
L 427.436665 191.825966 
L 430.106797 192.200234 
L 434.101453 192.223271 
L 435.784345 192.655432 
L 438.893641 193.48891 
L 440.309521 193.877864 
L 440.875165 193.950828 
L 458.434801 194.650546 
L 458.434801 194.650546 
" clip-path="url(#ped47d28026)" style="fill: none; stroke: #68839f; stroke-width: 3; stroke-linecap: square"/>
   </g>
   <g id="line2d_24">
    <path d="M 61.688125 290.858672 
L 63.785581 290.858672 
L 63.908557 284.794626 
L 82.209505 250.251455 
L 83.182693 244.455072 
L 84.082117 240.303855 
L 84.876121 237.627822 
L 85.459333 236.317905 
L 85.898509 235.805622 
L 86.288485 235.676522 
L 86.692513 235.774889 
L 87.208981 236.167989 
L 87.844897 236.972105 
L 88.691605 238.430105 
L 92.099533 244.633922 
L 92.911117 245.469122 
L 93.669997 245.952205 
L 94.232137 246.053805 
L 94.868041 245.938105 
L 95.662057 245.521989 
L 96.491209 244.808355 
L 97.657633 243.353905 
L 98.964589 241.295322 
L 101.069077 237.486839 
L 102.674677 234.868355 
L 103.802449 233.376605 
L 104.793217 232.433572 
L 105.372913 232.097355 
L 106.767709 231.688039 
L 108.710581 231.445739 
L 110.031589 230.976505 
L 111.566917 230.120872 
L 112.807129 229.192189 
L 116.583961 226.058822 
L 117.430669 225.571672 
L 118.087669 225.408455 
L 118.969513 225.454372 
L 120.294037 225.692122 
L 121.211017 225.818272 
L 122.395009 225.758439 
L 123.013357 225.537872 
L 123.930337 224.926422 
L 125.275945 223.558339 
L 126.579397 221.918322 
L 129.014137 218.879589 
L 130.746205 217.547155 
L 131.452381 217.317872 
L 132.211261 217.316672 
L 133.303909 217.584272 
L 134.628433 218.237989 
L 136.054849 219.146439 
L 138.285817 220.568539 
L 139.150093 220.790605 
L 139.873849 220.714689 
L 140.720557 220.408439 
L 142.041577 219.493472 
L 144.989257 217.248405 
L 146.050285 216.978589 
L 147.037537 216.926339 
L 148.305841 217.014655 
L 149.064721 217.220972 
L 149.841169 217.655255 
L 150.958417 218.529289 
L 153.164785 220.485555 
L 154.011493 220.831422 
L 154.612273 220.815155 
L 155.142793 220.597122 
L 155.919241 220.020405 
L 156.976753 218.885239 
L 159.762829 215.513505 
L 160.504141 215.116155 
L 161.104921 215.031772 
L 162.180001 215.152039 
L 162.728077 215.405322 
L 163.954237 216.319822 
L 165.809269 217.817089 
L 166.564633 218.073722 
L 167.305957 218.110322 
L 168.222937 217.957555 
L 168.893977 217.671855 
L 171.613297 216.309405 
L 172.635673 215.945989 
L 173.977777 215.796189 
L 175.586881 216.126372 
L 176.735737 216.644839 
L 178.165669 217.188989 
L 179.047513 217.277772 
L 179.679913 217.178422 
L 180.368521 216.850955 
L 181.570081 216.007572 
L 185.399617 212.797772 
L 186.615229 212.267439 
L 187.426813 212.112005 
L 189.021865 212.205455 
L 189.938845 212.578339 
L 190.838257 213.150872 
L 193.395961 214.929972 
L 194.808325 215.388689 
L 195.795577 215.414855 
L 196.589581 215.250272 
L 199.287829 214.671239 
L 200.506957 214.340189 
L 202.843321 213.695172 
L 205.506421 213.276855 
L 206.830957 213.412472 
L 210.059701 213.735855 
L 211.559893 213.499289 
L 213.899773 213.001072 
L 215.768869 212.928055 
L 216.457489 213.032672 
L 217.497433 213.305822 
L 220.691053 213.838339 
L 224.573281 214.429905 
L 225.476209 214.223022 
L 226.112125 213.781589 
L 227.285581 212.705305 
L 229.685185 210.428889 
L 230.268397 210.151989 
L 231.023761 210.106705 
L 231.677245 210.262889 
L 232.717189 210.802989 
L 233.458501 211.473105 
L 234.586285 212.980689 
L 236.227009 215.174022 
L 236.933197 215.768972 
L 237.639373 216.098822 
L 238.152313 216.096872 
L 238.953361 215.808855 
L 239.708725 215.292505 
L 240.875149 214.241105 
L 242.111845 213.251822 
L 243.717433 212.277172 
L 245.621665 211.624255 
L 246.169741 211.650072 
L 246.963757 211.837955 
L 250.526281 212.984605 
L 251.372989 212.871739 
L 252.297001 212.461155 
L 253.231549 211.739455 
L 254.007997 211.188989 
L 254.766877 210.935305 
L 255.718981 210.890339 
L 256.442737 211.077222 
L 257.535373 211.676522 
L 259.583653 213.190022 
L 260.606029 213.434455 
L 262.246753 213.806589 
L 264.214225 214.677755 
L 267.281365 215.620122 
L 268.057813 215.583172 
L 269.048569 215.546622 
L 269.983117 215.556105 
L 270.531193 215.272189 
L 271.269001 214.596722 
L 272.312461 213.258139 
L 273.949669 211.155605 
L 274.975561 210.442339 
L 275.629045 210.349889 
L 276.156049 210.507539 
L 276.767365 210.975439 
L 277.631641 211.966905 
L 278.882389 213.322672 
L 280.101517 214.393755 
L 281.510365 215.210705 
L 282.553825 215.560755 
L 284.616157 215.721872 
L 286.081213 215.548272 
L 288.568657 215.150522 
L 289.204561 215.245305 
L 293.143009 216.350555 
L 294.063505 216.299055 
L 296.389333 215.913622 
L 298.648405 216.103905 
L 301.543393 215.968739 
L 304.424329 216.266455 
L 309.328933 218.179105 
L 310.776433 219.050405 
L 312.399589 219.978589 
L 313.176037 220.213405 
L 314.198413 220.260639 
L 316.253713 220.322305 
L 316.903681 220.562889 
L 319.693273 221.726522 
L 320.504857 221.761372 
L 323.220661 221.658422 
L 324.369517 221.846522 
L 331.712389 224.149339 
L 332.734765 224.682722 
L 338.029357 227.708439 
L 338.963905 228.056122 
L 340.172497 228.306255 
L 341.848357 228.454055 
L 343.046401 228.246639 
L 344.458753 228.033555 
L 347.863177 227.818022 
L 348.941773 227.889622 
L 352.574557 228.034889 
L 353.656669 227.854489 
L 357.735649 226.848572 
L 360.293353 227.019655 
L 361.456261 227.171989 
L 363.451837 227.109689 
L 366.420601 226.751455 
L 367.797829 226.381305 
L 369.385861 225.679072 
L 372.101665 223.935272 
L 373.373497 223.213672 
L 375.386629 222.127005 
L 377.501653 220.144072 
L 378.531061 219.324772 
L 379.272373 218.991322 
L 379.838029 218.925605 
L 380.755009 219.038005 
L 381.833593 219.484272 
L 382.943809 219.878989 
L 383.878357 219.942272 
L 389.703469 219.892639 
L 390.764497 219.894355 
L 391.895785 220.081972 
L 395.177233 220.764872 
L 398.546521 220.985072 
L 403.510861 222.755705 
L 408.397909 223.834672 
L 411.753145 225.322272 
L 412.705261 226.219022 
L 415.561597 228.873755 
L 416.331013 229.197472 
L 417.002065 229.239372 
L 417.919045 229.015555 
L 420.125413 228.305589 
L 421.572913 228.212172 
L 422.489893 228.391689 
L 427.394509 229.725939 
L 428.620657 229.711139 
L 431.849413 229.603572 
L 433.841473 229.653772 
L 435.148429 229.752255 
L 436.490521 229.596972 
L 437.635873 229.251322 
L 439.206337 228.669689 
L 441.331897 228.246522 
L 442.814521 228.187972 
L 445.512769 227.835839 
L 448.214521 227.146722 
L 451.548673 226.330089 
L 453.136693 225.572189 
L 455.367661 224.499605 
L 456.390049 224.241855 
L 457.732141 224.168655 
L 459.249901 224.107239 
L 461.136553 224.029105 
L 463.732909 224.159789 
L 467.144353 224.469989 
L 470.053393 224.120255 
L 472.453009 223.700722 
L 473.496469 223.702905 
L 476.514421 224.007439 
L 477.431401 223.884855 
L 480.769069 223.148222 
L 481.812529 223.212622 
L 484.050517 223.709105 
L 486.063661 224.085722 
L 488.480833 224.684155 
L 490.121557 225.350322 
L 491.284477 225.704089 
L 492.542245 225.808755 
L 493.919473 225.664255 
L 495.419665 225.327389 
L 497.534689 224.791455 
L 499.140289 224.606855 
L 501.135853 224.686072 
L 502.990897 224.771022 
L 505.629409 224.650972 
L 509.936761 224.203089 
L 511.454521 224.181922 
L 513.376309 224.414122 
L 514.486525 224.706622 
L 518.994133 226.219205 
L 520.174609 226.394139 
L 522.310717 226.569772 
L 524.358997 227.084672 
L 525.363805 227.355405 
L 527.499913 227.978172 
L 529.210909 228.531605 
L 530.591641 228.791122 
L 531.543757 228.693289 
L 532.780453 228.344539 
L 538.640689 226.364089 
L 539.856301 226.284972 
L 541.939717 226.320622 
L 544.803073 226.334855 
L 545.386297 226.761622 
L 546.320833 227.778622 
L 548.140741 229.725889 
L 548.825845 230.142472 
L 549.676069 230.320555 
L 550.417381 230.219222 
L 551.228965 229.869255 
L 553.379125 228.681005 
L 554.457721 228.250705 
L 556.249513 227.293672 
L 560.714965 224.763089 
L 562.320553 224.271855 
L 564.860701 223.610122 
L 568.131613 222.610072 
L 569.262901 222.473755 
L 570.531217 222.577505 
L 576.321193 223.213305 
L 577.255741 223.255805 
L 578.137585 223.514122 
L 579.391849 224.116739 
L 581.067709 224.879389 
L 581.475253 224.860022 
L 581.967121 224.573505 
L 582.515197 223.989305 
L 583.699189 222.257122 
L 584.985073 220.493005 
L 585.656113 219.942189 
L 586.256893 219.723889 
L 586.875241 219.745972 
L 587.525209 219.997689 
L 588.319225 220.552272 
L 589.626181 221.459855 
L 590.385061 221.717305 
L 591.937957 222.080672 
L 593.729761 222.595189 
L 594.892669 223.163589 
L 596.217193 223.766522 
L 614.560309 228.024936 
L 614.560309 228.024936 
" clip-path="url(#ped47d28026)" style="fill: none; stroke: #3498b0; stroke-width: 3; stroke-linecap: square"/>
   </g>
   <g id="line2d_25">
    <path d="M 61.688125 290.858672 
L 63.789097 290.858672 
L 63.806665 315.817792 
L 63.912061 315.565625 
L 81.717637 272.728623 
L 82.599481 267.210606 
L 83.498893 262.927401 
L 84.507229 259.267175 
L 85.266109 257.180248 
L 85.866889 256.11994 
L 86.646841 255.200056 
L 87.440857 254.534776 
L 88.168117 254.275529 
L 88.681069 254.491218 
L 89.158873 254.957523 
L 89.531293 255.497582 
L 90.061801 256.608118 
L 91.035001 259.373292 
L 93.213265 265.812998 
L 94.098625 267.689773 
L 94.948849 269.06291 
L 95.851777 270.07003 
L 96.754705 270.769462 
L 97.675201 271.234683 
L 98.578129 271.490646 
L 99.797257 271.61064 
L 101.002321 271.498281 
L 103.018981 271.285549 
L 104.115133 271.333767 
L 105.123469 271.333096 
L 105.829645 271.186655 
L 107.175253 270.4215 
L 108.411949 269.596039 
L 109.954297 268.385387 
L 112.093921 266.203916 
L 112.891441 265.885239 
L 113.474653 265.928796 
L 114.693781 266.342172 
L 115.579141 266.722548 
L 116.302897 266.762202 
L 116.942317 266.635605 
L 117.845245 266.070595 
L 118.727089 265.261625 
L 120.125401 263.833202 
L 120.743749 263.536244 
L 121.646677 263.464674 
L 123.399829 263.446567 
L 123.965473 263.29335 
L 125.026501 262.71914 
L 125.894293 261.968138 
L 128.209573 259.270838 
L 128.971969 258.533867 
L 129.607885 258.209241 
L 130.704049 257.940054 
L 131.765077 257.87777 
L 134.544121 257.940622 
L 135.517309 257.555241 
L 136.420237 256.890821 
L 137.744761 255.562273 
L 140.323549 253.173057 
L 141.296749 252.722228 
L 141.844825 252.664656 
L 142.656409 252.758409 
L 144.708193 253.182377 
L 145.628689 253.364277 
L 146.457829 253.765408 
L 149.461729 255.565076 
L 151.882417 256.724794 
L 152.732641 257.055559 
L 155.912209 258.652262 
L 157.008373 258.895741 
L 158.631529 259.234864 
L 160.289821 259.413152 
L 164.101789 259.657697 
L 165.197953 259.668461 
L 166.838677 259.560281 
L 167.878621 259.169089 
L 169.361257 258.356714 
L 169.803937 258.341857 
L 170.900089 258.634086 
L 171.922477 259.216619 
L 174.624229 260.604906 
L 175.295269 260.640261 
L 176.124421 260.441389 
L 177.304897 260.070986 
L 178.488889 260.048786 
L 179.493709 260.230995 
L 180.923629 260.859063 
L 182.884069 261.886887 
L 183.572689 262.255329 
L 184.226161 262.35713 
L 185.125573 262.261158 
L 186.130393 261.864549 
L 187.331953 261.097589 
L 188.178661 260.423316 
L 188.884849 259.63192 
L 189.889657 258.462298 
L 190.827721 257.857049 
L 191.410933 257.819304 
L 192.486013 258.065534 
L 193.880809 258.703111 
L 196.052041 259.70631 
L 196.670389 259.68607 
L 198.574621 259.235999 
L 199.776181 259.025055 
L 203.271949 258.97044 
L 204.807277 259.291954 
L 205.372921 259.189294 
L 209.715397 257.961996 
L 211.001281 257.961085 
L 211.904209 258.189792 
L 212.803621 258.407838 
L 213.843565 258.354255 
L 215.080261 258.087751 
L 217.904977 256.946313 
L 219.370033 256.212833 
L 220.251889 256.204889 
L 220.975633 256.346171 
L 223.076605 257.04488 
L 225.585121 257.88372 
L 226.112125 257.81681 
L 226.712905 257.512578 
L 228.480109 256.681889 
L 229.818697 256.224286 
L 230.612701 256.187314 
L 231.814261 256.340136 
L 233.950369 257.080132 
L 235.187065 257.396986 
L 236.564293 257.66306 
L 237.533977 257.761852 
L 239.034169 257.733427 
L 240.147889 257.453114 
L 243.078013 256.756211 
L 244.718737 256.527142 
L 248.337469 256.326155 
L 250.171429 256.62191 
L 251.337853 257.033032 
L 252.767785 257.57512 
L 254.707141 257.8116 
L 256.685149 257.657111 
L 258.680725 257.512544 
L 260.606029 257.480164 
L 262.106221 257.56874 
L 263.571289 257.465925 
L 264.839593 257.275359 
L 265.777657 257.049369 
L 266.993269 256.581929 
L 268.229965 256.269288 
L 269.431525 256.163326 
L 272.077069 256.143465 
L 273.949669 255.686016 
L 277.055461 253.73915 
L 278.467813 252.219898 
L 279.419929 251.252982 
L 280.003141 250.887722 
L 280.410697 250.851937 
L 280.867429 251.051514 
L 281.397937 251.537198 
L 282.704893 253.203545 
L 283.305673 253.773972 
L 283.902949 254.045515 
L 284.486161 254.025928 
L 285.086941 253.764858 
L 286.341193 252.844578 
L 287.683297 251.852092 
L 288.407041 251.569905 
L 289.165921 251.57852 
L 290.912041 251.675145 
L 291.618229 251.405941 
L 293.982697 250.272998 
L 296.224201 249.535942 
L 298.096813 249.23778 
L 301.680409 248.875133 
L 304.909165 248.956607 
L 305.755873 248.69454 
L 308.440069 247.688951 
L 309.304345 247.682502 
L 310.063225 247.961336 
L 310.909933 248.375502 
L 312.357433 249.248854 
L 313.186573 249.959016 
L 314.001673 250.836116 
L 314.953789 251.663056 
L 315.677533 252.014216 
L 316.155349 251.972791 
L 316.629649 251.706149 
L 317.300689 251.04142 
L 319.173301 249.102997 
L 319.770565 248.856011 
L 320.476741 248.865417 
L 321.520201 249.198882 
L 322.844737 249.579327 
L 323.761717 249.564109 
L 324.573289 249.299015 
L 326.108617 248.660303 
L 326.814793 248.679287 
L 328.016353 249.10623 
L 329.109001 249.518316 
L 331.051873 249.885898 
L 332.179657 249.901048 
L 333.718501 249.932259 
L 334.512517 250.156942 
L 338.710945 251.911625 
L 340.088173 252.057189 
L 342.189145 252.005739 
L 343.636633 251.717138 
L 345.438973 251.00321 
L 346.868905 250.388022 
L 347.996689 250.141586 
L 349.992253 250.089551 
L 351.084901 250.104236 
L 352.904809 249.928338 
L 354.440137 249.851953 
L 355.550353 250.07471 
L 359.488801 251.355316 
L 360.901153 251.378634 
L 361.677601 251.209734 
L 363.212929 250.640082 
L 364.765825 249.994543 
L 366.107917 249.810992 
L 367.147861 249.833227 
L 368.402125 250.089447 
L 369.638821 250.22392 
L 370.713901 250.070119 
L 371.774929 249.743137 
L 374.086693 248.91869 
L 375.305821 248.678685 
L 376.240369 248.733472 
L 377.315449 249.019596 
L 378.850777 249.695246 
L 381.253897 250.719441 
L 382.487077 250.974235 
L 385.382065 251.111614 
L 387.219541 250.581598 
L 390.237493 249.571228 
L 391.368781 249.345203 
L 392.566837 249.102516 
L 394.154857 248.54846 
L 395.145613 248.223438 
L 396.768781 247.942884 
L 399.716461 247.993303 
L 402.470917 247.882251 
L 403.423033 247.605636 
L 404.571889 247.038975 
L 407.502013 245.464575 
L 408.436561 245.340987 
L 409.230577 245.430252 
L 411.454513 245.81589 
L 412.494457 245.576298 
L 415.638889 244.527013 
L 416.928289 244.264206 
L 417.862837 244.264946 
L 419.096017 244.305752 
L 420.209737 244.16275 
L 421.341037 244.098505 
L 423.687937 244.136973 
L 425.311093 244.075463 
L 426.228073 243.881939 
L 428.118253 243.331442 
L 428.947393 243.399814 
L 431.399701 243.748652 
L 435.654349 244.067673 
L 436.803217 243.980661 
L 437.597221 244.153154 
L 438.233137 244.549213 
L 439.417129 245.668761 
L 441.307309 247.55857 
L 441.978349 247.855907 
L 442.508869 247.872037 
L 443.039377 247.673268 
L 443.675293 247.154911 
L 444.595789 246.430872 
L 445.424929 245.95437 
L 446.875933 245.421774 
L 447.740221 245.28964 
L 448.674769 245.402549 
L 454.236373 246.409532 
L 456.671113 246.061106 
L 458.649121 246.008847 
L 462.815929 246.168357 
L 466.838701 246.131919 
L 468.092953 246.432058 
L 468.957241 246.855425 
L 469.874221 247.247666 
L 470.864977 247.689088 
L 471.904921 248.288903 
L 472.558405 248.367936 
L 473.141617 248.178074 
L 473.795101 247.672305 
L 475.453393 245.990602 
L 476.335237 245.305976 
L 477.041413 244.99619 
L 477.765169 244.963397 
L 478.418641 245.196472 
L 479.195089 245.739695 
L 479.901277 246.134567 
L 480.660157 246.327524 
L 483.344341 246.644911 
L 484.581037 246.77094 
L 487.493581 246.656346 
L 489.840493 246.407313 
L 491.551489 246.602901 
L 492.700345 246.441619 
L 493.757857 246.118007 
L 496.424473 245.382155 
L 497.148229 245.363308 
L 498.188173 245.59542 
L 499.744573 245.921199 
L 501.880681 246.169853 
L 503.398441 246.395568 
L 504.350557 246.350394 
L 505.657513 246.056033 
L 507.368509 245.472417 
L 508.303057 245.290689 
L 509.293813 245.363136 
L 510.881845 245.672854 
L 512.223937 245.848907 
L 514.781641 245.944688 
L 517.149637 246.274061 
L 518.207149 246.138746 
L 519.106561 245.741741 
L 520.202713 244.988847 
L 522.128029 243.778934 
L 522.869341 243.520392 
L 523.716049 243.418076 
L 524.826265 243.485501 
L 527.791513 243.944446 
L 530.883253 244.455289 
L 532.892881 244.830798 
L 534.041737 244.73469 
L 537.678037 244.212636 
L 541.156237 244.054432 
L 542.424553 244.23021 
L 546.398137 245.029223 
L 548.305873 245.225396 
L 551.622457 245.946993 
L 553.245613 245.94701 
L 554.289073 245.976381 
L 555.135793 246.209456 
L 556.228441 246.797801 
L 557.552965 247.481085 
L 558.613993 247.753281 
L 559.460701 247.747365 
L 562.601629 247.399541 
L 563.943721 247.673182 
L 565.672273 247.98455 
L 566.908969 248.043189 
L 572.857045 247.729791 
L 576.194713 247.306236 
L 578.365957 247.099935 
L 581.243377 246.892602 
L 584.384293 246.609281 
L 588.410569 246.149012 
L 590.174269 246.462478 
L 592.963849 246.96541 
L 596.333137 247.06544 
L 599.389741 247.13756 
L 601.434493 247.378579 
L 602.864425 247.721193 
L 604.789729 248.226739 
L 606.184525 248.381796 
L 607.259605 248.322813 
L 609.307873 248.10678 
L 613.014445 248.090409 
L 615.663493 248.298722 
L 619.405201 248.426935 
L 621.330505 248.546482 
L 622.370449 248.467604 
L 624.896533 247.907908 
L 626.431861 247.623898 
L 629.910061 247.323277 
L 631.002709 247.486209 
L 632.042653 247.821412 
L 634.213897 248.625326 
L 635.134393 248.72011 
L 636.051373 248.532708 
L 638.433409 247.837799 
L 639.634969 247.5877 
L 642.723193 246.774122 
L 643.889617 246.826879 
L 645.231709 247.103873 
L 646.890001 247.495461 
L 647.771857 247.450201 
L 649.430149 247.173654 
L 651.144649 246.83589 
L 668.778073 245.925425 
L 668.778073 245.925425 
" clip-path="url(#ped47d28026)" style="fill: none; stroke: #01adc1; stroke-width: 3; stroke-linecap: square"/>
   </g>
   <g id="patch_3">
    <path d="M 61.688125 290.858672 
L 61.688125 13.658672 
" style="fill: none; stroke: #000000; stroke-width: 0.8; stroke-linejoin: miter; stroke-linecap: square"/>
   </g>
   <g id="patch_4">
    <path d="M 694.088125 290.858672 
L 694.088125 13.658672 
" style="fill: none; stroke: #000000; stroke-width: 0.8; stroke-linejoin: miter; stroke-linecap: square"/>
   </g>
   <g id="patch_5">
    <path d="M 61.688125 290.858672 
L 694.088125 290.858672 
" style="fill: none; stroke: #000000; stroke-width: 0.8; stroke-linejoin: miter; stroke-linecap: square"/>
   </g>
   <g id="patch_6">
    <path d="M 61.688125 13.658672 
L 694.088125 13.658672 
" style="fill: none; stroke: #000000; stroke-width: 0.8; stroke-linejoin: miter; stroke-linecap: square"/>
   </g>
   <g id="legend_1">
    <g id="line2d_26">
     <path d="M 549.13125 35.926016 
L 566.13125 35.926016 
L 583.13125 35.926016 
" style="fill: none; stroke: #cf597e; stroke-width: 3; stroke-linecap: square"/>
    </g>
    <g id="text_23">
     <!-- 0.5 mm/h -->
     <g transform="translate(596.73125 41.876016)scale(0.17 -0.17)">
      <use xlink:href="#DejaVuSans-30"/>
      <use xlink:href="#DejaVuSans-2e" x="63.623047"/>
      <use xlink:href="#DejaVuSans-35" x="95.410156"/>
      <use xlink:href="#DejaVuSans-20" x="159.033203"/>
      <use xlink:href="#DejaVuSans-6d" x="190.820312"/>
      <use xlink:href="#DejaVuSans-6d" x="288.232422"/>
      <use xlink:href="#DejaVuSans-2f" x="385.644531"/>
      <use xlink:href="#DejaVuSans-68" x="419.335938"/>
     </g>
    </g>
    <g id="line2d_27">
     <path d="M 549.13125 60.878828 
L 566.13125 60.878828 
L 583.13125 60.878828 
" style="fill: none; stroke: #9b6e8e; stroke-width: 3; stroke-linecap: square"/>
    </g>
    <g id="text_24">
     <!-- 0.4 mm/h -->
     <g transform="translate(596.73125 66.828828)scale(0.17 -0.17)">
      <use xlink:href="#DejaVuSans-30"/>
      <use xlink:href="#DejaVuSans-2e" x="63.623047"/>
      <use xlink:href="#DejaVuSans-34" x="95.410156"/>
      <use xlink:href="#DejaVuSans-20" x="159.033203"/>
      <use xlink:href="#DejaVuSans-6d" x="190.820312"/>
      <use xlink:href="#DejaVuSans-6d" x="288.232422"/>
      <use xlink:href="#DejaVuSans-2f" x="385.644531"/>
      <use xlink:href="#DejaVuSans-68" x="419.335938"/>
     </g>
    </g>
    <g id="line2d_28">
     <path d="M 549.13125 85.831641 
L 566.13125 85.831641 
L 583.13125 85.831641 
" style="fill: none; stroke: #68839f; stroke-width: 3; stroke-linecap: square"/>
    </g>
    <g id="text_25">
     <!-- 0.3 mm/h -->
     <g transform="translate(596.73125 91.781641)scale(0.17 -0.17)">
      <use xlink:href="#DejaVuSans-30"/>
      <use xlink:href="#DejaVuSans-2e" x="63.623047"/>
      <use xlink:href="#DejaVuSans-33" x="95.410156"/>
      <use xlink:href="#DejaVuSans-20" x="159.033203"/>
      <use xlink:href="#DejaVuSans-6d" x="190.820312"/>
      <use xlink:href="#DejaVuSans-6d" x="288.232422"/>
      <use xlink:href="#DejaVuSans-2f" x="385.644531"/>
      <use xlink:href="#DejaVuSans-68" x="419.335938"/>
     </g>
    </g>
    <g id="line2d_29">
     <path d="M 549.13125 110.784453 
L 566.13125 110.784453 
L 583.13125 110.784453 
" style="fill: none; stroke: #3498b0; stroke-width: 3; stroke-linecap: square"/>
    </g>
    <g id="text_26">
     <!-- 0.2 mm/h -->
     <g transform="translate(596.73125 116.734453)scale(0.17 -0.17)">
      <use xlink:href="#DejaVuSans-30"/>
      <use xlink:href="#DejaVuSans-2e" x="63.623047"/>
      <use xlink:href="#DejaVuSans-32" x="95.410156"/>
      <use xlink:href="#DejaVuSans-20" x="159.033203"/>
      <use xlink:href="#DejaVuSans-6d" x="190.820312"/>
      <use xlink:href="#DejaVuSans-6d" x="288.232422"/>
      <use xlink:href="#DejaVuSans-2f" x="385.644531"/>
      <use xlink:href="#DejaVuSans-68" x="419.335938"/>
     </g>
    </g>
    <g id="line2d_30">
     <path d="M 549.13125 135.737266 
L 566.13125 135.737266 
L 583.13125 135.737266 
" style="fill: none; stroke: #01adc1; stroke-width: 3; stroke-linecap: square"/>
    </g>
    <g id="text_27">
     <!-- 0.1 mm/h -->
     <g transform="translate(596.73125 141.687266)scale(0.17 -0.17)">
      <use xlink:href="#DejaVuSans-30"/>
      <use xlink:href="#DejaVuSans-2e" x="63.623047"/>
      <use xlink:href="#DejaVuSans-31" x="95.410156"/>
      <use xlink:href="#DejaVuSans-20" x="159.033203"/>
      <use xlink:href="#DejaVuSans-6d" x="190.820312"/>
      <use xlink:href="#DejaVuSans-6d" x="288.232422"/>
      <use xlink:href="#DejaVuSans-2f" x="385.644531"/>
      <use xlink:href="#DejaVuSans-68" x="419.335938"/>
     </g>
    </g>
   </g>
  </g>
 </g>
 <defs>
  <clipPath id="ped47d28026">
   <rect x="61.688125" y="13.658672" width="632.4" height="277.2"/>
  </clipPath>
 </defs>
</svg>
