<?xml version="1.0" encoding="utf-8" standalone="no"?>
<!DOCTYPE svg PUBLIC "-//W3C//DTD SVG 1.1//EN"
  "http://www.w3.org/Graphics/SVG/1.1/DTD/svg11.dtd">
<svg xmlns:xlink="http://www.w3.org/1999/xlink" width="431.45125pt" height="341.964297pt" viewBox="0 0 431.45125 341.964297" xmlns="http://www.w3.org/2000/svg" version="1.1">
 <metadata>
  <rdf:RDF xmlns:dc="http://purl.org/dc/elements/1.1/" xmlns:cc="http://creativecommons.org/ns#" xmlns:rdf="http://www.w3.org/1999/02/22-rdf-syntax-ns#">
   <cc:Work>
    <dc:type rdf:resource="http://purl.org/dc/dcmitype/StillImage"/>
    <dc:date>2024-01-04T16:26:06.535589</dc:date>
    <dc:format>image/svg+xml</dc:format>
    <dc:creator>
     <cc:Agent>
      <dc:title>Matplotlib v3.5.2, https://matplotlib.org/</dc:title>
     </cc:Agent>
    </dc:creator>
   </cc:Work>
  </rdf:RDF>
 </metadata>
 <defs>
  <style type="text/css">*{stroke-linejoin: round; stroke-linecap: butt}</style>
 </defs>
 <g id="figure_1">
  <g id="patch_1">
   <path d="M 0 341.964297 
L 431.45125 341.964297 
L 431.45125 0 
L 0 0 
L 0 341.964297 
z
" style="fill: none"/>
  </g>
  <g id="axes_1">
   <g id="patch_2">
    <path d="M 75.933594 290.858672 
L 410.733594 290.858672 
L 410.733594 13.658672 
L 75.933594 13.658672 
L 75.933594 290.858672 
z
" style="fill: none"/>
   </g>
   <g id="PathCollection_1">
    <defs>
     <path id="m1df1fa1dc9" d="M 0 3 
C 0.795609 3 1.55874 2.683901 2.12132 2.12132 
C 2.683901 1.55874 3 0.795609 3 0 
C 3 -0.795609 2.683901 -1.55874 2.12132 -2.12132 
C 1.55874 -2.683901 0.795609 -3 0 -3 
C -0.795609 -3 -1.55874 -2.683901 -2.12132 -2.12132 
C -2.683901 -1.55874 -3 -0.795609 -3 0 
C -3 0.795609 -2.683901 1.55874 -2.12132 2.12132 
C -1.55874 2.683901 -0.795609 3 0 3 
z
" style="stroke: #474d6b"/>
    </defs>
    <g clip-path="url(#pc5c011b6cd)">
     <use xlink:href="#m1df1fa1dc9" x="297.449065" y="142.520518" style="fill: #474d6b; fill-opacity: 0.501961; stroke: #474d6b"/>
     <use xlink:href="#m1df1fa1dc9" x="285.969709" y="180.713053" style="fill: #474d6b; fill-opacity: 0.501961; stroke: #474d6b"/>
     <use xlink:href="#m1df1fa1dc9" x="276.312797" y="158.201086" style="fill: #474d6b; fill-opacity: 0.501961; stroke: #474d6b"/>
     <use xlink:href="#m1df1fa1dc9" x="251.152874" y="172.906912" style="fill: #474d6b; fill-opacity: 0.501961; stroke: #474d6b"/>
     <use xlink:href="#m1df1fa1dc9" x="258.680618" y="165.285405" style="fill: #474d6b; fill-opacity: 0.501961; stroke: #474d6b"/>
     <use xlink:href="#m1df1fa1dc9" x="303.828715" y="27.186782" style="fill: #474d6b; fill-opacity: 0.501961; stroke: #474d6b"/>
     <use xlink:href="#m1df1fa1dc9" x="249.407635" y="155.012147" style="fill: #474d6b; fill-opacity: 0.501961; stroke: #474d6b"/>
     <use xlink:href="#m1df1fa1dc9" x="253.923815" y="174.920374" style="fill: #474d6b; fill-opacity: 0.501961; stroke: #474d6b"/>
     <use xlink:href="#m1df1fa1dc9" x="343.663845" y="164.628569" style="fill: #474d6b; fill-opacity: 0.501961; stroke: #474d6b"/>
     <use xlink:href="#m1df1fa1dc9" x="246.042282" y="190.230926" style="fill: #474d6b; fill-opacity: 0.501961; stroke: #474d6b"/>
     <use xlink:href="#m1df1fa1dc9" x="265.919648" y="158.568483" style="fill: #474d6b; fill-opacity: 0.501961; stroke: #474d6b"/>
     <use xlink:href="#m1df1fa1dc9" x="264.543031" y="195.302626" style="fill: #474d6b; fill-opacity: 0.501961; stroke: #474d6b"/>
     <use xlink:href="#m1df1fa1dc9" x="341.992203" y="184.972127" style="fill: #474d6b; fill-opacity: 0.501961; stroke: #474d6b"/>
     <use xlink:href="#m1df1fa1dc9" x="285.871888" y="139.068136" style="fill: #474d6b; fill-opacity: 0.501961; stroke: #474d6b"/>
     <use xlink:href="#m1df1fa1dc9" x="291.853517" y="151.17672" style="fill: #474d6b; fill-opacity: 0.501961; stroke: #474d6b"/>
     <use xlink:href="#m1df1fa1dc9" x="327.546122" y="105.950012" style="fill: #474d6b; fill-opacity: 0.501961; stroke: #474d6b"/>
     <use xlink:href="#m1df1fa1dc9" x="314.79784" y="111.684796" style="fill: #474d6b; fill-opacity: 0.501961; stroke: #474d6b"/>
     <use xlink:href="#m1df1fa1dc9" x="290.203874" y="137.62375" style="fill: #474d6b; fill-opacity: 0.501961; stroke: #474d6b"/>
     <use xlink:href="#m1df1fa1dc9" x="340.174805" y="100.729992" style="fill: #474d6b; fill-opacity: 0.501961; stroke: #474d6b"/>
     <use xlink:href="#m1df1fa1dc9" x="339.942857" y="99.46963" style="fill: #474d6b; fill-opacity: 0.501961; stroke: #474d6b"/>
     <use xlink:href="#m1df1fa1dc9" x="277.395873" y="134.834542" style="fill: #474d6b; fill-opacity: 0.501961; stroke: #474d6b"/>
     <use xlink:href="#m1df1fa1dc9" x="250.823914" y="155.698638" style="fill: #474d6b; fill-opacity: 0.501961; stroke: #474d6b"/>
     <use xlink:href="#m1df1fa1dc9" x="302.053869" y="153.406197" style="fill: #474d6b; fill-opacity: 0.501961; stroke: #474d6b"/>
     <use xlink:href="#m1df1fa1dc9" x="243.370392" y="180.010438" style="fill: #474d6b; fill-opacity: 0.501961; stroke: #474d6b"/>
     <use xlink:href="#m1df1fa1dc9" x="239.948748" y="208.476698" style="fill: #474d6b; fill-opacity: 0.501961; stroke: #474d6b"/>
     <use xlink:href="#m1df1fa1dc9" x="261.543316" y="114.113122" style="fill: #474d6b; fill-opacity: 0.501961; stroke: #474d6b"/>
     <use xlink:href="#m1df1fa1dc9" x="224.285241" y="215.765344" style="fill: #474d6b; fill-opacity: 0.501961; stroke: #474d6b"/>
     <use xlink:href="#m1df1fa1dc9" x="302.909359" y="157.323485" style="fill: #474d6b; fill-opacity: 0.501961; stroke: #474d6b"/>
     <use xlink:href="#m1df1fa1dc9" x="197.217105" y="222.279627" style="fill: #474d6b; fill-opacity: 0.501961; stroke: #474d6b"/>
     <use xlink:href="#m1df1fa1dc9" x="213.134241" y="199.208503" style="fill: #474d6b; fill-opacity: 0.501961; stroke: #474d6b"/>
     <use xlink:href="#m1df1fa1dc9" x="362.650654" y="114.940342" style="fill: #474d6b; fill-opacity: 0.501961; stroke: #474d6b"/>
     <use xlink:href="#m1df1fa1dc9" x="193.245405" y="195.553244" style="fill: #474d6b; fill-opacity: 0.501961; stroke: #474d6b"/>
     <use xlink:href="#m1df1fa1dc9" x="84.238385" y="262.959238" style="fill: #474d6b; fill-opacity: 0.501961; stroke: #474d6b"/>
     <use xlink:href="#m1df1fa1dc9" x="148.475859" y="230.125744" style="fill: #474d6b; fill-opacity: 0.501961; stroke: #474d6b"/>
     <use xlink:href="#m1df1fa1dc9" x="254.743498" y="172.388513" style="fill: #474d6b; fill-opacity: 0.501961; stroke: #474d6b"/>
     <use xlink:href="#m1df1fa1dc9" x="252.498714" y="174.98511" style="fill: #474d6b; fill-opacity: 0.501961; stroke: #474d6b"/>
     <use xlink:href="#m1df1fa1dc9" x="232.72929" y="180.39067" style="fill: #474d6b; fill-opacity: 0.501961; stroke: #474d6b"/>
     <use xlink:href="#m1df1fa1dc9" x="238.933288" y="152.494438" style="fill: #474d6b; fill-opacity: 0.501961; stroke: #474d6b"/>
     <use xlink:href="#m1df1fa1dc9" x="206.854424" y="193.160481" style="fill: #474d6b; fill-opacity: 0.501961; stroke: #474d6b"/>
     <use xlink:href="#m1df1fa1dc9" x="279.913924" y="29.673792" style="fill: #474d6b; fill-opacity: 0.501961; stroke: #474d6b"/>
     <use xlink:href="#m1df1fa1dc9" x="206.899319" y="226.054136" style="fill: #474d6b; fill-opacity: 0.501961; stroke: #474d6b"/>
     <use xlink:href="#m1df1fa1dc9" x="332.701042" y="95.627778" style="fill: #474d6b; fill-opacity: 0.501961; stroke: #474d6b"/>
     <use xlink:href="#m1df1fa1dc9" x="266.55818" y="161.876856" style="fill: #474d6b; fill-opacity: 0.501961; stroke: #474d6b"/>
     <use xlink:href="#m1df1fa1dc9" x="239.790936" y="165.815713" style="fill: #474d6b; fill-opacity: 0.501961; stroke: #474d6b"/>
     <use xlink:href="#m1df1fa1dc9" x="163.531919" y="190.176079" style="fill: #474d6b; fill-opacity: 0.501961; stroke: #474d6b"/>
     <use xlink:href="#m1df1fa1dc9" x="217.122359" y="201.775259" style="fill: #474d6b; fill-opacity: 0.501961; stroke: #474d6b"/>
     <use xlink:href="#m1df1fa1dc9" x="192.527294" y="175.187554" style="fill: #474d6b; fill-opacity: 0.501961; stroke: #474d6b"/>
     <use xlink:href="#m1df1fa1dc9" x="257.966963" y="188.674274" style="fill: #474d6b; fill-opacity: 0.501961; stroke: #474d6b"/>
     <use xlink:href="#m1df1fa1dc9" x="233.588085" y="184.016421" style="fill: #474d6b; fill-opacity: 0.501961; stroke: #474d6b"/>
     <use xlink:href="#m1df1fa1dc9" x="252.624984" y="169.395443" style="fill: #474d6b; fill-opacity: 0.501961; stroke: #474d6b"/>
     <use xlink:href="#m1df1fa1dc9" x="408.74187" y="-1" style="fill: #474d6b; fill-opacity: 0.501961; stroke: #474d6b"/>
     <use xlink:href="#m1df1fa1dc9" x="385.488981" y="-1" style="fill: #474d6b; fill-opacity: 0.501961; stroke: #474d6b"/>
     <use xlink:href="#m1df1fa1dc9" x="188.499514" y="189.989519" style="fill: #474d6b; fill-opacity: 0.501961; stroke: #474d6b"/>
     <use xlink:href="#m1df1fa1dc9" x="204.595234" y="209.966898" style="fill: #474d6b; fill-opacity: 0.501961; stroke: #474d6b"/>
     <use xlink:href="#m1df1fa1dc9" x="216.417545" y="181.304738" style="fill: #474d6b; fill-opacity: 0.501961; stroke: #474d6b"/>
     <use xlink:href="#m1df1fa1dc9" x="203.687183" y="192.107452" style="fill: #474d6b; fill-opacity: 0.501961; stroke: #474d6b"/>
     <use xlink:href="#m1df1fa1dc9" x="264.067737" y="188.503467" style="fill: #474d6b; fill-opacity: 0.501961; stroke: #474d6b"/>
     <use xlink:href="#m1df1fa1dc9" x="235.309853" y="175.78682" style="fill: #474d6b; fill-opacity: 0.501961; stroke: #474d6b"/>
     <use xlink:href="#m1df1fa1dc9" x="205.355686" y="188.854281" style="fill: #474d6b; fill-opacity: 0.501961; stroke: #474d6b"/>
     <use xlink:href="#m1df1fa1dc9" x="232.264799" y="179.577755" style="fill: #474d6b; fill-opacity: 0.501961; stroke: #474d6b"/>
     <use xlink:href="#m1df1fa1dc9" x="195.723395" y="185.869265" style="fill: #474d6b; fill-opacity: 0.501961; stroke: #474d6b"/>
     <use xlink:href="#m1df1fa1dc9" x="166.985229" y="139.361346" style="fill: #474d6b; fill-opacity: 0.501961; stroke: #474d6b"/>
     <use xlink:href="#m1df1fa1dc9" x="137.255962" y="196.053452" style="fill: #474d6b; fill-opacity: 0.501961; stroke: #474d6b"/>
     <use xlink:href="#m1df1fa1dc9" x="261.491081" y="182.076095" style="fill: #474d6b; fill-opacity: 0.501961; stroke: #474d6b"/>
     <use xlink:href="#m1df1fa1dc9" x="253.760309" y="184.940509" style="fill: #474d6b; fill-opacity: 0.501961; stroke: #474d6b"/>
     <use xlink:href="#m1df1fa1dc9" x="244.382199" y="190.268628" style="fill: #474d6b; fill-opacity: 0.501961; stroke: #474d6b"/>
     <use xlink:href="#m1df1fa1dc9" x="190.914845" y="154.578278" style="fill: #474d6b; fill-opacity: 0.501961; stroke: #474d6b"/>
     <use xlink:href="#m1df1fa1dc9" x="209.521979" y="204.931264" style="fill: #474d6b; fill-opacity: 0.501961; stroke: #474d6b"/>
     <use xlink:href="#m1df1fa1dc9" x="244.856022" y="215.462258" style="fill: #474d6b; fill-opacity: 0.501961; stroke: #474d6b"/>
     <use xlink:href="#m1df1fa1dc9" x="250.047748" y="194.332526" style="fill: #474d6b; fill-opacity: 0.501961; stroke: #474d6b"/>
     <use xlink:href="#m1df1fa1dc9" x="149.154795" y="214.41616" style="fill: #474d6b; fill-opacity: 0.501961; stroke: #474d6b"/>
     <use xlink:href="#m1df1fa1dc9" x="196.114552" y="78.881403" style="fill: #474d6b; fill-opacity: 0.501961; stroke: #474d6b"/>
     <use xlink:href="#m1df1fa1dc9" x="245.356333" y="194.130412" style="fill: #474d6b; fill-opacity: 0.501961; stroke: #474d6b"/>
     <use xlink:href="#m1df1fa1dc9" x="141.332194" y="135.472602" style="fill: #474d6b; fill-opacity: 0.501961; stroke: #474d6b"/>
     <use xlink:href="#m1df1fa1dc9" x="214.064177" y="144.326553" style="fill: #474d6b; fill-opacity: 0.501961; stroke: #474d6b"/>
     <use xlink:href="#m1df1fa1dc9" x="194.975344" y="161.400627" style="fill: #474d6b; fill-opacity: 0.501961; stroke: #474d6b"/>
     <use xlink:href="#m1df1fa1dc9" x="243.860338" y="179.587037" style="fill: #474d6b; fill-opacity: 0.501961; stroke: #474d6b"/>
    </g>
   </g>
   <g id="matplotlib.axis_1">
    <g id="xtick_1">
     <g id="line2d_1">
      <defs>
       <path id="mf44dd5edac" d="M 0 0 
L 0 3.5 
" style="stroke: #000000; stroke-width: 0.8"/>
      </defs>
      <g>
       <use xlink:href="#mf44dd5edac" x="75.933594" y="290.858672" style="stroke: #000000; stroke-width: 0.8"/>
      </g>
     </g>
     <g id="text_1">
      <!-- −1.0 -->
      <g transform="translate(55.293203 310.776016)scale(0.17 -0.17)">
       <defs>
        <path id="DejaVuSans-2212" d="M 678 2272 
L 4684 2272 
L 4684 1741 
L 678 1741 
L 678 2272 
z
" transform="scale(0.015625)"/>
        <path id="DejaVuSans-31" d="M 794 531 
L 1825 531 
L 1825 4091 
L 703 3866 
L 703 4441 
L 1819 4666 
L 2450 4666 
L 2450 531 
L 3481 531 
L 3481 0 
L 794 0 
L 794 531 
z
" transform="scale(0.015625)"/>
        <path id="DejaVuSans-2e" d="M 684 794 
L 1344 794 
L 1344 0 
L 684 0 
L 684 794 
z
" transform="scale(0.015625)"/>
        <path id="DejaVuSans-30" d="M 2034 4250 
Q 1547 4250 1301 3770 
Q 1056 3291 1056 2328 
Q 1056 1369 1301 889 
Q 1547 409 2034 409 
Q 2525 409 2770 889 
Q 3016 1369 3016 2328 
Q 3016 3291 2770 3770 
Q 2525 4250 2034 4250 
z
M 2034 4750 
Q 2819 4750 3233 4129 
Q 3647 3509 3647 2328 
Q 3647 1150 3233 529 
Q 2819 -91 2034 -91 
Q 1250 -91 836 529 
Q 422 1150 422 2328 
Q 422 3509 836 4129 
Q 1250 4750 2034 4750 
z
" transform="scale(0.015625)"/>
       </defs>
       <use xlink:href="#DejaVuSans-2212"/>
       <use xlink:href="#DejaVuSans-31" x="83.789062"/>
       <use xlink:href="#DejaVuSans-2e" x="147.412109"/>
       <use xlink:href="#DejaVuSans-30" x="179.199219"/>
      </g>
     </g>
    </g>
    <g id="xtick_2">
     <g id="line2d_2">
      <g>
       <use xlink:href="#mf44dd5edac" x="159.633594" y="290.858672" style="stroke: #000000; stroke-width: 0.8"/>
      </g>
     </g>
     <g id="text_2">
      <!-- −0.5 -->
      <g transform="translate(138.993203 310.776016)scale(0.17 -0.17)">
       <defs>
        <path id="DejaVuSans-35" d="M 691 4666 
L 3169 4666 
L 3169 4134 
L 1269 4134 
L 1269 2991 
Q 1406 3038 1543 3061 
Q 1681 3084 1819 3084 
Q 2600 3084 3056 2656 
Q 3513 2228 3513 1497 
Q 3513 744 3044 326 
Q 2575 -91 1722 -91 
Q 1428 -91 1123 -41 
Q 819 9 494 109 
L 494 744 
Q 775 591 1075 516 
Q 1375 441 1709 441 
Q 2250 441 2565 725 
Q 2881 1009 2881 1497 
Q 2881 1984 2565 2268 
Q 2250 2553 1709 2553 
Q 1456 2553 1204 2497 
Q 953 2441 691 2322 
L 691 4666 
z
" transform="scale(0.015625)"/>
       </defs>
       <use xlink:href="#DejaVuSans-2212"/>
       <use xlink:href="#DejaVuSans-30" x="83.789062"/>
       <use xlink:href="#DejaVuSans-2e" x="147.412109"/>
       <use xlink:href="#DejaVuSans-35" x="179.199219"/>
      </g>
     </g>
    </g>
    <g id="xtick_3">
     <g id="line2d_3">
      <g>
       <use xlink:href="#mf44dd5edac" x="243.333594" y="290.858672" style="stroke: #000000; stroke-width: 0.8"/>
      </g>
     </g>
     <g id="text_3">
      <!-- 0.0 -->
      <g transform="translate(229.815938 310.776016)scale(0.17 -0.17)">
       <use xlink:href="#DejaVuSans-30"/>
       <use xlink:href="#DejaVuSans-2e" x="63.623047"/>
       <use xlink:href="#DejaVuSans-30" x="95.410156"/>
      </g>
     </g>
    </g>
    <g id="xtick_4">
     <g id="line2d_4">
      <g>
       <use xlink:href="#mf44dd5edac" x="327.033594" y="290.858672" style="stroke: #000000; stroke-width: 0.8"/>
      </g>
     </g>
     <g id="text_4">
      <!-- 0.5 -->
      <g transform="translate(313.515938 310.776016)scale(0.17 -0.17)">
       <use xlink:href="#DejaVuSans-30"/>
       <use xlink:href="#DejaVuSans-2e" x="63.623047"/>
       <use xlink:href="#DejaVuSans-35" x="95.410156"/>
      </g>
     </g>
    </g>
    <g id="xtick_5">
     <g id="line2d_5">
      <g>
       <use xlink:href="#mf44dd5edac" x="410.733594" y="290.858672" style="stroke: #000000; stroke-width: 0.8"/>
      </g>
     </g>
     <g id="text_5">
      <!-- 1.0 -->
      <g transform="translate(397.215937 310.776016)scale(0.17 -0.17)">
       <use xlink:href="#DejaVuSans-31"/>
       <use xlink:href="#DejaVuSans-2e" x="63.623047"/>
       <use xlink:href="#DejaVuSans-30" x="95.410156"/>
      </g>
     </g>
    </g>
    <g id="text_6">
     <!-- Estimation error (g/h) -->
     <g transform="translate(151.815156 331.228828)scale(0.17 -0.17)">
      <defs>
       <path id="DejaVuSans-45" d="M 628 4666 
L 3578 4666 
L 3578 4134 
L 1259 4134 
L 1259 2753 
L 3481 2753 
L 3481 2222 
L 1259 2222 
L 1259 531 
L 3634 531 
L 3634 0 
L 628 0 
L 628 4666 
z
" transform="scale(0.015625)"/>
       <path id="DejaVuSans-73" d="M 2834 3397 
L 2834 2853 
Q 2591 2978 2328 3040 
Q 2066 3103 1784 3103 
Q 1356 3103 1142 2972 
Q 928 2841 928 2578 
Q 928 2378 1081 2264 
Q 1234 2150 1697 2047 
L 1894 2003 
Q 2506 1872 2764 1633 
Q 3022 1394 3022 966 
Q 3022 478 2636 193 
Q 2250 -91 1575 -91 
Q 1294 -91 989 -36 
Q 684 19 347 128 
L 347 722 
Q 666 556 975 473 
Q 1284 391 1588 391 
Q 1994 391 2212 530 
Q 2431 669 2431 922 
Q 2431 1156 2273 1281 
Q 2116 1406 1581 1522 
L 1381 1569 
Q 847 1681 609 1914 
Q 372 2147 372 2553 
Q 372 3047 722 3315 
Q 1072 3584 1716 3584 
Q 2034 3584 2315 3537 
Q 2597 3491 2834 3397 
z
" transform="scale(0.015625)"/>
       <path id="DejaVuSans-74" d="M 1172 4494 
L 1172 3500 
L 2356 3500 
L 2356 3053 
L 1172 3053 
L 1172 1153 
Q 1172 725 1289 603 
Q 1406 481 1766 481 
L 2356 481 
L 2356 0 
L 1766 0 
Q 1100 0 847 248 
Q 594 497 594 1153 
L 594 3053 
L 172 3053 
L 172 3500 
L 594 3500 
L 594 4494 
L 1172 4494 
z
" transform="scale(0.015625)"/>
       <path id="DejaVuSans-69" d="M 603 3500 
L 1178 3500 
L 1178 0 
L 603 0 
L 603 3500 
z
M 603 4863 
L 1178 4863 
L 1178 4134 
L 603 4134 
L 603 4863 
z
" transform="scale(0.015625)"/>
       <path id="DejaVuSans-6d" d="M 3328 2828 
Q 3544 3216 3844 3400 
Q 4144 3584 4550 3584 
Q 5097 3584 5394 3201 
Q 5691 2819 5691 2113 
L 5691 0 
L 5113 0 
L 5113 2094 
Q 5113 2597 4934 2840 
Q 4756 3084 4391 3084 
Q 3944 3084 3684 2787 
Q 3425 2491 3425 1978 
L 3425 0 
L 2847 0 
L 2847 2094 
Q 2847 2600 2669 2842 
Q 2491 3084 2119 3084 
Q 1678 3084 1418 2786 
Q 1159 2488 1159 1978 
L 1159 0 
L 581 0 
L 581 3500 
L 1159 3500 
L 1159 2956 
Q 1356 3278 1631 3431 
Q 1906 3584 2284 3584 
Q 2666 3584 2933 3390 
Q 3200 3197 3328 2828 
z
" transform="scale(0.015625)"/>
       <path id="DejaVuSans-61" d="M 2194 1759 
Q 1497 1759 1228 1600 
Q 959 1441 959 1056 
Q 959 750 1161 570 
Q 1363 391 1709 391 
Q 2188 391 2477 730 
Q 2766 1069 2766 1631 
L 2766 1759 
L 2194 1759 
z
M 3341 1997 
L 3341 0 
L 2766 0 
L 2766 531 
Q 2569 213 2275 61 
Q 1981 -91 1556 -91 
Q 1019 -91 701 211 
Q 384 513 384 1019 
Q 384 1609 779 1909 
Q 1175 2209 1959 2209 
L 2766 2209 
L 2766 2266 
Q 2766 2663 2505 2880 
Q 2244 3097 1772 3097 
Q 1472 3097 1187 3025 
Q 903 2953 641 2809 
L 641 3341 
Q 956 3463 1253 3523 
Q 1550 3584 1831 3584 
Q 2591 3584 2966 3190 
Q 3341 2797 3341 1997 
z
" transform="scale(0.015625)"/>
       <path id="DejaVuSans-6f" d="M 1959 3097 
Q 1497 3097 1228 2736 
Q 959 2375 959 1747 
Q 959 1119 1226 758 
Q 1494 397 1959 397 
Q 2419 397 2687 759 
Q 2956 1122 2956 1747 
Q 2956 2369 2687 2733 
Q 2419 3097 1959 3097 
z
M 1959 3584 
Q 2709 3584 3137 3096 
Q 3566 2609 3566 1747 
Q 3566 888 3137 398 
Q 2709 -91 1959 -91 
Q 1206 -91 779 398 
Q 353 888 353 1747 
Q 353 2609 779 3096 
Q 1206 3584 1959 3584 
z
" transform="scale(0.015625)"/>
       <path id="DejaVuSans-6e" d="M 3513 2113 
L 3513 0 
L 2938 0 
L 2938 2094 
Q 2938 2591 2744 2837 
Q 2550 3084 2163 3084 
Q 1697 3084 1428 2787 
Q 1159 2491 1159 1978 
L 1159 0 
L 581 0 
L 581 3500 
L 1159 3500 
L 1159 2956 
Q 1366 3272 1645 3428 
Q 1925 3584 2291 3584 
Q 2894 3584 3203 3211 
Q 3513 2838 3513 2113 
z
" transform="scale(0.015625)"/>
       <path id="DejaVuSans-20" transform="scale(0.015625)"/>
       <path id="DejaVuSans-65" d="M 3597 1894 
L 3597 1613 
L 953 1613 
Q 991 1019 1311 708 
Q 1631 397 2203 397 
Q 2534 397 2845 478 
Q 3156 559 3463 722 
L 3463 178 
Q 3153 47 2828 -22 
Q 2503 -91 2169 -91 
Q 1331 -91 842 396 
Q 353 884 353 1716 
Q 353 2575 817 3079 
Q 1281 3584 2069 3584 
Q 2775 3584 3186 3129 
Q 3597 2675 3597 1894 
z
M 3022 2063 
Q 3016 2534 2758 2815 
Q 2500 3097 2075 3097 
Q 1594 3097 1305 2825 
Q 1016 2553 972 2059 
L 3022 2063 
z
" transform="scale(0.015625)"/>
       <path id="DejaVuSans-72" d="M 2631 2963 
Q 2534 3019 2420 3045 
Q 2306 3072 2169 3072 
Q 1681 3072 1420 2755 
Q 1159 2438 1159 1844 
L 1159 0 
L 581 0 
L 581 3500 
L 1159 3500 
L 1159 2956 
Q 1341 3275 1631 3429 
Q 1922 3584 2338 3584 
Q 2397 3584 2469 3576 
Q 2541 3569 2628 3553 
L 2631 2963 
z
" transform="scale(0.015625)"/>
       <path id="DejaVuSans-28" d="M 1984 4856 
Q 1566 4138 1362 3434 
Q 1159 2731 1159 2009 
Q 1159 1288 1364 580 
Q 1569 -128 1984 -844 
L 1484 -844 
Q 1016 -109 783 600 
Q 550 1309 550 2009 
Q 550 2706 781 3412 
Q 1013 4119 1484 4856 
L 1984 4856 
z
" transform="scale(0.015625)"/>
       <path id="DejaVuSans-67" d="M 2906 1791 
Q 2906 2416 2648 2759 
Q 2391 3103 1925 3103 
Q 1463 3103 1205 2759 
Q 947 2416 947 1791 
Q 947 1169 1205 825 
Q 1463 481 1925 481 
Q 2391 481 2648 825 
Q 2906 1169 2906 1791 
z
M 3481 434 
Q 3481 -459 3084 -895 
Q 2688 -1331 1869 -1331 
Q 1566 -1331 1297 -1286 
Q 1028 -1241 775 -1147 
L 775 -588 
Q 1028 -725 1275 -790 
Q 1522 -856 1778 -856 
Q 2344 -856 2625 -561 
Q 2906 -266 2906 331 
L 2906 616 
Q 2728 306 2450 153 
Q 2172 0 1784 0 
Q 1141 0 747 490 
Q 353 981 353 1791 
Q 353 2603 747 3093 
Q 1141 3584 1784 3584 
Q 2172 3584 2450 3431 
Q 2728 3278 2906 2969 
L 2906 3500 
L 3481 3500 
L 3481 434 
z
" transform="scale(0.015625)"/>
       <path id="DejaVuSans-2f" d="M 1625 4666 
L 2156 4666 
L 531 -594 
L 0 -594 
L 1625 4666 
z
" transform="scale(0.015625)"/>
       <path id="DejaVuSans-68" d="M 3513 2113 
L 3513 0 
L 2938 0 
L 2938 2094 
Q 2938 2591 2744 2837 
Q 2550 3084 2163 3084 
Q 1697 3084 1428 2787 
Q 1159 2491 1159 1978 
L 1159 0 
L 581 0 
L 581 4863 
L 1159 4863 
L 1159 2956 
Q 1366 3272 1645 3428 
Q 1925 3584 2291 3584 
Q 2894 3584 3203 3211 
Q 3513 2838 3513 2113 
z
" transform="scale(0.015625)"/>
       <path id="DejaVuSans-29" d="M 513 4856 
L 1013 4856 
Q 1481 4119 1714 3412 
Q 1947 2706 1947 2009 
Q 1947 1309 1714 600 
Q 1481 -109 1013 -844 
L 513 -844 
Q 928 -128 1133 580 
Q 1338 1288 1338 2009 
Q 1338 2731 1133 3434 
Q 928 4138 513 4856 
z
" transform="scale(0.015625)"/>
      </defs>
      <use xlink:href="#DejaVuSans-45"/>
      <use xlink:href="#DejaVuSans-73" x="63.183594"/>
      <use xlink:href="#DejaVuSans-74" x="115.283203"/>
      <use xlink:href="#DejaVuSans-69" x="154.492188"/>
      <use xlink:href="#DejaVuSans-6d" x="182.275391"/>
      <use xlink:href="#DejaVuSans-61" x="279.6875"/>
      <use xlink:href="#DejaVuSans-74" x="340.966797"/>
      <use xlink:href="#DejaVuSans-69" x="380.175781"/>
      <use xlink:href="#DejaVuSans-6f" x="407.958984"/>
      <use xlink:href="#DejaVuSans-6e" x="469.140625"/>
      <use xlink:href="#DejaVuSans-20" x="532.519531"/>
      <use xlink:href="#DejaVuSans-65" x="564.306641"/>
      <use xlink:href="#DejaVuSans-72" x="625.830078"/>
      <use xlink:href="#DejaVuSans-72" x="665.193359"/>
      <use xlink:href="#DejaVuSans-6f" x="704.056641"/>
      <use xlink:href="#DejaVuSans-72" x="765.238281"/>
      <use xlink:href="#DejaVuSans-20" x="806.351562"/>
      <use xlink:href="#DejaVuSans-28" x="838.138672"/>
      <use xlink:href="#DejaVuSans-67" x="877.152344"/>
      <use xlink:href="#DejaVuSans-2f" x="940.628906"/>
      <use xlink:href="#DejaVuSans-68" x="974.320312"/>
      <use xlink:href="#DejaVuSans-29" x="1037.699219"/>
     </g>
    </g>
   </g>
   <g id="matplotlib.axis_2">
    <g id="ytick_1">
     <g id="line2d_6">
      <defs>
       <path id="mf2a7a092b0" d="M 0 0 
L -3.5 0 
" style="stroke: #000000; stroke-width: 0.8"/>
      </defs>
      <g>
       <use xlink:href="#mf2a7a092b0" x="75.933594" y="290.858672" style="stroke: #000000; stroke-width: 0.8"/>
      </g>
     </g>
     <g id="text_7">
      <!-- −0.2 -->
      <g transform="translate(27.652812 297.317344)scale(0.17 -0.17)">
       <defs>
        <path id="DejaVuSans-32" d="M 1228 531 
L 3431 531 
L 3431 0 
L 469 0 
L 469 531 
Q 828 903 1448 1529 
Q 2069 2156 2228 2338 
Q 2531 2678 2651 2914 
Q 2772 3150 2772 3378 
Q 2772 3750 2511 3984 
Q 2250 4219 1831 4219 
Q 1534 4219 1204 4116 
Q 875 4013 500 3803 
L 500 4441 
Q 881 4594 1212 4672 
Q 1544 4750 1819 4750 
Q 2544 4750 2975 4387 
Q 3406 4025 3406 3419 
Q 3406 3131 3298 2873 
Q 3191 2616 2906 2266 
Q 2828 2175 2409 1742 
Q 1991 1309 1228 531 
z
" transform="scale(0.015625)"/>
       </defs>
       <use xlink:href="#DejaVuSans-2212"/>
       <use xlink:href="#DejaVuSans-30" x="83.789062"/>
       <use xlink:href="#DejaVuSans-2e" x="147.412109"/>
       <use xlink:href="#DejaVuSans-32" x="179.199219"/>
      </g>
     </g>
    </g>
    <g id="ytick_2">
     <g id="line2d_7">
      <g>
       <use xlink:href="#mf2a7a092b0" x="75.933594" y="235.418672" style="stroke: #000000; stroke-width: 0.8"/>
      </g>
     </g>
     <g id="text_8">
      <!-- −0.1 -->
      <g transform="translate(27.652812 241.877344)scale(0.17 -0.17)">
       <use xlink:href="#DejaVuSans-2212"/>
       <use xlink:href="#DejaVuSans-30" x="83.789062"/>
       <use xlink:href="#DejaVuSans-2e" x="147.412109"/>
       <use xlink:href="#DejaVuSans-31" x="179.199219"/>
      </g>
     </g>
    </g>
    <g id="ytick_3">
     <g id="line2d_8">
      <g>
       <use xlink:href="#mf2a7a092b0" x="75.933594" y="179.978672" style="stroke: #000000; stroke-width: 0.8"/>
      </g>
     </g>
     <g id="text_9">
      <!-- 0.0 -->
      <g transform="translate(41.898281 186.437344)scale(0.17 -0.17)">
       <use xlink:href="#DejaVuSans-30"/>
       <use xlink:href="#DejaVuSans-2e" x="63.623047"/>
       <use xlink:href="#DejaVuSans-30" x="95.410156"/>
      </g>
     </g>
    </g>
    <g id="ytick_4">
     <g id="line2d_9">
      <g>
       <use xlink:href="#mf2a7a092b0" x="75.933594" y="124.538672" style="stroke: #000000; stroke-width: 0.8"/>
      </g>
     </g>
     <g id="text_10">
      <!-- 0.1 -->
      <g transform="translate(41.898281 130.997344)scale(0.17 -0.17)">
       <use xlink:href="#DejaVuSans-30"/>
       <use xlink:href="#DejaVuSans-2e" x="63.623047"/>
       <use xlink:href="#DejaVuSans-31" x="95.410156"/>
      </g>
     </g>
    </g>
    <g id="ytick_5">
     <g id="line2d_10">
      <g>
       <use xlink:href="#mf2a7a092b0" x="75.933594" y="69.098672" style="stroke: #000000; stroke-width: 0.8"/>
      </g>
     </g>
     <g id="text_11">
      <!-- 0.2 -->
      <g transform="translate(41.898281 75.557344)scale(0.17 -0.17)">
       <use xlink:href="#DejaVuSans-30"/>
       <use xlink:href="#DejaVuSans-2e" x="63.623047"/>
       <use xlink:href="#DejaVuSans-32" x="95.410156"/>
      </g>
     </g>
    </g>
    <g id="ytick_6">
     <g id="line2d_11">
      <g>
       <use xlink:href="#mf2a7a092b0" x="75.933594" y="13.658672" style="stroke: #000000; stroke-width: 0.8"/>
      </g>
     </g>
     <g id="text_12">
      <!-- 0.3 -->
      <g transform="translate(41.898281 20.117344)scale(0.17 -0.17)">
       <defs>
        <path id="DejaVuSans-33" d="M 2597 2516 
Q 3050 2419 3304 2112 
Q 3559 1806 3559 1356 
Q 3559 666 3084 287 
Q 2609 -91 1734 -91 
Q 1441 -91 1130 -33 
Q 819 25 488 141 
L 488 750 
Q 750 597 1062 519 
Q 1375 441 1716 441 
Q 2309 441 2620 675 
Q 2931 909 2931 1356 
Q 2931 1769 2642 2001 
Q 2353 2234 1838 2234 
L 1294 2234 
L 1294 2753 
L 1863 2753 
Q 2328 2753 2575 2939 
Q 2822 3125 2822 3475 
Q 2822 3834 2567 4026 
Q 2313 4219 1838 4219 
Q 1578 4219 1281 4162 
Q 984 4106 628 3988 
L 628 4550 
Q 988 4650 1302 4700 
Q 1616 4750 1894 4750 
Q 2613 4750 3031 4423 
Q 3450 4097 3450 3541 
Q 3450 3153 3228 2886 
Q 3006 2619 2597 2516 
z
" transform="scale(0.015625)"/>
       </defs>
       <use xlink:href="#DejaVuSans-30"/>
       <use xlink:href="#DejaVuSans-2e" x="63.623047"/>
       <use xlink:href="#DejaVuSans-33" x="95.410156"/>
      </g>
     </g>
    </g>
    <g id="text_13">
     <!-- sPV - SV (mm/h) -->
     <g transform="translate(20.117344 221.45)rotate(-90)scale(0.17 -0.17)">
      <defs>
       <path id="DejaVuSans-50" d="M 1259 4147 
L 1259 2394 
L 2053 2394 
Q 2494 2394 2734 2622 
Q 2975 2850 2975 3272 
Q 2975 3691 2734 3919 
Q 2494 4147 2053 4147 
L 1259 4147 
z
M 628 4666 
L 2053 4666 
Q 2838 4666 3239 4311 
Q 3641 3956 3641 3272 
Q 3641 2581 3239 2228 
Q 2838 1875 2053 1875 
L 1259 1875 
L 1259 0 
L 628 0 
L 628 4666 
z
" transform="scale(0.015625)"/>
       <path id="DejaVuSans-56" d="M 1831 0 
L 50 4666 
L 709 4666 
L 2188 738 
L 3669 4666 
L 4325 4666 
L 2547 0 
L 1831 0 
z
" transform="scale(0.015625)"/>
       <path id="DejaVuSans-2d" d="M 313 2009 
L 1997 2009 
L 1997 1497 
L 313 1497 
L 313 2009 
z
" transform="scale(0.015625)"/>
       <path id="DejaVuSans-53" d="M 3425 4513 
L 3425 3897 
Q 3066 4069 2747 4153 
Q 2428 4238 2131 4238 
Q 1616 4238 1336 4038 
Q 1056 3838 1056 3469 
Q 1056 3159 1242 3001 
Q 1428 2844 1947 2747 
L 2328 2669 
Q 3034 2534 3370 2195 
Q 3706 1856 3706 1288 
Q 3706 609 3251 259 
Q 2797 -91 1919 -91 
Q 1588 -91 1214 -16 
Q 841 59 441 206 
L 441 856 
Q 825 641 1194 531 
Q 1563 422 1919 422 
Q 2459 422 2753 634 
Q 3047 847 3047 1241 
Q 3047 1584 2836 1778 
Q 2625 1972 2144 2069 
L 1759 2144 
Q 1053 2284 737 2584 
Q 422 2884 422 3419 
Q 422 4038 858 4394 
Q 1294 4750 2059 4750 
Q 2388 4750 2728 4690 
Q 3069 4631 3425 4513 
z
" transform="scale(0.015625)"/>
      </defs>
      <use xlink:href="#DejaVuSans-73"/>
      <use xlink:href="#DejaVuSans-50" x="52.099609"/>
      <use xlink:href="#DejaVuSans-56" x="112.402344"/>
      <use xlink:href="#DejaVuSans-20" x="180.810547"/>
      <use xlink:href="#DejaVuSans-2d" x="212.597656"/>
      <use xlink:href="#DejaVuSans-20" x="248.681641"/>
      <use xlink:href="#DejaVuSans-53" x="280.46875"/>
      <use xlink:href="#DejaVuSans-56" x="343.945312"/>
      <use xlink:href="#DejaVuSans-20" x="412.353516"/>
      <use xlink:href="#DejaVuSans-28" x="444.140625"/>
      <use xlink:href="#DejaVuSans-6d" x="483.154297"/>
      <use xlink:href="#DejaVuSans-6d" x="580.566406"/>
      <use xlink:href="#DejaVuSans-2f" x="677.978516"/>
      <use xlink:href="#DejaVuSans-68" x="711.669922"/>
      <use xlink:href="#DejaVuSans-29" x="775.048828"/>
     </g>
    </g>
   </g>
   <g id="line2d_12">
    <path d="M 75.933594 275.898525 
L 410.733594 55.988015 
" clip-path="url(#pc5c011b6cd)" style="fill: none; stroke-dasharray: 5.55,2.4; stroke-dashoffset: 0; stroke: #474d6b; stroke-width: 1.5"/>
   </g>
   <g id="patch_3">
    <path d="M 75.933594 290.858672 
L 75.933594 13.658672 
" style="fill: none; stroke: #000000; stroke-width: 0.8; stroke-linejoin: miter; stroke-linecap: square"/>
   </g>
   <g id="patch_4">
    <path d="M 410.733594 290.858672 
L 410.733594 13.658672 
" style="fill: none; stroke: #000000; stroke-width: 0.8; stroke-linejoin: miter; stroke-linecap: square"/>
   </g>
   <g id="patch_5">
    <path d="M 75.933594 290.858672 
L 410.733594 290.858672 
" style="fill: none; stroke: #000000; stroke-width: 0.8; stroke-linejoin: miter; stroke-linecap: square"/>
   </g>
   <g id="patch_6">
    <path d="M 75.933594 13.658672 
L 410.733594 13.658672 
" style="fill: none; stroke: #000000; stroke-width: 0.8; stroke-linejoin: miter; stroke-linecap: square"/>
   </g>
  </g>
 </g>
 <defs>
  <clipPath id="pc5c011b6cd">
   <rect x="75.933594" y="13.658672" width="334.8" height="277.2"/>
  </clipPath>
 </defs>
</svg>
