<?xml version="1.0" encoding="utf-8" standalone="no"?>
<!DOCTYPE svg PUBLIC "-//W3C//DTD SVG 1.1//EN"
  "http://www.w3.org/Graphics/SVG/1.1/DTD/svg11.dtd">
<svg xmlns:xlink="http://www.w3.org/1999/xlink" width="752.459375pt" height="337.333203pt" viewBox="0 0 752.459375 337.333203" xmlns="http://www.w3.org/2000/svg" version="1.1">
 <metadata>
  <rdf:RDF xmlns:dc="http://purl.org/dc/elements/1.1/" xmlns:cc="http://creativecommons.org/ns#" xmlns:rdf="http://www.w3.org/1999/02/22-rdf-syntax-ns#">
   <cc:Work>
    <dc:type rdf:resource="http://purl.org/dc/dcmitype/StillImage"/>
    <dc:date>2024-01-04T16:30:04.838187</dc:date>
    <dc:format>image/svg+xml</dc:format>
    <dc:creator>
     <cc:Agent>
      <dc:title>Matplotlib v3.5.2, https://matplotlib.org/</dc:title>
     </cc:Agent>
    </dc:creator>
   </cc:Work>
  </rdf:RDF>
 </metadata>
 <defs>
  <style type="text/css">*{stroke-linejoin: round; stroke-linecap: butt}</style>
 </defs>
 <g id="figure_1">
  <g id="patch_1">
   <path d="M 0 337.333203 
L 752.459375 337.333203 
L 752.459375 0 
L 0 0 
L 0 337.333203 
z
" style="fill: none"/>
  </g>
  <g id="axes_1">
   <g id="patch_2">
    <path d="M 66.115625 290.098828 
L 735.715625 290.098828 
L 735.715625 12.898828 
L 66.115625 12.898828 
L 66.115625 290.098828 
z
" style="fill: none"/>
   </g>
   <g id="matplotlib.axis_1">
    <g id="xtick_1">
     <g id="line2d_1">
      <defs>
       <path id="mdcefdd56ab" d="M 0 0 
L 0 3.5 
" style="stroke: #000000; stroke-width: 0.8"/>
      </defs>
      <g>
       <use xlink:href="#mdcefdd56ab" x="66.115625" y="290.098828" style="stroke: #000000; stroke-width: 0.8"/>
      </g>
     </g>
     <g id="text_1">
      <!-- 0 -->
      <g transform="translate(61.34375 308.496484)scale(0.15 -0.15)">
       <defs>
        <path id="DejaVuSans-30" d="M 2034 4250 
Q 1547 4250 1301 3770 
Q 1056 3291 1056 2328 
Q 1056 1369 1301 889 
Q 1547 409 2034 409 
Q 2525 409 2770 889 
Q 3016 1369 3016 2328 
Q 3016 3291 2770 3770 
Q 2525 4250 2034 4250 
z
M 2034 4750 
Q 2819 4750 3233 4129 
Q 3647 3509 3647 2328 
Q 3647 1150 3233 529 
Q 2819 -91 2034 -91 
Q 1250 -91 836 529 
Q 422 1150 422 2328 
Q 422 3509 836 4129 
Q 1250 4750 2034 4750 
z
" transform="scale(0.015625)"/>
       </defs>
       <use xlink:href="#DejaVuSans-30"/>
      </g>
     </g>
    </g>
    <g id="xtick_2">
     <g id="line2d_2">
      <g>
       <use xlink:href="#mdcefdd56ab" x="149.815625" y="290.098828" style="stroke: #000000; stroke-width: 0.8"/>
      </g>
     </g>
     <g id="text_2">
      <!-- 5 -->
      <g transform="translate(145.04375 308.496484)scale(0.15 -0.15)">
       <defs>
        <path id="DejaVuSans-35" d="M 691 4666 
L 3169 4666 
L 3169 4134 
L 1269 4134 
L 1269 2991 
Q 1406 3038 1543 3061 
Q 1681 3084 1819 3084 
Q 2600 3084 3056 2656 
Q 3513 2228 3513 1497 
Q 3513 744 3044 326 
Q 2575 -91 1722 -91 
Q 1428 -91 1123 -41 
Q 819 9 494 109 
L 494 744 
Q 775 591 1075 516 
Q 1375 441 1709 441 
Q 2250 441 2565 725 
Q 2881 1009 2881 1497 
Q 2881 1984 2565 2268 
Q 2250 2553 1709 2553 
Q 1456 2553 1204 2497 
Q 953 2441 691 2322 
L 691 4666 
z
" transform="scale(0.015625)"/>
       </defs>
       <use xlink:href="#DejaVuSans-35"/>
      </g>
     </g>
    </g>
    <g id="xtick_3">
     <g id="line2d_3">
      <g>
       <use xlink:href="#mdcefdd56ab" x="233.515625" y="290.098828" style="stroke: #000000; stroke-width: 0.8"/>
      </g>
     </g>
     <g id="text_3">
      <!-- 10 -->
      <g transform="translate(223.971875 308.496484)scale(0.15 -0.15)">
       <defs>
        <path id="DejaVuSans-31" d="M 794 531 
L 1825 531 
L 1825 4091 
L 703 3866 
L 703 4441 
L 1819 4666 
L 2450 4666 
L 2450 531 
L 3481 531 
L 3481 0 
L 794 0 
L 794 531 
z
" transform="scale(0.015625)"/>
       </defs>
       <use xlink:href="#DejaVuSans-31"/>
       <use xlink:href="#DejaVuSans-30" x="63.623047"/>
      </g>
     </g>
    </g>
    <g id="xtick_4">
     <g id="line2d_4">
      <g>
       <use xlink:href="#mdcefdd56ab" x="317.215625" y="290.098828" style="stroke: #000000; stroke-width: 0.8"/>
      </g>
     </g>
     <g id="text_4">
      <!-- 15 -->
      <g transform="translate(307.671875 308.496484)scale(0.15 -0.15)">
       <use xlink:href="#DejaVuSans-31"/>
       <use xlink:href="#DejaVuSans-35" x="63.623047"/>
      </g>
     </g>
    </g>
    <g id="xtick_5">
     <g id="line2d_5">
      <g>
       <use xlink:href="#mdcefdd56ab" x="400.915625" y="290.098828" style="stroke: #000000; stroke-width: 0.8"/>
      </g>
     </g>
     <g id="text_5">
      <!-- 20 -->
      <g transform="translate(391.371875 308.496484)scale(0.15 -0.15)">
       <defs>
        <path id="DejaVuSans-32" d="M 1228 531 
L 3431 531 
L 3431 0 
L 469 0 
L 469 531 
Q 828 903 1448 1529 
Q 2069 2156 2228 2338 
Q 2531 2678 2651 2914 
Q 2772 3150 2772 3378 
Q 2772 3750 2511 3984 
Q 2250 4219 1831 4219 
Q 1534 4219 1204 4116 
Q 875 4013 500 3803 
L 500 4441 
Q 881 4594 1212 4672 
Q 1544 4750 1819 4750 
Q 2544 4750 2975 4387 
Q 3406 4025 3406 3419 
Q 3406 3131 3298 2873 
Q 3191 2616 2906 2266 
Q 2828 2175 2409 1742 
Q 1991 1309 1228 531 
z
" transform="scale(0.015625)"/>
       </defs>
       <use xlink:href="#DejaVuSans-32"/>
       <use xlink:href="#DejaVuSans-30" x="63.623047"/>
      </g>
     </g>
    </g>
    <g id="xtick_6">
     <g id="line2d_6">
      <g>
       <use xlink:href="#mdcefdd56ab" x="484.615625" y="290.098828" style="stroke: #000000; stroke-width: 0.8"/>
      </g>
     </g>
     <g id="text_6">
      <!-- 25 -->
      <g transform="translate(475.071875 308.496484)scale(0.15 -0.15)">
       <use xlink:href="#DejaVuSans-32"/>
       <use xlink:href="#DejaVuSans-35" x="63.623047"/>
      </g>
     </g>
    </g>
    <g id="xtick_7">
     <g id="line2d_7">
      <g>
       <use xlink:href="#mdcefdd56ab" x="568.315625" y="290.098828" style="stroke: #000000; stroke-width: 0.8"/>
      </g>
     </g>
     <g id="text_7">
      <!-- 30 -->
      <g transform="translate(558.771875 308.496484)scale(0.15 -0.15)">
       <defs>
        <path id="DejaVuSans-33" d="M 2597 2516 
Q 3050 2419 3304 2112 
Q 3559 1806 3559 1356 
Q 3559 666 3084 287 
Q 2609 -91 1734 -91 
Q 1441 -91 1130 -33 
Q 819 25 488 141 
L 488 750 
Q 750 597 1062 519 
Q 1375 441 1716 441 
Q 2309 441 2620 675 
Q 2931 909 2931 1356 
Q 2931 1769 2642 2001 
Q 2353 2234 1838 2234 
L 1294 2234 
L 1294 2753 
L 1863 2753 
Q 2328 2753 2575 2939 
Q 2822 3125 2822 3475 
Q 2822 3834 2567 4026 
Q 2313 4219 1838 4219 
Q 1578 4219 1281 4162 
Q 984 4106 628 3988 
L 628 4550 
Q 988 4650 1302 4700 
Q 1616 4750 1894 4750 
Q 2613 4750 3031 4423 
Q 3450 4097 3450 3541 
Q 3450 3153 3228 2886 
Q 3006 2619 2597 2516 
z
" transform="scale(0.015625)"/>
       </defs>
       <use xlink:href="#DejaVuSans-33"/>
       <use xlink:href="#DejaVuSans-30" x="63.623047"/>
      </g>
     </g>
    </g>
    <g id="xtick_8">
     <g id="line2d_8">
      <g>
       <use xlink:href="#mdcefdd56ab" x="652.015625" y="290.098828" style="stroke: #000000; stroke-width: 0.8"/>
      </g>
     </g>
     <g id="text_8">
      <!-- 35 -->
      <g transform="translate(642.471875 308.496484)scale(0.15 -0.15)">
       <use xlink:href="#DejaVuSans-33"/>
       <use xlink:href="#DejaVuSans-35" x="63.623047"/>
      </g>
     </g>
    </g>
    <g id="xtick_9">
     <g id="line2d_9">
      <g>
       <use xlink:href="#mdcefdd56ab" x="735.715625" y="290.098828" style="stroke: #000000; stroke-width: 0.8"/>
      </g>
     </g>
     <g id="text_9">
      <!-- 40 -->
      <g transform="translate(726.171875 308.496484)scale(0.15 -0.15)">
       <defs>
        <path id="DejaVuSans-34" d="M 2419 4116 
L 825 1625 
L 2419 1625 
L 2419 4116 
z
M 2253 4666 
L 3047 4666 
L 3047 1625 
L 3713 1625 
L 3713 1100 
L 3047 1100 
L 3047 0 
L 2419 0 
L 2419 1100 
L 313 1100 
L 313 1709 
L 2253 4666 
z
" transform="scale(0.015625)"/>
       </defs>
       <use xlink:href="#DejaVuSans-34"/>
       <use xlink:href="#DejaVuSans-30" x="63.623047"/>
      </g>
     </g>
    </g>
    <g id="text_10">
     <!-- Time (h) -->
     <g transform="translate(369.576172 327.013672)scale(0.15 -0.15)">
      <defs>
       <path id="DejaVuSans-54" d="M -19 4666 
L 3928 4666 
L 3928 4134 
L 2272 4134 
L 2272 0 
L 1638 0 
L 1638 4134 
L -19 4134 
L -19 4666 
z
" transform="scale(0.015625)"/>
       <path id="DejaVuSans-69" d="M 603 3500 
L 1178 3500 
L 1178 0 
L 603 0 
L 603 3500 
z
M 603 4863 
L 1178 4863 
L 1178 4134 
L 603 4134 
L 603 4863 
z
" transform="scale(0.015625)"/>
       <path id="DejaVuSans-6d" d="M 3328 2828 
Q 3544 3216 3844 3400 
Q 4144 3584 4550 3584 
Q 5097 3584 5394 3201 
Q 5691 2819 5691 2113 
L 5691 0 
L 5113 0 
L 5113 2094 
Q 5113 2597 4934 2840 
Q 4756 3084 4391 3084 
Q 3944 3084 3684 2787 
Q 3425 2491 3425 1978 
L 3425 0 
L 2847 0 
L 2847 2094 
Q 2847 2600 2669 2842 
Q 2491 3084 2119 3084 
Q 1678 3084 1418 2786 
Q 1159 2488 1159 1978 
L 1159 0 
L 581 0 
L 581 3500 
L 1159 3500 
L 1159 2956 
Q 1356 3278 1631 3431 
Q 1906 3584 2284 3584 
Q 2666 3584 2933 3390 
Q 3200 3197 3328 2828 
z
" transform="scale(0.015625)"/>
       <path id="DejaVuSans-65" d="M 3597 1894 
L 3597 1613 
L 953 1613 
Q 991 1019 1311 708 
Q 1631 397 2203 397 
Q 2534 397 2845 478 
Q 3156 559 3463 722 
L 3463 178 
Q 3153 47 2828 -22 
Q 2503 -91 2169 -91 
Q 1331 -91 842 396 
Q 353 884 353 1716 
Q 353 2575 817 3079 
Q 1281 3584 2069 3584 
Q 2775 3584 3186 3129 
Q 3597 2675 3597 1894 
z
M 3022 2063 
Q 3016 2534 2758 2815 
Q 2500 3097 2075 3097 
Q 1594 3097 1305 2825 
Q 1016 2553 972 2059 
L 3022 2063 
z
" transform="scale(0.015625)"/>
       <path id="DejaVuSans-20" transform="scale(0.015625)"/>
       <path id="DejaVuSans-28" d="M 1984 4856 
Q 1566 4138 1362 3434 
Q 1159 2731 1159 2009 
Q 1159 1288 1364 580 
Q 1569 -128 1984 -844 
L 1484 -844 
Q 1016 -109 783 600 
Q 550 1309 550 2009 
Q 550 2706 781 3412 
Q 1013 4119 1484 4856 
L 1984 4856 
z
" transform="scale(0.015625)"/>
       <path id="DejaVuSans-68" d="M 3513 2113 
L 3513 0 
L 2938 0 
L 2938 2094 
Q 2938 2591 2744 2837 
Q 2550 3084 2163 3084 
Q 1697 3084 1428 2787 
Q 1159 2491 1159 1978 
L 1159 0 
L 581 0 
L 581 4863 
L 1159 4863 
L 1159 2956 
Q 1366 3272 1645 3428 
Q 1925 3584 2291 3584 
Q 2894 3584 3203 3211 
Q 3513 2838 3513 2113 
z
" transform="scale(0.015625)"/>
       <path id="DejaVuSans-29" d="M 513 4856 
L 1013 4856 
Q 1481 4119 1714 3412 
Q 1947 2706 1947 2009 
Q 1947 1309 1714 600 
Q 1481 -109 1013 -844 
L 513 -844 
Q 928 -128 1133 580 
Q 1338 1288 1338 2009 
Q 1338 2731 1133 3434 
Q 928 4138 513 4856 
z
" transform="scale(0.015625)"/>
      </defs>
      <use xlink:href="#DejaVuSans-54"/>
      <use xlink:href="#DejaVuSans-69" x="57.958984"/>
      <use xlink:href="#DejaVuSans-6d" x="85.742188"/>
      <use xlink:href="#DejaVuSans-65" x="183.154297"/>
      <use xlink:href="#DejaVuSans-20" x="244.677734"/>
      <use xlink:href="#DejaVuSans-28" x="276.464844"/>
      <use xlink:href="#DejaVuSans-68" x="315.478516"/>
      <use xlink:href="#DejaVuSans-29" x="378.857422"/>
     </g>
    </g>
   </g>
   <g id="matplotlib.axis_2">
    <g id="ytick_1">
     <g id="line2d_10">
      <defs>
       <path id="m7d77fccc44" d="M 0 0 
L -3.5 0 
" style="stroke: #000000; stroke-width: 0.8"/>
      </defs>
      <g>
       <use xlink:href="#m7d77fccc44" x="66.115625" y="290.098828" style="stroke: #000000; stroke-width: 0.8"/>
      </g>
     </g>
     <g id="text_11">
      <!-- 0.00 -->
      <g transform="translate(25.717188 295.797656)scale(0.15 -0.15)">
       <defs>
        <path id="DejaVuSans-2e" d="M 684 794 
L 1344 794 
L 1344 0 
L 684 0 
L 684 794 
z
" transform="scale(0.015625)"/>
       </defs>
       <use xlink:href="#DejaVuSans-30"/>
       <use xlink:href="#DejaVuSans-2e" x="63.623047"/>
       <use xlink:href="#DejaVuSans-30" x="95.410156"/>
       <use xlink:href="#DejaVuSans-30" x="159.033203"/>
      </g>
     </g>
    </g>
    <g id="ytick_2">
     <g id="line2d_11">
      <g>
       <use xlink:href="#m7d77fccc44" x="66.115625" y="250.498828" style="stroke: #000000; stroke-width: 0.8"/>
      </g>
     </g>
     <g id="text_12">
      <!-- 0.05 -->
      <g transform="translate(25.717188 256.197656)scale(0.15 -0.15)">
       <use xlink:href="#DejaVuSans-30"/>
       <use xlink:href="#DejaVuSans-2e" x="63.623047"/>
       <use xlink:href="#DejaVuSans-30" x="95.410156"/>
       <use xlink:href="#DejaVuSans-35" x="159.033203"/>
      </g>
     </g>
    </g>
    <g id="ytick_3">
     <g id="line2d_12">
      <g>
       <use xlink:href="#m7d77fccc44" x="66.115625" y="210.898828" style="stroke: #000000; stroke-width: 0.8"/>
      </g>
     </g>
     <g id="text_13">
      <!-- 0.10 -->
      <g transform="translate(25.717188 216.597656)scale(0.15 -0.15)">
       <use xlink:href="#DejaVuSans-30"/>
       <use xlink:href="#DejaVuSans-2e" x="63.623047"/>
       <use xlink:href="#DejaVuSans-31" x="95.410156"/>
       <use xlink:href="#DejaVuSans-30" x="159.033203"/>
      </g>
     </g>
    </g>
    <g id="ytick_4">
     <g id="line2d_13">
      <g>
       <use xlink:href="#m7d77fccc44" x="66.115625" y="171.298828" style="stroke: #000000; stroke-width: 0.8"/>
      </g>
     </g>
     <g id="text_14">
      <!-- 0.15 -->
      <g transform="translate(25.717188 176.997656)scale(0.15 -0.15)">
       <use xlink:href="#DejaVuSans-30"/>
       <use xlink:href="#DejaVuSans-2e" x="63.623047"/>
       <use xlink:href="#DejaVuSans-31" x="95.410156"/>
       <use xlink:href="#DejaVuSans-35" x="159.033203"/>
      </g>
     </g>
    </g>
    <g id="ytick_5">
     <g id="line2d_14">
      <g>
       <use xlink:href="#m7d77fccc44" x="66.115625" y="131.698828" style="stroke: #000000; stroke-width: 0.8"/>
      </g>
     </g>
     <g id="text_15">
      <!-- 0.20 -->
      <g transform="translate(25.717188 137.397656)scale(0.15 -0.15)">
       <use xlink:href="#DejaVuSans-30"/>
       <use xlink:href="#DejaVuSans-2e" x="63.623047"/>
       <use xlink:href="#DejaVuSans-32" x="95.410156"/>
       <use xlink:href="#DejaVuSans-30" x="159.033203"/>
      </g>
     </g>
    </g>
    <g id="ytick_6">
     <g id="line2d_15">
      <g>
       <use xlink:href="#m7d77fccc44" x="66.115625" y="92.098828" style="stroke: #000000; stroke-width: 0.8"/>
      </g>
     </g>
     <g id="text_16">
      <!-- 0.25 -->
      <g transform="translate(25.717188 97.797656)scale(0.15 -0.15)">
       <use xlink:href="#DejaVuSans-30"/>
       <use xlink:href="#DejaVuSans-2e" x="63.623047"/>
       <use xlink:href="#DejaVuSans-32" x="95.410156"/>
       <use xlink:href="#DejaVuSans-35" x="159.033203"/>
      </g>
     </g>
    </g>
    <g id="ytick_7">
     <g id="line2d_16">
      <g>
       <use xlink:href="#m7d77fccc44" x="66.115625" y="52.498828" style="stroke: #000000; stroke-width: 0.8"/>
      </g>
     </g>
     <g id="text_17">
      <!-- 0.30 -->
      <g transform="translate(25.717188 58.197656)scale(0.15 -0.15)">
       <use xlink:href="#DejaVuSans-30"/>
       <use xlink:href="#DejaVuSans-2e" x="63.623047"/>
       <use xlink:href="#DejaVuSans-33" x="95.410156"/>
       <use xlink:href="#DejaVuSans-30" x="159.033203"/>
      </g>
     </g>
    </g>
    <g id="ytick_8">
     <g id="line2d_17">
      <g>
       <use xlink:href="#m7d77fccc44" x="66.115625" y="12.898828" style="stroke: #000000; stroke-width: 0.8"/>
      </g>
     </g>
     <g id="text_18">
      <!-- 0.35 -->
      <g transform="translate(25.717188 18.597656)scale(0.15 -0.15)">
       <use xlink:href="#DejaVuSans-30"/>
       <use xlink:href="#DejaVuSans-2e" x="63.623047"/>
       <use xlink:href="#DejaVuSans-33" x="95.410156"/>
       <use xlink:href="#DejaVuSans-35" x="159.033203"/>
      </g>
     </g>
    </g>
    <g id="text_19">
     <!-- Growth rate (mm/h) -->
     <g transform="translate(18.597656 226.385156)rotate(-90)scale(0.15 -0.15)">
      <defs>
       <path id="DejaVuSans-47" d="M 3809 666 
L 3809 1919 
L 2778 1919 
L 2778 2438 
L 4434 2438 
L 4434 434 
Q 4069 175 3628 42 
Q 3188 -91 2688 -91 
Q 1594 -91 976 548 
Q 359 1188 359 2328 
Q 359 3472 976 4111 
Q 1594 4750 2688 4750 
Q 3144 4750 3555 4637 
Q 3966 4525 4313 4306 
L 4313 3634 
Q 3963 3931 3569 4081 
Q 3175 4231 2741 4231 
Q 1884 4231 1454 3753 
Q 1025 3275 1025 2328 
Q 1025 1384 1454 906 
Q 1884 428 2741 428 
Q 3075 428 3337 486 
Q 3600 544 3809 666 
z
" transform="scale(0.015625)"/>
       <path id="DejaVuSans-72" d="M 2631 2963 
Q 2534 3019 2420 3045 
Q 2306 3072 2169 3072 
Q 1681 3072 1420 2755 
Q 1159 2438 1159 1844 
L 1159 0 
L 581 0 
L 581 3500 
L 1159 3500 
L 1159 2956 
Q 1341 3275 1631 3429 
Q 1922 3584 2338 3584 
Q 2397 3584 2469 3576 
Q 2541 3569 2628 3553 
L 2631 2963 
z
" transform="scale(0.015625)"/>
       <path id="DejaVuSans-6f" d="M 1959 3097 
Q 1497 3097 1228 2736 
Q 959 2375 959 1747 
Q 959 1119 1226 758 
Q 1494 397 1959 397 
Q 2419 397 2687 759 
Q 2956 1122 2956 1747 
Q 2956 2369 2687 2733 
Q 2419 3097 1959 3097 
z
M 1959 3584 
Q 2709 3584 3137 3096 
Q 3566 2609 3566 1747 
Q 3566 888 3137 398 
Q 2709 -91 1959 -91 
Q 1206 -91 779 398 
Q 353 888 353 1747 
Q 353 2609 779 3096 
Q 1206 3584 1959 3584 
z
" transform="scale(0.015625)"/>
       <path id="DejaVuSans-77" d="M 269 3500 
L 844 3500 
L 1563 769 
L 2278 3500 
L 2956 3500 
L 3675 769 
L 4391 3500 
L 4966 3500 
L 4050 0 
L 3372 0 
L 2619 2869 
L 1863 0 
L 1184 0 
L 269 3500 
z
" transform="scale(0.015625)"/>
       <path id="DejaVuSans-74" d="M 1172 4494 
L 1172 3500 
L 2356 3500 
L 2356 3053 
L 1172 3053 
L 1172 1153 
Q 1172 725 1289 603 
Q 1406 481 1766 481 
L 2356 481 
L 2356 0 
L 1766 0 
Q 1100 0 847 248 
Q 594 497 594 1153 
L 594 3053 
L 172 3053 
L 172 3500 
L 594 3500 
L 594 4494 
L 1172 4494 
z
" transform="scale(0.015625)"/>
       <path id="DejaVuSans-61" d="M 2194 1759 
Q 1497 1759 1228 1600 
Q 959 1441 959 1056 
Q 959 750 1161 570 
Q 1363 391 1709 391 
Q 2188 391 2477 730 
Q 2766 1069 2766 1631 
L 2766 1759 
L 2194 1759 
z
M 3341 1997 
L 3341 0 
L 2766 0 
L 2766 531 
Q 2569 213 2275 61 
Q 1981 -91 1556 -91 
Q 1019 -91 701 211 
Q 384 513 384 1019 
Q 384 1609 779 1909 
Q 1175 2209 1959 2209 
L 2766 2209 
L 2766 2266 
Q 2766 2663 2505 2880 
Q 2244 3097 1772 3097 
Q 1472 3097 1187 3025 
Q 903 2953 641 2809 
L 641 3341 
Q 956 3463 1253 3523 
Q 1550 3584 1831 3584 
Q 2591 3584 2966 3190 
Q 3341 2797 3341 1997 
z
" transform="scale(0.015625)"/>
       <path id="DejaVuSans-2f" d="M 1625 4666 
L 2156 4666 
L 531 -594 
L 0 -594 
L 1625 4666 
z
" transform="scale(0.015625)"/>
      </defs>
      <use xlink:href="#DejaVuSans-47"/>
      <use xlink:href="#DejaVuSans-72" x="77.490234"/>
      <use xlink:href="#DejaVuSans-6f" x="116.353516"/>
      <use xlink:href="#DejaVuSans-77" x="177.535156"/>
      <use xlink:href="#DejaVuSans-74" x="259.322266"/>
      <use xlink:href="#DejaVuSans-68" x="298.53125"/>
      <use xlink:href="#DejaVuSans-20" x="361.910156"/>
      <use xlink:href="#DejaVuSans-72" x="393.697266"/>
      <use xlink:href="#DejaVuSans-61" x="434.810547"/>
      <use xlink:href="#DejaVuSans-74" x="496.089844"/>
      <use xlink:href="#DejaVuSans-65" x="535.298828"/>
      <use xlink:href="#DejaVuSans-20" x="596.822266"/>
      <use xlink:href="#DejaVuSans-28" x="628.609375"/>
      <use xlink:href="#DejaVuSans-6d" x="667.623047"/>
      <use xlink:href="#DejaVuSans-6d" x="765.035156"/>
      <use xlink:href="#DejaVuSans-2f" x="862.447266"/>
      <use xlink:href="#DejaVuSans-68" x="896.138672"/>
      <use xlink:href="#DejaVuSans-29" x="959.517578"/>
     </g>
    </g>
   </g>
   <g id="line2d_18">
    <path d="M 66.115625 290.098828 
L 68.896323 290.098828 
L 68.902588 338.333203 
M 94.147251 338.333203 
L 98.642382 314.382749 
L 99.507271 310.891752 
L 100.441932 307.961197 
L 101.330073 305.783875 
L 102.497219 302.700032 
L 103.896868 297.989123 
L 104.971023 292.774394 
L 107.491331 280.153128 
L 108.379471 277.002944 
L 109.174621 274.978638 
L 109.872127 273.725303 
L 111.016021 272.484942 
L 111.648425 272.120118 
L 112.280829 272.023568 
L 113.936231 273.354554 
L 114.522131 273.621549 
L 114.917379 273.571589 
L 115.289375 273.318575 
L 115.991518 272.449002 
L 116.647173 271.197332 
L 117.953831 267.760981 
L 120.148629 261.605302 
L 121.738929 257.055659 
L 122.296923 256.190578 
L 122.575929 256.112462 
L 122.859571 256.29224 
L 123.231568 256.85671 
L 123.812831 258.264107 
L 124.352227 260.019869 
L 125.031118 262.852014 
L 126.151777 270.564197 
L 127.318923 276.990821 
L 128.016429 279.78722 
L 128.881318 281.803393 
L 129.374227 282.281614 
L 129.769475 282.337654 
L 130.122873 282.143082 
L 130.564625 281.615521 
L 131.076132 280.628057 
L 131.731771 278.785892 
L 132.596677 275.632532 
L 135.842379 262.22554 
L 137.149019 256.761205 
L 138.548668 252.433399 
L 141.352618 245.391183 
L 142.194271 244.087114 
L 143.152168 242.976803 
L 144.058923 242.27752 
L 144.691327 242.008201 
L 145.393469 241.931944 
L 147.634771 241.888452 
L 148.964681 241.346987 
L 149.666823 240.745803 
L 151.089723 239.643084 
L 151.419869 239.644981 
L 151.745379 239.861629 
L 152.280121 240.551502 
L 152.912525 241.926329 
L 154.009932 245.061216 
L 155.525823 249.237089 
L 157.162627 252.174073 
L 157.725275 252.664532 
L 158.236782 252.836603 
L 158.892421 252.790748 
L 159.380677 252.567284 
L 159.920073 252.129767 
L 160.152575 251.746431 
L 161.156975 249.90996 
L 161.947471 248.90534 
L 162.486868 248.466467 
L 162.998375 248.383665 
L 163.747021 248.630134 
L 164.635179 249.218925 
L 165.825577 249.90202 
L 166.481232 249.988617 
L 167.601875 249.713102 
L 168.908532 248.905766 
L 169.164269 248.60376 
L 169.703682 247.608319 
L 170.382573 245.881759 
L 172.386719 240.371065 
L 173.135382 238.901198 
L 173.721282 238.173488 
L 174.209521 237.961991 
L 175.004671 237.906106 
L 175.423171 238.092545 
L 175.892829 238.522781 
L 176.567082 239.510399 
L 177.431971 241.240639 
L 179.766281 246.212966 
L 180.700925 247.65487 
L 181.193818 248.081195 
L 181.635569 248.202764 
L 182.054069 248.090567 
L 182.988731 247.643058 
L 184.016382 247.228314 
L 186.304171 246.518999 
L 187.122573 246.230161 
L 188.382727 245.942563 
L 189.294119 245.403189 
L 190.135773 244.576643 
L 192.284068 242.038061 
L 193.358223 240.41204 
L 196.766671 234.492799 
L 197.887331 232.830528 
L 199.054477 230.889218 
L 199.989121 229.406261 
L 201.365518 227.528582 
L 203.281327 225.347735 
L 205.452873 223.127114 
L 206.736279 221.487965 
L 208.303327 219.508314 
L 209.075225 218.397538 
L 213.534577 210.981475 
L 214.306475 210.172551 
L 215.189979 209.677522 
L 215.775879 209.586316 
L 216.989529 209.724538 
L 217.645168 209.955012 
L 219.207579 211.190764 
L 220.351473 212.08768 
L 221.169875 212.669268 
L 221.895269 213.075143 
L 222.802025 213.324827 
L 224.066832 213.300815 
L 224.694582 213.03231 
L 225.977971 212.343211 
L 228.549419 211.122602 
L 229.391073 210.822881 
L 230.111831 210.784656 
L 231.678879 211.162376 
L 233.827173 211.859569 
L 235.742982 211.991246 
L 237.491375 211.641798 
L 238.402768 211.457721 
L 239.058423 211.173763 
L 241.978632 209.789563 
L 242.908623 209.549562 
L 243.703773 209.526209 
L 245.898571 209.801685 
L 246.902971 210.180025 
L 248.539775 211.002427 
L 251.762225 212.035977 
L 252.952623 212.276366 
L 254.677781 212.660476 
L 256.268081 212.668648 
L 257.807223 212.482325 
L 258.602373 212.499443 
L 259.490531 212.291857 
L 261.755068 211.327593 
L 263.484879 211.094485 
L 264.135881 211.004364 
L 267.734981 210.89023 
L 268.641719 210.628502 
L 269.506625 210.094203 
L 271.027169 208.753031 
L 271.910673 208.106457 
L 272.729075 207.830012 
L 274.947125 207.575991 
L 275.440018 207.756312 
L 277.211679 208.516322 
L 278.006829 208.443667 
L 279.104219 207.974354 
L 279.666868 207.483236 
L 280.480632 206.410957 
L 281.787273 204.251256 
L 282.419677 203.03847 
L 283.633327 200.87234 
L 284.916732 199.025102 
L 285.804873 198.090813 
L 287.204521 197.203812 
L 288.139182 196.625942 
L 290.403719 194.68347 
L 291.924281 192.798549 
L 292.905429 191.613957 
L 294.119079 190.50783 
L 295.895377 189.365258 
L 296.430119 189.219561 
L 298.066923 189.09137 
L 298.931829 188.952527 
L 300.889471 188.520742 
L 303.367929 187.740245 
L 304.042182 187.455163 
L 304.907071 187.054438 
L 307.311119 185.695064 
L 309.017679 185.170331 
L 311.165973 184.26474 
L 312.054131 183.980123 
L 312.942271 183.674128 
L 314.132669 183.085144 
L 316.094982 181.948808 
L 318.545518 181.047515 
L 319.219771 180.731877 
L 319.921931 180.172326 
L 321.884227 178.096202 
L 323.214119 176.354383 
L 324.451021 174.768601 
L 325.036921 174.281744 
L 325.687923 173.985044 
L 326.552829 173.890624 
L 327.533977 174.010334 
L 328.770879 174.680842 
L 329.942679 175.833251 
L 331.644568 177.382937 
L 333.955625 179.360497 
L 335.266919 180.478476 
L 336.127171 181.400023 
L 338.414977 184.34971 
L 339.372873 185.89227 
L 342.595323 190.833072 
L 343.999625 192.413548 
L 344.534368 192.670706 
L 345.283031 192.810865 
L 346.240927 192.624851 
L 346.915181 192.206931 
L 347.942832 191.312571 
L 350.160882 189.055391 
L 352.332429 187.463064 
L 353.336829 187.245797 
L 354.248221 187.053703 
L 354.671375 186.764477 
L 355.089875 186.163487 
L 355.768782 184.734208 
L 357.098675 181.23988 
L 358.758731 177.004055 
L 359.549227 175.543832 
L 360.181631 174.759268 
L 360.902371 174.198826 
L 361.534775 173.981133 
L 362.213682 173.912002 
L 362.887919 174.082602 
L 363.613331 174.466596 
L 364.896719 175.375401 
L 365.645382 175.81408 
L 366.087118 175.868416 
L 367.021779 175.771363 
L 367.677418 175.949437 
L 369.518818 176.958046 
L 372.346019 179.030375 
L 372.927282 179.858392 
L 373.722432 181.38124 
L 374.819823 183.997435 
L 377.014621 189.21503 
L 377.879527 190.538541 
L 378.883927 191.651718 
L 379.558181 192.048918 
L 380.237071 192.195661 
L 380.822971 192.101938 
L 381.497225 191.717247 
L 383.668771 190.446135 
L 384.370931 190.404734 
L 387.286469 190.124649 
L 388.528025 189.584385 
L 391.118071 188.006852 
L 392.964125 186.766917 
L 393.666268 186.689189 
L 394.201027 186.814747 
L 394.763675 187.162607 
L 395.698319 188.027533 
L 396.702719 189.265029 
L 398.590623 191.515548 
L 399.618275 192.553436 
L 400.204175 192.907531 
L 401.255079 193.2064 
L 402.329218 193.528738 
L 402.747718 194.091968 
L 403.473129 195.535887 
L 404.338018 197.865413 
L 406.202669 203.014187 
L 407.067575 204.712049 
L 407.955732 205.932736 
L 408.518381 206.355498 
L 409.215869 206.532759 
L 409.778518 206.458593 
L 410.434173 206.06604 
L 411.154931 205.252507 
L 412.884725 202.997921 
L 413.512475 202.49201 
L 414.051871 202.342788 
L 414.777282 202.107396 
L 418.325225 200.251715 
L 419.259869 199.825855 
L 420.148027 199.331445 
L 420.799029 198.550251 
L 421.454668 197.430762 
L 422.412581 195.323461 
L 424.067982 191.726038 
L 425.072382 189.963305 
L 426.197679 188.552887 
L 427.197425 187.600977 
L 428.810977 186.458173 
L 430.443127 186.059229 
L 431.191773 185.799632 
L 434.693229 183.805302 
L 436.748532 183.251328 
L 437.776168 182.760327 
L 439.412971 181.954888 
L 442.003018 181.532746 
L 442.774932 181.04767 
L 443.895575 180.144558 
L 446.625132 177.370699 
L 447.583029 176.620874 
L 448.308423 176.295787 
L 449.708071 176.058458 
L 450.828731 176.25698 
L 451.693619 176.492296 
L 453.260668 176.343423 
L 455.990225 175.340081 
L 457.320118 174.818639 
L 457.580525 175.017007 
L 457.929269 175.619391 
L 458.371021 176.87474 
L 459.049929 179.5706 
L 460.217075 185.468154 
L 461.830627 193.483542 
L 462.765271 197.154123 
L 463.462777 198.988736 
L 464.048677 199.996803 
L 464.536932 200.467472 
L 464.960069 200.613788 
L 465.425073 200.5129 
L 465.941218 200.146838 
L 466.568968 199.448096 
L 468.298779 197.135379 
L 468.787018 196.770439 
L 469.233423 196.69333 
L 471.265475 196.443918 
L 472.362882 196.228238 
L 473.083623 196.318321 
L 474.460019 196.472887 
L 476.120075 196.422811 
L 477.077971 196.592132 
L 477.803382 196.699023 
L 478.593879 196.808199 
L 480.463168 197.442729 
L 482.564975 198.291427 
L 484.527271 198.402036 
L 485.275918 198.123887 
L 486.043179 197.909757 
L 486.419829 198.207774 
L 486.861581 198.882077 
L 487.633479 200.128287 
L 488.168221 200.510305 
L 488.661131 200.570567 
L 489.688782 200.523125 
L 490.177021 201.028494 
L 490.948919 202.255804 
L 491.697582 203.783415 
L 492.185821 204.521079 
L 492.557818 204.722196 
L 493.352968 204.757556 
L 493.608721 204.485255 
L 493.962119 203.704254 
L 494.450375 201.982109 
L 495.175769 198.462492 
L 498.398219 181.695174 
L 499.402619 177.756049 
L 499.937379 176.592254 
L 500.337281 176.187075 
L 500.616269 176.177161 
L 500.895275 176.422197 
L 501.527679 177.382124 
L 502.671573 179.721448 
L 503.420219 181.067112 
L 504.540879 182.441435 
L 504.889623 182.634498 
L 505.098873 182.569743 
L 505.401131 182.14582 
L 505.847519 181.067267 
L 506.428782 178.987657 
L 507.340175 174.887227 
L 509.581477 164.376283 
L 510.353375 161.828406 
L 511.055518 160.331042 
L 511.567025 159.679084 
L 511.943675 159.507633 
L 512.408679 159.620837 
L 512.873682 160.016333 
L 513.459582 160.83614 
L 514.347723 162.618663 
L 515.817127 165.684729 
L 516.403027 166.507557 
L 516.821527 166.752748 
L 517.802675 167.085156 
L 520.792623 168.191167 
L 521.820275 168.435545 
L 522.499182 168.977939 
L 525.275227 171.991877 
L 526.395869 173.036348 
L 527.423521 173.710381 
L 530.157732 174.771545 
L 531.696875 175.288882 
L 532.445521 175.854629 
L 534.031168 177.349902 
L 534.356677 177.186893 
L 534.779831 176.691515 
L 535.244818 176.195286 
L 535.714475 175.995795 
L 536.156227 176.014346 
L 536.597979 176.236532 
L 537.323373 176.72153 
L 537.648882 176.648139 
L 538.095271 176.307173 
L 538.867169 175.300655 
L 539.820429 174.060062 
L 540.243582 173.940506 
L 540.731821 174.178881 
L 541.154975 174.49235 
L 541.480468 175.21611 
L 541.922219 176.845462 
L 542.624379 180.423327 
L 543.768273 187.600783 
L 545.260929 196.913347 
L 546.242077 201.804964 
L 547.106982 205.465398 
L 547.669631 206.923027 
L 548.088131 207.471269 
L 548.413623 207.579477 
L 548.720518 207.415577 
L 549.208773 206.84189 
L 550.259677 205.152665 
L 551.008323 204.177169 
L 551.473327 203.861143 
L 552.338232 203.545892 
L 552.617221 203.609485 
L 552.993871 203.916409 
L 554.323781 205.020407 
L 556.053575 206.074832 
L 558.806368 206.722335 
L 559.648021 206.778647 
L 560.489675 206.617613 
L 562.028818 206.29907 
L 563.526127 205.874489 
L 564.879271 205.652264 
L 568.427231 205.030476 
L 569.901271 205.047129 
L 570.505769 204.875871 
L 572.351823 204.286732 
L 576.016025 204.086002 
L 578.378223 204.251954 
L 580.689281 204.413491 
L 581.623925 204.352532 
L 583.511829 204.54966 
L 584.632471 204.944847 
L 585.567132 205.471246 
L 587.320179 206.646079 
L 588.766331 207.537572 
L 589.398718 207.855496 
L 590.170632 207.936554 
L 591.030868 207.93028 
L 591.779531 207.724244 
L 594.792731 206.48915 
L 597.452532 206.405535 
L 599.833329 206.211699 
L 600.935373 206.144388 
L 603.595175 205.686268 
L 604.576323 205.697925 
L 606.492132 205.9052 
L 608.124282 205.859733 
L 609.175169 205.938894 
L 610.249325 206.102832 
L 611.839625 206.19369 
L 612.937032 206.148493 
L 614.876077 206.215416 
L 615.620069 206.495269 
L 617.675373 207.812545 
L 618.517027 208.775455 
L 619.893423 210.862152 
L 622.906623 215.130471 
L 623.701773 215.908257 
L 624.445782 216.255149 
L 625.310671 216.236714 
L 626.059318 215.980099 
L 626.831232 215.578677 
L 628.114621 214.888301 
L 631.941569 213.8776 
L 632.922718 213.717419 
L 634.322382 213.570676 
L 635.540669 213.597321 
L 636.731068 213.551583 
L 637.265827 213.628575 
L 638.618971 214.342072 
L 640.558032 215.739207 
L 642.264575 216.716484 
L 643.757231 217.180105 
L 644.831369 217.590202 
L 645.905525 217.809638 
L 646.630919 217.847437 
L 647.449321 217.716109 
L 648.825718 216.987197 
L 651.322773 215.152159 
L 652.164427 214.526653 
L 653.285069 213.97965 
L 654.405729 213.776131 
L 655.247382 213.891697 
L 657.135269 214.255979 
L 658.795325 214.323676 
L 659.613727 214.270967 
L 661.901532 214.213261 
L 664.961219 212.823446 
L 667.318781 210.932754 
L 669.164818 208.897372 
L 671.661873 206.240551 
L 672.619769 205.766126 
L 673.833419 205.49824 
L 674.768081 205.772981 
L 675.470223 206.218825 
L 676.567631 206.767686 
L 678.246268 207.269532 
L 679.785427 207.188395 
L 680.957227 206.936698 
L 682.008131 206.805253 
L 683.221781 206.946225 
L 684.295919 206.97806 
L 685.346823 207.026122 
L 687.448631 207.257371 
L 688.285631 207.372898 
L 694.028371 209.335664 
L 695.265273 209.85273 
L 696.362681 210.798521 
L 697.204318 211.82785 
L 698.841121 213.731709 
L 700.124527 215.145691 
L 701.663669 215.931339 
L 702.598331 216.072931 
L 704.746625 216.111311 
L 706.429932 216.626944 
L 708.903719 218.167142 
L 710.070882 218.854458 
L 710.703269 219.132646 
L 711.544923 219.251969 
L 712.381923 219.159601 
L 713.363071 218.69846 
L 713.902468 218.209588 
L 716.562269 215.632432 
L 717.873581 214.65012 
L 719.226725 214.204237 
L 720.021875 214.205709 
L 721.165769 214.512672 
L 721.909779 214.871144 
L 722.774668 215.040349 
L 723.569818 215.177913 
L 724.806719 215.536424 
L 725.973882 215.792807 
L 726.838771 216.064798 
L 728.261671 216.433069 
L 729.080073 216.639724 
L 729.777579 216.7343 
L 730.833119 216.88325 
L 734.822831 218.027099 
L 735.734223 218.461828 
L 735.734223 218.461828 
" clip-path="url(#pf31e885dd0)" style="fill: none; stroke: #474d6b; stroke-width: 1.5; stroke-linecap: square"/>
   </g>
   <g id="patch_3">
    <path d="M 66.115625 290.098828 
L 66.115625 12.898828 
" style="fill: none; stroke: #000000; stroke-width: 0.8; stroke-linejoin: miter; stroke-linecap: square"/>
   </g>
   <g id="patch_4">
    <path d="M 735.715625 290.098828 
L 735.715625 12.898828 
" style="fill: none; stroke: #000000; stroke-width: 0.8; stroke-linejoin: miter; stroke-linecap: square"/>
   </g>
   <g id="patch_5">
    <path d="M 66.115625 290.098828 
L 735.715625 290.098828 
" style="fill: none; stroke: #000000; stroke-width: 0.8; stroke-linejoin: miter; stroke-linecap: square"/>
   </g>
   <g id="patch_6">
    <path d="M 66.115625 12.898828 
L 735.715625 12.898828 
" style="fill: none; stroke: #000000; stroke-width: 0.8; stroke-linejoin: miter; stroke-linecap: square"/>
   </g>
  </g>
 </g>
 <defs>
  <clipPath id="pf31e885dd0">
   <rect x="66.115625" y="12.898828" width="669.6" height="277.2"/>
  </clipPath>
 </defs>
</svg>
