<?xml version="1.0" encoding="utf-8" standalone="no"?>
<!DOCTYPE svg PUBLIC "-//W3C//DTD SVG 1.1//EN"
  "http://www.w3.org/Graphics/SVG/1.1/DTD/svg11.dtd">
<svg xmlns:xlink="http://www.w3.org/1999/xlink" width="222.157656pt" height="185.605188pt" viewBox="0 0 222.157656 185.605188" xmlns="http://www.w3.org/2000/svg" version="1.1">
 <metadata>
  <rdf:RDF xmlns:dc="http://purl.org/dc/elements/1.1/" xmlns:cc="http://creativecommons.org/ns#" xmlns:rdf="http://www.w3.org/1999/02/22-rdf-syntax-ns#">
   <cc:Work>
    <dc:type rdf:resource="http://purl.org/dc/dcmitype/StillImage"/>
    <dc:date>2024-03-26T13:18:32.477293</dc:date>
    <dc:format>image/svg+xml</dc:format>
    <dc:creator>
     <cc:Agent>
      <dc:title>Matplotlib v3.5.2, https://matplotlib.org/</dc:title>
     </cc:Agent>
    </dc:creator>
   </cc:Work>
  </rdf:RDF>
 </metadata>
 <defs>
  <style type="text/css">*{stroke-linejoin: round; stroke-linecap: butt}</style>
 </defs>
 <g id="figure_1">
  <g id="patch_1">
   <path d="M 0 185.605188 
L 222.157656 185.605188 
L 222.157656 0 
L 0 0 
z
" style="fill: #ffffff"/>
  </g>
  <g id="axes_1">
   <g id="patch_2">
    <path d="M 47.598437 156.888 
L 198.258438 156.888 
L 198.258438 7.2 
L 47.598437 7.2 
z
" style="fill: #ffffff"/>
   </g>
   <g id="line2d_1">
    <path d="M 47.075271 114.006791 
L 47.598437 116.824447 
L 48.121604 102.472009 
L 48.853812 118.761586 
L 49.376979 118.761586 
L 49.900146 123.604433 
L 50.423313 135.227266 
L 50.946479 115.855878 
L 51.469646 115.855878 
L 51.992813 106.258235 
L 52.51598 105.289666 
L 53.03877 118.761586 
L 53.561937 105.289666 
L 54.085104 114.887308 
L 54.608271 110.132513 
L 55.131437 96.748645 
L 55.654604 98.597732 
L 56.177771 98.597732 
L 56.700938 117.793016 
L 57.224105 106.258235 
L 57.746895 104.409148 
L 58.270062 100.534871 
L 58.793229 105.289666 
L 59.316396 101.50344 
L 59.839563 109.163944 
L 60.362729 106.258235 
L 60.885896 119.730155 
L 61.409063 115.855878 
L 61.93223 110.132513 
L 62.45502 101.50344 
L 62.978187 104.409148 
L 63.501354 93.842936 
L 64.547687 112.069652 
L 65.070854 99.566301 
L 65.594021 116.824447 
L 66.117188 107.226805 
L 66.640355 102.472009 
L 67.163145 115.855878 
L 68.209479 107.226805 
L 68.732646 105.289666 
L 69.255812 94.811506 
L 69.778979 104.409148 
L 70.302146 101.50344 
L 70.825313 110.132513 
L 71.452812 102.472009 
L 71.975979 102.472009 
L 72.499146 91.02528 
L 73.022313 98.597732 
L 73.545479 100.534871 
L 74.068646 93.842936 
L 74.591813 93.842936 
L 75.11498 86.182433 
L 75.63777 93.842936 
L 76.160937 96.748645 
L 76.684104 87.151002 
L 77.207271 106.258235 
L 77.730437 99.566301 
L 78.253604 103.440579 
L 78.776771 93.842936 
L 79.299938 87.151002 
L 79.823105 99.566301 
L 80.345895 104.409148 
L 80.869062 103.440579 
L 81.392229 94.811506 
L 81.915396 95.780075 
L 82.438562 76.672842 
L 82.961729 96.748645 
L 83.484896 92.874367 
L 84.008063 84.333346 
L 84.53123 92.874367 
L 85.577187 100.534871 
L 86.100354 90.056711 
L 86.623521 92.874367 
L 87.146688 88.119572 
L 87.669854 95.780075 
L 88.193021 72.886616 
L 88.716188 75.792325 
L 89.239355 82.396207 
L 89.762145 67.251304 
L 90.285312 96.748645 
L 90.808479 102.472009 
L 91.331646 92.874367 
L 91.854812 103.440579 
L 92.377979 102.472009 
L 93.424313 86.182433 
L 93.94748 72.886616 
L 94.47027 83.364776 
L 94.993437 82.396207 
L 95.516604 103.440579 
L 96.039771 94.811506 
L 96.667646 89.088141 
L 97.190813 80.54712 
L 97.71398 76.672842 
L 98.23677 91.02528 
L 98.759937 89.088141 
L 99.283104 75.792325 
L 99.806271 85.301915 
L 100.329438 75.792325 
L 100.852604 78.609981 
L 101.375771 74.823755 
L 101.898938 90.056711 
L 102.422105 72.886616 
L 102.944895 86.182433 
L 103.468062 89.088141 
L 103.991229 89.088141 
L 104.514396 95.780075 
L 105.037563 85.301915 
L 105.560729 83.364776 
L 106.083896 94.811506 
L 106.607063 85.301915 
L 107.13023 83.364776 
L 107.65302 80.54712 
L 108.176187 78.609981 
L 108.699354 80.54712 
L 109.222521 96.748645 
L 109.745687 94.811506 
L 110.268854 81.427638 
L 110.792021 81.427638 
L 111.315188 62.496508 
L 111.838355 71.037529 
L 112.361145 64.433647 
L 112.884312 95.780075 
L 113.407479 72.886616 
L 113.930646 86.182433 
L 114.453812 79.578551 
L 116.023313 79.578551 
L 116.54648 76.672842 
L 117.06927 64.433647 
L 117.592437 82.396207 
L 118.115604 91.02528 
L 119.161938 71.037529 
L 119.685104 73.855186 
L 120.31298 67.251304 
L 121.358937 82.396207 
L 121.882104 86.182433 
L 122.405271 85.301915 
L 122.928437 88.119572 
L 123.451604 60.647421 
L 123.974771 69.100391 
L 124.497938 72.006099 
L 125.021105 73.855186 
L 125.543895 82.396207 
L 126.067062 58.710282 
L 126.590229 76.672842 
L 127.113396 58.710282 
L 127.636563 83.364776 
L 128.159729 65.314165 
L 128.682896 72.006099 
L 129.206063 65.314165 
L 129.72923 72.006099 
L 130.25202 72.886616 
L 130.775187 67.251304 
L 131.821521 72.886616 
L 132.344687 68.219873 
L 132.867854 68.219873 
L 133.391021 69.100391 
L 133.914188 77.641412 
L 134.437355 76.672842 
L 134.960145 74.823755 
L 135.483312 72.006099 
L 136.006479 61.527939 
L 136.529646 64.433647 
L 137.052813 35.200461 
L 137.575979 58.710282 
L 138.099146 65.314165 
L 138.622313 58.710282 
L 139.14548 77.641412 
L 140.191437 63.465078 
L 140.714604 68.219873 
L 141.237771 82.396207 
L 141.760938 58.710282 
L 142.284104 67.251304 
L 142.807271 61.527939 
L 143.330438 74.823755 
L 143.957937 58.710282 
L 144.481104 67.251304 
L 145.004271 71.037529 
L 145.527437 63.465078 
L 146.050604 54.043539 
L 146.573771 71.037529 
L 147.096938 76.672842 
L 147.620105 68.219873 
L 148.142895 72.886616 
L 148.666062 65.314165 
L 149.189229 55.892626 
L 149.712396 72.006099 
L 150.235563 67.251304 
L 150.758729 69.100391 
L 151.281896 69.100391 
L 151.805063 53.074969 
L 152.32823 56.861195 
L 152.85102 54.924056 
L 153.374187 55.892626 
L 153.897354 59.678852 
L 154.420521 64.433647 
L 155.466854 42.772913 
L 155.990021 49.288744 
L 156.513188 48.408226 
L 157.036355 54.043539 
L 157.559145 48.408226 
L 158.082312 48.408226 
L 158.605479 54.043539 
L 159.128646 66.282734 
L 159.651812 40.835774 
L 160.174979 63.465078 
L 160.698146 60.647421 
L 161.221313 54.924056 
L 161.74448 66.282734 
L 162.26727 48.408226 
L 162.790437 63.465078 
L 163.313604 54.043539 
L 163.836771 114.887308 
L 164.359938 64.433647 
L 164.883104 46.471087 
L 165.406271 62.496508 
L 165.929438 45.590569 
L 166.452605 65.314165 
L 166.975395 47.439656 
L 167.498562 52.1064 
L 168.021729 38.986687 
L 168.544896 48.408226 
L 169.068062 61.527939 
L 169.695938 62.496508 
L 170.219105 52.1064 
L 170.741895 71.037529 
L 171.265062 50.257313 
L 171.788229 63.465078 
L 172.311396 58.710282 
L 172.834562 41.804344 
L 173.357729 38.986687 
L 173.880896 42.772913 
L 174.404063 54.924056 
L 174.92723 45.590569 
L 175.45002 45.590569 
L 175.973187 52.1064 
L 176.496354 39.955256 
L 177.019521 55.892626 
L 177.542688 44.622 
L 178.065854 40.835774 
L 178.589021 50.257313 
L 179.112188 52.1064 
L 179.635355 52.1064 
L 180.158145 42.772913 
L 180.681312 49.288744 
L 181.204479 46.471087 
L 181.727646 63.465078 
L 182.250812 48.408226 
L 182.773979 40.835774 
L 183.297146 51.225882 
L 183.820313 38.986687 
L 184.34348 37.1376 
L 184.86627 38.986687 
L 185.389437 63.465078 
L 186.435771 33.351374 
L 186.958937 40.835774 
L 187.482104 61.527939 
L 188.005271 52.1064 
L 189.051605 42.772913 
L 189.574395 33.351374 
L 190.097562 39.955256 
L 190.620729 38.018118 
L 191.143896 48.408226 
L 191.667063 44.622 
L 192.713396 35.200461 
L 193.236563 39.955256 
L 193.864062 42.772913 
L 194.387229 43.653431 
L 194.910396 41.804344 
L 195.433562 38.018118 
L 195.956729 24.017887 
L 196.479896 42.772913 
L 197.003063 39.955256 
L 197.52623 49.288744 
L 198.04902 35.200461 
L 198.572187 34.319944 
L 198.572187 34.319944 
" clip-path="url(#p46fdbd9260)" style="fill: none; stroke: #474d6b; stroke-opacity: 0.439216; stroke-width: 1.5; stroke-linecap: square"/>
   </g>
   <g id="matplotlib.axis_1">
    <g id="xtick_1">
     <g id="line2d_2">
      <defs>
       <path id="m13238cfc1d" d="M 0 0 
L 0 3.5 
" style="stroke: #000000; stroke-width: 0.8"/>
      </defs>
      <g>
       <use xlink:href="#m13238cfc1d" x="47.598437" y="156.888" style="stroke: #000000; stroke-width: 0.8"/>
      </g>
     </g>
     <g id="text_1">
      <!-- 10.0 -->
      <g transform="translate(30.899219 175.285656)scale(0.15 -0.15)">
       <defs>
        <path id="DejaVuSans-31" d="M 794 531 
L 1825 531 
L 1825 4091 
L 703 3866 
L 703 4441 
L 1819 4666 
L 2450 4666 
L 2450 531 
L 3481 531 
L 3481 0 
L 794 0 
L 794 531 
z
" transform="scale(0.015625)"/>
        <path id="DejaVuSans-30" d="M 2034 4250 
Q 1547 4250 1301 3770 
Q 1056 3291 1056 2328 
Q 1056 1369 1301 889 
Q 1547 409 2034 409 
Q 2525 409 2770 889 
Q 3016 1369 3016 2328 
Q 3016 3291 2770 3770 
Q 2525 4250 2034 4250 
z
M 2034 4750 
Q 2819 4750 3233 4129 
Q 3647 3509 3647 2328 
Q 3647 1150 3233 529 
Q 2819 -91 2034 -91 
Q 1250 -91 836 529 
Q 422 1150 422 2328 
Q 422 3509 836 4129 
Q 1250 4750 2034 4750 
z
" transform="scale(0.015625)"/>
        <path id="DejaVuSans-2e" d="M 684 794 
L 1344 794 
L 1344 0 
L 684 0 
L 684 794 
z
" transform="scale(0.015625)"/>
       </defs>
       <use xlink:href="#DejaVuSans-31"/>
       <use xlink:href="#DejaVuSans-30" x="63.623047"/>
       <use xlink:href="#DejaVuSans-2e" x="127.246094"/>
       <use xlink:href="#DejaVuSans-30" x="159.033203"/>
      </g>
     </g>
    </g>
    <g id="xtick_2">
     <g id="line2d_3">
      <g>
       <use xlink:href="#m13238cfc1d" x="122.928438" y="156.888" style="stroke: #000000; stroke-width: 0.8"/>
      </g>
     </g>
     <g id="text_2">
      <!-- 10.2 -->
      <g transform="translate(106.229219 175.285656)scale(0.15 -0.15)">
       <defs>
        <path id="DejaVuSans-32" d="M 1228 531 
L 3431 531 
L 3431 0 
L 469 0 
L 469 531 
Q 828 903 1448 1529 
Q 2069 2156 2228 2338 
Q 2531 2678 2651 2914 
Q 2772 3150 2772 3378 
Q 2772 3750 2511 3984 
Q 2250 4219 1831 4219 
Q 1534 4219 1204 4116 
Q 875 4013 500 3803 
L 500 4441 
Q 881 4594 1212 4672 
Q 1544 4750 1819 4750 
Q 2544 4750 2975 4387 
Q 3406 4025 3406 3419 
Q 3406 3131 3298 2873 
Q 3191 2616 2906 2266 
Q 2828 2175 2409 1742 
Q 1991 1309 1228 531 
z
" transform="scale(0.015625)"/>
       </defs>
       <use xlink:href="#DejaVuSans-31"/>
       <use xlink:href="#DejaVuSans-30" x="63.623047"/>
       <use xlink:href="#DejaVuSans-2e" x="127.246094"/>
       <use xlink:href="#DejaVuSans-32" x="159.033203"/>
      </g>
     </g>
    </g>
    <g id="xtick_3">
     <g id="line2d_4">
      <g>
       <use xlink:href="#m13238cfc1d" x="198.258438" y="156.888" style="stroke: #000000; stroke-width: 0.8"/>
      </g>
     </g>
     <g id="text_3">
      <!-- 10.4 -->
      <g transform="translate(181.559219 175.285656)scale(0.15 -0.15)">
       <defs>
        <path id="DejaVuSans-34" d="M 2419 4116 
L 825 1625 
L 2419 1625 
L 2419 4116 
z
M 2253 4666 
L 3047 4666 
L 3047 1625 
L 3713 1625 
L 3713 1100 
L 3047 1100 
L 3047 0 
L 2419 0 
L 2419 1100 
L 313 1100 
L 313 1709 
L 2253 4666 
z
" transform="scale(0.015625)"/>
       </defs>
       <use xlink:href="#DejaVuSans-31"/>
       <use xlink:href="#DejaVuSans-30" x="63.623047"/>
       <use xlink:href="#DejaVuSans-2e" x="127.246094"/>
       <use xlink:href="#DejaVuSans-34" x="159.033203"/>
      </g>
     </g>
    </g>
   </g>
   <g id="matplotlib.axis_2">
    <g id="ytick_1">
     <g id="line2d_5">
      <defs>
       <path id="m336f4089e3" d="M 0 0 
L -3.5 0 
" style="stroke: #000000; stroke-width: 0.8"/>
      </defs>
      <g>
       <use xlink:href="#m336f4089e3" x="47.598437" y="148.082824" style="stroke: #000000; stroke-width: 0.8"/>
      </g>
     </g>
     <g id="text_4">
      <!-- 3.25 -->
      <g transform="translate(7.2 153.781652)scale(0.15 -0.15)">
       <defs>
        <path id="DejaVuSans-33" d="M 2597 2516 
Q 3050 2419 3304 2112 
Q 3559 1806 3559 1356 
Q 3559 666 3084 287 
Q 2609 -91 1734 -91 
Q 1441 -91 1130 -33 
Q 819 25 488 141 
L 488 750 
Q 750 597 1062 519 
Q 1375 441 1716 441 
Q 2309 441 2620 675 
Q 2931 909 2931 1356 
Q 2931 1769 2642 2001 
Q 2353 2234 1838 2234 
L 1294 2234 
L 1294 2753 
L 1863 2753 
Q 2328 2753 2575 2939 
Q 2822 3125 2822 3475 
Q 2822 3834 2567 4026 
Q 2313 4219 1838 4219 
Q 1578 4219 1281 4162 
Q 984 4106 628 3988 
L 628 4550 
Q 988 4650 1302 4700 
Q 1616 4750 1894 4750 
Q 2613 4750 3031 4423 
Q 3450 4097 3450 3541 
Q 3450 3153 3228 2886 
Q 3006 2619 2597 2516 
z
" transform="scale(0.015625)"/>
        <path id="DejaVuSans-35" d="M 691 4666 
L 3169 4666 
L 3169 4134 
L 1269 4134 
L 1269 2991 
Q 1406 3038 1543 3061 
Q 1681 3084 1819 3084 
Q 2600 3084 3056 2656 
Q 3513 2228 3513 1497 
Q 3513 744 3044 326 
Q 2575 -91 1722 -91 
Q 1428 -91 1123 -41 
Q 819 9 494 109 
L 494 744 
Q 775 591 1075 516 
Q 1375 441 1709 441 
Q 2250 441 2565 725 
Q 2881 1009 2881 1497 
Q 2881 1984 2565 2268 
Q 2250 2553 1709 2553 
Q 1456 2553 1204 2497 
Q 953 2441 691 2322 
L 691 4666 
z
" transform="scale(0.015625)"/>
       </defs>
       <use xlink:href="#DejaVuSans-33"/>
       <use xlink:href="#DejaVuSans-2e" x="63.623047"/>
       <use xlink:href="#DejaVuSans-32" x="95.410156"/>
       <use xlink:href="#DejaVuSans-35" x="159.033203"/>
      </g>
     </g>
    </g>
    <g id="ytick_2">
     <g id="line2d_6">
      <g>
       <use xlink:href="#m336f4089e3" x="47.598437" y="104.056941" style="stroke: #000000; stroke-width: 0.8"/>
      </g>
     </g>
     <g id="text_5">
      <!-- 3.30 -->
      <g transform="translate(7.2 109.755769)scale(0.15 -0.15)">
       <use xlink:href="#DejaVuSans-33"/>
       <use xlink:href="#DejaVuSans-2e" x="63.623047"/>
       <use xlink:href="#DejaVuSans-33" x="95.410156"/>
       <use xlink:href="#DejaVuSans-30" x="159.033203"/>
      </g>
     </g>
    </g>
    <g id="ytick_3">
     <g id="line2d_7">
      <g>
       <use xlink:href="#m336f4089e3" x="47.598437" y="60.031059" style="stroke: #000000; stroke-width: 0.8"/>
      </g>
     </g>
     <g id="text_6">
      <!-- 3.35 -->
      <g transform="translate(7.2 65.729887)scale(0.15 -0.15)">
       <use xlink:href="#DejaVuSans-33"/>
       <use xlink:href="#DejaVuSans-2e" x="63.623047"/>
       <use xlink:href="#DejaVuSans-33" x="95.410156"/>
       <use xlink:href="#DejaVuSans-35" x="159.033203"/>
      </g>
     </g>
    </g>
    <g id="ytick_4">
     <g id="line2d_8">
      <g>
       <use xlink:href="#m336f4089e3" x="47.598437" y="16.005176" style="stroke: #000000; stroke-width: 0.8"/>
      </g>
     </g>
     <g id="text_7">
      <!-- 3.40 -->
      <g transform="translate(7.2 21.704005)scale(0.15 -0.15)">
       <use xlink:href="#DejaVuSans-33"/>
       <use xlink:href="#DejaVuSans-2e" x="63.623047"/>
       <use xlink:href="#DejaVuSans-34" x="95.410156"/>
       <use xlink:href="#DejaVuSans-30" x="159.033203"/>
      </g>
     </g>
    </g>
   </g>
   <g id="line2d_9">
    <path d="M 47.075271 114.619893 
L 50.946479 112.519091 
L 52.51598 111.765852 
L 54.085104 110.863563 
L 57.746895 108.795866 
L 59.316396 107.913291 
L 62.45502 106.162376 
L 73.545479 99.939237 
L 75.11498 98.952235 
L 77.730437 97.527684 
L 80.345895 96.108376 
L 81.392229 95.607197 
L 85.05402 93.547687 
L 86.100354 93.014366 
L 93.94748 88.80923 
L 94.993437 88.212314 
L 97.190813 87.201055 
L 97.71398 87.109197 
L 98.759937 86.614783 
L 99.806271 86.169936 
L 100.329438 85.964637 
L 101.375771 85.344738 
L 103.991229 84.092995 
L 105.560729 83.21229 
L 116.54648 77.834895 
L 117.592437 77.274939 
L 126.067062 73.223632 
L 127.636563 72.538254 
L 129.72923 71.399136 
L 131.298354 70.697137 
L 132.867854 70.150817 
L 134.960145 69.047169 
L 142.807271 65.090298 
L 143.957937 64.627714 
L 153.897354 59.779622 
L 155.990021 58.751628 
L 159.651812 56.972411 
L 162.26727 55.796507 
L 164.883104 54.513582 
L 165.929438 54.013308 
L 168.021729 52.986567 
L 178.065854 48.468437 
L 179.635355 47.573836 
L 180.681312 47.10008 
L 181.727646 46.539198 
L 187.482104 44.049536 
L 189.051605 43.135106 
L 190.097562 42.616906 
L 191.143896 42.07971 
L 195.956729 40.156592 
L 197.52623 39.424368 
L 198.572187 38.979222 
L 198.572187 38.979222 
" clip-path="url(#p46fdbd9260)" style="fill: none; stroke: #474d6b; stroke-width: 1.5; stroke-linecap: square"/>
   </g>
   <g id="patch_3">
    <path d="M 47.598437 156.888 
L 47.598437 7.2 
" style="fill: none; stroke: #000000; stroke-width: 0.8; stroke-linejoin: miter; stroke-linecap: square"/>
   </g>
   <g id="patch_4">
    <path d="M 198.258438 156.888 
L 198.258438 7.2 
" style="fill: none; stroke: #000000; stroke-width: 0.8; stroke-linejoin: miter; stroke-linecap: square"/>
   </g>
   <g id="patch_5">
    <path d="M 47.598437 156.888 
L 198.258438 156.888 
" style="fill: none; stroke: #000000; stroke-width: 0.8; stroke-linejoin: miter; stroke-linecap: square"/>
   </g>
   <g id="patch_6">
    <path d="M 47.598437 7.2 
L 198.258438 7.2 
" style="fill: none; stroke: #000000; stroke-width: 0.8; stroke-linejoin: miter; stroke-linecap: square"/>
   </g>
  </g>
 </g>
 <defs>
  <clipPath id="p46fdbd9260">
   <rect x="47.598437" y="7.2" width="150.66" height="149.688"/>
  </clipPath>
 </defs>
</svg>
