<?xml version="1.0" encoding="utf-8" standalone="no"?>
<!DOCTYPE svg PUBLIC "-//W3C//DTD SVG 1.1//EN"
  "http://www.w3.org/Graphics/SVG/1.1/DTD/svg11.dtd">
<svg xmlns:xlink="http://www.w3.org/1999/xlink" width="841.68pt" height="337.68pt" viewBox="0 0 841.68 337.68" xmlns="http://www.w3.org/2000/svg" version="1.1">
 <metadata>
  <rdf:RDF xmlns:dc="http://purl.org/dc/elements/1.1/" xmlns:cc="http://creativecommons.org/ns#" xmlns:rdf="http://www.w3.org/1999/02/22-rdf-syntax-ns#">
   <cc:Work>
    <dc:type rdf:resource="http://purl.org/dc/dcmitype/StillImage"/>
    <dc:date>2024-03-26T19:35:10.941754</dc:date>
    <dc:format>image/svg+xml</dc:format>
    <dc:creator>
     <cc:Agent>
      <dc:title>Matplotlib v3.5.2, https://matplotlib.org/</dc:title>
     </cc:Agent>
    </dc:creator>
   </cc:Work>
  </rdf:RDF>
 </metadata>
 <defs>
  <style type="text/css">*{stroke-linejoin: round; stroke-linecap: butt}</style>
 </defs>
 <g id="figure_1">
  <g id="patch_1">
   <path d="M 0 337.68 
L 841.68 337.68 
L 841.68 0 
L 0 0 
L 0 337.68 
z
" style="fill: none"/>
  </g>
  <g id="axes_1">
   <g id="patch_2">
    <path d="M 67.101563 286.574375 
L 410.309297 286.574375 
L 410.309297 13.658672 
L 67.101563 13.658672 
L 67.101563 286.574375 
z
" style="fill: none"/>
   </g>
   <g id="PathCollection_1">
    <defs>
     <path id="m218453ff6f" d="M 0 3 
C 0.795609 3 1.55874 2.683901 2.12132 2.12132 
C 2.683901 1.55874 3 0.795609 3 0 
C 3 -0.795609 2.683901 -1.55874 2.12132 -2.12132 
C 1.55874 -2.683901 0.795609 -3 0 -3 
C -0.795609 -3 -1.55874 -2.683901 -2.12132 -2.12132 
C -2.683901 -1.55874 -3 -0.795609 -3 0 
C -3 0.795609 -2.683901 1.55874 -2.12132 2.12132 
C -1.55874 2.683901 -0.795609 3 0 3 
z
" style="stroke: #3498b0"/>
    </defs>
    <g clip-path="url(#pe0ed07139c)">
     <use xlink:href="#m218453ff6f" x="100.82421" y="262.638508" style="fill: #3498b0; stroke: #3498b0"/>
     <use xlink:href="#m218453ff6f" x="117.632105" y="268.238905" style="fill: #3498b0; stroke: #3498b0"/>
     <use xlink:href="#m218453ff6f" x="120.192051" y="251.379626" style="fill: #3498b0; stroke: #3498b0"/>
     <use xlink:href="#m218453ff6f" x="107.245321" y="265.824563" style="fill: #3498b0; stroke: #3498b0"/>
     <use xlink:href="#m218453ff6f" x="113.624482" y="274.944187" style="fill: #3498b0; stroke: #3498b0"/>
     <use xlink:href="#m218453ff6f" x="97.815972" y="269.818529" style="fill: #3498b0; stroke: #3498b0"/>
     <use xlink:href="#m218453ff6f" x="82.701914" y="163.049063" style="fill: #3498b0; stroke: #3498b0"/>
     <use xlink:href="#m218453ff6f" x="110.904611" y="266.257278" style="fill: #3498b0; stroke: #3498b0"/>
     <use xlink:href="#m218453ff6f" x="109.646567" y="263.737381" style="fill: #3498b0; stroke: #3498b0"/>
     <use xlink:href="#m218453ff6f" x="106.973944" y="260.919061" style="fill: #3498b0; stroke: #3498b0"/>
     <use xlink:href="#m218453ff6f" x="120.659859" y="273.693019" style="fill: #3498b0; stroke: #3498b0"/>
     <use xlink:href="#m218453ff6f" x="100.815227" y="265.40078" style="fill: #3498b0; stroke: #3498b0"/>
     <use xlink:href="#m218453ff6f" x="120.201403" y="90.971139" style="fill: #3498b0; stroke: #3498b0"/>
     <use xlink:href="#m218453ff6f" x="116.113844" y="269.66092" style="fill: #3498b0; stroke: #3498b0"/>
     <use xlink:href="#m218453ff6f" x="114.189507" y="271.814029" style="fill: #3498b0; stroke: #3498b0"/>
     <use xlink:href="#m218453ff6f" x="109.567615" y="130.676377" style="fill: #3498b0; stroke: #3498b0"/>
     <use xlink:href="#m218453ff6f" x="103.011538" y="220.323184" style="fill: #3498b0; stroke: #3498b0"/>
     <use xlink:href="#m218453ff6f" x="105.244443" y="258.36456" style="fill: #3498b0; stroke: #3498b0"/>
     <use xlink:href="#m218453ff6f" x="93.634138" y="273.467739" style="fill: #3498b0; stroke: #3498b0"/>
     <use xlink:href="#m218453ff6f" x="129.389052" y="214.931775" style="fill: #3498b0; stroke: #3498b0"/>
     <use xlink:href="#m218453ff6f" x="92.684238" y="213.416057" style="fill: #3498b0; stroke: #3498b0"/>
     <use xlink:href="#m218453ff6f" x="106.560304" y="225.446322" style="fill: #3498b0; stroke: #3498b0"/>
     <use xlink:href="#m218453ff6f" x="101.229694" y="260.201738" style="fill: #3498b0; stroke: #3498b0"/>
     <use xlink:href="#m218453ff6f" x="109.148464" y="274.224377" style="fill: #3498b0; stroke: #3498b0"/>
     <use xlink:href="#m218453ff6f" x="104.155596" y="269.816755" style="fill: #3498b0; stroke: #3498b0"/>
     <use xlink:href="#m218453ff6f" x="102.973949" y="274.924738" style="fill: #3498b0; stroke: #3498b0"/>
     <use xlink:href="#m218453ff6f" x="107.43346" y="230.10922" style="fill: #3498b0; stroke: #3498b0"/>
     <use xlink:href="#m218453ff6f" x="104.33512" y="271.252773" style="fill: #3498b0; stroke: #3498b0"/>
     <use xlink:href="#m218453ff6f" x="127.192987" y="211.694899" style="fill: #3498b0; stroke: #3498b0"/>
     <use xlink:href="#m218453ff6f" x="99.352192" y="265.54437" style="fill: #3498b0; stroke: #3498b0"/>
     <use xlink:href="#m218453ff6f" x="106.238767" y="274.315615" style="fill: #3498b0; stroke: #3498b0"/>
     <use xlink:href="#m218453ff6f" x="127.273398" y="268.969865" style="fill: #3498b0; stroke: #3498b0"/>
     <use xlink:href="#m218453ff6f" x="90.189422" y="264.021711" style="fill: #3498b0; stroke: #3498b0"/>
     <use xlink:href="#m218453ff6f" x="106.276945" y="260.583336" style="fill: #3498b0; stroke: #3498b0"/>
     <use xlink:href="#m218453ff6f" x="113.836839" y="243.293899" style="fill: #3498b0; stroke: #3498b0"/>
     <use xlink:href="#m218453ff6f" x="98.978077" y="265.805354" style="fill: #3498b0; stroke: #3498b0"/>
     <use xlink:href="#m218453ff6f" x="108.819141" y="268.882707" style="fill: #3498b0; stroke: #3498b0"/>
     <use xlink:href="#m218453ff6f" x="89.803501" y="265.19099" style="fill: #3498b0; stroke: #3498b0"/>
     <use xlink:href="#m218453ff6f" x="115.283993" y="268.882707" style="fill: #3498b0; stroke: #3498b0"/>
     <use xlink:href="#m218453ff6f" x="93.43849" y="269.320834" style="fill: #3498b0; stroke: #3498b0"/>
     <use xlink:href="#m218453ff6f" x="87.570666" y="268.500205" style="fill: #3498b0; stroke: #3498b0"/>
     <use xlink:href="#m218453ff6f" x="99.430713" y="268.500205" style="fill: #3498b0; stroke: #3498b0"/>
    </g>
   </g>
   <g id="PathCollection_2">
    <defs>
     <path id="mc313edabf5" d="M 0 3 
C 0.795609 3 1.55874 2.683901 2.12132 2.12132 
C 2.683901 1.55874 3 0.795609 3 0 
C 3 -0.795609 2.683901 -1.55874 2.12132 -2.12132 
C 1.55874 -2.683901 0.795609 -3 0 -3 
C -0.795609 -3 -1.55874 -2.683901 -2.12132 -2.12132 
C -2.683901 -1.55874 -3 -0.795609 -3 0 
C -3 0.795609 -2.683901 1.55874 -2.12132 2.12132 
C -1.55874 2.683901 -0.795609 3 0 3 
z
" style="stroke: #474d6b"/>
    </defs>
    <g clip-path="url(#pe0ed07139c)">
     <use xlink:href="#mc313edabf5" x="224.611009" y="245.724015" style="fill: #474d6b; stroke: #474d6b"/>
     <use xlink:href="#mc313edabf5" x="248.907394" y="244.832379" style="fill: #474d6b; stroke: #474d6b"/>
     <use xlink:href="#mc313edabf5" x="145.890671" y="191.115139" style="fill: #474d6b; stroke: #474d6b"/>
     <use xlink:href="#mc313edabf5" x="173.590526" y="246.935871" style="fill: #474d6b; stroke: #474d6b"/>
     <use xlink:href="#mc313edabf5" x="183.412945" y="226.800946" style="fill: #474d6b; stroke: #474d6b"/>
     <use xlink:href="#mc313edabf5" x="174.481264" y="231.289759" style="fill: #474d6b; stroke: #474d6b"/>
     <use xlink:href="#mc313edabf5" x="143.881777" y="141.803373" style="fill: #474d6b; stroke: #474d6b"/>
     <use xlink:href="#mc313edabf5" x="394.708945" y="252.126838" style="fill: #474d6b; stroke: #474d6b"/>
     <use xlink:href="#mc313edabf5" x="380.712815" y="264.522494" style="fill: #474d6b; stroke: #474d6b"/>
     <use xlink:href="#mc313edabf5" x="388.479378" y="25.777467" style="fill: #474d6b; stroke: #474d6b"/>
     <use xlink:href="#mc313edabf5" x="177.771589" y="262.799012" style="fill: #474d6b; stroke: #474d6b"/>
     <use xlink:href="#mc313edabf5" x="145.504426" y="254.806003" style="fill: #474d6b; stroke: #474d6b"/>
     <use xlink:href="#mc313edabf5" x="139.457149" y="246.990106" style="fill: #474d6b; stroke: #474d6b"/>
     <use xlink:href="#mc313edabf5" x="235.866491" y="270.48337" style="fill: #474d6b; stroke: #474d6b"/>
     <use xlink:href="#mc313edabf5" x="166.346139" y="262.499694" style="fill: #474d6b; stroke: #474d6b"/>
     <use xlink:href="#mc313edabf5" x="205.858069" y="267.850811" style="fill: #474d6b; stroke: #474d6b"/>
     <use xlink:href="#mc313edabf5" x="188.615923" y="239.844734" style="fill: #474d6b; stroke: #474d6b"/>
     <use xlink:href="#mc313edabf5" x="212.22754" y="255.641494" style="fill: #474d6b; stroke: #474d6b"/>
     <use xlink:href="#mc313edabf5" x="147.483576" y="257.203227" style="fill: #474d6b; stroke: #474d6b"/>
     <use xlink:href="#mc313edabf5" x="141.537259" y="229.324486" style="fill: #474d6b; stroke: #474d6b"/>
     <use xlink:href="#mc313edabf5" x="151.924794" y="261.962525" style="fill: #474d6b; stroke: #474d6b"/>
    </g>
   </g>
   <g id="PathCollection_3">
    <defs>
     <path id="m1d8b9b461c" d="M 0 3 
C 0.795609 3 1.55874 2.683901 2.12132 2.12132 
C 2.683901 1.55874 3 0.795609 3 0 
C 3 -0.795609 2.683901 -1.55874 2.12132 -2.12132 
C 1.55874 -2.683901 0.795609 -3 0 -3 
C -0.795609 -3 -1.55874 -2.683901 -2.12132 -2.12132 
C -2.683901 -1.55874 -3 -0.795609 -3 0 
C -3 0.795609 -2.683901 1.55874 -2.12132 2.12132 
C -1.55874 2.683901 -0.795609 3 0 3 
z
" style="stroke: #cf597e"/>
    </defs>
    <g clip-path="url(#pe0ed07139c)">
     <use xlink:href="#m1d8b9b461c" x="394.708945" y="252.126838" style="fill: #cf597e; stroke: #cf597e"/>
     <use xlink:href="#m1d8b9b461c" x="380.712815" y="264.522494" style="fill: #cf597e; stroke: #cf597e"/>
     <use xlink:href="#m1d8b9b461c" x="388.479378" y="25.777467" style="fill: #cf597e; stroke: #cf597e"/>
    </g>
   </g>
   <g id="matplotlib.axis_1">
    <g id="xtick_1">
     <g id="line2d_1">
      <defs>
       <path id="me81a557a23" d="M 0 0 
L 0 3.5 
" style="stroke: #000000; stroke-width: 0.8"/>
      </defs>
      <g>
       <use xlink:href="#me81a557a23" x="120.760193" y="286.574375" style="stroke: #000000; stroke-width: 0.8"/>
      </g>
     </g>
     <g id="text_1">
      <!-- 0.25 -->
      <g transform="translate(101.834412 306.491719)scale(0.17 -0.17)">
       <defs>
        <path id="DejaVuSans-30" d="M 2034 4250 
Q 1547 4250 1301 3770 
Q 1056 3291 1056 2328 
Q 1056 1369 1301 889 
Q 1547 409 2034 409 
Q 2525 409 2770 889 
Q 3016 1369 3016 2328 
Q 3016 3291 2770 3770 
Q 2525 4250 2034 4250 
z
M 2034 4750 
Q 2819 4750 3233 4129 
Q 3647 3509 3647 2328 
Q 3647 1150 3233 529 
Q 2819 -91 2034 -91 
Q 1250 -91 836 529 
Q 422 1150 422 2328 
Q 422 3509 836 4129 
Q 1250 4750 2034 4750 
z
" transform="scale(0.015625)"/>
        <path id="DejaVuSans-2e" d="M 684 794 
L 1344 794 
L 1344 0 
L 684 0 
L 684 794 
z
" transform="scale(0.015625)"/>
        <path id="DejaVuSans-32" d="M 1228 531 
L 3431 531 
L 3431 0 
L 469 0 
L 469 531 
Q 828 903 1448 1529 
Q 2069 2156 2228 2338 
Q 2531 2678 2651 2914 
Q 2772 3150 2772 3378 
Q 2772 3750 2511 3984 
Q 2250 4219 1831 4219 
Q 1534 4219 1204 4116 
Q 875 4013 500 3803 
L 500 4441 
Q 881 4594 1212 4672 
Q 1544 4750 1819 4750 
Q 2544 4750 2975 4387 
Q 3406 4025 3406 3419 
Q 3406 3131 3298 2873 
Q 3191 2616 2906 2266 
Q 2828 2175 2409 1742 
Q 1991 1309 1228 531 
z
" transform="scale(0.015625)"/>
        <path id="DejaVuSans-35" d="M 691 4666 
L 3169 4666 
L 3169 4134 
L 1269 4134 
L 1269 2991 
Q 1406 3038 1543 3061 
Q 1681 3084 1819 3084 
Q 2600 3084 3056 2656 
Q 3513 2228 3513 1497 
Q 3513 744 3044 326 
Q 2575 -91 1722 -91 
Q 1428 -91 1123 -41 
Q 819 9 494 109 
L 494 744 
Q 775 591 1075 516 
Q 1375 441 1709 441 
Q 2250 441 2565 725 
Q 2881 1009 2881 1497 
Q 2881 1984 2565 2268 
Q 2250 2553 1709 2553 
Q 1456 2553 1204 2497 
Q 953 2441 691 2322 
L 691 4666 
z
" transform="scale(0.015625)"/>
       </defs>
       <use xlink:href="#DejaVuSans-30"/>
       <use xlink:href="#DejaVuSans-2e" x="63.623047"/>
       <use xlink:href="#DejaVuSans-32" x="95.410156"/>
       <use xlink:href="#DejaVuSans-35" x="159.033203"/>
      </g>
     </g>
    </g>
    <g id="xtick_2">
     <g id="line2d_2">
      <g>
       <use xlink:href="#me81a557a23" x="188.447589" y="286.574375" style="stroke: #000000; stroke-width: 0.8"/>
      </g>
     </g>
     <g id="text_2">
      <!-- 0.50 -->
      <g transform="translate(169.521808 306.491719)scale(0.17 -0.17)">
       <use xlink:href="#DejaVuSans-30"/>
       <use xlink:href="#DejaVuSans-2e" x="63.623047"/>
       <use xlink:href="#DejaVuSans-35" x="95.410156"/>
       <use xlink:href="#DejaVuSans-30" x="159.033203"/>
      </g>
     </g>
    </g>
    <g id="xtick_3">
     <g id="line2d_3">
      <g>
       <use xlink:href="#me81a557a23" x="256.134985" y="286.574375" style="stroke: #000000; stroke-width: 0.8"/>
      </g>
     </g>
     <g id="text_3">
      <!-- 0.75 -->
      <g transform="translate(237.209203 306.491719)scale(0.17 -0.17)">
       <defs>
        <path id="DejaVuSans-37" d="M 525 4666 
L 3525 4666 
L 3525 4397 
L 1831 0 
L 1172 0 
L 2766 4134 
L 525 4134 
L 525 4666 
z
" transform="scale(0.015625)"/>
       </defs>
       <use xlink:href="#DejaVuSans-30"/>
       <use xlink:href="#DejaVuSans-2e" x="63.623047"/>
       <use xlink:href="#DejaVuSans-37" x="95.410156"/>
       <use xlink:href="#DejaVuSans-35" x="159.033203"/>
      </g>
     </g>
    </g>
    <g id="xtick_4">
     <g id="line2d_4">
      <g>
       <use xlink:href="#me81a557a23" x="323.82238" y="286.574375" style="stroke: #000000; stroke-width: 0.8"/>
      </g>
     </g>
     <g id="text_4">
      <!-- 1.00 -->
      <g transform="translate(304.896599 306.491719)scale(0.17 -0.17)">
       <defs>
        <path id="DejaVuSans-31" d="M 794 531 
L 1825 531 
L 1825 4091 
L 703 3866 
L 703 4441 
L 1819 4666 
L 2450 4666 
L 2450 531 
L 3481 531 
L 3481 0 
L 794 0 
L 794 531 
z
" transform="scale(0.015625)"/>
       </defs>
       <use xlink:href="#DejaVuSans-31"/>
       <use xlink:href="#DejaVuSans-2e" x="63.623047"/>
       <use xlink:href="#DejaVuSans-30" x="95.410156"/>
       <use xlink:href="#DejaVuSans-30" x="159.033203"/>
      </g>
     </g>
    </g>
    <g id="xtick_5">
     <g id="line2d_5">
      <g>
       <use xlink:href="#me81a557a23" x="391.509776" y="286.574375" style="stroke: #000000; stroke-width: 0.8"/>
      </g>
     </g>
     <g id="text_5">
      <!-- 1.25 -->
      <g transform="translate(372.583995 306.491719)scale(0.17 -0.17)">
       <use xlink:href="#DejaVuSans-31"/>
       <use xlink:href="#DejaVuSans-2e" x="63.623047"/>
       <use xlink:href="#DejaVuSans-32" x="95.410156"/>
       <use xlink:href="#DejaVuSans-35" x="159.033203"/>
      </g>
     </g>
    </g>
    <g id="text_6">
     <!-- sPV (mm/h) -->
     <g transform="translate(189.194258 326.944531)scale(0.17 -0.17)">
      <defs>
       <path id="DejaVuSans-73" d="M 2834 3397 
L 2834 2853 
Q 2591 2978 2328 3040 
Q 2066 3103 1784 3103 
Q 1356 3103 1142 2972 
Q 928 2841 928 2578 
Q 928 2378 1081 2264 
Q 1234 2150 1697 2047 
L 1894 2003 
Q 2506 1872 2764 1633 
Q 3022 1394 3022 966 
Q 3022 478 2636 193 
Q 2250 -91 1575 -91 
Q 1294 -91 989 -36 
Q 684 19 347 128 
L 347 722 
Q 666 556 975 473 
Q 1284 391 1588 391 
Q 1994 391 2212 530 
Q 2431 669 2431 922 
Q 2431 1156 2273 1281 
Q 2116 1406 1581 1522 
L 1381 1569 
Q 847 1681 609 1914 
Q 372 2147 372 2553 
Q 372 3047 722 3315 
Q 1072 3584 1716 3584 
Q 2034 3584 2315 3537 
Q 2597 3491 2834 3397 
z
" transform="scale(0.015625)"/>
       <path id="DejaVuSans-50" d="M 1259 4147 
L 1259 2394 
L 2053 2394 
Q 2494 2394 2734 2622 
Q 2975 2850 2975 3272 
Q 2975 3691 2734 3919 
Q 2494 4147 2053 4147 
L 1259 4147 
z
M 628 4666 
L 2053 4666 
Q 2838 4666 3239 4311 
Q 3641 3956 3641 3272 
Q 3641 2581 3239 2228 
Q 2838 1875 2053 1875 
L 1259 1875 
L 1259 0 
L 628 0 
L 628 4666 
z
" transform="scale(0.015625)"/>
       <path id="DejaVuSans-56" d="M 1831 0 
L 50 4666 
L 709 4666 
L 2188 738 
L 3669 4666 
L 4325 4666 
L 2547 0 
L 1831 0 
z
" transform="scale(0.015625)"/>
       <path id="DejaVuSans-20" transform="scale(0.015625)"/>
       <path id="DejaVuSans-28" d="M 1984 4856 
Q 1566 4138 1362 3434 
Q 1159 2731 1159 2009 
Q 1159 1288 1364 580 
Q 1569 -128 1984 -844 
L 1484 -844 
Q 1016 -109 783 600 
Q 550 1309 550 2009 
Q 550 2706 781 3412 
Q 1013 4119 1484 4856 
L 1984 4856 
z
" transform="scale(0.015625)"/>
       <path id="DejaVuSans-6d" d="M 3328 2828 
Q 3544 3216 3844 3400 
Q 4144 3584 4550 3584 
Q 5097 3584 5394 3201 
Q 5691 2819 5691 2113 
L 5691 0 
L 5113 0 
L 5113 2094 
Q 5113 2597 4934 2840 
Q 4756 3084 4391 3084 
Q 3944 3084 3684 2787 
Q 3425 2491 3425 1978 
L 3425 0 
L 2847 0 
L 2847 2094 
Q 2847 2600 2669 2842 
Q 2491 3084 2119 3084 
Q 1678 3084 1418 2786 
Q 1159 2488 1159 1978 
L 1159 0 
L 581 0 
L 581 3500 
L 1159 3500 
L 1159 2956 
Q 1356 3278 1631 3431 
Q 1906 3584 2284 3584 
Q 2666 3584 2933 3390 
Q 3200 3197 3328 2828 
z
" transform="scale(0.015625)"/>
       <path id="DejaVuSans-2f" d="M 1625 4666 
L 2156 4666 
L 531 -594 
L 0 -594 
L 1625 4666 
z
" transform="scale(0.015625)"/>
       <path id="DejaVuSans-68" d="M 3513 2113 
L 3513 0 
L 2938 0 
L 2938 2094 
Q 2938 2591 2744 2837 
Q 2550 3084 2163 3084 
Q 1697 3084 1428 2787 
Q 1159 2491 1159 1978 
L 1159 0 
L 581 0 
L 581 4863 
L 1159 4863 
L 1159 2956 
Q 1366 3272 1645 3428 
Q 1925 3584 2291 3584 
Q 2894 3584 3203 3211 
Q 3513 2838 3513 2113 
z
" transform="scale(0.015625)"/>
       <path id="DejaVuSans-29" d="M 513 4856 
L 1013 4856 
Q 1481 4119 1714 3412 
Q 1947 2706 1947 2009 
Q 1947 1309 1714 600 
Q 1481 -109 1013 -844 
L 513 -844 
Q 928 -128 1133 580 
Q 1338 1288 1338 2009 
Q 1338 2731 1133 3434 
Q 928 4138 513 4856 
z
" transform="scale(0.015625)"/>
      </defs>
      <use xlink:href="#DejaVuSans-73"/>
      <use xlink:href="#DejaVuSans-50" x="52.099609"/>
      <use xlink:href="#DejaVuSans-56" x="112.402344"/>
      <use xlink:href="#DejaVuSans-20" x="180.810547"/>
      <use xlink:href="#DejaVuSans-28" x="212.597656"/>
      <use xlink:href="#DejaVuSans-6d" x="251.611328"/>
      <use xlink:href="#DejaVuSans-6d" x="349.023438"/>
      <use xlink:href="#DejaVuSans-2f" x="446.435547"/>
      <use xlink:href="#DejaVuSans-68" x="480.126953"/>
      <use xlink:href="#DejaVuSans-29" x="543.505859"/>
     </g>
    </g>
   </g>
   <g id="matplotlib.axis_2">
    <g id="ytick_1">
     <g id="line2d_6">
      <defs>
       <path id="m5ce2bfb4b1" d="M 0 0 
L -3.5 0 
" style="stroke: #000000; stroke-width: 0.8"/>
      </defs>
      <g>
       <use xlink:href="#m5ce2bfb4b1" x="67.101563" y="264.741119" style="stroke: #000000; stroke-width: 0.8"/>
      </g>
     </g>
     <g id="text_7">
      <!-- 20 -->
      <g transform="translate(38.469063 271.199791)scale(0.17 -0.17)">
       <use xlink:href="#DejaVuSans-32"/>
       <use xlink:href="#DejaVuSans-30" x="63.623047"/>
      </g>
     </g>
    </g>
    <g id="ytick_2">
     <g id="line2d_7">
      <g>
       <use xlink:href="#m5ce2bfb4b1" x="67.101563" y="221.074606" style="stroke: #000000; stroke-width: 0.8"/>
      </g>
     </g>
     <g id="text_8">
      <!-- 40 -->
      <g transform="translate(38.469063 227.533278)scale(0.17 -0.17)">
       <defs>
        <path id="DejaVuSans-34" d="M 2419 4116 
L 825 1625 
L 2419 1625 
L 2419 4116 
z
M 2253 4666 
L 3047 4666 
L 3047 1625 
L 3713 1625 
L 3713 1100 
L 3047 1100 
L 3047 0 
L 2419 0 
L 2419 1100 
L 313 1100 
L 313 1709 
L 2253 4666 
z
" transform="scale(0.015625)"/>
       </defs>
       <use xlink:href="#DejaVuSans-34"/>
       <use xlink:href="#DejaVuSans-30" x="63.623047"/>
      </g>
     </g>
    </g>
    <g id="ytick_3">
     <g id="line2d_8">
      <g>
       <use xlink:href="#m5ce2bfb4b1" x="67.101563" y="177.408094" style="stroke: #000000; stroke-width: 0.8"/>
      </g>
     </g>
     <g id="text_9">
      <!-- 60 -->
      <g transform="translate(38.469063 183.866766)scale(0.17 -0.17)">
       <defs>
        <path id="DejaVuSans-36" d="M 2113 2584 
Q 1688 2584 1439 2293 
Q 1191 2003 1191 1497 
Q 1191 994 1439 701 
Q 1688 409 2113 409 
Q 2538 409 2786 701 
Q 3034 994 3034 1497 
Q 3034 2003 2786 2293 
Q 2538 2584 2113 2584 
z
M 3366 4563 
L 3366 3988 
Q 3128 4100 2886 4159 
Q 2644 4219 2406 4219 
Q 1781 4219 1451 3797 
Q 1122 3375 1075 2522 
Q 1259 2794 1537 2939 
Q 1816 3084 2150 3084 
Q 2853 3084 3261 2657 
Q 3669 2231 3669 1497 
Q 3669 778 3244 343 
Q 2819 -91 2113 -91 
Q 1303 -91 875 529 
Q 447 1150 447 2328 
Q 447 3434 972 4092 
Q 1497 4750 2381 4750 
Q 2619 4750 2861 4703 
Q 3103 4656 3366 4563 
z
" transform="scale(0.015625)"/>
       </defs>
       <use xlink:href="#DejaVuSans-36"/>
       <use xlink:href="#DejaVuSans-30" x="63.623047"/>
      </g>
     </g>
    </g>
    <g id="ytick_4">
     <g id="line2d_9">
      <g>
       <use xlink:href="#m5ce2bfb4b1" x="67.101563" y="133.741581" style="stroke: #000000; stroke-width: 0.8"/>
      </g>
     </g>
     <g id="text_10">
      <!-- 80 -->
      <g transform="translate(38.469063 140.200253)scale(0.17 -0.17)">
       <defs>
        <path id="DejaVuSans-38" d="M 2034 2216 
Q 1584 2216 1326 1975 
Q 1069 1734 1069 1313 
Q 1069 891 1326 650 
Q 1584 409 2034 409 
Q 2484 409 2743 651 
Q 3003 894 3003 1313 
Q 3003 1734 2745 1975 
Q 2488 2216 2034 2216 
z
M 1403 2484 
Q 997 2584 770 2862 
Q 544 3141 544 3541 
Q 544 4100 942 4425 
Q 1341 4750 2034 4750 
Q 2731 4750 3128 4425 
Q 3525 4100 3525 3541 
Q 3525 3141 3298 2862 
Q 3072 2584 2669 2484 
Q 3125 2378 3379 2068 
Q 3634 1759 3634 1313 
Q 3634 634 3220 271 
Q 2806 -91 2034 -91 
Q 1263 -91 848 271 
Q 434 634 434 1313 
Q 434 1759 690 2068 
Q 947 2378 1403 2484 
z
M 1172 3481 
Q 1172 3119 1398 2916 
Q 1625 2713 2034 2713 
Q 2441 2713 2670 2916 
Q 2900 3119 2900 3481 
Q 2900 3844 2670 4047 
Q 2441 4250 2034 4250 
Q 1625 4250 1398 4047 
Q 1172 3844 1172 3481 
z
" transform="scale(0.015625)"/>
       </defs>
       <use xlink:href="#DejaVuSans-38"/>
       <use xlink:href="#DejaVuSans-30" x="63.623047"/>
      </g>
     </g>
    </g>
    <g id="ytick_5">
     <g id="line2d_10">
      <g>
       <use xlink:href="#m5ce2bfb4b1" x="67.101563" y="90.075069" style="stroke: #000000; stroke-width: 0.8"/>
      </g>
     </g>
     <g id="text_11">
      <!-- 100 -->
      <g transform="translate(27.652813 96.533741)scale(0.17 -0.17)">
       <use xlink:href="#DejaVuSans-31"/>
       <use xlink:href="#DejaVuSans-30" x="63.623047"/>
       <use xlink:href="#DejaVuSans-30" x="127.246094"/>
      </g>
     </g>
    </g>
    <g id="ytick_6">
     <g id="line2d_11">
      <g>
       <use xlink:href="#m5ce2bfb4b1" x="67.101563" y="46.408556" style="stroke: #000000; stroke-width: 0.8"/>
      </g>
     </g>
     <g id="text_12">
      <!-- 120 -->
      <g transform="translate(27.652813 52.867228)scale(0.17 -0.17)">
       <use xlink:href="#DejaVuSans-31"/>
       <use xlink:href="#DejaVuSans-32" x="63.623047"/>
       <use xlink:href="#DejaVuSans-30" x="127.246094"/>
      </g>
     </g>
    </g>
    <g id="text_13">
     <!-- FWHM (arcsec) -->
     <g transform="translate(20.117344 213.987383)rotate(-90)scale(0.17 -0.17)">
      <defs>
       <path id="DejaVuSans-46" d="M 628 4666 
L 3309 4666 
L 3309 4134 
L 1259 4134 
L 1259 2759 
L 3109 2759 
L 3109 2228 
L 1259 2228 
L 1259 0 
L 628 0 
L 628 4666 
z
" transform="scale(0.015625)"/>
       <path id="DejaVuSans-57" d="M 213 4666 
L 850 4666 
L 1831 722 
L 2809 4666 
L 3519 4666 
L 4500 722 
L 5478 4666 
L 6119 4666 
L 4947 0 
L 4153 0 
L 3169 4050 
L 2175 0 
L 1381 0 
L 213 4666 
z
" transform="scale(0.015625)"/>
       <path id="DejaVuSans-48" d="M 628 4666 
L 1259 4666 
L 1259 2753 
L 3553 2753 
L 3553 4666 
L 4184 4666 
L 4184 0 
L 3553 0 
L 3553 2222 
L 1259 2222 
L 1259 0 
L 628 0 
L 628 4666 
z
" transform="scale(0.015625)"/>
       <path id="DejaVuSans-4d" d="M 628 4666 
L 1569 4666 
L 2759 1491 
L 3956 4666 
L 4897 4666 
L 4897 0 
L 4281 0 
L 4281 4097 
L 3078 897 
L 2444 897 
L 1241 4097 
L 1241 0 
L 628 0 
L 628 4666 
z
" transform="scale(0.015625)"/>
       <path id="DejaVuSans-61" d="M 2194 1759 
Q 1497 1759 1228 1600 
Q 959 1441 959 1056 
Q 959 750 1161 570 
Q 1363 391 1709 391 
Q 2188 391 2477 730 
Q 2766 1069 2766 1631 
L 2766 1759 
L 2194 1759 
z
M 3341 1997 
L 3341 0 
L 2766 0 
L 2766 531 
Q 2569 213 2275 61 
Q 1981 -91 1556 -91 
Q 1019 -91 701 211 
Q 384 513 384 1019 
Q 384 1609 779 1909 
Q 1175 2209 1959 2209 
L 2766 2209 
L 2766 2266 
Q 2766 2663 2505 2880 
Q 2244 3097 1772 3097 
Q 1472 3097 1187 3025 
Q 903 2953 641 2809 
L 641 3341 
Q 956 3463 1253 3523 
Q 1550 3584 1831 3584 
Q 2591 3584 2966 3190 
Q 3341 2797 3341 1997 
z
" transform="scale(0.015625)"/>
       <path id="DejaVuSans-72" d="M 2631 2963 
Q 2534 3019 2420 3045 
Q 2306 3072 2169 3072 
Q 1681 3072 1420 2755 
Q 1159 2438 1159 1844 
L 1159 0 
L 581 0 
L 581 3500 
L 1159 3500 
L 1159 2956 
Q 1341 3275 1631 3429 
Q 1922 3584 2338 3584 
Q 2397 3584 2469 3576 
Q 2541 3569 2628 3553 
L 2631 2963 
z
" transform="scale(0.015625)"/>
       <path id="DejaVuSans-63" d="M 3122 3366 
L 3122 2828 
Q 2878 2963 2633 3030 
Q 2388 3097 2138 3097 
Q 1578 3097 1268 2742 
Q 959 2388 959 1747 
Q 959 1106 1268 751 
Q 1578 397 2138 397 
Q 2388 397 2633 464 
Q 2878 531 3122 666 
L 3122 134 
Q 2881 22 2623 -34 
Q 2366 -91 2075 -91 
Q 1284 -91 818 406 
Q 353 903 353 1747 
Q 353 2603 823 3093 
Q 1294 3584 2113 3584 
Q 2378 3584 2631 3529 
Q 2884 3475 3122 3366 
z
" transform="scale(0.015625)"/>
       <path id="DejaVuSans-65" d="M 3597 1894 
L 3597 1613 
L 953 1613 
Q 991 1019 1311 708 
Q 1631 397 2203 397 
Q 2534 397 2845 478 
Q 3156 559 3463 722 
L 3463 178 
Q 3153 47 2828 -22 
Q 2503 -91 2169 -91 
Q 1331 -91 842 396 
Q 353 884 353 1716 
Q 353 2575 817 3079 
Q 1281 3584 2069 3584 
Q 2775 3584 3186 3129 
Q 3597 2675 3597 1894 
z
M 3022 2063 
Q 3016 2534 2758 2815 
Q 2500 3097 2075 3097 
Q 1594 3097 1305 2825 
Q 1016 2553 972 2059 
L 3022 2063 
z
" transform="scale(0.015625)"/>
      </defs>
      <use xlink:href="#DejaVuSans-46"/>
      <use xlink:href="#DejaVuSans-57" x="57.519531"/>
      <use xlink:href="#DejaVuSans-48" x="156.396484"/>
      <use xlink:href="#DejaVuSans-4d" x="231.591797"/>
      <use xlink:href="#DejaVuSans-20" x="317.871094"/>
      <use xlink:href="#DejaVuSans-28" x="349.658203"/>
      <use xlink:href="#DejaVuSans-61" x="388.671875"/>
      <use xlink:href="#DejaVuSans-72" x="449.951172"/>
      <use xlink:href="#DejaVuSans-63" x="488.814453"/>
      <use xlink:href="#DejaVuSans-73" x="543.794922"/>
      <use xlink:href="#DejaVuSans-65" x="595.894531"/>
      <use xlink:href="#DejaVuSans-63" x="657.417969"/>
      <use xlink:href="#DejaVuSans-29" x="712.398438"/>
     </g>
    </g>
   </g>
   <g id="patch_3">
    <path d="M 67.101563 286.574375 
L 67.101563 13.658672 
" style="fill: none; stroke: #000000; stroke-width: 0.8; stroke-linejoin: miter; stroke-linecap: square"/>
   </g>
   <g id="patch_4">
    <path d="M 410.309297 286.574375 
L 410.309297 13.658672 
" style="fill: none; stroke: #000000; stroke-width: 0.8; stroke-linejoin: miter; stroke-linecap: square"/>
   </g>
   <g id="patch_5">
    <path d="M 67.101563 286.574375 
L 410.309297 286.574375 
" style="fill: none; stroke: #000000; stroke-width: 0.8; stroke-linejoin: miter; stroke-linecap: square"/>
   </g>
   <g id="patch_6">
    <path d="M 67.101563 13.658672 
L 410.309297 13.658672 
" style="fill: none; stroke: #000000; stroke-width: 0.8; stroke-linejoin: miter; stroke-linecap: square"/>
   </g>
  </g>
  <g id="axes_2">
   <g id="patch_7">
    <path d="M 477.754609 286.574375 
L 820.962344 286.574375 
L 820.962344 13.658672 
L 477.754609 13.658672 
L 477.754609 286.574375 
z
" style="fill: none"/>
   </g>
   <g id="PathCollection_4">
    <g clip-path="url(#p241b77a332)">
     <use xlink:href="#m218453ff6f" x="553.417949" y="226.734709" style="fill: #3498b0; stroke: #3498b0"/>
     <use xlink:href="#m218453ff6f" x="580.05049" y="240.735699" style="fill: #3498b0; stroke: #3498b0"/>
     <use xlink:href="#m218453ff6f" x="584.10679" y="198.587504" style="fill: #3498b0; stroke: #3498b0"/>
     <use xlink:href="#m218453ff6f" x="563.592364" y="234.699844" style="fill: #3498b0; stroke: #3498b0"/>
     <use xlink:href="#m218453ff6f" x="573.700308" y="257.498904" style="fill: #3498b0; stroke: #3498b0"/>
     <use xlink:href="#m218453ff6f" x="548.651318" y="244.68476" style="fill: #3498b0; stroke: #3498b0"/>
     <use xlink:href="#m218453ff6f" x="526.608278" y="-1" style="fill: #3498b0; stroke: #3498b0"/>
     <use xlink:href="#m218453ff6f" x="528.38118" y="-1" style="fill: #3498b0; stroke: #3498b0"/>
     <use xlink:href="#m218453ff6f" x="569.390603" y="235.781631" style="fill: #3498b0; stroke: #3498b0"/>
     <use xlink:href="#m218453ff6f" x="567.3972" y="229.48189" style="fill: #3498b0; stroke: #3498b0"/>
     <use xlink:href="#m218453ff6f" x="563.162361" y="222.43609" style="fill: #3498b0; stroke: #3498b0"/>
     <use xlink:href="#m218453ff6f" x="584.848045" y="254.370986" style="fill: #3498b0; stroke: #3498b0"/>
     <use xlink:href="#m218453ff6f" x="553.403715" y="233.640389" style="fill: #3498b0; stroke: #3498b0"/>
     <use xlink:href="#m218453ff6f" x="569.932233" y="-1" style="fill: #3498b0; stroke: #3498b0"/>
     <use xlink:href="#m218453ff6f" x="581.201119" y="-1" style="fill: #3498b0; stroke: #3498b0"/>
     <use xlink:href="#m218453ff6f" x="577.644767" y="244.290738" style="fill: #3498b0; stroke: #3498b0"/>
     <use xlink:href="#m218453ff6f" x="574.595605" y="249.67351" style="fill: #3498b0; stroke: #3498b0"/>
     <use xlink:href="#m218453ff6f" x="569.392716" y="-1" style="fill: #3498b0; stroke: #3498b0"/>
     <use xlink:href="#m218453ff6f" x="562.536286" y="-1" style="fill: #3498b0; stroke: #3498b0"/>
     <use xlink:href="#m218453ff6f" x="556.883826" y="120.946396" style="fill: #3498b0; stroke: #3498b0"/>
     <use xlink:href="#m218453ff6f" x="560.421922" y="216.049838" style="fill: #3498b0; stroke: #3498b0"/>
     <use xlink:href="#m218453ff6f" x="542.025095" y="253.807784" style="fill: #3498b0; stroke: #3498b0"/>
     <use xlink:href="#m218453ff6f" x="598.679674" y="107.467876" style="fill: #3498b0; stroke: #3498b0"/>
     <use xlink:href="#m218453ff6f" x="540.519954" y="103.678579" style="fill: #3498b0; stroke: #3498b0"/>
     <use xlink:href="#m218453ff6f" x="562.506937" y="133.754242" style="fill: #3498b0; stroke: #3498b0"/>
     <use xlink:href="#m218453ff6f" x="554.060449" y="220.642782" style="fill: #3498b0; stroke: #3498b0"/>
     <use xlink:href="#m218453ff6f" x="566.607944" y="255.69938" style="fill: #3498b0; stroke: #3498b0"/>
     <use xlink:href="#m218453ff6f" x="558.696616" y="244.680324" style="fill: #3498b0; stroke: #3498b0"/>
     <use xlink:href="#m218453ff6f" x="556.824265" y="257.450282" style="fill: #3498b0; stroke: #3498b0"/>
     <use xlink:href="#m218453ff6f" x="563.890475" y="145.411487" style="fill: #3498b0; stroke: #3498b0"/>
     <use xlink:href="#m218453ff6f" x="558.981075" y="248.27037" style="fill: #3498b0; stroke: #3498b0"/>
     <use xlink:href="#m218453ff6f" x="595.199954" y="99.375685" style="fill: #3498b0; stroke: #3498b0"/>
     <use xlink:href="#m218453ff6f" x="551.085499" y="233.999364" style="fill: #3498b0; stroke: #3498b0"/>
     <use xlink:href="#m218453ff6f" x="561.997454" y="255.927475" style="fill: #3498b0; stroke: #3498b0"/>
     <use xlink:href="#m218453ff6f" x="595.327366" y="242.563101" style="fill: #3498b0; stroke: #3498b0"/>
     <use xlink:href="#m218453ff6f" x="536.566855" y="230.192715" style="fill: #3498b0; stroke: #3498b0"/>
     <use xlink:href="#m218453ff6f" x="562.057947" y="221.596777" style="fill: #3498b0; stroke: #3498b0"/>
     <use xlink:href="#m218453ff6f" x="574.036794" y="178.373184" style="fill: #3498b0; stroke: #3498b0"/>
     <use xlink:href="#m218453ff6f" x="550.492704" y="234.651822" style="fill: #3498b0; stroke: #3498b0"/>
     <use xlink:href="#m218453ff6f" x="566.086122" y="242.345205" style="fill: #3498b0; stroke: #3498b0"/>
     <use xlink:href="#m218453ff6f" x="535.955353" y="233.115911" style="fill: #3498b0; stroke: #3498b0"/>
     <use xlink:href="#m218453ff6f" x="576.329846" y="242.345205" style="fill: #3498b0; stroke: #3498b0"/>
     <use xlink:href="#m218453ff6f" x="541.715086" y="243.440523" style="fill: #3498b0; stroke: #3498b0"/>
     <use xlink:href="#m218453ff6f" x="532.417368" y="241.38895" style="fill: #3498b0; stroke: #3498b0"/>
     <use xlink:href="#m218453ff6f" x="551.209917" y="241.38895" style="fill: #3498b0; stroke: #3498b0"/>
    </g>
   </g>
   <g id="PathCollection_5">
    <g clip-path="url(#p241b77a332)">
     <use xlink:href="#mc313edabf5" x="749.561311" y="184.448475" style="fill: #474d6b; stroke: #474d6b"/>
     <use xlink:href="#mc313edabf5" x="788.059557" y="182.219385" style="fill: #474d6b; stroke: #474d6b"/>
     <use xlink:href="#mc313edabf5" x="624.826914" y="47.926286" style="fill: #474d6b; stroke: #474d6b"/>
     <use xlink:href="#mc313edabf5" x="668.718045" y="187.478115" style="fill: #474d6b; stroke: #474d6b"/>
     <use xlink:href="#mc313edabf5" x="684.281921" y="137.140803" style="fill: #474d6b; stroke: #474d6b"/>
     <use xlink:href="#mc313edabf5" x="670.129442" y="148.362835" style="fill: #474d6b; stroke: #474d6b"/>
     <use xlink:href="#mc313edabf5" x="637.758227" y="-1" style="fill: #474d6b; stroke: #474d6b"/>
     <use xlink:href="#mc313edabf5" x="728.787118" y="-1" style="fill: #474d6b; stroke: #474d6b"/>
     <use xlink:href="#mc313edabf5" x="1019.08586" y="200.455532" style="fill: #474d6b; stroke: #474d6b"/>
     <use xlink:href="#mc313edabf5" x="996.908632" y="231.444674" style="fill: #474d6b; stroke: #474d6b"/>
     <use xlink:href="#mc313edabf5" x="1001.701256" y="-1" style="fill: #474d6b; stroke: #474d6b"/>
     <use xlink:href="#mc313edabf5" x="803.885268" y="-1" style="fill: #474d6b; stroke: #474d6b"/>
     <use xlink:href="#mc313edabf5" x="675.343048" y="227.135966" style="fill: #474d6b; stroke: #474d6b"/>
     <use xlink:href="#mc313edabf5" x="624.214899" y="207.153446" style="fill: #474d6b; stroke: #474d6b"/>
     <use xlink:href="#mc313edabf5" x="614.632832" y="187.613702" style="fill: #474d6b; stroke: #474d6b"/>
     <use xlink:href="#mc313edabf5" x="767.395911" y="246.346863" style="fill: #474d6b; stroke: #474d6b"/>
     <use xlink:href="#mc313edabf5" x="657.239128" y="226.387673" style="fill: #474d6b; stroke: #474d6b"/>
     <use xlink:href="#mc313edabf5" x="719.846796" y="239.765465" style="fill: #474d6b; stroke: #474d6b"/>
     <use xlink:href="#mc313edabf5" x="692.526173" y="169.750272" style="fill: #474d6b; stroke: #474d6b"/>
     <use xlink:href="#mc313edabf5" x="729.939386" y="209.242172" style="fill: #474d6b; stroke: #474d6b"/>
     <use xlink:href="#mc313edabf5" x="627.350912" y="213.146505" style="fill: #474d6b; stroke: #474d6b"/>
     <use xlink:href="#mc313edabf5" x="617.928821" y="143.449653" style="fill: #474d6b; stroke: #474d6b"/>
     <use xlink:href="#mc313edabf5" x="634.388137" y="225.04475" style="fill: #474d6b; stroke: #474d6b"/>
    </g>
   </g>
   <g id="matplotlib.axis_3">
    <g id="xtick_6">
     <g id="line2d_12">
      <g>
       <use xlink:href="#me81a557a23" x="477.754609" y="286.574375" style="stroke: #000000; stroke-width: 0.8"/>
      </g>
     </g>
     <g id="text_14">
      <!-- 0.0 -->
      <g transform="translate(464.236953 306.491719)scale(0.17 -0.17)">
       <use xlink:href="#DejaVuSans-30"/>
       <use xlink:href="#DejaVuSans-2e" x="63.623047"/>
       <use xlink:href="#DejaVuSans-30" x="95.410156"/>
      </g>
     </g>
    </g>
    <g id="xtick_7">
     <g id="line2d_13">
      <g>
       <use xlink:href="#me81a557a23" x="563.556543" y="286.574375" style="stroke: #000000; stroke-width: 0.8"/>
      </g>
     </g>
     <g id="text_15">
      <!-- 0.2 -->
      <g transform="translate(550.038887 306.491719)scale(0.17 -0.17)">
       <use xlink:href="#DejaVuSans-30"/>
       <use xlink:href="#DejaVuSans-2e" x="63.623047"/>
       <use xlink:href="#DejaVuSans-32" x="95.410156"/>
      </g>
     </g>
    </g>
    <g id="xtick_8">
     <g id="line2d_14">
      <g>
       <use xlink:href="#me81a557a23" x="649.358477" y="286.574375" style="stroke: #000000; stroke-width: 0.8"/>
      </g>
     </g>
     <g id="text_16">
      <!-- 0.4 -->
      <g transform="translate(635.84082 306.491719)scale(0.17 -0.17)">
       <use xlink:href="#DejaVuSans-30"/>
       <use xlink:href="#DejaVuSans-2e" x="63.623047"/>
       <use xlink:href="#DejaVuSans-34" x="95.410156"/>
      </g>
     </g>
    </g>
    <g id="xtick_9">
     <g id="line2d_15">
      <g>
       <use xlink:href="#me81a557a23" x="735.16041" y="286.574375" style="stroke: #000000; stroke-width: 0.8"/>
      </g>
     </g>
     <g id="text_17">
      <!-- 0.6 -->
      <g transform="translate(721.642754 306.491719)scale(0.17 -0.17)">
       <use xlink:href="#DejaVuSans-30"/>
       <use xlink:href="#DejaVuSans-2e" x="63.623047"/>
       <use xlink:href="#DejaVuSans-36" x="95.410156"/>
      </g>
     </g>
    </g>
    <g id="xtick_10">
     <g id="line2d_16">
      <g>
       <use xlink:href="#me81a557a23" x="820.962344" y="286.574375" style="stroke: #000000; stroke-width: 0.8"/>
      </g>
     </g>
     <g id="text_18">
      <!-- 0.8 -->
      <g transform="translate(807.444688 306.491719)scale(0.17 -0.17)">
       <use xlink:href="#DejaVuSans-30"/>
       <use xlink:href="#DejaVuSans-2e" x="63.623047"/>
       <use xlink:href="#DejaVuSans-38" x="95.410156"/>
      </g>
     </g>
    </g>
    <g id="text_19">
     <!-- sPV (mm/h) -->
     <g transform="translate(599.847305 326.944531)scale(0.17 -0.17)">
      <use xlink:href="#DejaVuSans-73"/>
      <use xlink:href="#DejaVuSans-50" x="52.099609"/>
      <use xlink:href="#DejaVuSans-56" x="112.402344"/>
      <use xlink:href="#DejaVuSans-20" x="180.810547"/>
      <use xlink:href="#DejaVuSans-28" x="212.597656"/>
      <use xlink:href="#DejaVuSans-6d" x="251.611328"/>
      <use xlink:href="#DejaVuSans-6d" x="349.023438"/>
      <use xlink:href="#DejaVuSans-2f" x="446.435547"/>
      <use xlink:href="#DejaVuSans-68" x="480.126953"/>
      <use xlink:href="#DejaVuSans-29" x="543.505859"/>
     </g>
    </g>
   </g>
   <g id="matplotlib.axis_4">
    <g id="ytick_7">
     <g id="line2d_17">
      <g>
       <use xlink:href="#m5ce2bfb4b1" x="477.754609" y="286.574375" style="stroke: #000000; stroke-width: 0.8"/>
      </g>
     </g>
     <g id="text_20">
      <!-- 10 -->
      <g transform="translate(449.122109 293.033047)scale(0.17 -0.17)">
       <use xlink:href="#DejaVuSans-31"/>
       <use xlink:href="#DejaVuSans-30" x="63.623047"/>
      </g>
     </g>
    </g>
    <g id="ytick_8">
     <g id="line2d_18">
      <g>
       <use xlink:href="#m5ce2bfb4b1" x="477.754609" y="231.991234" style="stroke: #000000; stroke-width: 0.8"/>
      </g>
     </g>
     <g id="text_21">
      <!-- 20 -->
      <g transform="translate(449.122109 238.449906)scale(0.17 -0.17)">
       <use xlink:href="#DejaVuSans-32"/>
       <use xlink:href="#DejaVuSans-30" x="63.623047"/>
      </g>
     </g>
    </g>
    <g id="ytick_9">
     <g id="line2d_19">
      <g>
       <use xlink:href="#m5ce2bfb4b1" x="477.754609" y="177.408094" style="stroke: #000000; stroke-width: 0.8"/>
      </g>
     </g>
     <g id="text_22">
      <!-- 30 -->
      <g transform="translate(449.122109 183.866766)scale(0.17 -0.17)">
       <defs>
        <path id="DejaVuSans-33" d="M 2597 2516 
Q 3050 2419 3304 2112 
Q 3559 1806 3559 1356 
Q 3559 666 3084 287 
Q 2609 -91 1734 -91 
Q 1441 -91 1130 -33 
Q 819 25 488 141 
L 488 750 
Q 750 597 1062 519 
Q 1375 441 1716 441 
Q 2309 441 2620 675 
Q 2931 909 2931 1356 
Q 2931 1769 2642 2001 
Q 2353 2234 1838 2234 
L 1294 2234 
L 1294 2753 
L 1863 2753 
Q 2328 2753 2575 2939 
Q 2822 3125 2822 3475 
Q 2822 3834 2567 4026 
Q 2313 4219 1838 4219 
Q 1578 4219 1281 4162 
Q 984 4106 628 3988 
L 628 4550 
Q 988 4650 1302 4700 
Q 1616 4750 1894 4750 
Q 2613 4750 3031 4423 
Q 3450 4097 3450 3541 
Q 3450 3153 3228 2886 
Q 3006 2619 2597 2516 
z
" transform="scale(0.015625)"/>
       </defs>
       <use xlink:href="#DejaVuSans-33"/>
       <use xlink:href="#DejaVuSans-30" x="63.623047"/>
      </g>
     </g>
    </g>
    <g id="ytick_10">
     <g id="line2d_20">
      <g>
       <use xlink:href="#m5ce2bfb4b1" x="477.754609" y="122.824953" style="stroke: #000000; stroke-width: 0.8"/>
      </g>
     </g>
     <g id="text_23">
      <!-- 40 -->
      <g transform="translate(449.122109 129.283625)scale(0.17 -0.17)">
       <use xlink:href="#DejaVuSans-34"/>
       <use xlink:href="#DejaVuSans-30" x="63.623047"/>
      </g>
     </g>
    </g>
    <g id="ytick_11">
     <g id="line2d_21">
      <g>
       <use xlink:href="#m5ce2bfb4b1" x="477.754609" y="68.241812" style="stroke: #000000; stroke-width: 0.8"/>
      </g>
     </g>
     <g id="text_24">
      <!-- 50 -->
      <g transform="translate(449.122109 74.700484)scale(0.17 -0.17)">
       <use xlink:href="#DejaVuSans-35"/>
       <use xlink:href="#DejaVuSans-30" x="63.623047"/>
      </g>
     </g>
    </g>
    <g id="ytick_12">
     <g id="line2d_22">
      <g>
       <use xlink:href="#m5ce2bfb4b1" x="477.754609" y="13.658672" style="stroke: #000000; stroke-width: 0.8"/>
      </g>
     </g>
     <g id="text_25">
      <!-- 60 -->
      <g transform="translate(449.122109 20.117344)scale(0.17 -0.17)">
       <use xlink:href="#DejaVuSans-36"/>
       <use xlink:href="#DejaVuSans-30" x="63.623047"/>
      </g>
     </g>
    </g>
    <g id="text_26">
     <!-- FWHM (arcsec) -->
     <g transform="translate(441.586641 213.987383)rotate(-90)scale(0.17 -0.17)">
      <use xlink:href="#DejaVuSans-46"/>
      <use xlink:href="#DejaVuSans-57" x="57.519531"/>
      <use xlink:href="#DejaVuSans-48" x="156.396484"/>
      <use xlink:href="#DejaVuSans-4d" x="231.591797"/>
      <use xlink:href="#DejaVuSans-20" x="317.871094"/>
      <use xlink:href="#DejaVuSans-28" x="349.658203"/>
      <use xlink:href="#DejaVuSans-61" x="388.671875"/>
      <use xlink:href="#DejaVuSans-72" x="449.951172"/>
      <use xlink:href="#DejaVuSans-63" x="488.814453"/>
      <use xlink:href="#DejaVuSans-73" x="543.794922"/>
      <use xlink:href="#DejaVuSans-65" x="595.894531"/>
      <use xlink:href="#DejaVuSans-63" x="657.417969"/>
      <use xlink:href="#DejaVuSans-29" x="712.398438"/>
     </g>
    </g>
   </g>
   <g id="patch_8">
    <path d="M 477.754609 286.574375 
L 477.754609 13.658672 
" style="fill: none; stroke: #000000; stroke-width: 0.8; stroke-linejoin: miter; stroke-linecap: square"/>
   </g>
   <g id="patch_9">
    <path d="M 820.962344 286.574375 
L 820.962344 13.658672 
" style="fill: none; stroke: #000000; stroke-width: 0.8; stroke-linejoin: miter; stroke-linecap: square"/>
   </g>
   <g id="patch_10">
    <path d="M 477.754609 286.574375 
L 820.962344 286.574375 
" style="fill: none; stroke: #000000; stroke-width: 0.8; stroke-linejoin: miter; stroke-linecap: square"/>
   </g>
   <g id="patch_11">
    <path d="M 477.754609 13.658672 
L 820.962344 13.658672 
" style="fill: none; stroke: #000000; stroke-width: 0.8; stroke-linejoin: miter; stroke-linecap: square"/>
   </g>
  </g>
 </g>
 <defs>
  <clipPath id="pe0ed07139c">
   <rect x="67.101563" y="13.658672" width="343.207734" height="272.915703"/>
  </clipPath>
  <clipPath id="p241b77a332">
   <rect x="477.754609" y="13.658672" width="343.207734" height="272.915703"/>
  </clipPath>
 </defs>
</svg>
