<?xml version="1.0" encoding="utf-8" standalone="no"?>
<!DOCTYPE svg PUBLIC "-//W3C//DTD SVG 1.1//EN"
  "http://www.w3.org/Graphics/SVG/1.1/DTD/svg11.dtd">
<svg xmlns:xlink="http://www.w3.org/1999/xlink" width="310.578125pt" height="266.51625pt" viewBox="0 0 310.578125 266.51625" xmlns="http://www.w3.org/2000/svg" version="1.1">
 <metadata>
  <rdf:RDF xmlns:dc="http://purl.org/dc/elements/1.1/" xmlns:cc="http://creativecommons.org/ns#" xmlns:rdf="http://www.w3.org/1999/02/22-rdf-syntax-ns#">
   <cc:Work>
    <dc:type rdf:resource="http://purl.org/dc/dcmitype/StillImage"/>
    <dc:date>2024-03-26T13:21:50.757337</dc:date>
    <dc:format>image/svg+xml</dc:format>
    <dc:creator>
     <cc:Agent>
      <dc:title>Matplotlib v3.5.2, https://matplotlib.org/</dc:title>
     </cc:Agent>
    </dc:creator>
   </cc:Work>
  </rdf:RDF>
 </metadata>
 <defs>
  <style type="text/css">*{stroke-linejoin: round; stroke-linecap: butt}</style>
 </defs>
 <g id="figure_1">
  <g id="patch_1">
   <path d="M 0 266.51625 
L 310.578125 266.51625 
L 310.578125 0 
L 0 0 
L 0 266.51625 
z
" style="fill: none"/>
  </g>
  <g id="axes_1">
   <g id="patch_2">
    <path d="M 24.378125 228.96 
L 303.378125 228.96 
L 303.378125 7.2 
L 24.378125 7.2 
L 24.378125 228.96 
z
" style="fill: none"/>
   </g>
   <g id="matplotlib.axis_1">
    <g id="xtick_1">
     <g id="line2d_1">
      <defs>
       <path id="m199c9c2131" d="M 0 0 
L 0 3.5 
" style="stroke: #000000; stroke-width: 0.8"/>
      </defs>
      <g>
       <use xlink:href="#m199c9c2131" x="52.278125" y="228.96" style="stroke: #000000; stroke-width: 0.8"/>
      </g>
     </g>
     <g id="text_1">
      <!-- −40 -->
      <g transform="translate(41.725781 243.558437)scale(0.1 -0.1)">
       <defs>
        <path id="DejaVuSans-2212" d="M 678 2272 
L 4684 2272 
L 4684 1741 
L 678 1741 
L 678 2272 
z
" transform="scale(0.015625)"/>
        <path id="DejaVuSans-34" d="M 2419 4116 
L 825 1625 
L 2419 1625 
L 2419 4116 
z
M 2253 4666 
L 3047 4666 
L 3047 1625 
L 3713 1625 
L 3713 1100 
L 3047 1100 
L 3047 0 
L 2419 0 
L 2419 1100 
L 313 1100 
L 313 1709 
L 2253 4666 
z
" transform="scale(0.015625)"/>
        <path id="DejaVuSans-30" d="M 2034 4250 
Q 1547 4250 1301 3770 
Q 1056 3291 1056 2328 
Q 1056 1369 1301 889 
Q 1547 409 2034 409 
Q 2525 409 2770 889 
Q 3016 1369 3016 2328 
Q 3016 3291 2770 3770 
Q 2525 4250 2034 4250 
z
M 2034 4750 
Q 2819 4750 3233 4129 
Q 3647 3509 3647 2328 
Q 3647 1150 3233 529 
Q 2819 -91 2034 -91 
Q 1250 -91 836 529 
Q 422 1150 422 2328 
Q 422 3509 836 4129 
Q 1250 4750 2034 4750 
z
" transform="scale(0.015625)"/>
       </defs>
       <use xlink:href="#DejaVuSans-2212"/>
       <use xlink:href="#DejaVuSans-34" x="83.789062"/>
       <use xlink:href="#DejaVuSans-30" x="147.412109"/>
      </g>
     </g>
    </g>
    <g id="xtick_2">
     <g id="line2d_2">
      <g>
       <use xlink:href="#m199c9c2131" x="108.078125" y="228.96" style="stroke: #000000; stroke-width: 0.8"/>
      </g>
     </g>
     <g id="text_2">
      <!-- −20 -->
      <g transform="translate(97.525781 243.558437)scale(0.1 -0.1)">
       <defs>
        <path id="DejaVuSans-32" d="M 1228 531 
L 3431 531 
L 3431 0 
L 469 0 
L 469 531 
Q 828 903 1448 1529 
Q 2069 2156 2228 2338 
Q 2531 2678 2651 2914 
Q 2772 3150 2772 3378 
Q 2772 3750 2511 3984 
Q 2250 4219 1831 4219 
Q 1534 4219 1204 4116 
Q 875 4013 500 3803 
L 500 4441 
Q 881 4594 1212 4672 
Q 1544 4750 1819 4750 
Q 2544 4750 2975 4387 
Q 3406 4025 3406 3419 
Q 3406 3131 3298 2873 
Q 3191 2616 2906 2266 
Q 2828 2175 2409 1742 
Q 1991 1309 1228 531 
z
" transform="scale(0.015625)"/>
       </defs>
       <use xlink:href="#DejaVuSans-2212"/>
       <use xlink:href="#DejaVuSans-32" x="83.789062"/>
       <use xlink:href="#DejaVuSans-30" x="147.412109"/>
      </g>
     </g>
    </g>
    <g id="xtick_3">
     <g id="line2d_3">
      <g>
       <use xlink:href="#m199c9c2131" x="163.878125" y="228.96" style="stroke: #000000; stroke-width: 0.8"/>
      </g>
     </g>
     <g id="text_3">
      <!-- 0 -->
      <g transform="translate(160.696875 243.558437)scale(0.1 -0.1)">
       <use xlink:href="#DejaVuSans-30"/>
      </g>
     </g>
    </g>
    <g id="xtick_4">
     <g id="line2d_4">
      <g>
       <use xlink:href="#m199c9c2131" x="219.678125" y="228.96" style="stroke: #000000; stroke-width: 0.8"/>
      </g>
     </g>
     <g id="text_4">
      <!-- 20 -->
      <g transform="translate(213.315625 243.558437)scale(0.1 -0.1)">
       <use xlink:href="#DejaVuSans-32"/>
       <use xlink:href="#DejaVuSans-30" x="63.623047"/>
      </g>
     </g>
    </g>
    <g id="xtick_5">
     <g id="line2d_5">
      <g>
       <use xlink:href="#m199c9c2131" x="275.478125" y="228.96" style="stroke: #000000; stroke-width: 0.8"/>
      </g>
     </g>
     <g id="text_5">
      <!-- 40 -->
      <g transform="translate(269.115625 243.558437)scale(0.1 -0.1)">
       <use xlink:href="#DejaVuSans-34"/>
       <use xlink:href="#DejaVuSans-30" x="63.623047"/>
      </g>
     </g>
    </g>
    <g id="text_6">
     <!-- Omega (arcsec) -->
     <g transform="translate(124.079688 257.236562)scale(0.1 -0.1)">
      <defs>
       <path id="DejaVuSans-4f" d="M 2522 4238 
Q 1834 4238 1429 3725 
Q 1025 3213 1025 2328 
Q 1025 1447 1429 934 
Q 1834 422 2522 422 
Q 3209 422 3611 934 
Q 4013 1447 4013 2328 
Q 4013 3213 3611 3725 
Q 3209 4238 2522 4238 
z
M 2522 4750 
Q 3503 4750 4090 4092 
Q 4678 3434 4678 2328 
Q 4678 1225 4090 567 
Q 3503 -91 2522 -91 
Q 1538 -91 948 565 
Q 359 1222 359 2328 
Q 359 3434 948 4092 
Q 1538 4750 2522 4750 
z
" transform="scale(0.015625)"/>
       <path id="DejaVuSans-6d" d="M 3328 2828 
Q 3544 3216 3844 3400 
Q 4144 3584 4550 3584 
Q 5097 3584 5394 3201 
Q 5691 2819 5691 2113 
L 5691 0 
L 5113 0 
L 5113 2094 
Q 5113 2597 4934 2840 
Q 4756 3084 4391 3084 
Q 3944 3084 3684 2787 
Q 3425 2491 3425 1978 
L 3425 0 
L 2847 0 
L 2847 2094 
Q 2847 2600 2669 2842 
Q 2491 3084 2119 3084 
Q 1678 3084 1418 2786 
Q 1159 2488 1159 1978 
L 1159 0 
L 581 0 
L 581 3500 
L 1159 3500 
L 1159 2956 
Q 1356 3278 1631 3431 
Q 1906 3584 2284 3584 
Q 2666 3584 2933 3390 
Q 3200 3197 3328 2828 
z
" transform="scale(0.015625)"/>
       <path id="DejaVuSans-65" d="M 3597 1894 
L 3597 1613 
L 953 1613 
Q 991 1019 1311 708 
Q 1631 397 2203 397 
Q 2534 397 2845 478 
Q 3156 559 3463 722 
L 3463 178 
Q 3153 47 2828 -22 
Q 2503 -91 2169 -91 
Q 1331 -91 842 396 
Q 353 884 353 1716 
Q 353 2575 817 3079 
Q 1281 3584 2069 3584 
Q 2775 3584 3186 3129 
Q 3597 2675 3597 1894 
z
M 3022 2063 
Q 3016 2534 2758 2815 
Q 2500 3097 2075 3097 
Q 1594 3097 1305 2825 
Q 1016 2553 972 2059 
L 3022 2063 
z
" transform="scale(0.015625)"/>
       <path id="DejaVuSans-67" d="M 2906 1791 
Q 2906 2416 2648 2759 
Q 2391 3103 1925 3103 
Q 1463 3103 1205 2759 
Q 947 2416 947 1791 
Q 947 1169 1205 825 
Q 1463 481 1925 481 
Q 2391 481 2648 825 
Q 2906 1169 2906 1791 
z
M 3481 434 
Q 3481 -459 3084 -895 
Q 2688 -1331 1869 -1331 
Q 1566 -1331 1297 -1286 
Q 1028 -1241 775 -1147 
L 775 -588 
Q 1028 -725 1275 -790 
Q 1522 -856 1778 -856 
Q 2344 -856 2625 -561 
Q 2906 -266 2906 331 
L 2906 616 
Q 2728 306 2450 153 
Q 2172 0 1784 0 
Q 1141 0 747 490 
Q 353 981 353 1791 
Q 353 2603 747 3093 
Q 1141 3584 1784 3584 
Q 2172 3584 2450 3431 
Q 2728 3278 2906 2969 
L 2906 3500 
L 3481 3500 
L 3481 434 
z
" transform="scale(0.015625)"/>
       <path id="DejaVuSans-61" d="M 2194 1759 
Q 1497 1759 1228 1600 
Q 959 1441 959 1056 
Q 959 750 1161 570 
Q 1363 391 1709 391 
Q 2188 391 2477 730 
Q 2766 1069 2766 1631 
L 2766 1759 
L 2194 1759 
z
M 3341 1997 
L 3341 0 
L 2766 0 
L 2766 531 
Q 2569 213 2275 61 
Q 1981 -91 1556 -91 
Q 1019 -91 701 211 
Q 384 513 384 1019 
Q 384 1609 779 1909 
Q 1175 2209 1959 2209 
L 2766 2209 
L 2766 2266 
Q 2766 2663 2505 2880 
Q 2244 3097 1772 3097 
Q 1472 3097 1187 3025 
Q 903 2953 641 2809 
L 641 3341 
Q 956 3463 1253 3523 
Q 1550 3584 1831 3584 
Q 2591 3584 2966 3190 
Q 3341 2797 3341 1997 
z
" transform="scale(0.015625)"/>
       <path id="DejaVuSans-20" transform="scale(0.015625)"/>
       <path id="DejaVuSans-28" d="M 1984 4856 
Q 1566 4138 1362 3434 
Q 1159 2731 1159 2009 
Q 1159 1288 1364 580 
Q 1569 -128 1984 -844 
L 1484 -844 
Q 1016 -109 783 600 
Q 550 1309 550 2009 
Q 550 2706 781 3412 
Q 1013 4119 1484 4856 
L 1984 4856 
z
" transform="scale(0.015625)"/>
       <path id="DejaVuSans-72" d="M 2631 2963 
Q 2534 3019 2420 3045 
Q 2306 3072 2169 3072 
Q 1681 3072 1420 2755 
Q 1159 2438 1159 1844 
L 1159 0 
L 581 0 
L 581 3500 
L 1159 3500 
L 1159 2956 
Q 1341 3275 1631 3429 
Q 1922 3584 2338 3584 
Q 2397 3584 2469 3576 
Q 2541 3569 2628 3553 
L 2631 2963 
z
" transform="scale(0.015625)"/>
       <path id="DejaVuSans-63" d="M 3122 3366 
L 3122 2828 
Q 2878 2963 2633 3030 
Q 2388 3097 2138 3097 
Q 1578 3097 1268 2742 
Q 959 2388 959 1747 
Q 959 1106 1268 751 
Q 1578 397 2138 397 
Q 2388 397 2633 464 
Q 2878 531 3122 666 
L 3122 134 
Q 2881 22 2623 -34 
Q 2366 -91 2075 -91 
Q 1284 -91 818 406 
Q 353 903 353 1747 
Q 353 2603 823 3093 
Q 1294 3584 2113 3584 
Q 2378 3584 2631 3529 
Q 2884 3475 3122 3366 
z
" transform="scale(0.015625)"/>
       <path id="DejaVuSans-73" d="M 2834 3397 
L 2834 2853 
Q 2591 2978 2328 3040 
Q 2066 3103 1784 3103 
Q 1356 3103 1142 2972 
Q 928 2841 928 2578 
Q 928 2378 1081 2264 
Q 1234 2150 1697 2047 
L 1894 2003 
Q 2506 1872 2764 1633 
Q 3022 1394 3022 966 
Q 3022 478 2636 193 
Q 2250 -91 1575 -91 
Q 1294 -91 989 -36 
Q 684 19 347 128 
L 347 722 
Q 666 556 975 473 
Q 1284 391 1588 391 
Q 1994 391 2212 530 
Q 2431 669 2431 922 
Q 2431 1156 2273 1281 
Q 2116 1406 1581 1522 
L 1381 1569 
Q 847 1681 609 1914 
Q 372 2147 372 2553 
Q 372 3047 722 3315 
Q 1072 3584 1716 3584 
Q 2034 3584 2315 3537 
Q 2597 3491 2834 3397 
z
" transform="scale(0.015625)"/>
       <path id="DejaVuSans-29" d="M 513 4856 
L 1013 4856 
Q 1481 4119 1714 3412 
Q 1947 2706 1947 2009 
Q 1947 1309 1714 600 
Q 1481 -109 1013 -844 
L 513 -844 
Q 928 -128 1133 580 
Q 1338 1288 1338 2009 
Q 1338 2731 1133 3434 
Q 928 4138 513 4856 
z
" transform="scale(0.015625)"/>
      </defs>
      <use xlink:href="#DejaVuSans-4f"/>
      <use xlink:href="#DejaVuSans-6d" x="78.710938"/>
      <use xlink:href="#DejaVuSans-65" x="176.123047"/>
      <use xlink:href="#DejaVuSans-67" x="237.646484"/>
      <use xlink:href="#DejaVuSans-61" x="301.123047"/>
      <use xlink:href="#DejaVuSans-20" x="362.402344"/>
      <use xlink:href="#DejaVuSans-28" x="394.189453"/>
      <use xlink:href="#DejaVuSans-61" x="433.203125"/>
      <use xlink:href="#DejaVuSans-72" x="494.482422"/>
      <use xlink:href="#DejaVuSans-63" x="533.345703"/>
      <use xlink:href="#DejaVuSans-73" x="588.326172"/>
      <use xlink:href="#DejaVuSans-65" x="640.425781"/>
      <use xlink:href="#DejaVuSans-63" x="701.949219"/>
      <use xlink:href="#DejaVuSans-29" x="756.929688"/>
     </g>
    </g>
   </g>
   <g id="matplotlib.axis_2">
    <g id="text_7">
     <!-- Intensity -->
     <g transform="translate(14.798437 139.8425)rotate(-90)scale(0.1 -0.1)">
      <defs>
       <path id="DejaVuSans-49" d="M 628 4666 
L 1259 4666 
L 1259 0 
L 628 0 
L 628 4666 
z
" transform="scale(0.015625)"/>
       <path id="DejaVuSans-6e" d="M 3513 2113 
L 3513 0 
L 2938 0 
L 2938 2094 
Q 2938 2591 2744 2837 
Q 2550 3084 2163 3084 
Q 1697 3084 1428 2787 
Q 1159 2491 1159 1978 
L 1159 0 
L 581 0 
L 581 3500 
L 1159 3500 
L 1159 2956 
Q 1366 3272 1645 3428 
Q 1925 3584 2291 3584 
Q 2894 3584 3203 3211 
Q 3513 2838 3513 2113 
z
" transform="scale(0.015625)"/>
       <path id="DejaVuSans-74" d="M 1172 4494 
L 1172 3500 
L 2356 3500 
L 2356 3053 
L 1172 3053 
L 1172 1153 
Q 1172 725 1289 603 
Q 1406 481 1766 481 
L 2356 481 
L 2356 0 
L 1766 0 
Q 1100 0 847 248 
Q 594 497 594 1153 
L 594 3053 
L 172 3053 
L 172 3500 
L 594 3500 
L 594 4494 
L 1172 4494 
z
" transform="scale(0.015625)"/>
       <path id="DejaVuSans-69" d="M 603 3500 
L 1178 3500 
L 1178 0 
L 603 0 
L 603 3500 
z
M 603 4863 
L 1178 4863 
L 1178 4134 
L 603 4134 
L 603 4863 
z
" transform="scale(0.015625)"/>
       <path id="DejaVuSans-79" d="M 2059 -325 
Q 1816 -950 1584 -1140 
Q 1353 -1331 966 -1331 
L 506 -1331 
L 506 -850 
L 844 -850 
Q 1081 -850 1212 -737 
Q 1344 -625 1503 -206 
L 1606 56 
L 191 3500 
L 800 3500 
L 1894 763 
L 2988 3500 
L 3597 3500 
L 2059 -325 
z
" transform="scale(0.015625)"/>
      </defs>
      <use xlink:href="#DejaVuSans-49"/>
      <use xlink:href="#DejaVuSans-6e" x="29.492188"/>
      <use xlink:href="#DejaVuSans-74" x="92.871094"/>
      <use xlink:href="#DejaVuSans-65" x="132.080078"/>
      <use xlink:href="#DejaVuSans-6e" x="193.603516"/>
      <use xlink:href="#DejaVuSans-73" x="256.982422"/>
      <use xlink:href="#DejaVuSans-69" x="309.082031"/>
      <use xlink:href="#DejaVuSans-74" x="336.865234"/>
      <use xlink:href="#DejaVuSans-79" x="376.074219"/>
     </g>
    </g>
   </g>
   <g id="line2d_6">
    <path d="M -1 217.404868 
L 3.174125 217.518068 
L 8.196125 217.007343 
L 13.218125 216.66686 
L 18.240125 216.939247 
L 23.262125 216.190184 
L 28.284125 216.939247 
L 33.306125 216.326377 
L 38.328125 215.951846 
L 43.350125 216.053991 
L 48.372125 215.611363 
L 53.394125 215.747556 
L 58.416125 215.713508 
L 63.438125 214.828252 
L 68.460125 215.338977 
L 73.482125 214.045141 
L 78.504125 213.364175 
L 88.548125 212.547016 
L 93.570125 211.593663 
L 98.592125 209.380524 
L 103.614125 208.801702 
L 108.636125 205.737355 
L 113.658125 202.809201 
L 118.680125 198.655308 
L 123.702125 193.309725 
L 128.724125 183.333572 
L 133.746125 163.891991 
L 138.768125 139.479358 
L 143.790125 106.214167 
L 148.812125 72.131816 
L 153.834125 36.993967 
L 158.856125 24.838723 
L 163.878125 17.28 
L 168.900125 26.677332 
L 173.922125 36.789677 
L 178.944125 59.738233 
L 183.966125 91.471251 
L 188.988125 117.994879 
L 194.010125 142.782044 
L 204.054125 176.047235 
L 209.076125 185.342422 
L 214.098125 189.632508 
L 219.120125 195.21643 
L 229.164125 202.502766 
L 234.186125 202.741105 
L 239.208125 205.294727 
L 244.230125 207.473819 
L 249.252125 208.529316 
L 254.274125 209.005992 
L 259.296125 210.06149 
L 269.340125 211.763905 
L 274.362125 211.355325 
L 279.384125 212.274629 
L 284.406125 212.85345 
L 289.428125 213.091789 
L 294.450125 214.351576 
L 299.472125 213.432272 
L 304.494125 214.079189 
L 309.516125 214.181334 
L 311.578125 214.418994 
L 311.578125 214.418994 
" clip-path="url(#p504423dd7f)" style="fill: none; stroke: #cf597e; stroke-opacity: 0.564706; stroke-width: 1.5; stroke-linecap: square"/>
   </g>
   <g id="line2d_7">
    <path d="M -1 217.256475 
L 3.174125 216.977409 
L 8.196125 217.052021 
L 13.218125 216.753575 
L 23.262125 216.492435 
L 28.284125 215.895544 
L 33.306125 215.93285 
L 38.328125 215.447876 
L 48.372125 215.373264 
L 53.394125 214.850984 
L 58.416125 214.88829 
L 63.438125 213.806425 
L 68.460125 213.806425 
L 73.482125 213.321451 
L 78.504125 213.806425 
L 83.526125 212.127668 
L 88.548125 212.20228 
L 93.570125 211.195026 
L 98.592125 208.807461 
L 103.614125 208.247876 
L 108.636125 205.52456 
L 113.658125 204.74114 
L 118.680125 201.383627 
L 123.702125 195.936995 
L 133.746125 167.621969 
L 138.768125 139.083109 
L 148.812125 68.351503 
L 153.834125 38.693472 
L 158.856125 22.316269 
L 163.878125 17.28 
L 168.900125 28.770155 
L 178.944125 73.275855 
L 183.966125 102.075855 
L 188.988125 126.06342 
L 194.010125 150.834404 
L 199.032125 165.01057 
L 204.054125 175.568083 
L 209.076125 184.036477 
L 214.098125 189.184663 
L 219.120125 193.885181 
L 224.142125 198.32456 
L 229.164125 199.518342 
L 234.186125 202.838549 
L 239.208125 202.614715 
L 244.230125 204.368083 
L 249.252125 207.016788 
L 254.274125 206.979482 
L 259.296125 208.73285 
L 264.318125 210.299689 
L 269.340125 210.89658 
L 279.384125 211.344249 
L 284.406125 211.306943 
L 289.428125 212.127668 
L 294.450125 212.687254 
L 299.472125 212.985699 
L 309.516125 213.806425 
L 311.578125 213.913647 
L 311.578125 213.913647 
" clip-path="url(#p504423dd7f)" style="fill: none; stroke: #be577b; stroke-opacity: 0.564706; stroke-width: 1.5; stroke-linecap: square"/>
   </g>
   <g id="line2d_8">
    <path d="M -1 216.523266 
L 3.174125 216.470565 
L 8.196125 216.185237 
L 13.218125 216.375455 
L 18.240125 215.677987 
L 23.262125 215.804799 
L 28.284125 215.741393 
L 33.306125 214.663488 
L 38.328125 215.075628 
L 43.350125 214.536676 
L 48.372125 214.758597 
L 53.394125 213.96602 
L 58.416125 213.96602 
L 68.460125 212.254053 
L 73.482125 211.366366 
L 78.504125 211.429772 
L 83.526125 209.971429 
L 88.548125 209.05204 
L 93.570125 208.639899 
L 98.592125 205.46959 
L 103.614125 205.311074 
L 108.636125 203.21867 
L 113.658125 200.587312 
L 118.680125 197.480409 
L 123.702125 192.154288 
L 128.724125 179.409643 
L 133.746125 162.194861 
L 138.768125 135.247228 
L 143.790125 93.367435 
L 148.812125 54.277515 
L 153.834125 35.636094 
L 158.856125 19.657732 
L 163.878125 17.28 
L 168.900125 29.485693 
L 173.922125 48.634364 
L 178.944125 69.241378 
L 183.966125 94.95259 
L 188.988125 121.900223 
L 194.010125 144.37772 
L 199.032125 160.641409 
L 204.054125 172.21304 
L 209.076125 182.516547 
L 214.098125 190.600837 
L 219.120125 198.304689 
L 224.142125 199.921547 
L 229.164125 202.457795 
L 239.208125 203.725919 
L 244.230125 206.80112 
L 249.252125 207.815619 
L 254.274125 209.273961 
L 259.296125 209.273961 
L 264.318125 209.908023 
L 269.340125 210.890819 
L 274.362125 212.919818 
L 279.384125 211.905318 
L 284.406125 212.951521 
L 289.428125 213.712395 
L 294.450125 213.902614 
L 299.472125 214.473269 
L 304.494125 213.839207 
L 309.516125 214.314754 
L 311.578125 214.640181 
L 311.578125 214.640181 
" clip-path="url(#p504423dd7f)" style="fill: none; stroke: #ad5679; stroke-opacity: 0.564706; stroke-width: 1.5; stroke-linecap: square"/>
   </g>
   <g id="line2d_9">
    <path d="M -1 217.069009 
L 3.174125 217.165615 
L 8.196125 217.398074 
L 13.218125 216.962214 
L 18.240125 217.456189 
L 23.262125 217.310902 
L 28.284125 216.410124 
L 38.328125 216.322952 
L 43.350125 216.758812 
L 48.372125 216.526353 
L 58.416125 215.393116 
L 63.438125 215.1316 
L 68.460125 214.666682 
L 73.482125 214.841026 
L 78.504125 213.47533 
L 83.526125 213.359101 
L 88.548125 212.865125 
L 93.570125 211.964347 
L 98.592125 209.872217 
L 103.614125 209.552586 
L 108.636125 206.937423 
L 113.658125 202.491646 
L 118.680125 200.806319 
L 123.702125 198.191156 
L 128.724125 189.357717 
L 133.746125 178.722721 
L 138.768125 157.104042 
L 143.790125 129.267086 
L 148.812125 90.359274 
L 153.834125 53.34019 
L 158.856125 30.762617 
L 163.878125 17.28 
L 168.900125 21.057457 
L 173.922125 35.528025 
L 178.944125 56.856131 
L 183.966125 86.494644 
L 194.010125 137.461263 
L 199.032125 159.980721 
L 204.054125 174.073543 
L 209.076125 187.352759 
L 214.098125 193.367633 
L 219.120125 198.394558 
L 224.142125 202.026728 
L 229.164125 205.193981 
L 234.186125 206.821193 
L 239.208125 209.087668 
L 244.230125 209.000496 
L 249.252125 210.337135 
L 254.274125 210.627708 
L 259.296125 211.063569 
L 269.340125 213.533445 
L 274.362125 213.271929 
L 279.384125 214.347051 
L 284.406125 214.405166 
L 289.428125 214.608567 
L 294.450125 214.172707 
L 299.472125 214.695739 
L 304.494125 214.928198 
L 309.516125 215.858034 
L 311.578125 215.786449 
L 311.578125 215.786449 
" clip-path="url(#p504423dd7f)" style="fill: none; stroke: #9c5476; stroke-opacity: 0.564706; stroke-width: 1.5; stroke-linecap: square"/>
   </g>
   <g id="line2d_10">
    <path d="M -1 215.916475 
L 3.174125 215.787975 
L 8.196125 216.097178 
L 13.218125 215.787975 
L 18.240125 215.787975 
L 23.262125 214.976319 
L 28.284125 214.899018 
L 33.306125 214.705767 
L 38.328125 215.05362 
L 43.350125 214.899018 
L 48.372125 213.77816 
L 53.394125 214.589816 
L 58.416125 212.811902 
L 63.438125 212.927853 
L 68.460125 212.502699 
L 73.482125 211.30454 
L 78.504125 211.806994 
L 83.526125 210.763436 
L 88.548125 209.294724 
L 93.570125 210.02908 
L 98.592125 208.367117 
L 108.636125 203.458528 
L 113.658125 201.17816 
L 118.680125 199.052393 
L 128.724125 187.727853 
L 133.746125 174.238896 
L 138.768125 155.338896 
L 143.790125 125.191656 
L 148.812125 83.449325 
L 153.834125 48.74135 
L 158.856125 23.232147 
L 163.878125 17.28 
L 168.900125 17.975706 
L 173.922125 24.971411 
L 178.944125 51.794724 
L 183.966125 75.062209 
L 188.988125 106.71681 
L 194.010125 128.979387 
L 199.032125 154.218037 
L 204.054125 170.180613 
L 209.076125 182.935215 
L 214.098125 189.273865 
L 219.120125 193.061595 
L 224.142125 197.235828 
L 229.164125 199.98 
L 234.186125 203.303926 
L 239.208125 203.342577 
L 244.230125 206.821104 
L 249.252125 208.289816 
L 254.274125 207.053006 
L 264.318125 209.990429 
L 269.340125 209.874479 
L 274.362125 210.995337 
L 279.384125 210.956687 
L 284.406125 210.724785 
L 289.428125 212.232147 
L 294.450125 212.850552 
L 299.472125 213.314356 
L 304.494125 212.61865 
L 309.516125 214.396564 
L 311.578125 214.126782 
L 311.578125 214.126782 
" clip-path="url(#p504423dd7f)" style="fill: none; stroke: #8b5374; stroke-opacity: 0.564706; stroke-width: 1.5; stroke-linecap: square"/>
   </g>
   <g id="line2d_11">
    <path d="M -1 217.019325 
L 3.174125 216.714765 
L 8.196125 216.514898 
L 18.240125 216.814699 
L 23.262125 216.414964 
L 28.284125 216.481586 
L 33.306125 215.948605 
L 38.328125 215.682115 
L 43.350125 215.182445 
L 48.372125 213.883305 
L 53.394125 214.982578 
L 58.416125 214.649465 
L 63.438125 213.983239 
L 68.460125 213.450258 
L 73.482125 212.717409 
L 83.526125 211.884627 
L 88.548125 210.95191 
L 93.570125 208.320317 
L 98.592125 206.221705 
L 103.614125 206.121771 
L 108.636125 202.957198 
L 113.658125 200.72534 
L 118.680125 195.228976 
L 123.702125 188.266913 
L 128.724125 173.743186 
L 133.746125 152.657132 
L 138.768125 120.578348 
L 143.790125 79.70538 
L 148.812125 46.294144 
L 153.834125 21.044177 
L 158.856125 17.879603 
L 163.878125 17.28 
L 168.900125 30.371342 
L 173.922125 46.227521 
L 183.966125 99.359048 
L 188.988125 129.805578 
L 194.010125 150.391963 
L 199.032125 168.080264 
L 204.054125 181.438096 
L 209.076125 190.931818 
L 214.098125 196.794607 
L 219.120125 199.4262 
L 224.142125 201.558123 
L 229.164125 205.788658 
L 234.186125 206.35495 
L 239.208125 207.62078 
L 244.230125 209.752703 
L 249.252125 210.019194 
L 254.274125 211.218401 
L 264.318125 212.617475 
L 269.340125 212.950588 
L 274.362125 212.883966 
L 279.384125 213.383635 
L 284.406125 213.716748 
L 289.428125 215.0492 
L 294.450125 215.515558 
L 299.472125 215.082512 
L 304.494125 215.881983 
L 309.516125 215.415625 
L 311.578125 215.730205 
L 311.578125 215.730205 
" clip-path="url(#p504423dd7f)" style="fill: none; stroke: #7a5172; stroke-opacity: 0.564706; stroke-width: 1.5; stroke-linecap: square"/>
   </g>
   <g id="line2d_12">
    <path d="M -1 215.8494 
L 3.174125 216.146882 
L 13.218125 215.463602 
L 18.240125 214.81286 
L 28.284125 214.650174 
L 33.306125 213.934358 
L 38.328125 214.454952 
L 43.350125 213.739135 
L 48.372125 213.576449 
L 53.394125 212.372576 
L 58.416125 212.502724 
L 63.438125 211.591685 
L 68.460125 210.257663 
L 73.482125 210.225126 
L 78.504125 208.728418 
L 83.526125 208.891104 
L 88.548125 206.288134 
L 93.570125 204.173221 
L 98.592125 203.294719 
L 103.614125 199.715636 
L 108.636125 195.48581 
L 113.658125 191.971801 
L 118.680125 185.561988 
L 123.702125 171.896398 
L 128.724125 151.723383 
L 133.746125 128.947398 
L 138.768125 98.102208 
L 143.790125 64.263602 
L 148.812125 43.374771 
L 153.834125 26.780839 
L 158.856125 20.338489 
L 163.878125 17.28 
L 168.900125 33.808857 
L 173.922125 52.615313 
L 178.944125 72.625642 
L 183.966125 101.746365 
L 188.988125 126.344429 
L 194.010125 145.866701 
L 199.032125 162.200336 
L 204.054125 176.939651 
L 214.098125 192.167024 
L 219.120125 194.965216 
L 224.142125 200.529064 
L 229.164125 201.732937 
L 234.186125 203.522479 
L 239.208125 206.125449 
L 244.230125 206.711117 
L 254.274125 209.216475 
L 259.296125 210.127515 
L 264.318125 210.778257 
L 269.340125 211.98213 
L 279.384125 211.884519 
L 284.406125 213.283615 
L 289.428125 213.641524 
L 294.450125 212.730484 
L 299.472125 214.031969 
L 304.494125 213.804209 
L 311.578125 214.766315 
L 311.578125 214.766315 
" clip-path="url(#p504423dd7f)" style="fill: none; stroke: #69506f; stroke-opacity: 0.564706; stroke-width: 1.5; stroke-linecap: square"/>
   </g>
   <g id="line2d_13">
    <path d="M -1 216.207749 
L 3.174125 216.412813 
L 8.196125 216.505333 
L 13.218125 215.765177 
L 18.240125 216.104415 
L 28.284125 215.271739 
L 38.328125 215.271739 
L 43.350125 214.315704 
L 48.372125 214.531583 
L 53.394125 213.606388 
L 58.416125 213.452189 
L 63.438125 212.465314 
L 68.460125 212.835392 
L 73.482125 211.601799 
L 78.504125 209.936448 
L 83.526125 209.350491 
L 88.548125 209.288811 
L 93.570125 207.530941 
L 98.592125 205.372152 
L 103.614125 204.755356 
L 108.636125 201.918091 
L 113.658125 199.481744 
L 118.680125 196.891198 
L 123.702125 191.309188 
L 128.724125 184.061827 
L 133.746125 172.681927 
L 138.768125 149.922129 
L 143.790125 117.694502 
L 148.812125 77.911115 
L 153.834125 46.207765 
L 158.856125 27.518825 
L 163.878125 17.28 
L 168.900125 26.62447 
L 173.922125 42.414465 
L 178.944125 63.046315 
L 183.966125 87.132226 
L 188.988125 115.689913 
L 194.010125 141.564534 
L 199.032125 159.297439 
L 204.054125 173.391244 
L 209.076125 186.929931 
L 214.098125 190.90827 
L 219.120125 195.472565 
L 224.142125 200.376099 
L 229.164125 201.085415 
L 234.186125 203.95352 
L 239.208125 206.574906 
L 244.230125 207.068343 
L 254.274125 209.967288 
L 259.296125 209.967288 
L 264.318125 210.090647 
L 269.340125 212.249436 
L 274.362125 211.941037 
L 279.384125 212.712033 
L 284.406125 213.29799 
L 294.450125 214.870821 
L 299.472125 214.654943 
L 309.516125 215.641817 
L 311.578125 215.692468 
L 311.578125 215.692468 
" clip-path="url(#p504423dd7f)" style="fill: none; stroke: #584e6d; stroke-opacity: 0.564706; stroke-width: 1.5; stroke-linecap: square"/>
   </g>
   <g id="line2d_14">
    <path d="M -1 215.468255 
L 3.174125 215.468255 
L 8.196125 215.195316 
L 18.240125 214.820024 
L 23.262125 214.990611 
L 33.306125 214.035322 
L 38.328125 213.830618 
L 43.350125 214.20591 
L 48.372125 212.670624 
L 53.394125 213.387091 
L 58.416125 211.885923 
L 63.438125 211.374161 
L 68.460125 211.885923 
L 73.482125 210.623578 
L 78.504125 210.555343 
L 83.526125 208.508296 
L 88.548125 208.713001 
L 93.570125 206.631836 
L 98.592125 205.881252 
L 103.614125 202.503625 
L 108.636125 202.025981 
L 118.680125 194.758964 
L 123.702125 188.822528 
L 128.724125 180.702576 
L 133.746125 166.066191 
L 143.790125 114.958254 
L 148.812125 76.132598 
L 153.834125 48.053938 
L 158.856125 27.856409 
L 163.878125 17.28 
L 168.900125 28.129348 
L 173.922125 37.443412 
L 178.944125 60.165632 
L 188.988125 112.05827 
L 199.032125 155.865074 
L 204.054125 173.16262 
L 209.076125 185.137844 
L 214.098125 190.903693 
L 219.120125 197.249538 
L 229.164125 202.913034 
L 234.186125 204.960081 
L 239.208125 206.324779 
L 244.230125 208.235356 
L 249.252125 208.713001 
L 254.274125 210.111816 
L 259.296125 210.009464 
L 264.318125 211.578866 
L 269.340125 211.681218 
L 274.362125 212.158863 
L 279.384125 213.080034 
L 284.406125 214.683554 
L 289.428125 214.001205 
L 294.450125 213.523561 
L 299.472125 215.331785 
L 304.494125 215.877665 
L 309.516125 216.218839 
L 311.578125 216.064747 
L 311.578125 216.064747 
" clip-path="url(#p504423dd7f)" style="fill: none; stroke: #474d6b; stroke-opacity: 0.564706; stroke-width: 1.5; stroke-linecap: square"/>
   </g>
   <g id="patch_3">
    <path d="M 24.378125 228.96 
L 24.378125 7.2 
" style="fill: none; stroke: #000000; stroke-width: 0.8; stroke-linejoin: miter; stroke-linecap: square"/>
   </g>
   <g id="patch_4">
    <path d="M 303.378125 228.96 
L 303.378125 7.2 
" style="fill: none; stroke: #000000; stroke-width: 0.8; stroke-linejoin: miter; stroke-linecap: square"/>
   </g>
   <g id="patch_5">
    <path d="M 24.378125 228.96 
L 303.378125 228.96 
" style="fill: none; stroke: #000000; stroke-width: 0.8; stroke-linejoin: miter; stroke-linecap: square"/>
   </g>
   <g id="patch_6">
    <path d="M 24.378125 7.2 
L 303.378125 7.2 
" style="fill: none; stroke: #000000; stroke-width: 0.8; stroke-linejoin: miter; stroke-linecap: square"/>
   </g>
   <g id="legend_1">
    <g id="line2d_15">
     <path d="M 232.015625 20.298437 
L 242.015625 20.298437 
L 252.015625 20.298437 
" style="fill: none; stroke: #cf597e; stroke-opacity: 0.564706; stroke-width: 1.5; stroke-linecap: square"/>
    </g>
    <g id="text_8">
     <!-- Point 1 -->
     <g transform="translate(260.015625 23.798437)scale(0.1 -0.1)">
      <defs>
       <path id="DejaVuSans-50" d="M 1259 4147 
L 1259 2394 
L 2053 2394 
Q 2494 2394 2734 2622 
Q 2975 2850 2975 3272 
Q 2975 3691 2734 3919 
Q 2494 4147 2053 4147 
L 1259 4147 
z
M 628 4666 
L 2053 4666 
Q 2838 4666 3239 4311 
Q 3641 3956 3641 3272 
Q 3641 2581 3239 2228 
Q 2838 1875 2053 1875 
L 1259 1875 
L 1259 0 
L 628 0 
L 628 4666 
z
" transform="scale(0.015625)"/>
       <path id="DejaVuSans-6f" d="M 1959 3097 
Q 1497 3097 1228 2736 
Q 959 2375 959 1747 
Q 959 1119 1226 758 
Q 1494 397 1959 397 
Q 2419 397 2687 759 
Q 2956 1122 2956 1747 
Q 2956 2369 2687 2733 
Q 2419 3097 1959 3097 
z
M 1959 3584 
Q 2709 3584 3137 3096 
Q 3566 2609 3566 1747 
Q 3566 888 3137 398 
Q 2709 -91 1959 -91 
Q 1206 -91 779 398 
Q 353 888 353 1747 
Q 353 2609 779 3096 
Q 1206 3584 1959 3584 
z
" transform="scale(0.015625)"/>
       <path id="DejaVuSans-31" d="M 794 531 
L 1825 531 
L 1825 4091 
L 703 3866 
L 703 4441 
L 1819 4666 
L 2450 4666 
L 2450 531 
L 3481 531 
L 3481 0 
L 794 0 
L 794 531 
z
" transform="scale(0.015625)"/>
      </defs>
      <use xlink:href="#DejaVuSans-50"/>
      <use xlink:href="#DejaVuSans-6f" x="56.677734"/>
      <use xlink:href="#DejaVuSans-69" x="117.859375"/>
      <use xlink:href="#DejaVuSans-6e" x="145.642578"/>
      <use xlink:href="#DejaVuSans-74" x="209.021484"/>
      <use xlink:href="#DejaVuSans-20" x="248.230469"/>
      <use xlink:href="#DejaVuSans-31" x="280.017578"/>
     </g>
    </g>
    <g id="line2d_16">
     <path d="M 232.015625 34.976562 
L 242.015625 34.976562 
L 252.015625 34.976562 
" style="fill: none; stroke: #be577b; stroke-opacity: 0.564706; stroke-width: 1.5; stroke-linecap: square"/>
    </g>
    <g id="text_9">
     <!-- Point 2 -->
     <g transform="translate(260.015625 38.476562)scale(0.1 -0.1)">
      <use xlink:href="#DejaVuSans-50"/>
      <use xlink:href="#DejaVuSans-6f" x="56.677734"/>
      <use xlink:href="#DejaVuSans-69" x="117.859375"/>
      <use xlink:href="#DejaVuSans-6e" x="145.642578"/>
      <use xlink:href="#DejaVuSans-74" x="209.021484"/>
      <use xlink:href="#DejaVuSans-20" x="248.230469"/>
      <use xlink:href="#DejaVuSans-32" x="280.017578"/>
     </g>
    </g>
    <g id="line2d_17">
     <path d="M 232.015625 49.654687 
L 242.015625 49.654687 
L 252.015625 49.654687 
" style="fill: none; stroke: #ad5679; stroke-opacity: 0.564706; stroke-width: 1.5; stroke-linecap: square"/>
    </g>
    <g id="text_10">
     <!-- Point 3 -->
     <g transform="translate(260.015625 53.154687)scale(0.1 -0.1)">
      <defs>
       <path id="DejaVuSans-33" d="M 2597 2516 
Q 3050 2419 3304 2112 
Q 3559 1806 3559 1356 
Q 3559 666 3084 287 
Q 2609 -91 1734 -91 
Q 1441 -91 1130 -33 
Q 819 25 488 141 
L 488 750 
Q 750 597 1062 519 
Q 1375 441 1716 441 
Q 2309 441 2620 675 
Q 2931 909 2931 1356 
Q 2931 1769 2642 2001 
Q 2353 2234 1838 2234 
L 1294 2234 
L 1294 2753 
L 1863 2753 
Q 2328 2753 2575 2939 
Q 2822 3125 2822 3475 
Q 2822 3834 2567 4026 
Q 2313 4219 1838 4219 
Q 1578 4219 1281 4162 
Q 984 4106 628 3988 
L 628 4550 
Q 988 4650 1302 4700 
Q 1616 4750 1894 4750 
Q 2613 4750 3031 4423 
Q 3450 4097 3450 3541 
Q 3450 3153 3228 2886 
Q 3006 2619 2597 2516 
z
" transform="scale(0.015625)"/>
      </defs>
      <use xlink:href="#DejaVuSans-50"/>
      <use xlink:href="#DejaVuSans-6f" x="56.677734"/>
      <use xlink:href="#DejaVuSans-69" x="117.859375"/>
      <use xlink:href="#DejaVuSans-6e" x="145.642578"/>
      <use xlink:href="#DejaVuSans-74" x="209.021484"/>
      <use xlink:href="#DejaVuSans-20" x="248.230469"/>
      <use xlink:href="#DejaVuSans-33" x="280.017578"/>
     </g>
    </g>
    <g id="line2d_18">
     <path d="M 232.015625 64.332812 
L 242.015625 64.332812 
L 252.015625 64.332812 
" style="fill: none; stroke: #9c5476; stroke-opacity: 0.564706; stroke-width: 1.5; stroke-linecap: square"/>
    </g>
    <g id="text_11">
     <!-- Point 4 -->
     <g transform="translate(260.015625 67.832812)scale(0.1 -0.1)">
      <use xlink:href="#DejaVuSans-50"/>
      <use xlink:href="#DejaVuSans-6f" x="56.677734"/>
      <use xlink:href="#DejaVuSans-69" x="117.859375"/>
      <use xlink:href="#DejaVuSans-6e" x="145.642578"/>
      <use xlink:href="#DejaVuSans-74" x="209.021484"/>
      <use xlink:href="#DejaVuSans-20" x="248.230469"/>
      <use xlink:href="#DejaVuSans-34" x="280.017578"/>
     </g>
    </g>
    <g id="line2d_19">
     <path d="M 232.015625 79.010937 
L 242.015625 79.010937 
L 252.015625 79.010937 
" style="fill: none; stroke: #8b5374; stroke-opacity: 0.564706; stroke-width: 1.5; stroke-linecap: square"/>
    </g>
    <g id="text_12">
     <!-- Point 5 -->
     <g transform="translate(260.015625 82.510937)scale(0.1 -0.1)">
      <defs>
       <path id="DejaVuSans-35" d="M 691 4666 
L 3169 4666 
L 3169 4134 
L 1269 4134 
L 1269 2991 
Q 1406 3038 1543 3061 
Q 1681 3084 1819 3084 
Q 2600 3084 3056 2656 
Q 3513 2228 3513 1497 
Q 3513 744 3044 326 
Q 2575 -91 1722 -91 
Q 1428 -91 1123 -41 
Q 819 9 494 109 
L 494 744 
Q 775 591 1075 516 
Q 1375 441 1709 441 
Q 2250 441 2565 725 
Q 2881 1009 2881 1497 
Q 2881 1984 2565 2268 
Q 2250 2553 1709 2553 
Q 1456 2553 1204 2497 
Q 953 2441 691 2322 
L 691 4666 
z
" transform="scale(0.015625)"/>
      </defs>
      <use xlink:href="#DejaVuSans-50"/>
      <use xlink:href="#DejaVuSans-6f" x="56.677734"/>
      <use xlink:href="#DejaVuSans-69" x="117.859375"/>
      <use xlink:href="#DejaVuSans-6e" x="145.642578"/>
      <use xlink:href="#DejaVuSans-74" x="209.021484"/>
      <use xlink:href="#DejaVuSans-20" x="248.230469"/>
      <use xlink:href="#DejaVuSans-35" x="280.017578"/>
     </g>
    </g>
    <g id="line2d_20">
     <path d="M 232.015625 93.689062 
L 242.015625 93.689062 
L 252.015625 93.689062 
" style="fill: none; stroke: #7a5172; stroke-opacity: 0.564706; stroke-width: 1.5; stroke-linecap: square"/>
    </g>
    <g id="text_13">
     <!-- Point 6 -->
     <g transform="translate(260.015625 97.189062)scale(0.1 -0.1)">
      <defs>
       <path id="DejaVuSans-36" d="M 2113 2584 
Q 1688 2584 1439 2293 
Q 1191 2003 1191 1497 
Q 1191 994 1439 701 
Q 1688 409 2113 409 
Q 2538 409 2786 701 
Q 3034 994 3034 1497 
Q 3034 2003 2786 2293 
Q 2538 2584 2113 2584 
z
M 3366 4563 
L 3366 3988 
Q 3128 4100 2886 4159 
Q 2644 4219 2406 4219 
Q 1781 4219 1451 3797 
Q 1122 3375 1075 2522 
Q 1259 2794 1537 2939 
Q 1816 3084 2150 3084 
Q 2853 3084 3261 2657 
Q 3669 2231 3669 1497 
Q 3669 778 3244 343 
Q 2819 -91 2113 -91 
Q 1303 -91 875 529 
Q 447 1150 447 2328 
Q 447 3434 972 4092 
Q 1497 4750 2381 4750 
Q 2619 4750 2861 4703 
Q 3103 4656 3366 4563 
z
" transform="scale(0.015625)"/>
      </defs>
      <use xlink:href="#DejaVuSans-50"/>
      <use xlink:href="#DejaVuSans-6f" x="56.677734"/>
      <use xlink:href="#DejaVuSans-69" x="117.859375"/>
      <use xlink:href="#DejaVuSans-6e" x="145.642578"/>
      <use xlink:href="#DejaVuSans-74" x="209.021484"/>
      <use xlink:href="#DejaVuSans-20" x="248.230469"/>
      <use xlink:href="#DejaVuSans-36" x="280.017578"/>
     </g>
    </g>
    <g id="line2d_21">
     <path d="M 232.015625 108.367187 
L 242.015625 108.367187 
L 252.015625 108.367187 
" style="fill: none; stroke: #69506f; stroke-opacity: 0.564706; stroke-width: 1.5; stroke-linecap: square"/>
    </g>
    <g id="text_14">
     <!-- Point 7 -->
     <g transform="translate(260.015625 111.867187)scale(0.1 -0.1)">
      <defs>
       <path id="DejaVuSans-37" d="M 525 4666 
L 3525 4666 
L 3525 4397 
L 1831 0 
L 1172 0 
L 2766 4134 
L 525 4134 
L 525 4666 
z
" transform="scale(0.015625)"/>
      </defs>
      <use xlink:href="#DejaVuSans-50"/>
      <use xlink:href="#DejaVuSans-6f" x="56.677734"/>
      <use xlink:href="#DejaVuSans-69" x="117.859375"/>
      <use xlink:href="#DejaVuSans-6e" x="145.642578"/>
      <use xlink:href="#DejaVuSans-74" x="209.021484"/>
      <use xlink:href="#DejaVuSans-20" x="248.230469"/>
      <use xlink:href="#DejaVuSans-37" x="280.017578"/>
     </g>
    </g>
    <g id="line2d_22">
     <path d="M 232.015625 123.045312 
L 242.015625 123.045312 
L 252.015625 123.045312 
" style="fill: none; stroke: #584e6d; stroke-opacity: 0.564706; stroke-width: 1.5; stroke-linecap: square"/>
    </g>
    <g id="text_15">
     <!-- Point 8 -->
     <g transform="translate(260.015625 126.545312)scale(0.1 -0.1)">
      <defs>
       <path id="DejaVuSans-38" d="M 2034 2216 
Q 1584 2216 1326 1975 
Q 1069 1734 1069 1313 
Q 1069 891 1326 650 
Q 1584 409 2034 409 
Q 2484 409 2743 651 
Q 3003 894 3003 1313 
Q 3003 1734 2745 1975 
Q 2488 2216 2034 2216 
z
M 1403 2484 
Q 997 2584 770 2862 
Q 544 3141 544 3541 
Q 544 4100 942 4425 
Q 1341 4750 2034 4750 
Q 2731 4750 3128 4425 
Q 3525 4100 3525 3541 
Q 3525 3141 3298 2862 
Q 3072 2584 2669 2484 
Q 3125 2378 3379 2068 
Q 3634 1759 3634 1313 
Q 3634 634 3220 271 
Q 2806 -91 2034 -91 
Q 1263 -91 848 271 
Q 434 634 434 1313 
Q 434 1759 690 2068 
Q 947 2378 1403 2484 
z
M 1172 3481 
Q 1172 3119 1398 2916 
Q 1625 2713 2034 2713 
Q 2441 2713 2670 2916 
Q 2900 3119 2900 3481 
Q 2900 3844 2670 4047 
Q 2441 4250 2034 4250 
Q 1625 4250 1398 4047 
Q 1172 3844 1172 3481 
z
" transform="scale(0.015625)"/>
      </defs>
      <use xlink:href="#DejaVuSans-50"/>
      <use xlink:href="#DejaVuSans-6f" x="56.677734"/>
      <use xlink:href="#DejaVuSans-69" x="117.859375"/>
      <use xlink:href="#DejaVuSans-6e" x="145.642578"/>
      <use xlink:href="#DejaVuSans-74" x="209.021484"/>
      <use xlink:href="#DejaVuSans-20" x="248.230469"/>
      <use xlink:href="#DejaVuSans-38" x="280.017578"/>
     </g>
    </g>
    <g id="line2d_23">
     <path d="M 232.015625 137.723437 
L 242.015625 137.723437 
L 252.015625 137.723437 
" style="fill: none; stroke: #474d6b; stroke-opacity: 0.564706; stroke-width: 1.5; stroke-linecap: square"/>
    </g>
    <g id="text_16">
     <!-- Point 9 -->
     <g transform="translate(260.015625 141.223437)scale(0.1 -0.1)">
      <defs>
       <path id="DejaVuSans-39" d="M 703 97 
L 703 672 
Q 941 559 1184 500 
Q 1428 441 1663 441 
Q 2288 441 2617 861 
Q 2947 1281 2994 2138 
Q 2813 1869 2534 1725 
Q 2256 1581 1919 1581 
Q 1219 1581 811 2004 
Q 403 2428 403 3163 
Q 403 3881 828 4315 
Q 1253 4750 1959 4750 
Q 2769 4750 3195 4129 
Q 3622 3509 3622 2328 
Q 3622 1225 3098 567 
Q 2575 -91 1691 -91 
Q 1453 -91 1209 -44 
Q 966 3 703 97 
z
M 1959 2075 
Q 2384 2075 2632 2365 
Q 2881 2656 2881 3163 
Q 2881 3666 2632 3958 
Q 2384 4250 1959 4250 
Q 1534 4250 1286 3958 
Q 1038 3666 1038 3163 
Q 1038 2656 1286 2365 
Q 1534 2075 1959 2075 
z
" transform="scale(0.015625)"/>
      </defs>
      <use xlink:href="#DejaVuSans-50"/>
      <use xlink:href="#DejaVuSans-6f" x="56.677734"/>
      <use xlink:href="#DejaVuSans-69" x="117.859375"/>
      <use xlink:href="#DejaVuSans-6e" x="145.642578"/>
      <use xlink:href="#DejaVuSans-74" x="209.021484"/>
      <use xlink:href="#DejaVuSans-20" x="248.230469"/>
      <use xlink:href="#DejaVuSans-39" x="280.017578"/>
     </g>
    </g>
   </g>
  </g>
 </g>
 <defs>
  <clipPath id="p504423dd7f">
   <rect x="24.378125" y="7.2" width="279" height="221.76"/>
  </clipPath>
 </defs>
</svg>
