<?xml version="1.0" encoding="utf-8" standalone="no"?>
<!DOCTYPE svg PUBLIC "-//W3C//DTD SVG 1.1//EN"
  "http://www.w3.org/Graphics/SVG/1.1/DTD/svg11.dtd">
<svg xmlns:xlink="http://www.w3.org/1999/xlink" width="558pt" height="563.698828pt" viewBox="0 0 558 563.698828" xmlns="http://www.w3.org/2000/svg" version="1.1">
 <metadata>
  <rdf:RDF xmlns:dc="http://purl.org/dc/elements/1.1/" xmlns:cc="http://creativecommons.org/ns#" xmlns:rdf="http://www.w3.org/1999/02/22-rdf-syntax-ns#">
   <cc:Work>
    <dc:type rdf:resource="http://purl.org/dc/dcmitype/StillImage"/>
    <dc:date>2024-03-26T13:22:34.486600</dc:date>
    <dc:format>image/svg+xml</dc:format>
    <dc:creator>
     <cc:Agent>
      <dc:title>Matplotlib v3.5.2, https://matplotlib.org/</dc:title>
     </cc:Agent>
    </dc:creator>
   </cc:Work>
  </rdf:RDF>
 </metadata>
 <defs>
  <style type="text/css">*{stroke-linejoin: round; stroke-linecap: butt}</style>
 </defs>
 <g id="figure_1">
  <g id="patch_1">
   <path d="M 0 563.698828 
L 558 563.698828 
L 558 0 
L 0 0 
z
" style="fill: #ffffff"/>
  </g>
  <g id="axes_1">
   <g id="patch_2">
    <path d="M 51.804688 254.831641 
L 538.872656 254.831641 
L 538.872656 12.898828 
L 51.804688 12.898828 
z
" style="fill: #ffffff"/>
   </g>
   <g id="matplotlib.axis_1"/>
   <g id="matplotlib.axis_2">
    <g id="ytick_1">
     <g id="line2d_1">
      <defs>
       <path id="ma5304475ce" d="M 0 0 
L -3.5 0 
" style="stroke: #000000; stroke-width: 0.8"/>
      </defs>
      <g>
       <use xlink:href="#ma5304475ce" x="51.804688" y="238.702786" style="stroke: #000000; stroke-width: 0.8"/>
      </g>
     </g>
     <g id="text_1">
      <!-- 0 -->
      <g transform="translate(35.260937 244.401615)scale(0.15 -0.15)">
       <defs>
        <path id="DejaVuSans-30" d="M 2034 4250 
Q 1547 4250 1301 3770 
Q 1056 3291 1056 2328 
Q 1056 1369 1301 889 
Q 1547 409 2034 409 
Q 2525 409 2770 889 
Q 3016 1369 3016 2328 
Q 3016 3291 2770 3770 
Q 2525 4250 2034 4250 
z
M 2034 4750 
Q 2819 4750 3233 4129 
Q 3647 3509 3647 2328 
Q 3647 1150 3233 529 
Q 2819 -91 2034 -91 
Q 1250 -91 836 529 
Q 422 1150 422 2328 
Q 422 3509 836 4129 
Q 1250 4750 2034 4750 
z
" transform="scale(0.015625)"/>
       </defs>
       <use xlink:href="#DejaVuSans-30"/>
      </g>
     </g>
    </g>
    <g id="ytick_2">
     <g id="line2d_2">
      <g>
       <use xlink:href="#ma5304475ce" x="51.804688" y="206.445078" style="stroke: #000000; stroke-width: 0.8"/>
      </g>
     </g>
     <g id="text_2">
      <!-- 10 -->
      <g transform="translate(25.717188 212.143906)scale(0.15 -0.15)">
       <defs>
        <path id="DejaVuSans-31" d="M 794 531 
L 1825 531 
L 1825 4091 
L 703 3866 
L 703 4441 
L 1819 4666 
L 2450 4666 
L 2450 531 
L 3481 531 
L 3481 0 
L 794 0 
L 794 531 
z
" transform="scale(0.015625)"/>
       </defs>
       <use xlink:href="#DejaVuSans-31"/>
       <use xlink:href="#DejaVuSans-30" x="63.623047"/>
      </g>
     </g>
    </g>
    <g id="ytick_3">
     <g id="line2d_3">
      <g>
       <use xlink:href="#ma5304475ce" x="51.804688" y="174.18737" style="stroke: #000000; stroke-width: 0.8"/>
      </g>
     </g>
     <g id="text_3">
      <!-- 20 -->
      <g transform="translate(25.717188 179.886198)scale(0.15 -0.15)">
       <defs>
        <path id="DejaVuSans-32" d="M 1228 531 
L 3431 531 
L 3431 0 
L 469 0 
L 469 531 
Q 828 903 1448 1529 
Q 2069 2156 2228 2338 
Q 2531 2678 2651 2914 
Q 2772 3150 2772 3378 
Q 2772 3750 2511 3984 
Q 2250 4219 1831 4219 
Q 1534 4219 1204 4116 
Q 875 4013 500 3803 
L 500 4441 
Q 881 4594 1212 4672 
Q 1544 4750 1819 4750 
Q 2544 4750 2975 4387 
Q 3406 4025 3406 3419 
Q 3406 3131 3298 2873 
Q 3191 2616 2906 2266 
Q 2828 2175 2409 1742 
Q 1991 1309 1228 531 
z
" transform="scale(0.015625)"/>
       </defs>
       <use xlink:href="#DejaVuSans-32"/>
       <use xlink:href="#DejaVuSans-30" x="63.623047"/>
      </g>
     </g>
    </g>
    <g id="ytick_4">
     <g id="line2d_4">
      <g>
       <use xlink:href="#ma5304475ce" x="51.804688" y="141.929661" style="stroke: #000000; stroke-width: 0.8"/>
      </g>
     </g>
     <g id="text_4">
      <!-- 30 -->
      <g transform="translate(25.717188 147.62849)scale(0.15 -0.15)">
       <defs>
        <path id="DejaVuSans-33" d="M 2597 2516 
Q 3050 2419 3304 2112 
Q 3559 1806 3559 1356 
Q 3559 666 3084 287 
Q 2609 -91 1734 -91 
Q 1441 -91 1130 -33 
Q 819 25 488 141 
L 488 750 
Q 750 597 1062 519 
Q 1375 441 1716 441 
Q 2309 441 2620 675 
Q 2931 909 2931 1356 
Q 2931 1769 2642 2001 
Q 2353 2234 1838 2234 
L 1294 2234 
L 1294 2753 
L 1863 2753 
Q 2328 2753 2575 2939 
Q 2822 3125 2822 3475 
Q 2822 3834 2567 4026 
Q 2313 4219 1838 4219 
Q 1578 4219 1281 4162 
Q 984 4106 628 3988 
L 628 4550 
Q 988 4650 1302 4700 
Q 1616 4750 1894 4750 
Q 2613 4750 3031 4423 
Q 3450 4097 3450 3541 
Q 3450 3153 3228 2886 
Q 3006 2619 2597 2516 
z
" transform="scale(0.015625)"/>
       </defs>
       <use xlink:href="#DejaVuSans-33"/>
       <use xlink:href="#DejaVuSans-30" x="63.623047"/>
      </g>
     </g>
    </g>
    <g id="ytick_5">
     <g id="line2d_5">
      <g>
       <use xlink:href="#ma5304475ce" x="51.804688" y="109.671953" style="stroke: #000000; stroke-width: 0.8"/>
      </g>
     </g>
     <g id="text_5">
      <!-- 40 -->
      <g transform="translate(25.717188 115.370781)scale(0.15 -0.15)">
       <defs>
        <path id="DejaVuSans-34" d="M 2419 4116 
L 825 1625 
L 2419 1625 
L 2419 4116 
z
M 2253 4666 
L 3047 4666 
L 3047 1625 
L 3713 1625 
L 3713 1100 
L 3047 1100 
L 3047 0 
L 2419 0 
L 2419 1100 
L 313 1100 
L 313 1709 
L 2253 4666 
z
" transform="scale(0.015625)"/>
       </defs>
       <use xlink:href="#DejaVuSans-34"/>
       <use xlink:href="#DejaVuSans-30" x="63.623047"/>
      </g>
     </g>
    </g>
    <g id="ytick_6">
     <g id="line2d_6">
      <g>
       <use xlink:href="#ma5304475ce" x="51.804688" y="77.414245" style="stroke: #000000; stroke-width: 0.8"/>
      </g>
     </g>
     <g id="text_6">
      <!-- 50 -->
      <g transform="translate(25.717188 83.113073)scale(0.15 -0.15)">
       <defs>
        <path id="DejaVuSans-35" d="M 691 4666 
L 3169 4666 
L 3169 4134 
L 1269 4134 
L 1269 2991 
Q 1406 3038 1543 3061 
Q 1681 3084 1819 3084 
Q 2600 3084 3056 2656 
Q 3513 2228 3513 1497 
Q 3513 744 3044 326 
Q 2575 -91 1722 -91 
Q 1428 -91 1123 -41 
Q 819 9 494 109 
L 494 744 
Q 775 591 1075 516 
Q 1375 441 1709 441 
Q 2250 441 2565 725 
Q 2881 1009 2881 1497 
Q 2881 1984 2565 2268 
Q 2250 2553 1709 2553 
Q 1456 2553 1204 2497 
Q 953 2441 691 2322 
L 691 4666 
z
" transform="scale(0.015625)"/>
       </defs>
       <use xlink:href="#DejaVuSans-35"/>
       <use xlink:href="#DejaVuSans-30" x="63.623047"/>
      </g>
     </g>
    </g>
    <g id="ytick_7">
     <g id="line2d_7">
      <g>
       <use xlink:href="#ma5304475ce" x="51.804688" y="45.156536" style="stroke: #000000; stroke-width: 0.8"/>
      </g>
     </g>
     <g id="text_7">
      <!-- 60 -->
      <g transform="translate(25.717188 50.855365)scale(0.15 -0.15)">
       <defs>
        <path id="DejaVuSans-36" d="M 2113 2584 
Q 1688 2584 1439 2293 
Q 1191 2003 1191 1497 
Q 1191 994 1439 701 
Q 1688 409 2113 409 
Q 2538 409 2786 701 
Q 3034 994 3034 1497 
Q 3034 2003 2786 2293 
Q 2538 2584 2113 2584 
z
M 3366 4563 
L 3366 3988 
Q 3128 4100 2886 4159 
Q 2644 4219 2406 4219 
Q 1781 4219 1451 3797 
Q 1122 3375 1075 2522 
Q 1259 2794 1537 2939 
Q 1816 3084 2150 3084 
Q 2853 3084 3261 2657 
Q 3669 2231 3669 1497 
Q 3669 778 3244 343 
Q 2819 -91 2113 -91 
Q 1303 -91 875 529 
Q 447 1150 447 2328 
Q 447 3434 972 4092 
Q 1497 4750 2381 4750 
Q 2619 4750 2861 4703 
Q 3103 4656 3366 4563 
z
" transform="scale(0.015625)"/>
       </defs>
       <use xlink:href="#DejaVuSans-36"/>
       <use xlink:href="#DejaVuSans-30" x="63.623047"/>
      </g>
     </g>
    </g>
    <g id="ytick_8">
     <g id="line2d_8">
      <g>
       <use xlink:href="#ma5304475ce" x="51.804688" y="12.898828" style="stroke: #000000; stroke-width: 0.8"/>
      </g>
     </g>
     <g id="text_8">
      <!-- 70 -->
      <g transform="translate(25.717188 18.597656)scale(0.15 -0.15)">
       <defs>
        <path id="DejaVuSans-37" d="M 525 4666 
L 3525 4666 
L 3525 4397 
L 1831 0 
L 1172 0 
L 2766 4134 
L 525 4134 
L 525 4666 
z
" transform="scale(0.015625)"/>
       </defs>
       <use xlink:href="#DejaVuSans-37"/>
       <use xlink:href="#DejaVuSans-30" x="63.623047"/>
      </g>
     </g>
    </g>
    <g id="text_9">
     <!-- Transmittance (%) -->
     <g transform="translate(18.597656 202.398828)rotate(-90)scale(0.15 -0.15)">
      <defs>
       <path id="DejaVuSans-54" d="M -19 4666 
L 3928 4666 
L 3928 4134 
L 2272 4134 
L 2272 0 
L 1638 0 
L 1638 4134 
L -19 4134 
L -19 4666 
z
" transform="scale(0.015625)"/>
       <path id="DejaVuSans-72" d="M 2631 2963 
Q 2534 3019 2420 3045 
Q 2306 3072 2169 3072 
Q 1681 3072 1420 2755 
Q 1159 2438 1159 1844 
L 1159 0 
L 581 0 
L 581 3500 
L 1159 3500 
L 1159 2956 
Q 1341 3275 1631 3429 
Q 1922 3584 2338 3584 
Q 2397 3584 2469 3576 
Q 2541 3569 2628 3553 
L 2631 2963 
z
" transform="scale(0.015625)"/>
       <path id="DejaVuSans-61" d="M 2194 1759 
Q 1497 1759 1228 1600 
Q 959 1441 959 1056 
Q 959 750 1161 570 
Q 1363 391 1709 391 
Q 2188 391 2477 730 
Q 2766 1069 2766 1631 
L 2766 1759 
L 2194 1759 
z
M 3341 1997 
L 3341 0 
L 2766 0 
L 2766 531 
Q 2569 213 2275 61 
Q 1981 -91 1556 -91 
Q 1019 -91 701 211 
Q 384 513 384 1019 
Q 384 1609 779 1909 
Q 1175 2209 1959 2209 
L 2766 2209 
L 2766 2266 
Q 2766 2663 2505 2880 
Q 2244 3097 1772 3097 
Q 1472 3097 1187 3025 
Q 903 2953 641 2809 
L 641 3341 
Q 956 3463 1253 3523 
Q 1550 3584 1831 3584 
Q 2591 3584 2966 3190 
Q 3341 2797 3341 1997 
z
" transform="scale(0.015625)"/>
       <path id="DejaVuSans-6e" d="M 3513 2113 
L 3513 0 
L 2938 0 
L 2938 2094 
Q 2938 2591 2744 2837 
Q 2550 3084 2163 3084 
Q 1697 3084 1428 2787 
Q 1159 2491 1159 1978 
L 1159 0 
L 581 0 
L 581 3500 
L 1159 3500 
L 1159 2956 
Q 1366 3272 1645 3428 
Q 1925 3584 2291 3584 
Q 2894 3584 3203 3211 
Q 3513 2838 3513 2113 
z
" transform="scale(0.015625)"/>
       <path id="DejaVuSans-73" d="M 2834 3397 
L 2834 2853 
Q 2591 2978 2328 3040 
Q 2066 3103 1784 3103 
Q 1356 3103 1142 2972 
Q 928 2841 928 2578 
Q 928 2378 1081 2264 
Q 1234 2150 1697 2047 
L 1894 2003 
Q 2506 1872 2764 1633 
Q 3022 1394 3022 966 
Q 3022 478 2636 193 
Q 2250 -91 1575 -91 
Q 1294 -91 989 -36 
Q 684 19 347 128 
L 347 722 
Q 666 556 975 473 
Q 1284 391 1588 391 
Q 1994 391 2212 530 
Q 2431 669 2431 922 
Q 2431 1156 2273 1281 
Q 2116 1406 1581 1522 
L 1381 1569 
Q 847 1681 609 1914 
Q 372 2147 372 2553 
Q 372 3047 722 3315 
Q 1072 3584 1716 3584 
Q 2034 3584 2315 3537 
Q 2597 3491 2834 3397 
z
" transform="scale(0.015625)"/>
       <path id="DejaVuSans-6d" d="M 3328 2828 
Q 3544 3216 3844 3400 
Q 4144 3584 4550 3584 
Q 5097 3584 5394 3201 
Q 5691 2819 5691 2113 
L 5691 0 
L 5113 0 
L 5113 2094 
Q 5113 2597 4934 2840 
Q 4756 3084 4391 3084 
Q 3944 3084 3684 2787 
Q 3425 2491 3425 1978 
L 3425 0 
L 2847 0 
L 2847 2094 
Q 2847 2600 2669 2842 
Q 2491 3084 2119 3084 
Q 1678 3084 1418 2786 
Q 1159 2488 1159 1978 
L 1159 0 
L 581 0 
L 581 3500 
L 1159 3500 
L 1159 2956 
Q 1356 3278 1631 3431 
Q 1906 3584 2284 3584 
Q 2666 3584 2933 3390 
Q 3200 3197 3328 2828 
z
" transform="scale(0.015625)"/>
       <path id="DejaVuSans-69" d="M 603 3500 
L 1178 3500 
L 1178 0 
L 603 0 
L 603 3500 
z
M 603 4863 
L 1178 4863 
L 1178 4134 
L 603 4134 
L 603 4863 
z
" transform="scale(0.015625)"/>
       <path id="DejaVuSans-74" d="M 1172 4494 
L 1172 3500 
L 2356 3500 
L 2356 3053 
L 1172 3053 
L 1172 1153 
Q 1172 725 1289 603 
Q 1406 481 1766 481 
L 2356 481 
L 2356 0 
L 1766 0 
Q 1100 0 847 248 
Q 594 497 594 1153 
L 594 3053 
L 172 3053 
L 172 3500 
L 594 3500 
L 594 4494 
L 1172 4494 
z
" transform="scale(0.015625)"/>
       <path id="DejaVuSans-63" d="M 3122 3366 
L 3122 2828 
Q 2878 2963 2633 3030 
Q 2388 3097 2138 3097 
Q 1578 3097 1268 2742 
Q 959 2388 959 1747 
Q 959 1106 1268 751 
Q 1578 397 2138 397 
Q 2388 397 2633 464 
Q 2878 531 3122 666 
L 3122 134 
Q 2881 22 2623 -34 
Q 2366 -91 2075 -91 
Q 1284 -91 818 406 
Q 353 903 353 1747 
Q 353 2603 823 3093 
Q 1294 3584 2113 3584 
Q 2378 3584 2631 3529 
Q 2884 3475 3122 3366 
z
" transform="scale(0.015625)"/>
       <path id="DejaVuSans-65" d="M 3597 1894 
L 3597 1613 
L 953 1613 
Q 991 1019 1311 708 
Q 1631 397 2203 397 
Q 2534 397 2845 478 
Q 3156 559 3463 722 
L 3463 178 
Q 3153 47 2828 -22 
Q 2503 -91 2169 -91 
Q 1331 -91 842 396 
Q 353 884 353 1716 
Q 353 2575 817 3079 
Q 1281 3584 2069 3584 
Q 2775 3584 3186 3129 
Q 3597 2675 3597 1894 
z
M 3022 2063 
Q 3016 2534 2758 2815 
Q 2500 3097 2075 3097 
Q 1594 3097 1305 2825 
Q 1016 2553 972 2059 
L 3022 2063 
z
" transform="scale(0.015625)"/>
       <path id="DejaVuSans-20" transform="scale(0.015625)"/>
       <path id="DejaVuSans-28" d="M 1984 4856 
Q 1566 4138 1362 3434 
Q 1159 2731 1159 2009 
Q 1159 1288 1364 580 
Q 1569 -128 1984 -844 
L 1484 -844 
Q 1016 -109 783 600 
Q 550 1309 550 2009 
Q 550 2706 781 3412 
Q 1013 4119 1484 4856 
L 1984 4856 
z
" transform="scale(0.015625)"/>
       <path id="DejaVuSans-25" d="M 4653 2053 
Q 4381 2053 4226 1822 
Q 4072 1591 4072 1178 
Q 4072 772 4226 539 
Q 4381 306 4653 306 
Q 4919 306 5073 539 
Q 5228 772 5228 1178 
Q 5228 1588 5073 1820 
Q 4919 2053 4653 2053 
z
M 4653 2450 
Q 5147 2450 5437 2106 
Q 5728 1763 5728 1178 
Q 5728 594 5436 251 
Q 5144 -91 4653 -91 
Q 4153 -91 3862 251 
Q 3572 594 3572 1178 
Q 3572 1766 3864 2108 
Q 4156 2450 4653 2450 
z
M 1428 4353 
Q 1159 4353 1004 4120 
Q 850 3888 850 3481 
Q 850 3069 1003 2837 
Q 1156 2606 1428 2606 
Q 1700 2606 1854 2837 
Q 2009 3069 2009 3481 
Q 2009 3884 1853 4118 
Q 1697 4353 1428 4353 
z
M 4250 4750 
L 4750 4750 
L 1831 -91 
L 1331 -91 
L 4250 4750 
z
M 1428 4750 
Q 1922 4750 2215 4408 
Q 2509 4066 2509 3481 
Q 2509 2891 2217 2550 
Q 1925 2209 1428 2209 
Q 931 2209 642 2551 
Q 353 2894 353 3481 
Q 353 4063 643 4406 
Q 934 4750 1428 4750 
z
" transform="scale(0.015625)"/>
       <path id="DejaVuSans-29" d="M 513 4856 
L 1013 4856 
Q 1481 4119 1714 3412 
Q 1947 2706 1947 2009 
Q 1947 1309 1714 600 
Q 1481 -109 1013 -844 
L 513 -844 
Q 928 -128 1133 580 
Q 1338 1288 1338 2009 
Q 1338 2731 1133 3434 
Q 928 4138 513 4856 
z
" transform="scale(0.015625)"/>
      </defs>
      <use xlink:href="#DejaVuSans-54"/>
      <use xlink:href="#DejaVuSans-72" x="46.333984"/>
      <use xlink:href="#DejaVuSans-61" x="87.447266"/>
      <use xlink:href="#DejaVuSans-6e" x="148.726562"/>
      <use xlink:href="#DejaVuSans-73" x="212.105469"/>
      <use xlink:href="#DejaVuSans-6d" x="264.205078"/>
      <use xlink:href="#DejaVuSans-69" x="361.617188"/>
      <use xlink:href="#DejaVuSans-74" x="389.400391"/>
      <use xlink:href="#DejaVuSans-74" x="428.609375"/>
      <use xlink:href="#DejaVuSans-61" x="467.818359"/>
      <use xlink:href="#DejaVuSans-6e" x="529.097656"/>
      <use xlink:href="#DejaVuSans-63" x="592.476562"/>
      <use xlink:href="#DejaVuSans-65" x="647.457031"/>
      <use xlink:href="#DejaVuSans-20" x="708.980469"/>
      <use xlink:href="#DejaVuSans-28" x="740.767578"/>
      <use xlink:href="#DejaVuSans-25" x="779.78125"/>
      <use xlink:href="#DejaVuSans-29" x="874.800781"/>
     </g>
    </g>
   </g>
   <g id="line2d_9">
    <path d="M -1 45.509932 
L 1.441657 45.479114 
L 4.005134 44.96299 
L 6.576463 45.414598 
L 9.15568 46.833937 
L 11.74282 47.253287 
L 14.337921 46.575876 
L 16.941019 46.543618 
L 19.552151 46.285556 
L 27.434127 47.64038 
L 30.077771 47.156514 
L 32.729638 47.382318 
L 35.389766 48.124246 
L 38.058194 47.737153 
L 40.734961 48.188761 
L 43.420106 48.091988 
L 46.113668 47.479091 
L 48.815688 48.446823 
L 51.526204 48.704884 
L 54.245257 48.608111 
L 56.972888 47.962957 
L 59.709137 49.317781 
L 62.454045 50.253254 
L 67.970002 50.769378 
L 73.521094 49.6081 
L 79.107655 51.188728 
L 81.914344 52.156459 
L 84.730028 51.801624 
L 87.554751 52.317748 
L 90.388558 51.511305 
L 93.23149 51.253243 
L 96.083594 52.446779 
L 101.815491 51.769367 
L 104.695375 52.737098 
L 107.584608 53.479025 
L 110.483238 54.382241 
L 116.308869 54.349983 
L 119.235963 53.962891 
L 122.172638 54.317726 
L 125.118942 55.220941 
L 128.074922 54.769334 
L 131.040625 54.479014 
L 134.0161 54.737076 
L 139.996559 56.446734 
L 143.00164 56.801569 
L 146.016689 55.479003 
L 149.041754 56.22093 
L 152.076886 55.704807 
L 158.177552 58.47897 
L 161.243188 58.446712 
L 164.319094 58.962836 
L 167.405322 59.253155 
L 170.501924 59.414444 
L 173.608951 59.349928 
L 176.726458 60.285402 
L 179.854497 59.382186 
L 182.993122 59.995082 
L 186.142386 60.930556 
L 189.302344 60.478948 
L 192.47305 62.124091 
L 195.654558 63.930523 
L 198.846926 64.414388 
L 205.264458 66.349851 
L 208.489737 68.672406 
L 211.726098 69.349818 
L 214.9736 72.607846 
L 218.232301 74.704597 
L 221.502257 76.672317 
L 224.783529 81.833551 
L 228.076174 86.188341 
L 231.380252 92.96246 
L 238.022945 110.026788 
L 244.71209 133.187822 
L 248.074235 146.832833 
L 258.231701 192.34846 
L 261.641409 206.896686 
L 265.063165 219.573965 
L 268.497034 227.541619 
L 271.94308 234.186707 
L 275.401367 236.702809 
L 278.871961 238.50924 
L 282.354928 239.025364 
L 285.850335 238.186663 
L 289.358247 237.476994 
L 292.878733 237.218932 
L 296.411859 236.767324 
L 299.957694 239.283425 
L 303.516308 236.799582 
L 307.087768 239.606002 
L 310.672145 239.928579 
L 314.269509 240.05761 
L 317.87993 239.928579 
L 321.50348 238.670529 
L 325.140231 238.960848 
L 328.790254 237.573767 
L 332.453623 237.218932 
L 339.820692 238.057632 
L 343.52454 237.057643 
L 347.242031 237.315705 
L 350.973239 237.057643 
L 354.71824 238.057632 
L 358.477112 237.38022 
L 362.249932 238.347952 
L 366.036777 239.089879 
L 369.837726 238.831817 
L 373.652857 239.476971 
L 377.48225 237.444736 
L 381.325986 237.186674 
L 385.184145 238.347952 
L 389.056808 237.67054 
L 392.944057 239.21891 
L 396.845976 238.767302 
L 404.694152 237.38022 
L 408.640579 239.21891 
L 412.602011 238.347952 
L 416.578534 238.315694 
L 420.570235 239.057621 
L 424.5772 237.186674 
L 428.599518 238.347952 
L 432.637277 238.735044 
L 436.690565 237.541509 
L 440.759473 239.283425 
L 444.844091 237.476994 
L 448.94451 239.476971 
L 453.060822 239.509229 
L 457.19312 239.380198 
L 461.341497 238.186663 
L 465.506047 237.476994 
L 469.686865 239.896322 
L 473.884046 240.605991 
L 478.097687 240.605991 
L 482.327884 239.767291 
L 486.574735 240.735022 
L 490.83834 239.896322 
L 495.118796 238.476982 
L 499.416205 239.735033 
L 503.730667 240.76728 
L 508.062284 239.960837 
L 512.411158 240.05761 
L 516.777394 239.186652 
L 525.562364 240.509218 
L 534.418038 241.283403 
L 538.872656 239.476971 
L 543.345273 240.928568 
L 547.835998 240.47696 
L 552.34494 240.47696 
L 556.872212 241.380176 
L 559 240.625206 
L 559 240.625206 
" clip-path="url(#p2b21a5c967)" style="fill: none; stroke: #01adc1; stroke-width: 2; stroke-linecap: square"/>
   </g>
   <g id="patch_3">
    <path d="M 51.804688 254.831641 
L 51.804688 12.898828 
" style="fill: none; stroke: #000000; stroke-width: 0.8; stroke-linejoin: miter; stroke-linecap: square"/>
   </g>
   <g id="patch_4">
    <path d="M 538.872656 254.831641 
L 538.872656 12.898828 
" style="fill: none; stroke: #000000; stroke-width: 0.8; stroke-linejoin: miter; stroke-linecap: square"/>
   </g>
   <g id="patch_5">
    <path d="M 51.804687 254.831641 
L 538.872656 254.831641 
" style="fill: none; stroke: #000000; stroke-width: 0.8; stroke-linejoin: miter; stroke-linecap: square"/>
   </g>
   <g id="patch_6">
    <path d="M 51.804687 12.898828 
L 538.872656 12.898828 
" style="fill: none; stroke: #000000; stroke-width: 0.8; stroke-linejoin: miter; stroke-linecap: square"/>
   </g>
  </g>
  <g id="axes_2">
   <g id="patch_7">
    <path d="M 51.804688 516.464453 
L 538.872656 516.464453 
L 538.872656 274.531641 
L 51.804688 274.531641 
z
" style="fill: #ffffff"/>
   </g>
   <g id="matplotlib.axis_3">
    <g id="xtick_1">
     <g id="line2d_10">
      <defs>
       <path id="mafad65045d" d="M 0 0 
L 0 3.5 
" style="stroke: #000000; stroke-width: 0.8"/>
      </defs>
      <g>
       <use xlink:href="#mafad65045d" x="96.083594" y="516.464453" style="stroke: #000000; stroke-width: 0.8"/>
      </g>
     </g>
     <g id="text_10">
      <!-- 2.0 -->
      <g transform="translate(84.15625 534.862109)scale(0.15 -0.15)">
       <defs>
        <path id="DejaVuSans-2e" d="M 684 794 
L 1344 794 
L 1344 0 
L 684 0 
L 684 794 
z
" transform="scale(0.015625)"/>
       </defs>
       <use xlink:href="#DejaVuSans-32"/>
       <use xlink:href="#DejaVuSans-2e" x="63.623047"/>
       <use xlink:href="#DejaVuSans-30" x="95.410156"/>
      </g>
     </g>
    </g>
    <g id="xtick_2">
     <g id="line2d_11">
      <g>
       <use xlink:href="#mafad65045d" x="184.641406" y="516.464453" style="stroke: #000000; stroke-width: 0.8"/>
      </g>
     </g>
     <g id="text_11">
      <!-- 2.1 -->
      <g transform="translate(172.714063 534.862109)scale(0.15 -0.15)">
       <use xlink:href="#DejaVuSans-32"/>
       <use xlink:href="#DejaVuSans-2e" x="63.623047"/>
       <use xlink:href="#DejaVuSans-31" x="95.410156"/>
      </g>
     </g>
    </g>
    <g id="xtick_3">
     <g id="line2d_12">
      <g>
       <use xlink:href="#mafad65045d" x="273.199219" y="516.464453" style="stroke: #000000; stroke-width: 0.8"/>
      </g>
     </g>
     <g id="text_12">
      <!-- 2.2 -->
      <g transform="translate(261.271875 534.862109)scale(0.15 -0.15)">
       <use xlink:href="#DejaVuSans-32"/>
       <use xlink:href="#DejaVuSans-2e" x="63.623047"/>
       <use xlink:href="#DejaVuSans-32" x="95.410156"/>
      </g>
     </g>
    </g>
    <g id="xtick_4">
     <g id="line2d_13">
      <g>
       <use xlink:href="#mafad65045d" x="361.757031" y="516.464453" style="stroke: #000000; stroke-width: 0.8"/>
      </g>
     </g>
     <g id="text_13">
      <!-- 2.3 -->
      <g transform="translate(349.829687 534.862109)scale(0.15 -0.15)">
       <use xlink:href="#DejaVuSans-32"/>
       <use xlink:href="#DejaVuSans-2e" x="63.623047"/>
       <use xlink:href="#DejaVuSans-33" x="95.410156"/>
      </g>
     </g>
    </g>
    <g id="xtick_5">
     <g id="line2d_14">
      <g>
       <use xlink:href="#mafad65045d" x="450.314844" y="516.464453" style="stroke: #000000; stroke-width: 0.8"/>
      </g>
     </g>
     <g id="text_14">
      <!-- 2.4 -->
      <g transform="translate(438.3875 534.862109)scale(0.15 -0.15)">
       <use xlink:href="#DejaVuSans-32"/>
       <use xlink:href="#DejaVuSans-2e" x="63.623047"/>
       <use xlink:href="#DejaVuSans-34" x="95.410156"/>
      </g>
     </g>
    </g>
    <g id="xtick_6">
     <g id="line2d_15">
      <g>
       <use xlink:href="#mafad65045d" x="538.872656" y="516.464453" style="stroke: #000000; stroke-width: 0.8"/>
      </g>
     </g>
     <g id="text_15">
      <!-- 2.5 -->
      <g transform="translate(526.945313 534.862109)scale(0.15 -0.15)">
       <use xlink:href="#DejaVuSans-32"/>
       <use xlink:href="#DejaVuSans-2e" x="63.623047"/>
       <use xlink:href="#DejaVuSans-35" x="95.410156"/>
      </g>
     </g>
    </g>
    <g id="text_16">
     <!-- Energy (eV) -->
     <g transform="translate(251.098047 553.379297)scale(0.15 -0.15)">
      <defs>
       <path id="DejaVuSans-45" d="M 628 4666 
L 3578 4666 
L 3578 4134 
L 1259 4134 
L 1259 2753 
L 3481 2753 
L 3481 2222 
L 1259 2222 
L 1259 531 
L 3634 531 
L 3634 0 
L 628 0 
L 628 4666 
z
" transform="scale(0.015625)"/>
       <path id="DejaVuSans-67" d="M 2906 1791 
Q 2906 2416 2648 2759 
Q 2391 3103 1925 3103 
Q 1463 3103 1205 2759 
Q 947 2416 947 1791 
Q 947 1169 1205 825 
Q 1463 481 1925 481 
Q 2391 481 2648 825 
Q 2906 1169 2906 1791 
z
M 3481 434 
Q 3481 -459 3084 -895 
Q 2688 -1331 1869 -1331 
Q 1566 -1331 1297 -1286 
Q 1028 -1241 775 -1147 
L 775 -588 
Q 1028 -725 1275 -790 
Q 1522 -856 1778 -856 
Q 2344 -856 2625 -561 
Q 2906 -266 2906 331 
L 2906 616 
Q 2728 306 2450 153 
Q 2172 0 1784 0 
Q 1141 0 747 490 
Q 353 981 353 1791 
Q 353 2603 747 3093 
Q 1141 3584 1784 3584 
Q 2172 3584 2450 3431 
Q 2728 3278 2906 2969 
L 2906 3500 
L 3481 3500 
L 3481 434 
z
" transform="scale(0.015625)"/>
       <path id="DejaVuSans-79" d="M 2059 -325 
Q 1816 -950 1584 -1140 
Q 1353 -1331 966 -1331 
L 506 -1331 
L 506 -850 
L 844 -850 
Q 1081 -850 1212 -737 
Q 1344 -625 1503 -206 
L 1606 56 
L 191 3500 
L 800 3500 
L 1894 763 
L 2988 3500 
L 3597 3500 
L 2059 -325 
z
" transform="scale(0.015625)"/>
       <path id="DejaVuSans-56" d="M 1831 0 
L 50 4666 
L 709 4666 
L 2188 738 
L 3669 4666 
L 4325 4666 
L 2547 0 
L 1831 0 
z
" transform="scale(0.015625)"/>
      </defs>
      <use xlink:href="#DejaVuSans-45"/>
      <use xlink:href="#DejaVuSans-6e" x="63.183594"/>
      <use xlink:href="#DejaVuSans-65" x="126.5625"/>
      <use xlink:href="#DejaVuSans-72" x="188.085938"/>
      <use xlink:href="#DejaVuSans-67" x="227.449219"/>
      <use xlink:href="#DejaVuSans-79" x="290.925781"/>
      <use xlink:href="#DejaVuSans-20" x="350.105469"/>
      <use xlink:href="#DejaVuSans-28" x="381.892578"/>
      <use xlink:href="#DejaVuSans-65" x="420.90625"/>
      <use xlink:href="#DejaVuSans-56" x="482.429688"/>
      <use xlink:href="#DejaVuSans-29" x="550.837891"/>
     </g>
    </g>
   </g>
   <g id="matplotlib.axis_4">
    <g id="text_17">
     <!-- Intensity (a.u.) -->
     <g transform="translate(41.185156 450.494141)rotate(-90)scale(0.15 -0.15)">
      <defs>
       <path id="DejaVuSans-49" d="M 628 4666 
L 1259 4666 
L 1259 0 
L 628 0 
L 628 4666 
z
" transform="scale(0.015625)"/>
       <path id="DejaVuSans-75" d="M 544 1381 
L 544 3500 
L 1119 3500 
L 1119 1403 
Q 1119 906 1312 657 
Q 1506 409 1894 409 
Q 2359 409 2629 706 
Q 2900 1003 2900 1516 
L 2900 3500 
L 3475 3500 
L 3475 0 
L 2900 0 
L 2900 538 
Q 2691 219 2414 64 
Q 2138 -91 1772 -91 
Q 1169 -91 856 284 
Q 544 659 544 1381 
z
M 1991 3584 
L 1991 3584 
z
" transform="scale(0.015625)"/>
      </defs>
      <use xlink:href="#DejaVuSans-49"/>
      <use xlink:href="#DejaVuSans-6e" x="29.492188"/>
      <use xlink:href="#DejaVuSans-74" x="92.871094"/>
      <use xlink:href="#DejaVuSans-65" x="132.080078"/>
      <use xlink:href="#DejaVuSans-6e" x="193.603516"/>
      <use xlink:href="#DejaVuSans-73" x="256.982422"/>
      <use xlink:href="#DejaVuSans-69" x="309.082031"/>
      <use xlink:href="#DejaVuSans-74" x="336.865234"/>
      <use xlink:href="#DejaVuSans-79" x="376.074219"/>
      <use xlink:href="#DejaVuSans-20" x="435.253906"/>
      <use xlink:href="#DejaVuSans-28" x="467.041016"/>
      <use xlink:href="#DejaVuSans-61" x="506.054688"/>
      <use xlink:href="#DejaVuSans-2e" x="567.333984"/>
      <use xlink:href="#DejaVuSans-75" x="599.121094"/>
      <use xlink:href="#DejaVuSans-2e" x="662.5"/>
      <use xlink:href="#DejaVuSans-29" x="694.287109"/>
     </g>
    </g>
   </g>
   <g id="line2d_16">
    <path d="M 559 505.313962 
L 547.835998 505.234177 
L 534.418038 505.097912 
L 521.161094 504.873915 
L 508.062284 504.431521 
L 495.118796 503.705397 
L 482.327884 502.473414 
L 469.686865 500.405175 
L 457.19312 496.991087 
L 444.844091 491.387429 
L 432.637277 481.628626 
L 420.570235 466.523762 
L 408.640579 444.461924 
L 396.845976 412.43222 
L 385.184145 372.592487 
L 373.652857 330.464251 
L 362.249932 298.841475 
L 350.973239 285.528587 
L 339.820692 296.711637 
L 328.790254 325.428052 
L 317.87993 362.234492 
L 307.087768 396.074839 
L 296.411859 425.690976 
L 285.850335 447.106956 
L 275.401367 467.511216 
L 265.063165 478.309738 
L 254.833978 485.649373 
L 244.71209 491.167165 
L 234.695822 495.040447 
L 224.783529 497.864676 
L 214.9736 499.81345 
L 205.264458 501.306763 
L 195.654558 502.391282 
L 186.142386 503.104339 
L 176.726458 503.686731 
L 167.405322 504.114192 
L 158.177552 504.448321 
L 149.041754 504.661118 
L 139.996559 504.853382 
L 131.040625 504.991513 
L 122.172638 505.088579 
L 113.39131 505.142711 
L 104.695375 505.234177 
L 96.083594 505.301376 
L 87.554751 505.331242 
L 79.107655 505.359242 
L 70.741135 505.377908 
L 62.454045 505.394708 
L 54.245257 505.407775 
L 46.113668 505.426441 
L 38.058194 505.458174 
L 30.077771 505.441374 
L 22.171355 505.437641 
" clip-path="url(#pcc2f86c8c7)" style="fill: none; stroke: #ff0000; stroke-width: 2; stroke-linecap: square"/>
    <defs>
     <path id="m66d912c36f" d="M 0 3 
C 0.795609 3 1.55874 2.683901 2.12132 2.12132 
C 2.683901 1.55874 3 0.795609 3 0 
C 3 -0.795609 2.683901 -1.55874 2.12132 -2.12132 
C 1.55874 -2.683901 0.795609 -3 0 -3 
C -0.795609 -3 -1.55874 -2.683901 -2.12132 -2.12132 
C -2.683901 -1.55874 -3 -0.795609 -3 0 
C -3 0.795609 -2.683901 1.55874 -2.12132 2.12132 
C -1.55874 2.683901 -0.795609 3 0 3 
z
" style="stroke: #ff0000"/>
    </defs>
    <g clip-path="url(#pcc2f86c8c7)">
     <use xlink:href="#m66d912c36f" x="754.389457" y="505.456307" style="fill: #ff0000; stroke: #ff0000"/>
     <use xlink:href="#m66d912c36f" x="738.371025" y="505.432041" style="fill: #ff0000; stroke: #ff0000"/>
     <use xlink:href="#m66d912c36f" x="722.562442" y="505.437641" style="fill: #ff0000; stroke: #ff0000"/>
     <use xlink:href="#m66d912c36f" x="706.959611" y="505.432041" style="fill: #ff0000; stroke: #ff0000"/>
     <use xlink:href="#m66d912c36f" x="691.55854" y="505.432041" style="fill: #ff0000; stroke: #ff0000"/>
     <use xlink:href="#m66d912c36f" x="676.355342" y="505.461907" style="fill: #ff0000; stroke: #ff0000"/>
     <use xlink:href="#m66d912c36f" x="661.346227" y="505.456307" style="fill: #ff0000; stroke: #ff0000"/>
     <use xlink:href="#m66d912c36f" x="646.527502" y="505.467507" style="fill: #ff0000; stroke: #ff0000"/>
     <use xlink:href="#m66d912c36f" x="631.895569" y="505.467507" style="fill: #ff0000; stroke: #ff0000"/>
     <use xlink:href="#m66d912c36f" x="617.446916" y="505.454441" style="fill: #ff0000; stroke: #ff0000"/>
     <use xlink:href="#m66d912c36f" x="603.178122" y="505.458174" style="fill: #ff0000; stroke: #ff0000"/>
     <use xlink:href="#m66d912c36f" x="589.085849" y="505.467507" style="fill: #ff0000; stroke: #ff0000"/>
     <use xlink:href="#m66d912c36f" x="575.166842" y="505.417108" style="fill: #ff0000; stroke: #ff0000"/>
     <use xlink:href="#m66d912c36f" x="561.417924" y="505.331242" style="fill: #ff0000; stroke: #ff0000"/>
     <use xlink:href="#m66d912c36f" x="547.835998" y="505.234177" style="fill: #ff0000; stroke: #ff0000"/>
     <use xlink:href="#m66d912c36f" x="534.418038" y="505.097912" style="fill: #ff0000; stroke: #ff0000"/>
     <use xlink:href="#m66d912c36f" x="521.161094" y="504.873915" style="fill: #ff0000; stroke: #ff0000"/>
     <use xlink:href="#m66d912c36f" x="508.062284" y="504.431521" style="fill: #ff0000; stroke: #ff0000"/>
     <use xlink:href="#m66d912c36f" x="495.118796" y="503.705397" style="fill: #ff0000; stroke: #ff0000"/>
     <use xlink:href="#m66d912c36f" x="482.327884" y="502.473414" style="fill: #ff0000; stroke: #ff0000"/>
     <use xlink:href="#m66d912c36f" x="469.686865" y="500.405175" style="fill: #ff0000; stroke: #ff0000"/>
     <use xlink:href="#m66d912c36f" x="457.19312" y="496.991087" style="fill: #ff0000; stroke: #ff0000"/>
     <use xlink:href="#m66d912c36f" x="444.844091" y="491.387429" style="fill: #ff0000; stroke: #ff0000"/>
     <use xlink:href="#m66d912c36f" x="432.637277" y="481.628626" style="fill: #ff0000; stroke: #ff0000"/>
     <use xlink:href="#m66d912c36f" x="420.570235" y="466.523762" style="fill: #ff0000; stroke: #ff0000"/>
     <use xlink:href="#m66d912c36f" x="408.640579" y="444.461924" style="fill: #ff0000; stroke: #ff0000"/>
     <use xlink:href="#m66d912c36f" x="396.845976" y="412.43222" style="fill: #ff0000; stroke: #ff0000"/>
     <use xlink:href="#m66d912c36f" x="385.184145" y="372.592487" style="fill: #ff0000; stroke: #ff0000"/>
     <use xlink:href="#m66d912c36f" x="373.652857" y="330.464251" style="fill: #ff0000; stroke: #ff0000"/>
     <use xlink:href="#m66d912c36f" x="362.249932" y="298.841475" style="fill: #ff0000; stroke: #ff0000"/>
     <use xlink:href="#m66d912c36f" x="350.973239" y="285.528587" style="fill: #ff0000; stroke: #ff0000"/>
     <use xlink:href="#m66d912c36f" x="339.820692" y="296.711637" style="fill: #ff0000; stroke: #ff0000"/>
     <use xlink:href="#m66d912c36f" x="328.790254" y="325.428052" style="fill: #ff0000; stroke: #ff0000"/>
     <use xlink:href="#m66d912c36f" x="317.87993" y="362.234492" style="fill: #ff0000; stroke: #ff0000"/>
     <use xlink:href="#m66d912c36f" x="307.087768" y="396.074839" style="fill: #ff0000; stroke: #ff0000"/>
     <use xlink:href="#m66d912c36f" x="296.411859" y="425.690976" style="fill: #ff0000; stroke: #ff0000"/>
     <use xlink:href="#m66d912c36f" x="285.850335" y="447.106956" style="fill: #ff0000; stroke: #ff0000"/>
     <use xlink:href="#m66d912c36f" x="275.401367" y="467.511216" style="fill: #ff0000; stroke: #ff0000"/>
     <use xlink:href="#m66d912c36f" x="265.063165" y="478.309738" style="fill: #ff0000; stroke: #ff0000"/>
     <use xlink:href="#m66d912c36f" x="254.833978" y="485.649373" style="fill: #ff0000; stroke: #ff0000"/>
     <use xlink:href="#m66d912c36f" x="244.71209" y="491.167165" style="fill: #ff0000; stroke: #ff0000"/>
     <use xlink:href="#m66d912c36f" x="234.695822" y="495.040447" style="fill: #ff0000; stroke: #ff0000"/>
     <use xlink:href="#m66d912c36f" x="224.783529" y="497.864676" style="fill: #ff0000; stroke: #ff0000"/>
     <use xlink:href="#m66d912c36f" x="214.9736" y="499.81345" style="fill: #ff0000; stroke: #ff0000"/>
     <use xlink:href="#m66d912c36f" x="205.264458" y="501.306763" style="fill: #ff0000; stroke: #ff0000"/>
     <use xlink:href="#m66d912c36f" x="195.654558" y="502.391282" style="fill: #ff0000; stroke: #ff0000"/>
     <use xlink:href="#m66d912c36f" x="186.142386" y="503.104339" style="fill: #ff0000; stroke: #ff0000"/>
     <use xlink:href="#m66d912c36f" x="176.726458" y="503.686731" style="fill: #ff0000; stroke: #ff0000"/>
     <use xlink:href="#m66d912c36f" x="167.405322" y="504.114192" style="fill: #ff0000; stroke: #ff0000"/>
     <use xlink:href="#m66d912c36f" x="158.177552" y="504.448321" style="fill: #ff0000; stroke: #ff0000"/>
     <use xlink:href="#m66d912c36f" x="149.041754" y="504.661118" style="fill: #ff0000; stroke: #ff0000"/>
     <use xlink:href="#m66d912c36f" x="139.996559" y="504.853382" style="fill: #ff0000; stroke: #ff0000"/>
     <use xlink:href="#m66d912c36f" x="131.040625" y="504.991513" style="fill: #ff0000; stroke: #ff0000"/>
     <use xlink:href="#m66d912c36f" x="122.172638" y="505.088579" style="fill: #ff0000; stroke: #ff0000"/>
     <use xlink:href="#m66d912c36f" x="113.39131" y="505.142711" style="fill: #ff0000; stroke: #ff0000"/>
     <use xlink:href="#m66d912c36f" x="104.695375" y="505.234177" style="fill: #ff0000; stroke: #ff0000"/>
     <use xlink:href="#m66d912c36f" x="96.083594" y="505.301376" style="fill: #ff0000; stroke: #ff0000"/>
     <use xlink:href="#m66d912c36f" x="87.554751" y="505.331242" style="fill: #ff0000; stroke: #ff0000"/>
     <use xlink:href="#m66d912c36f" x="79.107655" y="505.359242" style="fill: #ff0000; stroke: #ff0000"/>
     <use xlink:href="#m66d912c36f" x="70.741135" y="505.377908" style="fill: #ff0000; stroke: #ff0000"/>
     <use xlink:href="#m66d912c36f" x="62.454045" y="505.394708" style="fill: #ff0000; stroke: #ff0000"/>
     <use xlink:href="#m66d912c36f" x="54.245257" y="505.407775" style="fill: #ff0000; stroke: #ff0000"/>
     <use xlink:href="#m66d912c36f" x="46.113668" y="505.426441" style="fill: #ff0000; stroke: #ff0000"/>
     <use xlink:href="#m66d912c36f" x="38.058194" y="505.458174" style="fill: #ff0000; stroke: #ff0000"/>
     <use xlink:href="#m66d912c36f" x="30.077771" y="505.441374" style="fill: #ff0000; stroke: #ff0000"/>
     <use xlink:href="#m66d912c36f" x="22.171355" y="505.437641" style="fill: #ff0000; stroke: #ff0000"/>
    </g>
   </g>
   <g id="line2d_17">
    <path d="M 559 504.890502 
L 547.835998 504.89472 
L 534.418038 504.874194 
L 521.161094 504.91268 
L 508.062284 504.899851 
L 495.118796 504.881891 
L 482.327884 504.925509 
L 469.686865 504.902417 
L 457.19312 504.89472 
L 444.844091 504.86393 
L 432.637277 504.910114 
L 420.570235 504.915246 
L 408.640579 504.91268 
L 396.845976 504.915246 
L 385.184145 504.876759 
L 373.652857 504.871628 
L 362.249932 504.866496 
L 350.973239 504.815181 
L 339.820692 504.776694 
L 328.790254 504.817746 
L 317.87993 504.661234 
L 307.087768 501.238489 
L 296.411859 466.615911 
L 285.850335 378.042764 
L 275.401367 294.968076 
L 265.063165 285.528587 
L 254.833978 312.251142 
L 244.71209 350.812186 
L 234.695822 385.950485 
L 224.783529 413.801982 
L 214.9736 436.231994 
L 205.264458 451.721582 
L 195.654558 464.450396 
L 186.142386 473.399822 
L 176.726458 480.560902 
L 167.405322 486.333898 
L 158.177552 490.31085 
L 149.041754 493.210177 
L 139.996559 495.755426 
L 131.040625 497.623311 
L 122.172638 499.003699 
L 113.39131 500.101851 
L 104.695375 501.099937 
L 96.083594 501.725987 
L 87.554751 502.249405 
L 79.107655 502.716376 
L 70.741135 503.070453 
L 62.454045 503.347557 
L 54.245257 503.552819 
L 46.113668 503.72216 
L 38.058194 503.842752 
L 30.077771 503.986435 
L 22.171355 504.107027 
" clip-path="url(#pcc2f86c8c7)" style="fill: none; stroke: #008000; stroke-width: 2; stroke-linecap: square"/>
    <defs>
     <path id="mdd3e61f0fa" d="M 0 -3 
L -3 3 
L 3 3 
z
" style="stroke: #008000; stroke-linejoin: miter"/>
    </defs>
    <g clip-path="url(#pcc2f86c8c7)">
     <use xlink:href="#mdd3e61f0fa" x="603.178122" y="504.843404" style="fill: #008000; stroke: #008000; stroke-linejoin: miter"/>
     <use xlink:href="#mdd3e61f0fa" x="589.085849" y="504.851102" style="fill: #008000; stroke: #008000; stroke-linejoin: miter"/>
     <use xlink:href="#mdd3e61f0fa" x="575.166842" y="504.866496" style="fill: #008000; stroke: #008000; stroke-linejoin: miter"/>
     <use xlink:href="#mdd3e61f0fa" x="561.417924" y="504.889588" style="fill: #008000; stroke: #008000; stroke-linejoin: miter"/>
     <use xlink:href="#mdd3e61f0fa" x="547.835998" y="504.89472" style="fill: #008000; stroke: #008000; stroke-linejoin: miter"/>
     <use xlink:href="#mdd3e61f0fa" x="534.418038" y="504.874194" style="fill: #008000; stroke: #008000; stroke-linejoin: miter"/>
     <use xlink:href="#mdd3e61f0fa" x="521.161094" y="504.91268" style="fill: #008000; stroke: #008000; stroke-linejoin: miter"/>
     <use xlink:href="#mdd3e61f0fa" x="508.062284" y="504.899851" style="fill: #008000; stroke: #008000; stroke-linejoin: miter"/>
     <use xlink:href="#mdd3e61f0fa" x="495.118796" y="504.881891" style="fill: #008000; stroke: #008000; stroke-linejoin: miter"/>
     <use xlink:href="#mdd3e61f0fa" x="482.327884" y="504.925509" style="fill: #008000; stroke: #008000; stroke-linejoin: miter"/>
     <use xlink:href="#mdd3e61f0fa" x="469.686865" y="504.902417" style="fill: #008000; stroke: #008000; stroke-linejoin: miter"/>
     <use xlink:href="#mdd3e61f0fa" x="457.19312" y="504.89472" style="fill: #008000; stroke: #008000; stroke-linejoin: miter"/>
     <use xlink:href="#mdd3e61f0fa" x="444.844091" y="504.86393" style="fill: #008000; stroke: #008000; stroke-linejoin: miter"/>
     <use xlink:href="#mdd3e61f0fa" x="432.637277" y="504.910114" style="fill: #008000; stroke: #008000; stroke-linejoin: miter"/>
     <use xlink:href="#mdd3e61f0fa" x="420.570235" y="504.915246" style="fill: #008000; stroke: #008000; stroke-linejoin: miter"/>
     <use xlink:href="#mdd3e61f0fa" x="408.640579" y="504.91268" style="fill: #008000; stroke: #008000; stroke-linejoin: miter"/>
     <use xlink:href="#mdd3e61f0fa" x="396.845976" y="504.915246" style="fill: #008000; stroke: #008000; stroke-linejoin: miter"/>
     <use xlink:href="#mdd3e61f0fa" x="385.184145" y="504.876759" style="fill: #008000; stroke: #008000; stroke-linejoin: miter"/>
     <use xlink:href="#mdd3e61f0fa" x="373.652857" y="504.871628" style="fill: #008000; stroke: #008000; stroke-linejoin: miter"/>
     <use xlink:href="#mdd3e61f0fa" x="362.249932" y="504.866496" style="fill: #008000; stroke: #008000; stroke-linejoin: miter"/>
     <use xlink:href="#mdd3e61f0fa" x="350.973239" y="504.815181" style="fill: #008000; stroke: #008000; stroke-linejoin: miter"/>
     <use xlink:href="#mdd3e61f0fa" x="339.820692" y="504.776694" style="fill: #008000; stroke: #008000; stroke-linejoin: miter"/>
     <use xlink:href="#mdd3e61f0fa" x="328.790254" y="504.817746" style="fill: #008000; stroke: #008000; stroke-linejoin: miter"/>
     <use xlink:href="#mdd3e61f0fa" x="317.87993" y="504.661234" style="fill: #008000; stroke: #008000; stroke-linejoin: miter"/>
     <use xlink:href="#mdd3e61f0fa" x="307.087768" y="501.238489" style="fill: #008000; stroke: #008000; stroke-linejoin: miter"/>
     <use xlink:href="#mdd3e61f0fa" x="296.411859" y="466.615911" style="fill: #008000; stroke: #008000; stroke-linejoin: miter"/>
     <use xlink:href="#mdd3e61f0fa" x="285.850335" y="378.042764" style="fill: #008000; stroke: #008000; stroke-linejoin: miter"/>
     <use xlink:href="#mdd3e61f0fa" x="275.401367" y="294.968076" style="fill: #008000; stroke: #008000; stroke-linejoin: miter"/>
     <use xlink:href="#mdd3e61f0fa" x="265.063165" y="285.528587" style="fill: #008000; stroke: #008000; stroke-linejoin: miter"/>
     <use xlink:href="#mdd3e61f0fa" x="254.833978" y="312.251142" style="fill: #008000; stroke: #008000; stroke-linejoin: miter"/>
     <use xlink:href="#mdd3e61f0fa" x="244.71209" y="350.812186" style="fill: #008000; stroke: #008000; stroke-linejoin: miter"/>
     <use xlink:href="#mdd3e61f0fa" x="234.695822" y="385.950485" style="fill: #008000; stroke: #008000; stroke-linejoin: miter"/>
     <use xlink:href="#mdd3e61f0fa" x="224.783529" y="413.801982" style="fill: #008000; stroke: #008000; stroke-linejoin: miter"/>
     <use xlink:href="#mdd3e61f0fa" x="214.9736" y="436.231994" style="fill: #008000; stroke: #008000; stroke-linejoin: miter"/>
     <use xlink:href="#mdd3e61f0fa" x="205.264458" y="451.721582" style="fill: #008000; stroke: #008000; stroke-linejoin: miter"/>
     <use xlink:href="#mdd3e61f0fa" x="195.654558" y="464.450396" style="fill: #008000; stroke: #008000; stroke-linejoin: miter"/>
     <use xlink:href="#mdd3e61f0fa" x="186.142386" y="473.399822" style="fill: #008000; stroke: #008000; stroke-linejoin: miter"/>
     <use xlink:href="#mdd3e61f0fa" x="176.726458" y="480.560902" style="fill: #008000; stroke: #008000; stroke-linejoin: miter"/>
     <use xlink:href="#mdd3e61f0fa" x="167.405322" y="486.333898" style="fill: #008000; stroke: #008000; stroke-linejoin: miter"/>
     <use xlink:href="#mdd3e61f0fa" x="158.177552" y="490.31085" style="fill: #008000; stroke: #008000; stroke-linejoin: miter"/>
     <use xlink:href="#mdd3e61f0fa" x="149.041754" y="493.210177" style="fill: #008000; stroke: #008000; stroke-linejoin: miter"/>
     <use xlink:href="#mdd3e61f0fa" x="139.996559" y="495.755426" style="fill: #008000; stroke: #008000; stroke-linejoin: miter"/>
     <use xlink:href="#mdd3e61f0fa" x="131.040625" y="497.623311" style="fill: #008000; stroke: #008000; stroke-linejoin: miter"/>
     <use xlink:href="#mdd3e61f0fa" x="122.172638" y="499.003699" style="fill: #008000; stroke: #008000; stroke-linejoin: miter"/>
     <use xlink:href="#mdd3e61f0fa" x="113.39131" y="500.101851" style="fill: #008000; stroke: #008000; stroke-linejoin: miter"/>
     <use xlink:href="#mdd3e61f0fa" x="104.695375" y="501.099937" style="fill: #008000; stroke: #008000; stroke-linejoin: miter"/>
     <use xlink:href="#mdd3e61f0fa" x="96.083594" y="501.725987" style="fill: #008000; stroke: #008000; stroke-linejoin: miter"/>
     <use xlink:href="#mdd3e61f0fa" x="87.554751" y="502.249405" style="fill: #008000; stroke: #008000; stroke-linejoin: miter"/>
     <use xlink:href="#mdd3e61f0fa" x="79.107655" y="502.716376" style="fill: #008000; stroke: #008000; stroke-linejoin: miter"/>
     <use xlink:href="#mdd3e61f0fa" x="70.741135" y="503.070453" style="fill: #008000; stroke: #008000; stroke-linejoin: miter"/>
     <use xlink:href="#mdd3e61f0fa" x="62.454045" y="503.347557" style="fill: #008000; stroke: #008000; stroke-linejoin: miter"/>
     <use xlink:href="#mdd3e61f0fa" x="54.245257" y="503.552819" style="fill: #008000; stroke: #008000; stroke-linejoin: miter"/>
     <use xlink:href="#mdd3e61f0fa" x="46.113668" y="503.72216" style="fill: #008000; stroke: #008000; stroke-linejoin: miter"/>
     <use xlink:href="#mdd3e61f0fa" x="38.058194" y="503.842752" style="fill: #008000; stroke: #008000; stroke-linejoin: miter"/>
     <use xlink:href="#mdd3e61f0fa" x="30.077771" y="503.986435" style="fill: #008000; stroke: #008000; stroke-linejoin: miter"/>
     <use xlink:href="#mdd3e61f0fa" x="22.171355" y="504.107027" style="fill: #008000; stroke: #008000; stroke-linejoin: miter"/>
    </g>
   </g>
   <g id="patch_8">
    <path d="M 51.804688 516.464453 
L 51.804688 274.531641 
" style="fill: none; stroke: #000000; stroke-width: 0.8; stroke-linejoin: miter; stroke-linecap: square"/>
   </g>
   <g id="patch_9">
    <path d="M 538.872656 516.464453 
L 538.872656 274.531641 
" style="fill: none; stroke: #000000; stroke-width: 0.8; stroke-linejoin: miter; stroke-linecap: square"/>
   </g>
   <g id="patch_10">
    <path d="M 51.804687 516.464453 
L 538.872656 516.464453 
" style="fill: none; stroke: #000000; stroke-width: 0.8; stroke-linejoin: miter; stroke-linecap: square"/>
   </g>
   <g id="patch_11">
    <path d="M 51.804687 274.531641 
L 538.872656 274.531641 
" style="fill: none; stroke: #000000; stroke-width: 0.8; stroke-linejoin: miter; stroke-linecap: square"/>
   </g>
   <g id="legend_1">
    <g id="line2d_18">
     <path d="M 433.024219 294.179297 
L 448.024219 294.179297 
L 463.024219 294.179297 
" style="fill: none; stroke: #ff0000; stroke-width: 2; stroke-linecap: square"/>
     <g>
      <use xlink:href="#m66d912c36f" x="448.024219" y="294.179297" style="fill: #ff0000; stroke: #ff0000"/>
     </g>
    </g>
    <g id="text_18">
     <!-- SPA-PL -->
     <g transform="translate(475.024219 299.429297)scale(0.15 -0.15)">
      <defs>
       <path id="DejaVuSans-53" d="M 3425 4513 
L 3425 3897 
Q 3066 4069 2747 4153 
Q 2428 4238 2131 4238 
Q 1616 4238 1336 4038 
Q 1056 3838 1056 3469 
Q 1056 3159 1242 3001 
Q 1428 2844 1947 2747 
L 2328 2669 
Q 3034 2534 3370 2195 
Q 3706 1856 3706 1288 
Q 3706 609 3251 259 
Q 2797 -91 1919 -91 
Q 1588 -91 1214 -16 
Q 841 59 441 206 
L 441 856 
Q 825 641 1194 531 
Q 1563 422 1919 422 
Q 2459 422 2753 634 
Q 3047 847 3047 1241 
Q 3047 1584 2836 1778 
Q 2625 1972 2144 2069 
L 1759 2144 
Q 1053 2284 737 2584 
Q 422 2884 422 3419 
Q 422 4038 858 4394 
Q 1294 4750 2059 4750 
Q 2388 4750 2728 4690 
Q 3069 4631 3425 4513 
z
" transform="scale(0.015625)"/>
       <path id="DejaVuSans-50" d="M 1259 4147 
L 1259 2394 
L 2053 2394 
Q 2494 2394 2734 2622 
Q 2975 2850 2975 3272 
Q 2975 3691 2734 3919 
Q 2494 4147 2053 4147 
L 1259 4147 
z
M 628 4666 
L 2053 4666 
Q 2838 4666 3239 4311 
Q 3641 3956 3641 3272 
Q 3641 2581 3239 2228 
Q 2838 1875 2053 1875 
L 1259 1875 
L 1259 0 
L 628 0 
L 628 4666 
z
" transform="scale(0.015625)"/>
       <path id="DejaVuSans-41" d="M 2188 4044 
L 1331 1722 
L 3047 1722 
L 2188 4044 
z
M 1831 4666 
L 2547 4666 
L 4325 0 
L 3669 0 
L 3244 1197 
L 1141 1197 
L 716 0 
L 50 0 
L 1831 4666 
z
" transform="scale(0.015625)"/>
       <path id="DejaVuSans-2d" d="M 313 2009 
L 1997 2009 
L 1997 1497 
L 313 1497 
L 313 2009 
z
" transform="scale(0.015625)"/>
       <path id="DejaVuSans-4c" d="M 628 4666 
L 1259 4666 
L 1259 531 
L 3531 531 
L 3531 0 
L 628 0 
L 628 4666 
z
" transform="scale(0.015625)"/>
      </defs>
      <use xlink:href="#DejaVuSans-53"/>
      <use xlink:href="#DejaVuSans-50" x="63.476562"/>
      <use xlink:href="#DejaVuSans-41" x="117.404297"/>
      <use xlink:href="#DejaVuSans-2d" x="183.5625"/>
      <use xlink:href="#DejaVuSans-50" x="219.646484"/>
      <use xlink:href="#DejaVuSans-4c" x="279.949219"/>
     </g>
    </g>
    <g id="line2d_19">
     <path d="M 433.024219 316.196484 
L 448.024219 316.196484 
L 463.024219 316.196484 
" style="fill: none; stroke: #008000; stroke-width: 2; stroke-linecap: square"/>
     <g>
      <use xlink:href="#mdd3e61f0fa" x="448.024219" y="316.196484" style="fill: #008000; stroke: #008000; stroke-linejoin: miter"/>
     </g>
    </g>
    <g id="text_19">
     <!-- TPA-PL -->
     <g transform="translate(475.024219 321.446484)scale(0.15 -0.15)">
      <use xlink:href="#DejaVuSans-54"/>
      <use xlink:href="#DejaVuSans-50" x="61.083984"/>
      <use xlink:href="#DejaVuSans-41" x="115.011719"/>
      <use xlink:href="#DejaVuSans-2d" x="181.169922"/>
      <use xlink:href="#DejaVuSans-50" x="217.253906"/>
      <use xlink:href="#DejaVuSans-4c" x="277.556641"/>
     </g>
    </g>
   </g>
  </g>
 </g>
 <defs>
  <clipPath id="p2b21a5c967">
   <rect x="51.804688" y="12.898828" width="487.067969" height="241.932813"/>
  </clipPath>
  <clipPath id="pcc2f86c8c7">
   <rect x="51.804688" y="274.531641" width="487.067969" height="241.932813"/>
  </clipPath>
 </defs>
</svg>
