<?xml version="1.0" encoding="utf-8" standalone="no"?>
<!DOCTYPE svg PUBLIC "-//W3C//DTD SVG 1.1//EN"
  "http://www.w3.org/Graphics/SVG/1.1/DTD/svg11.dtd">
<svg xmlns:xlink="http://www.w3.org/1999/xlink" width="680.4pt" height="320.4pt" viewBox="0 0 680.4 320.4" xmlns="http://www.w3.org/2000/svg" version="1.1">
 <metadata>
  <rdf:RDF xmlns:dc="http://purl.org/dc/elements/1.1/" xmlns:cc="http://creativecommons.org/ns#" xmlns:rdf="http://www.w3.org/1999/02/22-rdf-syntax-ns#">
   <cc:Work>
    <dc:type rdf:resource="http://purl.org/dc/dcmitype/StillImage"/>
    <dc:date>2024-03-26T13:17:38.687878</dc:date>
    <dc:format>image/svg+xml</dc:format>
    <dc:creator>
     <cc:Agent>
      <dc:title>Matplotlib v3.5.2, https://matplotlib.org/</dc:title>
     </cc:Agent>
    </dc:creator>
   </cc:Work>
  </rdf:RDF>
 </metadata>
 <defs>
  <style type="text/css">*{stroke-linejoin: round; stroke-linecap: butt}</style>
 </defs>
 <g id="figure_1">
  <g id="patch_1">
   <path d="M 0 320.4 
L 680.4 320.4 
L 680.4 0 
L 0 0 
L 0 320.4 
z
" style="fill: none"/>
  </g>
  <g id="axes_1">
   <g id="patch_2">
    <path d="M 106.193927 288.878065 
C 125.524533 298.187189 146.706659 303.021867 168.162011 303.021863 
C 189.617363 303.021859 210.799487 298.187173 230.13009 288.878042 
C 249.460692 279.56891 266.447435 266.022431 279.824626 249.247959 
C 293.201817 232.473488 302.628747 212.89826 307.40301 191.980838 
C 312.177273 171.063416 312.177271 149.336553 307.403004 128.419132 
C 302.628737 107.501711 293.201804 87.926485 279.82461 71.152016 
C 266.447415 54.377547 249.46067 40.83107 230.130065 31.521943 
C 210.799461 22.212815 189.617336 17.378133 168.161984 17.378133 
L 168.161984 160.199998 
L 106.193927 288.878065 
z
" style="fill: #3498b0"/>
   </g>
   <g id="patch_3">
    <path d="M 168.161957 17.378133 
C 135.813385 17.378139 104.405114 28.368375 79.113986 48.537385 
C 53.822858 68.706395 36.119184 96.881644 28.920955 128.419171 
C 21.722727 159.956698 25.448418 193.023056 39.483943 222.168109 
C 53.519469 251.313163 77.048868 274.842552 106.193927 288.878065 
L 168.161984 160.199998 
L 168.161957 17.378133 
z
" style="fill: #3498b0; fill-opacity: 0.188235"/>
   </g>
   <g id="matplotlib.axis_1"/>
   <g id="matplotlib.axis_2"/>
  </g>
  <g id="axes_2">
   <g id="patch_4">
    <path d="M 594.707446 40.630343 
C 582.796847 32.509834 569.736144 26.220131 555.961137 21.971104 
C 542.186131 17.722077 527.851755 15.561518 513.436311 15.561518 
L 513.436311 159.833202 
L 594.707446 40.630343 
z
" style="fill: #474d6b"/>
   </g>
   <g id="patch_5">
    <path d="M 513.436318 15.561518 
C 496.30497 15.561517 479.309767 18.612874 463.248401 24.57237 
C 447.187036 30.531866 432.314789 39.304779 419.329712 50.479341 
C 406.344635 61.653903 395.453113 75.052503 387.166356 90.046259 
C 378.879599 105.040015 373.329318 121.390614 370.776023 138.330618 
C 368.222727 155.270622 368.707 172.530785 372.206111 189.300975 
C 375.705222 206.071165 382.163556 222.084836 391.277982 236.590362 
C 400.392408 251.095889 412.018059 263.862719 425.609271 274.291623 
C 439.200482 284.720526 454.541232 292.645746 470.911481 297.6953 
C 487.281731 302.744853 504.421289 304.838483 521.525685 303.877921 
C 538.630082 302.917359 555.427457 298.917873 571.129404 292.067184 
C 586.83135 285.216496 601.188298 275.62349 613.526385 263.738429 
C 625.864471 251.853367 635.987593 237.865153 643.420606 222.430343 
C 650.853619 206.995533 655.478383 190.359449 657.077828 173.30293 
C 658.677273 156.246411 657.225976 139.040556 652.792058 122.492945 
C 648.358139 105.945334 641.012071 90.318978 631.098653 76.347321 
C 621.185234 62.375665 608.862029 50.280775 594.707446 40.630343 
L 513.436311 159.833202 
L 513.436318 15.561518 
z
" style="fill: #474d6b; fill-opacity: 0.188235"/>
   </g>
   <g id="matplotlib.axis_3"/>
   <g id="matplotlib.axis_4"/>
  </g>
 </g>
</svg>
