<?xml version="1.0" encoding="utf-8" standalone="no"?>
<!DOCTYPE svg PUBLIC "-//W3C//DTD SVG 1.1//EN"
  "http://www.w3.org/Graphics/SVG/1.1/DTD/svg11.dtd">
<svg xmlns:xlink="http://www.w3.org/1999/xlink" width="742.915625pt" height="337.333203pt" viewBox="0 0 742.915625 337.333203" xmlns="http://www.w3.org/2000/svg" version="1.1">
 <metadata>
  <rdf:RDF xmlns:dc="http://purl.org/dc/elements/1.1/" xmlns:cc="http://creativecommons.org/ns#" xmlns:rdf="http://www.w3.org/1999/02/22-rdf-syntax-ns#">
   <cc:Work>
    <dc:type rdf:resource="http://purl.org/dc/dcmitype/StillImage"/>
    <dc:date>2024-03-26T13:19:39.470379</dc:date>
    <dc:format>image/svg+xml</dc:format>
    <dc:creator>
     <cc:Agent>
      <dc:title>Matplotlib v3.5.2, https://matplotlib.org/</dc:title>
     </cc:Agent>
    </dc:creator>
   </cc:Work>
  </rdf:RDF>
 </metadata>
 <defs>
  <style type="text/css">*{stroke-linejoin: round; stroke-linecap: butt}</style>
 </defs>
 <g id="figure_1">
  <g id="patch_1">
   <path d="M 0 337.333203 
L 742.915625 337.333203 
L 742.915625 0 
L 0 0 
L 0 337.333203 
z
" style="fill: none"/>
  </g>
  <g id="axes_1">
   <g id="patch_2">
    <path d="M 66.115625 290.098828 
L 735.715625 290.098828 
L 735.715625 12.898828 
L 66.115625 12.898828 
L 66.115625 290.098828 
z
" style="fill: none"/>
   </g>
   <g id="PathCollection_1">
    <defs>
     <path id="me1b8775699" d="M 0 4.472136 
C 1.186024 4.472136 2.323632 4.000923 3.162278 3.162278 
C 4.000923 2.323632 4.472136 1.186024 4.472136 0 
C 4.472136 -1.186024 4.000923 -2.323632 3.162278 -3.162278 
C 2.323632 -4.000923 1.186024 -4.472136 0 -4.472136 
C -1.186024 -4.472136 -2.323632 -4.000923 -3.162278 -3.162278 
C -4.000923 -2.323632 -4.472136 -1.186024 -4.472136 0 
C -4.472136 1.186024 -4.000923 2.323632 -3.162278 3.162278 
C -2.323632 4.000923 -1.186024 4.472136 0 4.472136 
z
" style="stroke: #474d6b"/>
    </defs>
    <g clip-path="url(#p581863f95b)">
     <use xlink:href="#me1b8775699" x="225.544196" y="211.792762" style="fill: #474d6b; stroke: #474d6b"/>
     <use xlink:href="#me1b8775699" x="384.972768" y="193.137231" style="fill: #474d6b; stroke: #474d6b"/>
     <use xlink:href="#me1b8775699" x="544.401339" y="205.026216" style="fill: #474d6b; stroke: #474d6b"/>
     <use xlink:href="#me1b8775699" x="703.829911" y="218.461828" style="fill: #474d6b; stroke: #474d6b"/>
    </g>
   </g>
   <g id="matplotlib.axis_1">
    <g id="xtick_1">
     <g id="line2d_1">
      <defs>
       <path id="m5d58d19a01" d="M 0 0 
L 0 3.5 
" style="stroke: #000000; stroke-width: 0.8"/>
      </defs>
      <g>
       <use xlink:href="#m5d58d19a01" x="66.115625" y="290.098828" style="stroke: #000000; stroke-width: 0.8"/>
      </g>
     </g>
     <g id="text_1">
      <!-- 0 -->
      <g transform="translate(61.34375 308.496484)scale(0.15 -0.15)">
       <defs>
        <path id="DejaVuSans-30" d="M 2034 4250 
Q 1547 4250 1301 3770 
Q 1056 3291 1056 2328 
Q 1056 1369 1301 889 
Q 1547 409 2034 409 
Q 2525 409 2770 889 
Q 3016 1369 3016 2328 
Q 3016 3291 2770 3770 
Q 2525 4250 2034 4250 
z
M 2034 4750 
Q 2819 4750 3233 4129 
Q 3647 3509 3647 2328 
Q 3647 1150 3233 529 
Q 2819 -91 2034 -91 
Q 1250 -91 836 529 
Q 422 1150 422 2328 
Q 422 3509 836 4129 
Q 1250 4750 2034 4750 
z
" transform="scale(0.015625)"/>
       </defs>
       <use xlink:href="#DejaVuSans-30"/>
      </g>
     </g>
    </g>
    <g id="xtick_2">
     <g id="line2d_2">
      <g>
       <use xlink:href="#m5d58d19a01" x="145.829911" y="290.098828" style="stroke: #000000; stroke-width: 0.8"/>
      </g>
     </g>
     <g id="text_2">
      <!-- 5 -->
      <g transform="translate(141.058036 308.496484)scale(0.15 -0.15)">
       <defs>
        <path id="DejaVuSans-35" d="M 691 4666 
L 3169 4666 
L 3169 4134 
L 1269 4134 
L 1269 2991 
Q 1406 3038 1543 3061 
Q 1681 3084 1819 3084 
Q 2600 3084 3056 2656 
Q 3513 2228 3513 1497 
Q 3513 744 3044 326 
Q 2575 -91 1722 -91 
Q 1428 -91 1123 -41 
Q 819 9 494 109 
L 494 744 
Q 775 591 1075 516 
Q 1375 441 1709 441 
Q 2250 441 2565 725 
Q 2881 1009 2881 1497 
Q 2881 1984 2565 2268 
Q 2250 2553 1709 2553 
Q 1456 2553 1204 2497 
Q 953 2441 691 2322 
L 691 4666 
z
" transform="scale(0.015625)"/>
       </defs>
       <use xlink:href="#DejaVuSans-35"/>
      </g>
     </g>
    </g>
    <g id="xtick_3">
     <g id="line2d_3">
      <g>
       <use xlink:href="#m5d58d19a01" x="225.544196" y="290.098828" style="stroke: #000000; stroke-width: 0.8"/>
      </g>
     </g>
     <g id="text_3">
      <!-- 10 -->
      <g transform="translate(216.000446 308.496484)scale(0.15 -0.15)">
       <defs>
        <path id="DejaVuSans-31" d="M 794 531 
L 1825 531 
L 1825 4091 
L 703 3866 
L 703 4441 
L 1819 4666 
L 2450 4666 
L 2450 531 
L 3481 531 
L 3481 0 
L 794 0 
L 794 531 
z
" transform="scale(0.015625)"/>
       </defs>
       <use xlink:href="#DejaVuSans-31"/>
       <use xlink:href="#DejaVuSans-30" x="63.623047"/>
      </g>
     </g>
    </g>
    <g id="xtick_4">
     <g id="line2d_4">
      <g>
       <use xlink:href="#m5d58d19a01" x="305.258482" y="290.098828" style="stroke: #000000; stroke-width: 0.8"/>
      </g>
     </g>
     <g id="text_4">
      <!-- 15 -->
      <g transform="translate(295.714732 308.496484)scale(0.15 -0.15)">
       <use xlink:href="#DejaVuSans-31"/>
       <use xlink:href="#DejaVuSans-35" x="63.623047"/>
      </g>
     </g>
    </g>
    <g id="xtick_5">
     <g id="line2d_5">
      <g>
       <use xlink:href="#m5d58d19a01" x="384.972768" y="290.098828" style="stroke: #000000; stroke-width: 0.8"/>
      </g>
     </g>
     <g id="text_5">
      <!-- 20 -->
      <g transform="translate(375.429018 308.496484)scale(0.15 -0.15)">
       <defs>
        <path id="DejaVuSans-32" d="M 1228 531 
L 3431 531 
L 3431 0 
L 469 0 
L 469 531 
Q 828 903 1448 1529 
Q 2069 2156 2228 2338 
Q 2531 2678 2651 2914 
Q 2772 3150 2772 3378 
Q 2772 3750 2511 3984 
Q 2250 4219 1831 4219 
Q 1534 4219 1204 4116 
Q 875 4013 500 3803 
L 500 4441 
Q 881 4594 1212 4672 
Q 1544 4750 1819 4750 
Q 2544 4750 2975 4387 
Q 3406 4025 3406 3419 
Q 3406 3131 3298 2873 
Q 3191 2616 2906 2266 
Q 2828 2175 2409 1742 
Q 1991 1309 1228 531 
z
" transform="scale(0.015625)"/>
       </defs>
       <use xlink:href="#DejaVuSans-32"/>
       <use xlink:href="#DejaVuSans-30" x="63.623047"/>
      </g>
     </g>
    </g>
    <g id="xtick_6">
     <g id="line2d_6">
      <g>
       <use xlink:href="#m5d58d19a01" x="464.687054" y="290.098828" style="stroke: #000000; stroke-width: 0.8"/>
      </g>
     </g>
     <g id="text_6">
      <!-- 25 -->
      <g transform="translate(455.143304 308.496484)scale(0.15 -0.15)">
       <use xlink:href="#DejaVuSans-32"/>
       <use xlink:href="#DejaVuSans-35" x="63.623047"/>
      </g>
     </g>
    </g>
    <g id="xtick_7">
     <g id="line2d_7">
      <g>
       <use xlink:href="#m5d58d19a01" x="544.401339" y="290.098828" style="stroke: #000000; stroke-width: 0.8"/>
      </g>
     </g>
     <g id="text_7">
      <!-- 30 -->
      <g transform="translate(534.857589 308.496484)scale(0.15 -0.15)">
       <defs>
        <path id="DejaVuSans-33" d="M 2597 2516 
Q 3050 2419 3304 2112 
Q 3559 1806 3559 1356 
Q 3559 666 3084 287 
Q 2609 -91 1734 -91 
Q 1441 -91 1130 -33 
Q 819 25 488 141 
L 488 750 
Q 750 597 1062 519 
Q 1375 441 1716 441 
Q 2309 441 2620 675 
Q 2931 909 2931 1356 
Q 2931 1769 2642 2001 
Q 2353 2234 1838 2234 
L 1294 2234 
L 1294 2753 
L 1863 2753 
Q 2328 2753 2575 2939 
Q 2822 3125 2822 3475 
Q 2822 3834 2567 4026 
Q 2313 4219 1838 4219 
Q 1578 4219 1281 4162 
Q 984 4106 628 3988 
L 628 4550 
Q 988 4650 1302 4700 
Q 1616 4750 1894 4750 
Q 2613 4750 3031 4423 
Q 3450 4097 3450 3541 
Q 3450 3153 3228 2886 
Q 3006 2619 2597 2516 
z
" transform="scale(0.015625)"/>
       </defs>
       <use xlink:href="#DejaVuSans-33"/>
       <use xlink:href="#DejaVuSans-30" x="63.623047"/>
      </g>
     </g>
    </g>
    <g id="xtick_8">
     <g id="line2d_8">
      <g>
       <use xlink:href="#m5d58d19a01" x="624.115625" y="290.098828" style="stroke: #000000; stroke-width: 0.8"/>
      </g>
     </g>
     <g id="text_8">
      <!-- 35 -->
      <g transform="translate(614.571875 308.496484)scale(0.15 -0.15)">
       <use xlink:href="#DejaVuSans-33"/>
       <use xlink:href="#DejaVuSans-35" x="63.623047"/>
      </g>
     </g>
    </g>
    <g id="xtick_9">
     <g id="line2d_9">
      <g>
       <use xlink:href="#m5d58d19a01" x="703.829911" y="290.098828" style="stroke: #000000; stroke-width: 0.8"/>
      </g>
     </g>
     <g id="text_9">
      <!-- 40 -->
      <g transform="translate(694.286161 308.496484)scale(0.15 -0.15)">
       <defs>
        <path id="DejaVuSans-34" d="M 2419 4116 
L 825 1625 
L 2419 1625 
L 2419 4116 
z
M 2253 4666 
L 3047 4666 
L 3047 1625 
L 3713 1625 
L 3713 1100 
L 3047 1100 
L 3047 0 
L 2419 0 
L 2419 1100 
L 313 1100 
L 313 1709 
L 2253 4666 
z
" transform="scale(0.015625)"/>
       </defs>
       <use xlink:href="#DejaVuSans-34"/>
       <use xlink:href="#DejaVuSans-30" x="63.623047"/>
      </g>
     </g>
    </g>
    <g id="text_10">
     <!-- Time (h) -->
     <g transform="translate(369.576172 327.013672)scale(0.15 -0.15)">
      <defs>
       <path id="DejaVuSans-54" d="M -19 4666 
L 3928 4666 
L 3928 4134 
L 2272 4134 
L 2272 0 
L 1638 0 
L 1638 4134 
L -19 4134 
L -19 4666 
z
" transform="scale(0.015625)"/>
       <path id="DejaVuSans-69" d="M 603 3500 
L 1178 3500 
L 1178 0 
L 603 0 
L 603 3500 
z
M 603 4863 
L 1178 4863 
L 1178 4134 
L 603 4134 
L 603 4863 
z
" transform="scale(0.015625)"/>
       <path id="DejaVuSans-6d" d="M 3328 2828 
Q 3544 3216 3844 3400 
Q 4144 3584 4550 3584 
Q 5097 3584 5394 3201 
Q 5691 2819 5691 2113 
L 5691 0 
L 5113 0 
L 5113 2094 
Q 5113 2597 4934 2840 
Q 4756 3084 4391 3084 
Q 3944 3084 3684 2787 
Q 3425 2491 3425 1978 
L 3425 0 
L 2847 0 
L 2847 2094 
Q 2847 2600 2669 2842 
Q 2491 3084 2119 3084 
Q 1678 3084 1418 2786 
Q 1159 2488 1159 1978 
L 1159 0 
L 581 0 
L 581 3500 
L 1159 3500 
L 1159 2956 
Q 1356 3278 1631 3431 
Q 1906 3584 2284 3584 
Q 2666 3584 2933 3390 
Q 3200 3197 3328 2828 
z
" transform="scale(0.015625)"/>
       <path id="DejaVuSans-65" d="M 3597 1894 
L 3597 1613 
L 953 1613 
Q 991 1019 1311 708 
Q 1631 397 2203 397 
Q 2534 397 2845 478 
Q 3156 559 3463 722 
L 3463 178 
Q 3153 47 2828 -22 
Q 2503 -91 2169 -91 
Q 1331 -91 842 396 
Q 353 884 353 1716 
Q 353 2575 817 3079 
Q 1281 3584 2069 3584 
Q 2775 3584 3186 3129 
Q 3597 2675 3597 1894 
z
M 3022 2063 
Q 3016 2534 2758 2815 
Q 2500 3097 2075 3097 
Q 1594 3097 1305 2825 
Q 1016 2553 972 2059 
L 3022 2063 
z
" transform="scale(0.015625)"/>
       <path id="DejaVuSans-20" transform="scale(0.015625)"/>
       <path id="DejaVuSans-28" d="M 1984 4856 
Q 1566 4138 1362 3434 
Q 1159 2731 1159 2009 
Q 1159 1288 1364 580 
Q 1569 -128 1984 -844 
L 1484 -844 
Q 1016 -109 783 600 
Q 550 1309 550 2009 
Q 550 2706 781 3412 
Q 1013 4119 1484 4856 
L 1984 4856 
z
" transform="scale(0.015625)"/>
       <path id="DejaVuSans-68" d="M 3513 2113 
L 3513 0 
L 2938 0 
L 2938 2094 
Q 2938 2591 2744 2837 
Q 2550 3084 2163 3084 
Q 1697 3084 1428 2787 
Q 1159 2491 1159 1978 
L 1159 0 
L 581 0 
L 581 4863 
L 1159 4863 
L 1159 2956 
Q 1366 3272 1645 3428 
Q 1925 3584 2291 3584 
Q 2894 3584 3203 3211 
Q 3513 2838 3513 2113 
z
" transform="scale(0.015625)"/>
       <path id="DejaVuSans-29" d="M 513 4856 
L 1013 4856 
Q 1481 4119 1714 3412 
Q 1947 2706 1947 2009 
Q 1947 1309 1714 600 
Q 1481 -109 1013 -844 
L 513 -844 
Q 928 -128 1133 580 
Q 1338 1288 1338 2009 
Q 1338 2731 1133 3434 
Q 928 4138 513 4856 
z
" transform="scale(0.015625)"/>
      </defs>
      <use xlink:href="#DejaVuSans-54"/>
      <use xlink:href="#DejaVuSans-69" x="57.958984"/>
      <use xlink:href="#DejaVuSans-6d" x="85.742188"/>
      <use xlink:href="#DejaVuSans-65" x="183.154297"/>
      <use xlink:href="#DejaVuSans-20" x="244.677734"/>
      <use xlink:href="#DejaVuSans-28" x="276.464844"/>
      <use xlink:href="#DejaVuSans-68" x="315.478516"/>
      <use xlink:href="#DejaVuSans-29" x="378.857422"/>
     </g>
    </g>
   </g>
   <g id="matplotlib.axis_2">
    <g id="ytick_1">
     <g id="line2d_10">
      <defs>
       <path id="m3666a60192" d="M 0 0 
L -3.5 0 
" style="stroke: #000000; stroke-width: 0.8"/>
      </defs>
      <g>
       <use xlink:href="#m3666a60192" x="66.115625" y="290.098828" style="stroke: #000000; stroke-width: 0.8"/>
      </g>
     </g>
     <g id="text_11">
      <!-- 0.00 -->
      <g transform="translate(25.717188 295.797656)scale(0.15 -0.15)">
       <defs>
        <path id="DejaVuSans-2e" d="M 684 794 
L 1344 794 
L 1344 0 
L 684 0 
L 684 794 
z
" transform="scale(0.015625)"/>
       </defs>
       <use xlink:href="#DejaVuSans-30"/>
       <use xlink:href="#DejaVuSans-2e" x="63.623047"/>
       <use xlink:href="#DejaVuSans-30" x="95.410156"/>
       <use xlink:href="#DejaVuSans-30" x="159.033203"/>
      </g>
     </g>
    </g>
    <g id="ytick_2">
     <g id="line2d_11">
      <g>
       <use xlink:href="#m3666a60192" x="66.115625" y="250.498828" style="stroke: #000000; stroke-width: 0.8"/>
      </g>
     </g>
     <g id="text_12">
      <!-- 0.05 -->
      <g transform="translate(25.717188 256.197656)scale(0.15 -0.15)">
       <use xlink:href="#DejaVuSans-30"/>
       <use xlink:href="#DejaVuSans-2e" x="63.623047"/>
       <use xlink:href="#DejaVuSans-30" x="95.410156"/>
       <use xlink:href="#DejaVuSans-35" x="159.033203"/>
      </g>
     </g>
    </g>
    <g id="ytick_3">
     <g id="line2d_12">
      <g>
       <use xlink:href="#m3666a60192" x="66.115625" y="210.898828" style="stroke: #000000; stroke-width: 0.8"/>
      </g>
     </g>
     <g id="text_13">
      <!-- 0.10 -->
      <g transform="translate(25.717188 216.597656)scale(0.15 -0.15)">
       <use xlink:href="#DejaVuSans-30"/>
       <use xlink:href="#DejaVuSans-2e" x="63.623047"/>
       <use xlink:href="#DejaVuSans-31" x="95.410156"/>
       <use xlink:href="#DejaVuSans-30" x="159.033203"/>
      </g>
     </g>
    </g>
    <g id="ytick_4">
     <g id="line2d_13">
      <g>
       <use xlink:href="#m3666a60192" x="66.115625" y="171.298828" style="stroke: #000000; stroke-width: 0.8"/>
      </g>
     </g>
     <g id="text_14">
      <!-- 0.15 -->
      <g transform="translate(25.717188 176.997656)scale(0.15 -0.15)">
       <use xlink:href="#DejaVuSans-30"/>
       <use xlink:href="#DejaVuSans-2e" x="63.623047"/>
       <use xlink:href="#DejaVuSans-31" x="95.410156"/>
       <use xlink:href="#DejaVuSans-35" x="159.033203"/>
      </g>
     </g>
    </g>
    <g id="ytick_5">
     <g id="line2d_14">
      <g>
       <use xlink:href="#m3666a60192" x="66.115625" y="131.698828" style="stroke: #000000; stroke-width: 0.8"/>
      </g>
     </g>
     <g id="text_15">
      <!-- 0.20 -->
      <g transform="translate(25.717188 137.397656)scale(0.15 -0.15)">
       <use xlink:href="#DejaVuSans-30"/>
       <use xlink:href="#DejaVuSans-2e" x="63.623047"/>
       <use xlink:href="#DejaVuSans-32" x="95.410156"/>
       <use xlink:href="#DejaVuSans-30" x="159.033203"/>
      </g>
     </g>
    </g>
    <g id="ytick_6">
     <g id="line2d_15">
      <g>
       <use xlink:href="#m3666a60192" x="66.115625" y="92.098828" style="stroke: #000000; stroke-width: 0.8"/>
      </g>
     </g>
     <g id="text_16">
      <!-- 0.25 -->
      <g transform="translate(25.717188 97.797656)scale(0.15 -0.15)">
       <use xlink:href="#DejaVuSans-30"/>
       <use xlink:href="#DejaVuSans-2e" x="63.623047"/>
       <use xlink:href="#DejaVuSans-32" x="95.410156"/>
       <use xlink:href="#DejaVuSans-35" x="159.033203"/>
      </g>
     </g>
    </g>
    <g id="ytick_7">
     <g id="line2d_16">
      <g>
       <use xlink:href="#m3666a60192" x="66.115625" y="52.498828" style="stroke: #000000; stroke-width: 0.8"/>
      </g>
     </g>
     <g id="text_17">
      <!-- 0.30 -->
      <g transform="translate(25.717188 58.197656)scale(0.15 -0.15)">
       <use xlink:href="#DejaVuSans-30"/>
       <use xlink:href="#DejaVuSans-2e" x="63.623047"/>
       <use xlink:href="#DejaVuSans-33" x="95.410156"/>
       <use xlink:href="#DejaVuSans-30" x="159.033203"/>
      </g>
     </g>
    </g>
    <g id="ytick_8">
     <g id="line2d_17">
      <g>
       <use xlink:href="#m3666a60192" x="66.115625" y="12.898828" style="stroke: #000000; stroke-width: 0.8"/>
      </g>
     </g>
     <g id="text_18">
      <!-- 0.35 -->
      <g transform="translate(25.717188 18.597656)scale(0.15 -0.15)">
       <use xlink:href="#DejaVuSans-30"/>
       <use xlink:href="#DejaVuSans-2e" x="63.623047"/>
       <use xlink:href="#DejaVuSans-33" x="95.410156"/>
       <use xlink:href="#DejaVuSans-35" x="159.033203"/>
      </g>
     </g>
    </g>
    <g id="text_19">
     <!-- Growth rate (mm/h) -->
     <g transform="translate(18.597656 226.385156)rotate(-90)scale(0.15 -0.15)">
      <defs>
       <path id="DejaVuSans-47" d="M 3809 666 
L 3809 1919 
L 2778 1919 
L 2778 2438 
L 4434 2438 
L 4434 434 
Q 4069 175 3628 42 
Q 3188 -91 2688 -91 
Q 1594 -91 976 548 
Q 359 1188 359 2328 
Q 359 3472 976 4111 
Q 1594 4750 2688 4750 
Q 3144 4750 3555 4637 
Q 3966 4525 4313 4306 
L 4313 3634 
Q 3963 3931 3569 4081 
Q 3175 4231 2741 4231 
Q 1884 4231 1454 3753 
Q 1025 3275 1025 2328 
Q 1025 1384 1454 906 
Q 1884 428 2741 428 
Q 3075 428 3337 486 
Q 3600 544 3809 666 
z
" transform="scale(0.015625)"/>
       <path id="DejaVuSans-72" d="M 2631 2963 
Q 2534 3019 2420 3045 
Q 2306 3072 2169 3072 
Q 1681 3072 1420 2755 
Q 1159 2438 1159 1844 
L 1159 0 
L 581 0 
L 581 3500 
L 1159 3500 
L 1159 2956 
Q 1341 3275 1631 3429 
Q 1922 3584 2338 3584 
Q 2397 3584 2469 3576 
Q 2541 3569 2628 3553 
L 2631 2963 
z
" transform="scale(0.015625)"/>
       <path id="DejaVuSans-6f" d="M 1959 3097 
Q 1497 3097 1228 2736 
Q 959 2375 959 1747 
Q 959 1119 1226 758 
Q 1494 397 1959 397 
Q 2419 397 2687 759 
Q 2956 1122 2956 1747 
Q 2956 2369 2687 2733 
Q 2419 3097 1959 3097 
z
M 1959 3584 
Q 2709 3584 3137 3096 
Q 3566 2609 3566 1747 
Q 3566 888 3137 398 
Q 2709 -91 1959 -91 
Q 1206 -91 779 398 
Q 353 888 353 1747 
Q 353 2609 779 3096 
Q 1206 3584 1959 3584 
z
" transform="scale(0.015625)"/>
       <path id="DejaVuSans-77" d="M 269 3500 
L 844 3500 
L 1563 769 
L 2278 3500 
L 2956 3500 
L 3675 769 
L 4391 3500 
L 4966 3500 
L 4050 0 
L 3372 0 
L 2619 2869 
L 1863 0 
L 1184 0 
L 269 3500 
z
" transform="scale(0.015625)"/>
       <path id="DejaVuSans-74" d="M 1172 4494 
L 1172 3500 
L 2356 3500 
L 2356 3053 
L 1172 3053 
L 1172 1153 
Q 1172 725 1289 603 
Q 1406 481 1766 481 
L 2356 481 
L 2356 0 
L 1766 0 
Q 1100 0 847 248 
Q 594 497 594 1153 
L 594 3053 
L 172 3053 
L 172 3500 
L 594 3500 
L 594 4494 
L 1172 4494 
z
" transform="scale(0.015625)"/>
       <path id="DejaVuSans-61" d="M 2194 1759 
Q 1497 1759 1228 1600 
Q 959 1441 959 1056 
Q 959 750 1161 570 
Q 1363 391 1709 391 
Q 2188 391 2477 730 
Q 2766 1069 2766 1631 
L 2766 1759 
L 2194 1759 
z
M 3341 1997 
L 3341 0 
L 2766 0 
L 2766 531 
Q 2569 213 2275 61 
Q 1981 -91 1556 -91 
Q 1019 -91 701 211 
Q 384 513 384 1019 
Q 384 1609 779 1909 
Q 1175 2209 1959 2209 
L 2766 2209 
L 2766 2266 
Q 2766 2663 2505 2880 
Q 2244 3097 1772 3097 
Q 1472 3097 1187 3025 
Q 903 2953 641 2809 
L 641 3341 
Q 956 3463 1253 3523 
Q 1550 3584 1831 3584 
Q 2591 3584 2966 3190 
Q 3341 2797 3341 1997 
z
" transform="scale(0.015625)"/>
       <path id="DejaVuSans-2f" d="M 1625 4666 
L 2156 4666 
L 531 -594 
L 0 -594 
L 1625 4666 
z
" transform="scale(0.015625)"/>
      </defs>
      <use xlink:href="#DejaVuSans-47"/>
      <use xlink:href="#DejaVuSans-72" x="77.490234"/>
      <use xlink:href="#DejaVuSans-6f" x="116.353516"/>
      <use xlink:href="#DejaVuSans-77" x="177.535156"/>
      <use xlink:href="#DejaVuSans-74" x="259.322266"/>
      <use xlink:href="#DejaVuSans-68" x="298.53125"/>
      <use xlink:href="#DejaVuSans-20" x="361.910156"/>
      <use xlink:href="#DejaVuSans-72" x="393.697266"/>
      <use xlink:href="#DejaVuSans-61" x="434.810547"/>
      <use xlink:href="#DejaVuSans-74" x="496.089844"/>
      <use xlink:href="#DejaVuSans-65" x="535.298828"/>
      <use xlink:href="#DejaVuSans-20" x="596.822266"/>
      <use xlink:href="#DejaVuSans-28" x="628.609375"/>
      <use xlink:href="#DejaVuSans-6d" x="667.623047"/>
      <use xlink:href="#DejaVuSans-6d" x="765.035156"/>
      <use xlink:href="#DejaVuSans-2f" x="862.447266"/>
      <use xlink:href="#DejaVuSans-68" x="896.138672"/>
      <use xlink:href="#DejaVuSans-29" x="959.517578"/>
     </g>
    </g>
   </g>
   <g id="line2d_18">
    <path d="M 66.115625 210.898828 
L 743.915625 210.898828 
" clip-path="url(#p581863f95b)" style="fill: none; stroke-dasharray: 5.55,2.4; stroke-dashoffset: 0; stroke: #474d6b; stroke-opacity: 0.501961; stroke-width: 1.5"/>
   </g>
   <g id="line2d_19">
    <path d="M 66.115625 290.098828 
L 68.763909 290.098828 
L 68.769875 338.333203 
M 92.812412 338.333203 
L 97.137763 314.168734 
L 97.983627 310.644664 
L 98.873764 307.765734 
L 99.786046 305.447014 
L 100.809052 302.55511 
L 102.075632 298.089043 
L 103.032204 293.259973 
L 105.587477 279.870216 
L 106.411196 276.865999 
L 107.212771 274.780735 
L 107.881479 273.590179 
L 108.54577 272.792176 
L 109.280911 272.208497 
L 109.834479 272.033366 
L 110.126775 272.065666 
L 111.61477 273.324074 
L 112.239204 273.624725 
L 112.61563 273.562372 
L 113.018618 273.247314 
L 113.594346 272.48498 
L 114.19662 271.304068 
L 115.042484 269.016679 
L 118.355059 259.071986 
L 118.997189 257.250038 
L 119.710202 256.132485 
L 119.953761 256.135622 
L 120.223912 256.375817 
L 120.622484 257.096207 
L 121.224773 258.737603 
L 122.021916 261.841624 
L 122.292052 263.381124 
L 123.359346 270.986842 
L 124.493059 277.427564 
L 125.161766 280.078111 
L 125.737479 281.544957 
L 126.206916 282.166358 
L 126.539054 282.346678 
L 126.849046 282.292264 
L 127.25205 281.958036 
L 127.717055 281.217739 
L 128.252911 279.916264 
L 129.050054 277.163706 
L 130.58677 270.689174 
L 132.433479 262.64896 
L 133.810766 256.605361 
L 135.232343 252.06176 
L 137.234048 246.519115 
L 137.969189 245.025198 
L 138.792909 243.782939 
L 139.79377 242.683008 
L 140.528911 242.17241 
L 141.148912 241.968853 
L 142.016905 241.954523 
L 143.620055 241.936088 
L 144.997343 241.362053 
L 145.621761 240.802889 
L 147.176189 239.617135 
L 147.512775 239.724259 
L 147.889202 240.107478 
L 148.270061 240.726981 
L 148.912191 242.293127 
L 152.02548 250.876509 
L 152.738477 252.063657 
L 153.296477 252.619568 
L 153.761482 252.82239 
L 154.31505 252.827192 
L 154.917339 252.580375 
L 155.43105 252.153624 
L 155.674625 251.746431 
L 156.653341 249.874678 
L 157.432771 248.854528 
L 157.94205 248.448032 
L 158.362766 248.37987 
L 159.053618 248.607362 
L 159.810904 249.114126 
L 160.878198 249.817592 
L 161.524761 250.007014 
L 162.27763 249.881688 
L 162.968482 249.599744 
L 163.969343 248.937523 
L 164.257191 248.60376 
L 164.793046 247.557778 
L 165.550332 245.473637 
L 167.259773 240.540968 
L 167.950625 239.053092 
L 168.552914 238.210629 
L 168.995775 237.98 
L 169.686627 237.885115 
L 170.107343 238.025235 
L 170.55462 238.391104 
L 171.130332 239.19755 
L 171.954052 240.834414 
L 175.023052 247.334585 
L 175.625341 248.028175 
L 176.112475 248.202919 
L 176.533191 248.090567 
L 177.445489 247.630936 
L 178.446334 247.217082 
L 180.337332 246.649708 
L 181.293904 246.241935 
L 182.897054 245.776068 
L 183.5392 245.306329 
L 184.628623 244.136028 
L 186.032487 242.389097 
L 187.343341 240.328774 
L 190.744479 234.161824 
L 192.768345 230.805177 
L 193.702771 229.26556 
L 195.080059 227.329323 
L 195.903763 226.318623 
L 200.22163 221.234409 
L 202.621907 217.759446 
L 205.934482 211.792646 
L 207.04605 210.357906 
L 207.670484 209.872171 
L 208.317046 209.611993 
L 209.092061 209.613852 
L 210.340912 209.899979 
L 211.138055 210.49516 
L 214.632204 213.141137 
L 215.296479 213.319327 
L 216.275195 213.356739 
L 216.966046 213.132462 
L 220.256477 211.431153 
L 221.013763 211.025238 
L 221.948189 210.782061 
L 222.528334 210.83144 
L 223.706336 211.132749 
L 224.884338 211.589979 
L 225.79662 211.852017 
L 227.599055 212.009797 
L 229.064905 211.677815 
L 230.508627 211.338708 
L 231.668916 210.714441 
L 233.046204 210.018992 
L 234.157771 209.619119 
L 235.00362 209.523382 
L 235.982336 209.59623 
L 237.829061 209.960511 
L 238.85205 210.444309 
L 240.495057 211.265201 
L 243.586202 212.122032 
L 246.278775 212.673412 
L 247.456761 212.632049 
L 250.415054 212.213238 
L 251.460204 211.622356 
L 252.505338 211.326005 
L 253.484054 211.242699 
L 254.839196 211.011102 
L 255.884346 210.984457 
L 257.062332 210.951809 
L 257.97463 210.91765 
L 259.019764 210.61731 
L 259.754905 210.14606 
L 260.534336 209.412773 
L 261.911623 208.230892 
L 262.513912 207.928267 
L 263.957618 207.613287 
L 265.024912 207.579244 
L 265.560768 207.806659 
L 266.982345 208.48255 
L 267.651052 208.504858 
L 268.182475 208.350021 
L 269.227625 207.757202 
L 269.852059 207.023295 
L 270.653618 205.814266 
L 271.632334 204.026437 
L 273.275341 200.87234 
L 274.519761 198.996056 
L 275.365625 198.073811 
L 276.654334 197.215469 
L 277.610905 196.589034 
L 279.993486 194.358847 
L 283.261771 190.50783 
L 284.953484 189.365258 
L 285.462763 189.219561 
L 287.021623 189.09137 
L 287.845343 188.952527 
L 289.709764 188.520742 
L 292.0702 187.740245 
L 292.712346 187.455163 
L 293.53605 187.054438 
L 295.82562 185.695064 
L 297.450914 185.170331 
L 299.496909 184.26474 
L 300.342773 183.980123 
L 301.210766 183.664911 
L 302.410912 183.029723 
L 304.501196 181.817556 
L 306.099914 181.208433 
L 307.282332 180.660772 
L 307.769482 180.239249 
L 309.168914 178.705403 
L 310.528489 177.007851 
L 312.375198 174.536927 
L 312.9952 174.11525 
L 313.663907 173.91665 
L 314.709057 173.907432 
L 315.399909 174.14844 
L 316.174907 174.610821 
L 316.799341 175.207861 
L 318.978204 177.362566 
L 323.451052 181.623371 
L 325.8292 184.971653 
L 329.230338 190.568788 
L 330.722764 192.37908 
L 331.298477 192.678529 
L 332.011489 192.808928 
L 332.879482 192.635463 
L 333.588046 192.173121 
L 334.544618 191.287204 
L 336.705768 188.998731 
L 338.658768 187.479485 
L 339.526761 187.259778 
L 340.549766 187.044253 
L 340.95277 186.739343 
L 341.39563 186.035876 
L 342.152916 184.267179 
L 345.221916 176.176038 
L 345.979202 174.980602 
L 346.599204 174.378217 
L 347.157204 174.071409 
L 348.069486 173.907548 
L 348.733761 174.074236 
L 349.424629 174.448316 
L 351.072052 175.667841 
L 351.581346 175.871011 
L 351.979918 175.823336 
L 352.62648 175.764779 
L 353.273059 175.927206 
L 354.938195 176.862076 
L 357.697202 178.954854 
L 358.184336 179.635393 
L 359.008055 181.231631 
L 360.163912 184.114627 
L 362.209907 189.21503 
L 363.033627 190.538541 
L 363.990198 191.651718 
L 364.632345 192.048918 
L 365.278907 192.195661 
L 365.836907 192.101938 
L 366.479054 191.717247 
L 368.547193 190.446135 
L 369.215916 190.404734 
L 371.99262 190.124649 
L 373.175054 189.584385 
L 375.663909 187.989618 
L 377.4442 186.754989 
L 378.201486 186.703983 
L 378.755054 186.899176 
L 379.490195 187.484249 
L 380.402477 188.526513 
L 383.31648 192.156274 
L 384.069334 192.79518 
L 385.003761 193.142382 
L 386.319046 193.528738 
L 386.717618 194.091968 
L 387.408486 195.535887 
L 388.254334 197.933924 
L 389.897341 202.741925 
L 390.698916 204.472164 
L 391.500475 205.727552 
L 392.076204 206.269637 
L 392.634204 206.49221 
L 393.302911 206.496547 
L 393.812189 206.250272 
L 394.348061 205.740139 
L 395.171764 204.569838 
L 396.726193 202.641347 
L 397.239904 202.387752 
L 398.462195 201.972969 
L 399.684486 201.406059 
L 402.062618 199.993395 
L 403.222907 199.393024 
L 403.754346 198.775574 
L 404.378764 197.740319 
L 405.268918 195.756834 
L 407.115627 191.542271 
L 408.045621 189.863076 
L 408.980048 188.62651 
L 410.180195 187.446953 
L 411.672621 186.417547 
L 414.139332 185.581009 
L 416.566202 184.003205 
L 417.296911 183.776488 
L 418.4572 183.472236 
L 419.679475 182.974845 
L 421.858338 181.927081 
L 423.368477 181.791066 
L 424.125763 181.521709 
L 424.949482 180.967889 
L 425.83962 180.219459 
L 428.417054 177.461285 
L 429.262918 176.728153 
L 430.108766 176.295787 
L 431.441764 176.058458 
L 432.509059 176.25698 
L 433.332763 176.492296 
L 434.825189 176.343423 
L 437.424768 175.340081 
L 438.691332 174.818639 
L 438.939339 175.017007 
L 439.293621 175.671481 
L 439.740914 177.034845 
L 440.383061 179.786357 
L 441.738204 187.068032 
L 443.164196 194.301994 
L 443.987916 197.512711 
L 444.652191 199.228582 
L 445.232336 200.167674 
L 445.74163 200.565223 
L 446.100345 200.606856 
L 446.543189 200.435753 
L 447.145479 199.905442 
L 447.632629 199.245352 
L 449.346486 196.937437 
L 449.789346 196.711688 
L 450.723773 196.689612 
L 451.414625 196.599065 
L 453.659905 196.310614 
L 455.174477 196.446552 
L 456.241771 196.387219 
L 457.198343 196.510957 
L 458.3542 196.69821 
L 458.996346 196.822025 
L 461.046773 197.601748 
L 462.623346 198.274 
L 464.27077 198.47291 
L 464.979334 198.263349 
L 466.024484 197.899107 
L 466.383198 198.182174 
L 466.803914 198.837966 
L 467.583345 200.151098 
L 468.141345 200.534472 
L 468.562061 200.567314 
L 469.071339 200.385987 
L 469.385764 200.435017 
L 469.762191 200.750965 
L 470.320191 201.552918 
L 471.232489 203.328121 
L 471.830346 204.446487 
L 472.184629 204.705504 
L 472.941914 204.787028 
L 473.185489 204.585175 
L 473.499914 203.955331 
L 473.942775 202.450454 
L 474.589338 199.326256 
L 475.900191 191.506021 
L 477.033904 185.343835 
L 478.637054 178.162079 
L 479.190621 176.744806 
L 479.593625 176.227934 
L 479.881489 176.161708 
L 480.125048 176.342803 
L 480.638775 177.099599 
L 481.369484 178.594678 
L 482.662625 181.164824 
L 483.68563 182.463976 
L 484.017768 182.638099 
L 484.194909 182.569743 
L 484.482773 182.14582 
L 484.93005 180.997362 
L 485.527907 178.707843 
L 485.930911 176.887908 
L 489.154907 161.949162 
L 489.845775 160.372443 
L 490.310764 159.720098 
L 490.691623 159.508911 
L 491.090195 159.586755 
L 491.488766 159.894532 
L 492.024621 160.611553 
L 492.693345 161.905902 
L 494.827918 166.358762 
L 495.270763 166.727807 
L 497.161761 167.522208 
L 498.853489 168.172345 
L 499.854334 168.321721 
L 500.341484 168.583953 
L 500.943773 169.170962 
L 504.969345 173.428863 
L 505.832905 173.889152 
L 507.883332 174.735217 
L 508.928482 174.992143 
L 509.70348 175.409095 
L 510.416477 176.057567 
L 511.572334 177.344828 
L 511.882343 177.307997 
L 512.196768 177.051149 
L 513.197629 176.040255 
L 513.684763 175.991418 
L 514.194057 176.236532 
L 514.884909 176.72153 
L 515.194918 176.648139 
L 515.62005 176.307173 
L 516.377336 175.26607 
L 517.311763 174.029001 
L 517.643916 173.936324 
L 518.020343 174.117883 
L 518.556198 174.529568 
L 518.866191 175.285009 
L 519.313484 177.050956 
L 519.95563 180.556398 
L 521.155761 188.540842 
L 522.493191 197.160126 
L 523.914768 204.371122 
L 524.517057 206.409214 
L 524.982046 207.315077 
L 525.336345 207.576533 
L 525.584336 207.529168 
L 525.938618 207.199743 
L 526.585196 206.221768 
L 527.718909 204.41229 
L 528.228204 203.935192 
L 529.029763 203.587216 
L 529.384061 203.577379 
L 529.764904 203.870825 
L 530.96505 204.94477 
L 533.033189 206.16077 
L 534.609763 206.587327 
L 535.632768 206.770707 
L 536.257202 206.766873 
L 538.391775 206.304182 
L 544.396907 205.024705 
L 546.022202 205.027959 
L 546.730766 204.777036 
L 548.245338 204.286732 
L 551.735054 204.086002 
L 553.984766 204.251954 
L 556.185773 204.413491 
L 557.075911 204.352532 
L 558.873914 204.54966 
L 559.941193 204.944847 
L 560.831346 205.471246 
L 562.523059 206.658433 
L 563.745334 207.440092 
L 564.50262 207.861305 
L 565.437046 207.967886 
L 566.079193 207.92269 
L 567.102198 207.572893 
L 568.2802 206.932322 
L 568.948907 206.649448 
L 569.61763 206.48915 
L 572.150775 206.405535 
L 574.4182 206.211699 
L 575.467766 206.144388 
L 578.000911 205.686268 
L 578.935338 205.697925 
L 580.759918 205.9052 
L 582.314346 205.859733 
L 583.337336 205.940056 
L 584.471048 206.125837 
L 585.361202 206.240319 
L 587.495775 206.097101 
L 588.297334 206.132227 
L 589.696766 206.655528 
L 591.609909 208.024933 
L 592.411484 209.076763 
L 596.995055 215.784752 
L 597.659346 216.211231 
L 598.106623 216.274281 
L 598.859477 216.18141 
L 600.019766 215.64529 
L 601.77348 214.77773 
L 602.907193 214.454347 
L 605.976193 213.709595 
L 607.579343 213.563589 
L 609.222334 213.561071 
L 610.023909 213.611031 
L 611.113332 214.142543 
L 612.335623 215.14999 
L 613.650909 216.057052 
L 614.585336 216.615325 
L 618.16363 217.787602 
L 619.208764 217.837987 
L 619.788909 217.705845 
L 621.099763 216.971357 
L 623.322914 215.280738 
L 624.190907 214.571733 
L 625.191768 214.022639 
L 626.32548 213.777564 
L 627.038477 213.852001 
L 629.726618 214.343505 
L 630.705334 214.295017 
L 631.484764 214.275343 
L 633.198621 214.313878 
L 633.97362 214.010439 
L 636.378345 212.871663 
L 637.866339 211.721191 
L 638.889345 210.711498 
L 643.003479 206.128974 
L 643.893632 205.711519 
L 644.805914 205.489797 
L 645.474621 205.647539 
L 646.138912 205.992262 
L 647.36562 206.726169 
L 649.544482 207.265 
L 650.31948 207.260624 
L 652.768479 206.80901 
L 653.477059 206.913035 
L 655.168771 206.965435 
L 656.302484 207.085029 
L 657.369763 207.229719 
L 658.702761 207.387112 
L 660.638048 208.112653 
L 661.439623 208.353623 
L 662.529046 208.60625 
L 663.19777 208.90415 
L 664.375771 209.424701 
L 665.3722 209.90602 
L 666.195904 210.635977 
L 667.329632 212.060144 
L 670.110768 215.254402 
L 671.488055 215.958295 
L 672.156763 216.07204 
L 673.024771 216.001322 
L 673.804202 216.035674 
L 675.668623 216.464013 
L 676.204479 216.82934 
L 679.052048 218.609151 
L 680.185761 219.174628 
L 681.05377 219.246895 
L 681.585193 219.167967 
L 682.563909 218.682813 
L 683.188343 218.069081 
L 686.36805 214.96235 
L 687.014629 214.565924 
L 687.993345 214.217599 
L 689.149202 214.25594 
L 689.857766 214.444471 
L 690.902916 214.940158 
L 692.373198 215.198943 
L 693.06405 215.415784 
L 696.642345 216.420366 
L 697.510338 216.639724 
L 698.174629 216.7343 
L 699.179905 216.88325 
L 703.001775 218.04077 
L 704.046909 218.533088 
L 704.715632 218.619957 
L 707.425918 218.324767 
L 708.874055 218.322444 
L 709.471912 218.306952 
L 711.832332 218.643659 
L 713.856198 219.270094 
L 716.947343 220.203415 
L 717.970332 220.193151 
L 719.059771 219.945211 
L 719.746191 219.544951 
L 721.194345 218.569571 
L 723.063198 217.106675 
L 723.749618 216.65905 
L 724.816912 216.254607 
L 725.330623 216.258093 
L 726.110054 216.533531 
L 727.110914 217.475681 
L 728.200338 218.809611 
L 730.888479 222.77085 
L 731.756487 223.531867 
L 732.447339 223.83488 
L 733.045196 223.870394 
L 733.625341 223.603709 
L 734.471189 222.991874 
L 734.936195 222.260872 
L 735.494195 220.950528 
L 735.73777 220.35922 
L 735.73777 220.35922 
" clip-path="url(#p581863f95b)" style="fill: none; stroke: #474d6b; stroke-width: 1.5; stroke-linecap: square"/>
   </g>
   <g id="patch_3">
    <path d="M 66.115625 290.098828 
L 66.115625 12.898828 
" style="fill: none; stroke: #000000; stroke-width: 0.8; stroke-linejoin: miter; stroke-linecap: square"/>
   </g>
   <g id="patch_4">
    <path d="M 735.715625 290.098828 
L 735.715625 12.898828 
" style="fill: none; stroke: #000000; stroke-width: 0.8; stroke-linejoin: miter; stroke-linecap: square"/>
   </g>
   <g id="patch_5">
    <path d="M 66.115625 290.098828 
L 735.715625 290.098828 
" style="fill: none; stroke: #000000; stroke-width: 0.8; stroke-linejoin: miter; stroke-linecap: square"/>
   </g>
   <g id="patch_6">
    <path d="M 66.115625 12.898828 
L 735.715625 12.898828 
" style="fill: none; stroke: #000000; stroke-width: 0.8; stroke-linejoin: miter; stroke-linecap: square"/>
   </g>
  </g>
 </g>
 <defs>
  <clipPath id="p581863f95b">
   <rect x="66.115625" y="12.898828" width="669.6" height="277.2"/>
  </clipPath>
 </defs>
</svg>
